<svg width="338" height="123" viewBox="0 0 338 123" fill="none" xmlns="http://www.w3.org/2000/svg">
<path d="M71.0907 77.6807C70.9891 78.0185 71.041 78.2111 71.3212 78.4336C72.096 79.0406 77.2592 80.7384 78.5253 81.1201C81.6917 82.0703 84.0673 82.9402 87.4012 81.8857C90.0487 81.0481 92.9903 78.2828 93.5673 75.5557L94.3583 77.917C95.1877 81.1001 92.2572 82.3366 91.9139 85.3027C91.4993 88.9058 93.2539 89.9001 93.5643 92.7178L93.5673 92.7041C94.383 100.114 87.327 103.012 85.8768 109.598L88.0721 108.361C68.7041 127.688 35.0706 127.559 15.8426 108.087C16.0981 107.648 16.4581 108.189 16.6942 108.337C20.3825 110.636 23.6176 113.813 27.3993 116.032C39.3188 123.03 57.863 124.044 70.6395 118.944C72.2132 118.315 77.7315 115.39 78.3192 113.989C79.4149 111.375 76.2422 103.525 74.8387 101.004C74.5609 100.504 73.0818 98.6364 73.0653 98.4854C72.9997 97.8892 74.8485 93.8861 74.6171 93.6768C72.5216 93.1467 72.7109 95.8379 72.1425 97.2441C70.9477 96.7278 70.1835 96.0877 68.8514 95.7334C65.4487 94.83 61.425 95.8018 58.4755 93.2725C58.6871 92.6046 60.0271 89.0868 59.7772 88.749C59.6959 88.6388 58.8487 88.3352 58.5497 88.7275C58.2091 89.1707 57.627 92.586 57.1766 92.5723C52.1974 88.3236 49.0968 85.3657 52.6971 78.7607C56.9459 70.9635 66.7043 68.434 74.8915 67.3135L71.0907 77.6807ZM91.2411 0C92.1172 0.508096 97.4977 1.81826 97.6708 2.37305L93.578 16.1992L100.967 18.4014C101.84 16.8379 105.224 6.09188 105.913 5.625C106.49 5.23535 111.759 6.64607 111.928 6.90723C112.455 7.72567 110.23 13.4938 109.846 14.7764C109.516 15.8831 109.469 17.1522 109.137 18.1875C108.919 18.8576 107.97 19.665 108.159 20.4092C108.513 21.8017 116.512 25.4185 118.209 26.583C127.22 32.7653 128.799 43.3618 123.172 52.5459C119.678 58.2474 115.566 59.1395 109.227 60.1611V60.1729C109.771 63.8309 113.559 65.6494 115.481 68.8682C121.559 79.0521 113.575 98.8867 101.117 98.8867C100.325 98.8867 95.995 98.7576 95.7616 98.8867C95.7297 98.91 95.3198 100.402 95.2157 99.3037C97.4072 95.8158 98.5849 91.292 99.0546 87.2109C99.2825 85.2226 99.1314 82.8856 99.4032 80.9688C99.6394 79.3072 101.065 77.3243 101.194 75.8906C101.266 75.1079 100.156 71.5676 99.6288 71.0566C99.0466 70.4937 95.908 70.5541 94.9491 70.3125C94.7953 61.9935 85.2207 59.1126 78.4452 57.8135C77.8108 58.4267 76.8741 62.7902 76.3798 62.8945C76.0775 62.9573 75.3966 62.474 74.9628 62.4219C71.884 62.0621 66.9677 64.6164 64.3475 62.6006C63.4412 61.903 64.768 60.0348 65.3915 59.5898C65.9545 59.1918 66.6192 59.4304 67.2069 59.208C71.2824 57.6618 71.1149 56.2611 73.9354 53.8525C75.6025 52.4271 78.4071 51.3427 79.7391 49.9062C80.2226 49.3843 81.6863 46.4542 81.8895 46.4404C88.5468 51.1175 97.9062 52.8226 101.057 43.3506C103.232 36.814 100.648 32.8534 94.5311 30.4941C93.6024 30.137 88.8678 28.7116 88.2499 28.8818C87.4976 29.0884 87.1346 31.93 86.6815 32.6826L86.0585 32.6523C81.1726 28.9584 76.4757 25.3033 70.7577 22.9551C70.0651 22.6721 67.0389 21.8698 66.9208 21.7051C66.8066 21.5476 67.3216 20.744 67.1981 20.6123C67.1508 20.565 66.0473 20.3187 65.9843 20.3242C65.7376 20.3467 65.751 20.8973 65.5565 21.0322C65.1088 21.3426 61.7821 20.2607 60.9471 20.1289C53.9271 19.0277 40.5689 19.0029 34.2274 22.3809C30.7092 24.2539 32.3787 25.1057 33.4169 28.0225C37.1657 27.1409 38.9566 23.013 42.87 22.5156C43.9686 26.0476 40.4704 28.8246 39.7948 32.3428C38.8309 37.3496 40.832 45.2674 36.1356 48.7334C33.1806 50.9137 30.7832 49.0715 27.8007 49.1621C26.7488 49.1951 24.2627 49.9394 23.4305 50.582C21.5109 52.0657 19.4952 58.6399 18.4022 59.0107C16.9466 59.5051 11.7804 58.2715 10.0721 57.8184C8.18825 57.3185 4.87369 55.7155 3.27234 55.5312C2.94292 55.4928 2.72846 55.4212 2.5116 55.7529C1.4597 60.6499 -0.746045 68.0221 3.20886 72.1006C5.47474 74.4348 10.281 74.0664 13.0741 75.9668C14.678 77.0571 15.4852 79.1508 17.0809 80.4746C19.9537 82.8667 28.3079 85.3298 27.3143 90.166C26.8447 92.4538 22.8319 95.4508 21.1923 97.2305C18.6244 100.015 15.9995 103.611 15.2909 107.396C14.8653 107.497 14.8508 107.329 14.6259 107.102C-1.81996 90.5486 -4.62955 63.7863 7.38074 43.8662C19.1796 24.298 42.376 14.691 64.7264 20.0547L61.7411 18.377L61.6835 18.0029L66.0038 6.85547L86.5311 13.4492L91.2411 0ZM180.307 66.0029C184.5 65.8163 189.441 67.5385 190.605 72.0205C191.44 75.2421 191.415 86.6513 190.295 89.7383H190.292C187.836 96.4833 175.096 96.9802 172.43 90.7432C171.18 87.8182 171.251 77.4994 171.569 74.0361C172.042 68.9115 175.234 66.2309 180.307 66.0029ZM150.455 73.2402C151.381 64.3252 165.709 63.8366 168.683 70.873C168.788 71.1223 169.372 73.0811 169.373 73.2041V77.1865L169.367 77.1895H161.402V72.6582C161.402 71.3893 159.351 69.9611 158.958 72.6855C158.516 75.7344 158.625 84.2977 158.922 87.5C159.021 88.5684 159.658 90.6796 161.089 89.7793C161.144 89.7436 161.68 88.6528 161.68 88.5869V82.957H169.37V88.0381C169.37 88.1764 168.532 90.3346 168.381 90.6201C165.302 96.4065 154.047 96.637 151.386 90.6416C150.018 87.56 150.079 76.8492 150.455 73.2402ZM278.901 65.9922C282.988 65.8933 287.286 67.5632 288.689 71.7021C289.478 74.0228 289.346 84.0712 289.121 86.9473L289.124 86.9502C288.569 94.0004 282.057 95.9619 275.916 94.6436C273.238 94.0695 271.195 92.822 270.303 90.0947C269.119 86.4719 269.187 74.1817 270.662 70.6855C272.052 67.3928 275.477 66.0746 278.901 65.9922ZM338 94.4922H329.897C329.329 94.4915 329.609 92.8363 329.346 92.8418C325.039 96.5466 318.981 95.4285 318.489 89.1475C318.127 84.5059 318.094 76.1676 318.489 71.5508C319.003 65.5609 325.573 64.5146 329.486 68.1289V60.4385H338V94.4922ZM244.205 80.4854L246.68 60.4336H255.881L257.243 80.6309L257.801 81.5811L260 60.4336H268.515L264.944 93.8027V93.8057L264.685 94.3711C264.259 94.6649 255.425 94.6375 254.356 94.5029C254.062 94.4672 253.724 94.5198 253.529 94.2314L251.074 77.7334L248.619 94.2314H237.598L233.635 60.4336H242.423L244.205 80.4854ZM134.762 94.4922H125.973V66.4785H134.762V94.4922ZM146.571 67.3018C146.571 67.4252 149.037 67.1792 149.043 67.3018V71.6963C149.043 71.8199 146.928 72.0923 146.568 71.9688C146.89 77.0908 146.146 82.7071 146.56 87.7715C146.835 91.1273 149.318 89.4693 149.318 89.8203V94.4922H143.139C143.023 94.4922 141.29 94.1567 141.067 94.0908C139.821 93.7145 138.448 92.2154 138.179 90.9385L138.057 72.3828C138.148 71.3204 136.135 71.8089 136.135 71.6963V67.3018C136.14 67.2066 138.057 67.3977 138.057 67.3018V62.9082H146.571V67.3018ZM202.613 94.4922H193.536V66.4785H202.613V94.4922ZM213.862 68.6758C215.76 65.6328 221.876 65.0529 223.859 68.1533C224.178 68.6504 224.845 70.7787 224.846 71.2871V94.4922H216.332V72.3828C216.332 70.4854 213.859 71.0187 213.859 72.6582V94.4922H205.346V66.4785H213.723C214.324 66.4789 213.689 68.187 213.862 68.6758ZM305.317 65.9287C305.045 67.1973 305.677 75.7277 305.317 76.0908C305.172 76.2364 302.631 75.8687 301.392 76.9014C301.178 77.0799 300.373 78.8232 300.373 78.9746V94.4922H291.859V66.4785H300.373L300.236 69.499C301.423 67.2719 302.895 66.456 305.317 65.9287ZM316.042 94.4922H306.965V60.4365H316.042V94.4922ZM327 89.8477H329.503V71.1553H327V89.8477ZM280.574 72.6826C280.305 70.7876 278.717 70.7077 278.404 71.8311L278.401 71.834V89.4111C278.401 89.8231 279.624 89.9847 280.063 89.6963C280.511 89.3993 280.576 88.0412 280.612 87.5C280.851 83.9462 281.049 76.0252 280.574 72.6826ZM180.065 89.835H182.292V71.1289H180.065V89.835ZM134.762 65.1055H125.973V60.4365H134.762V65.1055ZM202.187 60.4365C202.885 60.4373 202.64 64.4683 202.324 65.1055H193.536V60.4365H202.187ZM82.1669 45.877C80.92 44.3032 76.3801 41.5155 76.9266 39.2881C77.608 36.5061 83.554 35.6243 85.8719 34.6191L82.1669 45.877Z" fill="white"/>
</svg>
