<svg width="189" height="199" viewBox="0 0 189 199" fill="none" xmlns="http://www.w3.org/2000/svg">
<path d="M4.58991 166.789V136.19H18.3159C21.8422 136.19 24.5524 136.904 26.4466 138.332C28.3409 139.73 29.288 141.654 29.288 144.102C29.288 145.763 28.9092 147.162 28.1515 148.298C27.4229 149.435 26.4321 150.309 25.1789 150.921C23.9258 151.533 22.5707 151.839 21.1136 151.839L21.9004 150.528C23.649 150.528 25.1935 150.834 26.5341 151.446C27.8746 152.058 28.9383 152.961 29.7251 154.156C30.512 155.322 30.9054 156.779 30.9054 158.527C30.9054 161.15 29.9146 163.19 27.9329 164.647C25.9804 166.075 23.0661 166.789 19.1902 166.789H4.58991ZM8.96126 163.248H19.0154C21.4342 163.248 23.2847 162.84 24.567 162.024C25.8492 161.208 26.4904 159.926 26.4904 158.178C26.4904 156.4 25.8492 155.103 24.567 154.287C23.2847 153.471 21.4342 153.063 19.0154 153.063H8.56784V149.522H17.9225C20.1373 149.522 21.8567 149.114 23.0807 148.298C24.3047 147.482 24.9167 146.258 24.9167 144.626C24.9167 142.994 24.3047 141.77 23.0807 140.954C21.8567 140.138 20.1373 139.73 17.9225 139.73H8.96126V163.248ZM37.6738 166.789V136.19H42.0452V166.789H37.6738ZM57.2824 166.789V139.993H46.7912V136.19H72.1012V139.993H61.61V166.789H57.2824ZM90.1177 167.139C87.7863 167.139 85.6298 166.76 83.6481 166.002C81.6955 165.215 79.9907 164.123 78.5336 162.724C77.1056 161.296 75.9837 159.635 75.1677 157.74C74.3517 155.846 73.9437 153.762 73.9437 151.489C73.9437 149.216 74.3517 147.133 75.1677 145.238C75.9837 143.344 77.1202 141.698 78.5773 140.299C80.0344 138.871 81.7393 137.778 83.6918 137.02C85.6735 136.233 87.83 135.84 90.1614 135.84C92.5219 135.84 94.693 136.248 96.6747 137.064C98.6855 137.851 100.39 139.031 101.789 140.605L98.9478 143.359C97.7821 142.135 96.4707 141.231 95.0136 140.648C93.5565 140.036 91.9974 139.73 90.3362 139.73C88.6168 139.73 87.014 140.022 85.5278 140.605C84.0706 141.188 82.803 142.004 81.7247 143.053C80.6464 144.102 79.8013 145.355 79.1893 146.812C78.6065 148.24 78.315 149.799 78.315 151.489C78.315 153.18 78.6065 154.753 79.1893 156.21C79.8013 157.638 80.6464 158.877 81.7247 159.926C82.803 160.975 84.0706 161.791 85.5278 162.374C87.014 162.957 88.6168 163.248 90.3362 163.248C91.9974 163.248 93.5565 162.957 95.0136 162.374C96.4707 161.762 97.7821 160.829 98.9478 159.576L101.789 162.33C100.39 163.904 98.6855 165.099 96.6747 165.915C94.693 166.731 92.5073 167.139 90.1177 167.139ZM121.198 167.139C118.867 167.139 116.696 166.745 114.685 165.959C112.703 165.172 110.984 164.079 109.527 162.68C108.07 161.252 106.933 159.591 106.117 157.697C105.301 155.802 104.893 153.733 104.893 151.489C104.893 149.245 105.301 147.176 106.117 145.282C106.933 143.388 108.07 141.741 109.527 140.342C110.984 138.914 112.703 137.807 114.685 137.02C116.667 136.233 118.838 135.84 121.198 135.84C123.53 135.84 125.672 136.233 127.624 137.02C129.606 137.778 131.325 138.871 132.782 140.299C134.269 141.698 135.405 143.344 136.192 145.238C137.008 147.133 137.416 149.216 137.416 151.489C137.416 153.762 137.008 155.846 136.192 157.74C135.405 159.635 134.269 161.296 132.782 162.724C131.325 164.123 129.606 165.215 127.624 166.002C125.672 166.76 123.53 167.139 121.198 167.139ZM121.198 163.248C122.889 163.248 124.448 162.957 125.876 162.374C127.333 161.791 128.586 160.975 129.635 159.926C130.713 158.848 131.544 157.595 132.127 156.167C132.739 154.739 133.045 153.18 133.045 151.489C133.045 149.799 132.739 148.24 132.127 146.812C131.544 145.384 130.713 144.145 129.635 143.096C128.586 142.018 127.333 141.188 125.876 140.605C124.448 140.022 122.889 139.73 121.198 139.73C119.479 139.73 117.891 140.022 116.434 140.605C115.006 141.188 113.752 142.018 112.674 143.096C111.596 144.145 110.751 145.384 110.139 146.812C109.556 148.24 109.265 149.799 109.265 151.489C109.265 153.18 109.556 154.739 110.139 156.167C110.751 157.595 111.596 158.848 112.674 159.926C113.752 160.975 115.006 161.791 116.434 162.374C117.891 162.957 119.479 163.248 121.198 163.248ZM144.097 166.789V136.19H148.469V166.789H144.097ZM157.63 166.789V136.19H161.214L181.454 161.325H179.574V136.19H183.945V166.789H180.361L160.121 141.654H162.001V166.789H157.63Z" fill="white"/>
<path d="M63.5798 193.11V181.48H59.0066V179.312H70.7155V181.48H66.1423V193.11H63.5798ZM78.9117 193.307C77.8342 193.307 76.842 193.13 75.9352 192.775C75.0285 192.42 74.24 191.928 73.5698 191.297C72.8996 190.653 72.3805 189.904 72.0125 189.05C71.6446 188.182 71.4606 187.236 71.4606 186.211C71.4606 185.186 71.6446 184.247 72.0125 183.392C72.3805 182.525 72.8996 181.776 73.5698 181.145C74.24 180.501 75.0285 180.002 75.9352 179.647C76.842 179.292 77.8276 179.115 78.892 179.115C79.9696 179.115 80.9552 179.292 81.8488 179.647C82.7556 180.002 83.5441 180.501 84.2143 181.145C84.8845 181.776 85.4036 182.525 85.7715 183.392C86.1395 184.247 86.3235 185.186 86.3235 186.211C86.3235 187.236 86.1395 188.182 85.7715 189.05C85.4036 189.917 84.8845 190.666 84.2143 191.297C83.5441 191.928 82.7556 192.42 81.8488 192.775C80.9552 193.13 79.9762 193.307 78.9117 193.307ZM78.892 191.06C79.5885 191.06 80.2325 190.942 80.8238 190.705C81.4152 190.469 81.9277 190.134 82.3613 189.7C82.795 189.253 83.1301 188.741 83.3667 188.163C83.6164 187.571 83.7412 186.921 83.7412 186.211C83.7412 185.502 83.6164 184.858 83.3667 184.279C83.1301 183.688 82.795 183.175 82.3613 182.742C81.9277 182.295 81.4152 181.953 80.8238 181.717C80.2325 181.48 79.5885 181.362 78.892 181.362C78.1955 181.362 77.5516 181.48 76.9603 181.717C76.382 181.953 75.8695 182.295 75.4227 182.742C74.989 183.175 74.6474 183.688 74.3977 184.279C74.1611 184.858 74.0429 185.502 74.0429 186.211C74.0429 186.908 74.1611 187.552 74.3977 188.143C74.6474 188.734 74.989 189.253 75.4227 189.7C75.8564 190.134 76.3689 190.469 76.9603 190.705C77.5516 190.942 78.1955 191.06 78.892 191.06ZM89.0397 193.11V179.312H95.0716C96.5697 179.312 97.8839 179.601 99.014 180.179C100.144 180.757 101.025 181.559 101.655 182.584C102.286 183.609 102.602 184.818 102.602 186.211C102.602 187.591 102.286 188.8 101.655 189.838C101.025 190.863 100.144 191.665 99.014 192.243C97.8839 192.821 96.5697 193.11 95.0716 193.11H89.0397ZM91.6023 190.942H94.9533C95.9915 190.942 96.8851 190.745 97.6342 190.351C98.3964 189.956 98.9812 189.404 99.3886 188.695C99.8091 187.985 100.019 187.157 100.019 186.211C100.019 185.252 99.8091 184.424 99.3886 183.727C98.9812 183.018 98.3964 182.466 97.6342 182.072C96.8851 181.677 95.9915 181.48 94.9533 181.48H91.6023V190.942ZM103.181 193.11L109.391 179.312H111.914L118.143 193.11H115.462L110.12 180.672H111.145L105.823 193.11H103.181ZM106.04 189.917L106.729 187.906H114.181L114.871 189.917H106.04ZM122.46 193.11V187.65L123.032 189.227L117.039 179.312H119.779L124.589 187.295H123.052L127.901 179.312H130.424L124.431 189.227L125.023 187.65V193.11H122.46Z" fill="white"/>
<path d="M53.3022 62.6127L94.3598 94.6954L127.459 68.9171L121.372 64.3123L94.3598 85.3493L65.3409 62.7479L94.361 40.7892L143.923 78.2927L94.3598 116.891L40.0641 74.5014V50.2434L48.9198 43.633L94.361 9.24726L143.923 46.7508L131.409 56.495L137.494 61.1011L156.029 46.666L94.361 0.00195312L32.6904 46.666V78.2079L94.3598 126.237L156.029 78.2079L94.361 31.5439L53.3022 62.6127Z" fill="white"/>
</svg>
