<svg width="440" height="74" viewBox="0 0 440 74" fill="none" xmlns="http://www.w3.org/2000/svg">
<g clip-path="url(#clip0_192_73)">
<mask id="mask0_192_73" style="mask-type:luminance" maskUnits="userSpaceOnUse" x="0" y="0" width="439" height="74">
<path d="M438.961 0H0V73.6214H438.961V0Z" fill="white"/>
</mask>
<g mask="url(#mask0_192_73)">
<path d="M434.275 18.8789V23.1798H438.935V36.2363C438.935 36.2686 438.502 36.6975 438.469 36.6975H429.927V40.9984H434.275V45.2993H438.935C438.832 46.0494 439.264 49.9076 438.469 49.9076H425.267V45.6067H420.918V40.9984H416.569V49.4465C416.569 49.4788 416.136 49.9076 416.103 49.9076H407.716C407.683 49.9076 407.25 49.4788 407.25 49.4465V18.8789H434.275ZM429.616 23.4873H416.569V36.39H425.267V32.0891H429.616V23.4873Z" fill="white"/>
<path d="M323.997 18.8789V23.1798H328.346V36.2363C328.346 36.2686 327.912 36.6975 327.88 36.6975H319.337C319.485 37.5705 319.005 40.4342 319.628 40.8646C320.251 41.295 323.043 40.8216 323.997 40.9984V45.2993H328.346V49.9076H315.144C314.364 49.9076 314.77 46.3261 314.679 45.6052C313.797 45.4607 310.899 45.9372 310.464 45.3193L310.329 40.9984H305.98V49.9076H296.972V18.8789H323.997ZM319.337 23.4873H305.98V36.39H314.678V32.0891C315.436 31.9876 319.337 32.415 319.337 31.628V23.4873Z" fill="white"/>
<path d="M102.822 18.8789V23.1798H107.482V32.0891H102.822V36.39H107.482V45.1456C107.482 45.9326 103.58 45.5053 102.822 45.6067V49.9076H76.1074V18.8789H102.822ZM98.4732 23.4873H85.1159V32.0891H98.0071C98.0397 32.0891 98.4732 31.6602 98.4732 31.628V23.4873ZM98.4732 36.6975H85.1159V45.2993H98.4732V36.6975Z" fill="white"/>
<path d="M249.754 18.8789V23.1798H254.413V45.1456C254.413 45.9326 250.512 45.5053 249.754 45.6067V49.9076H227.388V45.6067C226.63 45.5053 222.729 45.9326 222.729 45.1456V23.1798H227.388V18.8789H249.754ZM245.094 23.4873H232.048V45.3008H245.094V23.4873Z" fill="white"/>
<path d="M269.014 18.8789V45.3008H282.061V18.8789H291.38V45.1471C291.38 45.9341 287.479 45.5068 286.721 45.6083V49.9092H264.355V45.6083H260.006V18.8789H269.014Z" fill="white"/>
<path d="M401.657 18.8789V23.4873H379.292V31.628C379.292 31.6602 379.725 32.0891 379.758 32.0891H397.309C397.206 32.8392 397.638 36.6975 396.842 36.6975H379.292V45.2993H401.657V49.9076H370.749C370.717 49.9076 370.283 49.4788 370.283 49.4465V18.8789H401.657Z" fill="white"/>
<path d="M365.003 18.8789C364.9 19.629 365.332 23.4873 364.536 23.4873H356.305V45.3008H365.003V49.9092H338.443C337.648 49.9092 338.08 46.051 337.977 45.3008H346.986V23.4873H338.443C337.648 23.4873 338.08 19.629 337.977 18.8789H365.003Z" fill="white"/>
<path d="M213.409 18.8789V23.1798H217.758V27.7882H209.216C208.436 27.7882 208.841 24.2066 208.751 23.4857L200.231 23.4826C199.677 23.5641 200.495 27.1503 199.761 27.6544L195.392 27.7882V40.5372C195.392 41.3242 199.294 40.8969 200.052 40.9984V45.2993H208.75V40.9984H217.758V45.6067H213.409V49.9076H195.392V45.6067H191.043V40.9984H186.384V27.9419C186.384 27.1549 190.285 27.5822 191.043 27.4808V23.1798H195.392V18.8789H213.409Z" fill="white"/>
<path d="M144.136 18.8789C144.034 19.629 144.466 23.4873 143.67 23.4873H135.128V45.3008H144.136V49.9092H117.577C116.782 49.9092 117.213 46.051 117.111 45.3008H126.119V23.4873H117.577C116.782 23.4873 117.213 19.629 117.111 18.8789H144.136Z" fill="white"/>
<path d="M181.103 18.8789C181.001 19.629 181.433 23.4873 180.637 23.4873H172.405V49.448C172.405 49.4803 171.972 49.9092 171.939 49.9092H163.552C163.52 49.9092 163.086 49.4803 163.086 49.448V23.4873H154.544C153.748 23.4873 154.18 19.629 154.078 18.8789H181.103Z" fill="white"/>
<path d="M53.7401 0.138672V4.1337L57.7798 4.13063C57.7798 6.14891 57.7783 10.6835 57.7783 12.1207C54.9272 12.3835 52.0062 12.402 49.1707 12.1545L49.037 8.75128L41.4813 8.89269L41.197 8.35777L33.2373 8.43309V24.4086H45.1962C45.2289 24.4086 45.6624 24.8375 45.6624 24.8698V32.7046H33.2373V60.9695L41.197 61.0448L41.4813 60.5099L49.0805 60.6283V53.4283L49.7005 52.9825L61.8972 52.8288C62.0774 58.3103 62.0494 63.7902 61.8148 69.2655C60.9882 69.5437 58.8053 69.0641 57.7767 69.2655V73.5664C42.7709 73.4357 27.7387 73.7416 12.7344 73.5664C12.4625 73.4788 12.4671 73.3773 12.7344 73.259C13.0311 72.2737 16.3888 72.3152 16.7725 73.259C16.5317 73.2574 16.1666 73.2052 16.151 73.0515C15.8807 70.3 15.8512 64.3605 16.151 61.6382L16.7725 61.277L16.4354 61.8918C15.3493 61.8088 14.3223 61.8641 13.3543 62.0578V72.8977L12.7344 73.259L11.9808 73.282C11.5287 72.6948 11.6607 61.237 12.0834 60.6144C12.4423 60.0857 16.019 60.2302 16.7725 60.9711L17.1175 60.3593C19.8302 60.9311 20.8246 60.1103 20.1037 57.8968C18.5329 58.1658 17.4235 57.9613 16.7725 57.2835C16.6311 55.9661 20.5123 55.9046 20.8106 56.976C22.1764 56.2059 23.4799 56.2151 24.8488 56.976L24.2273 56.7639V33.0781L24.8488 32.7046C23.5281 33.5423 22.1251 33.5561 20.8106 32.7046C18.087 33.57 15.1411 33.5976 12.4236 32.7046C11.6545 29.9316 11.6483 27.1816 12.4236 24.4102C15.1411 23.5171 18.087 23.5447 20.8106 24.4102C21.9899 23.6293 23.1987 23.6108 24.4386 24.1827C24.0299 17.4961 24.3453 10.8095 24.8503 4.1337C25.9022 3.64797 27.041 3.41432 28.2685 3.4343C27.9966 1.88179 28.2032 0.784271 28.8884 0.138672H53.7401Z" fill="white"/>
<path d="M20.8131 32.7041C21.0555 32.7025 21.4299 32.7671 21.4346 32.9162C21.6335 39.9071 21.6692 47.6159 21.4346 54.6191C21.6459 55.8211 21.4392 56.6066 20.8131 56.974C19.5344 56.9832 17.8098 56.7096 16.775 57.2814C17.7631 57.5304 17.7212 60.6339 16.775 60.9675C15.3284 60.9875 14.1817 60.9537 12.7368 60.966C12.9434 64.7412 12.7368 67.4804 12.7368 71.4001C12.757 71.6937 12.7368 71.9381 12.7368 73.2569V73.5644C9.93699 73.5321 7.30196 73.5644 4.2666 73.5644L4.34982 60.9675H8.38949L8.38638 56.9725L12.4276 56.9755C12.4307 48.8902 12.4183 40.7894 12.426 32.7025C15.2165 32.7102 18.0226 32.6718 20.8131 32.7025V32.7041Z" fill="#4C4C4C"/>
<path d="M24.8512 0.138203C25.8472 0.431798 25.8052 3.75356 24.8512 4.1317C23.7978 4.62819 22.6589 4.85569 21.4331 4.81265V24.0407L20.8131 24.4096C18.0227 24.4388 15.2167 24.402 12.4262 24.4096C12.4417 17.7215 12.378 11.0212 12.4697 4.32999C12.7851 3.37542 15.5864 3.99335 16.4658 3.82734C16.6165 3.1218 16.1131 0.351867 16.775 0.13974C19.463 -0.0185853 22.154 -0.0185853 24.8512 0.13974V0.138203Z" fill="#4C4C4C"/>
<path d="M49.7015 52.9805L49.703 61.278L33.2383 60.969L41.3161 60.9705L41.3145 52.9805H49.7015Z" fill="#BFBFBF"/>
<path d="M8.38697 24.4102C8.62935 24.4378 8.99448 24.5162 9.00846 24.6868C9.17315 26.7712 9.17004 30.1714 9.00846 32.2603L8.38697 32.7061C5.59649 32.6969 2.79048 32.7123 0 32.7061V24.4117C2.79048 24.4055 5.59649 24.4209 8.38697 24.4117V24.4102Z" fill="#4C4C4C"/>
<path d="M33.2383 8.43445L49.7046 8.12549L49.7015 12.1221H57.7793C57.4976 12.6047 43.193 12.4295 41.313 12.4295L41.3161 8.43292H33.2383V8.43445Z" fill="#BFBFBF"/>
<path d="M12.4258 24.41C12.4196 27.1707 12.4289 29.9453 12.4258 32.7044C11.0834 32.6998 9.73011 32.709 8.3877 32.7044V24.41C9.73011 24.4054 11.0834 24.4146 12.4258 24.41Z" fill="#BFBFBF"/>
<path d="M53.7395 0.138373C45.4613 0.158356 37.166 0.112241 28.8878 0.138373C27.5205 0.90387 26.2185 0.896184 24.8497 0.138373C23.2711 0.149133 17.7538 -0.178278 16.7734 0.138373H53.7395Z" fill="#738086"/>
<path d="M20.8135 32.7045C22.1559 32.7183 23.5092 32.6937 24.8516 32.7045V56.9744C23.5092 56.9805 22.1559 56.9652 20.8135 56.9744V32.7045Z" fill="#BFBFBF"/>
<path d="M24.8516 4.1319C24.8516 10.8861 24.8516 17.6557 24.8531 24.4099C23.5107 24.4176 22.1559 24.3945 20.8135 24.4083V4.13036C22.1543 4.12575 23.5092 4.13958 24.8516 4.1319Z" fill="#BFBFBF"/>
<path d="M12.7418 73.6289L12.7402 60.8706L16.7799 60.8723V73.6289H12.7418Z" fill="#BFBFBF"/>
<path d="M28.8897 0.138501V4.13353C27.5488 4.13814 26.194 4.1243 24.8516 4.13199V0.138501C26.194 0.129278 27.5473 0.143113 28.8897 0.138501Z" fill="#BFBFBF"/>
<path d="M16.7818 56.8745L20.8168 56.8768L20.8199 61.0248C20.3566 61.0248 17.3867 61.0163 16.7803 61.0248V56.8745H16.7818Z" fill="#BFBFBF"/>
</g>
</g>
<defs>
<clipPath id="clip0_192_73">
<rect width="439.081" height="73.6291" fill="white"/>
</clipPath>
</defs>
</svg>
