<svg width="371" height="58" viewBox="0 0 371 58" fill="none" xmlns="http://www.w3.org/2000/svg">
<path d="M8.44093 1.07919C6.85355 1.58715 5.26616 2.09512 4.82169 2.22211C4.25023 2.41259 4.25023 3.17454 4.94868 5.52387C5.45665 7.17475 5.90111 8.63515 5.90111 8.69864C5.90111 8.82563 5.26616 8.88913 4.44072 8.88913C3.61528 8.88913 2.34537 9.52408 1.58342 10.3495C0.186523 11.8099 0.186523 12.1274 0.186523 33.1444C0.186523 53.5899 0.250019 54.4789 1.45643 55.5583C2.72634 56.7012 2.72634 56.6377 2.72634 36.0017V15.2387L4.56771 13.2068L6.40908 11.1115H27.7435C48.6336 11.1115 51.8083 10.794 46.6017 9.2066C44.6968 8.63515 44.5698 8.44466 44.9508 6.66679C45.9032 2.66658 45.7763 2.41259 42.157 1.20618C40.2522 0.507729 38.5378 0.190254 38.3473 0.380741C38.1568 0.571224 37.3949 2.47609 36.6964 4.63493L35.4265 8.57165L25.1402 8.76214L14.854 8.88913L13.4571 4.44445C12.7586 2.03162 11.9332 -0.000232697 11.7427 0.0632629C11.4887 0.0632629 10.0283 0.507729 8.44093 1.07919Z" fill="white"/>
<path d="M137.972 28.2549V47.0496L141.654 46.8591L145.274 46.6686L145.591 37.1443L145.909 27.6835L154.734 37.4618C159.56 42.8589 164.068 47.367 164.703 47.494C165.846 47.6845 165.91 46.9226 165.91 28.9534V10.1587H162.1H158.29L158.163 20.3815L157.973 30.5408L149.083 20.064C144.067 14.1589 139.686 9.58725 139.115 9.58725C138.035 9.52376 137.972 10.8572 137.972 28.2549Z" fill="white"/>
<path d="M317.093 10.4764C308.902 12.7622 304.076 19.4927 304.076 28.5726C304.076 39.9383 311.442 47.1768 322.871 47.1768C326.935 47.1768 328.395 46.8593 331.252 45.4624C337.856 42.2241 341.475 35.9381 341.411 27.9376C341.221 15.429 329.538 6.98414 317.093 10.4764ZM327.823 18.5403C333.03 21.2071 335.062 28.2551 332.205 34.0332C330.427 37.7794 327.252 39.6843 322.744 39.6843C315.759 39.6843 311.569 34.9856 312.077 27.6202C312.394 22.9215 314.172 20.0642 317.918 18.3498C321.41 16.7624 324.395 16.8259 327.823 18.5403Z" fill="white"/>
<path d="M62.7299 10.984C62.5394 11.4285 62.4759 19.6194 62.5394 29.2072L62.7299 46.6685H71.6828C80.1277 46.6685 80.6991 46.605 82.9215 45.0811C87.8106 41.7158 89.271 35.3663 86.2232 30.8581L84.6993 28.5723L86.0328 26.2864C87.7471 23.3021 87.8106 18.0955 86.1597 15.1112C85.4613 13.9048 83.7469 12.3809 82.096 11.5555C79.6197 10.3491 78.3498 10.1586 71.1748 10.1586C65.1427 10.1586 62.9204 10.3491 62.7299 10.984ZM79.3657 19.4289C80.3182 20.9528 80.3182 21.2703 79.4927 22.7942C78.6673 24.2546 78.1593 24.445 74.2861 24.6355L70.0319 24.826V21.2703V17.778H74.1591C77.9053 17.778 78.3498 17.905 79.3657 19.4289ZM79.0483 33.4614C80.4452 34.7313 80.5086 36.6997 79.1117 38.2236C78.3498 39.1125 77.1434 39.3665 74.0321 39.3665H70.0319V35.8742V32.382H73.9686C76.6989 32.382 78.2228 32.6995 79.0483 33.4614Z" fill="white"/>
<path d="M94.4775 10.9844C94.287 11.4289 94.2235 19.6198 94.287 29.2076L94.4775 46.6688L98.1602 46.8593L101.779 47.0498V28.5726V10.159H98.2872C96.0014 10.159 94.668 10.4764 94.4775 10.9844Z" fill="white"/>
<path d="M106.859 13.9687V17.7784H111.304H115.748L115.875 32.1919L116.066 46.6688L119.748 46.8593L123.368 47.0498V32.3824V17.7784H127.812H132.257V13.9687V10.159H119.558H106.859V13.9687Z" fill="white"/>
<path d="M174.165 28.5722V46.9858H183.371H192.578V43.1761V39.3664H186.864H181.149V35.8741V32.3819H185.911H190.673V28.5722V24.7624H185.911H181.149V21.2702V17.8414L186.737 17.6509L192.261 17.4605V13.9682V10.476L183.244 10.2855L174.165 10.095V28.5722Z" fill="white"/>
<path d="M196.642 11.5558C197.594 15.429 210.992 47.3037 211.627 47.3037C212.008 47.3037 213.786 43.8115 215.563 39.4938C217.341 35.2396 218.865 31.8108 218.992 31.9378C219.183 32.0648 220.707 35.6205 222.421 39.7478C224.135 43.875 225.85 47.3037 226.231 47.3037C226.866 47.3037 241.47 12.1272 241.47 10.6033C241.47 10.3494 239.692 10.1589 237.533 10.2859L233.596 10.4764L230.104 19.1752C228.199 24.0009 226.421 27.9376 226.231 27.9376C225.977 27.9376 224.326 24.0644 222.484 19.3022C220.643 14.5401 218.929 10.9208 218.675 11.1748C218.421 11.4923 217.087 14.6036 215.754 18.0958C214.421 21.5881 212.897 25.4613 212.389 26.6677L211.5 28.8265L207.881 19.6832L204.325 10.4764L200.261 10.2859C196.324 10.0954 196.261 10.1589 196.642 11.5558Z" fill="white"/>
<path d="M251.311 11.0478C247.501 12.7622 245.279 16.4449 245.279 21.0166C245.279 25.7153 248.073 29.017 254.486 31.7473C259.947 34.0967 261.153 36.1285 258.55 38.4778C256.772 40.0652 252.264 40.0017 248.39 38.2874L245.47 36.954L245.089 40.5097C244.898 42.4781 244.835 44.2559 245.025 44.5099C245.787 45.7798 251.946 47.1132 256.137 46.8592C262.105 46.5418 265.661 43.748 266.868 38.5413C268.074 32.9537 265.407 29.017 258.169 25.5883C253.089 23.2389 251.946 21.9055 252.899 19.4292C253.661 17.3339 256.073 16.7624 260.137 17.5878C261.915 17.9688 263.439 18.2228 263.566 18.0958C263.629 18.0323 263.883 16.5084 264.137 14.7305L264.518 11.5558L262.042 10.8573C258.677 9.90489 253.661 10.0319 251.311 11.0478Z" fill="white"/>
<path d="M273.217 28.5722V46.9858H281.345C290.742 46.9858 293.472 46.0969 296.457 42.1602C298.869 38.9854 299.06 33.5248 296.838 30.5405L295.441 28.6357L296.711 26.5403C298.488 23.6195 298.425 18.4129 296.584 15.1746C294.298 11.1109 291.504 10.1585 281.599 10.1585H273.217V28.5722ZM289.599 18.5399C290.044 18.9843 290.361 20.1908 290.361 21.2702C290.361 24.1275 289.345 24.7624 284.837 24.7624H280.837V21.2702V17.7779H284.837C287.123 17.7779 289.155 18.0954 289.599 18.5399ZM290.171 34.0328C291.123 35.5567 291.123 35.8741 290.298 37.398C289.472 38.8584 288.964 39.0489 285.091 39.2394L280.837 39.4299V35.8741V32.3819H284.964C288.71 32.3819 289.155 32.5089 290.171 34.0328Z" fill="white"/>
<path d="M345.602 13.9682V17.7779H350.046H354.491V32.3819V46.9858H357.983H361.475V32.3819V17.7779H366.238H371V13.9682V10.1585H358.301H345.602V13.9682Z" fill="white"/>
<path d="M5.32956 14.413C3.99616 16.0004 3.99616 16.6353 4.12315 36.4459L4.31363 56.8279L24.9497 57.0184C46.8556 57.1454 48.3795 57.0184 49.6494 54.2246C50.0938 53.1452 50.3478 46.1607 50.3478 32.6997V12.6986H28.5054H6.59947L5.32956 14.413ZM20.3145 17.1433C24.3782 19.6196 24.1877 26.0326 19.9335 28.1915C16.6952 29.9059 13.711 29.5249 11.2346 27.0486C8.25035 24.0643 8.25035 21.0165 11.2346 18.0322C13.7745 15.4924 17.0762 15.1114 20.3145 17.1433ZM41.4585 16.9528C45.9031 19.5561 45.6492 26.1596 41.014 28.509C37.7757 30.1598 33.0771 28.8899 31.5532 25.9691C30.0293 22.9214 30.4103 20.445 32.8231 18.0322C35.2994 15.5559 38.4742 15.1749 41.4585 16.9528ZM43.8713 42.9859L43.6808 51.1133L27.045 51.3038L10.3457 51.4308V43.1764V34.922H27.172H44.0618L43.8713 42.9859Z" fill="white"/>
<path d="M14.0918 21.334C13.0123 22.6674 14.0918 24.4453 16.0601 24.4453C18.0285 24.4453 19.1079 22.6674 18.0285 21.334C16.9491 20.0641 15.1712 20.0641 14.0918 21.334Z" fill="white"/>
<path d="M35.6804 21.334C34.474 22.7944 35.7439 24.4453 38.0297 24.4453C39.2996 24.4453 39.9346 24.0643 40.0616 23.3024C40.5696 20.7626 37.3313 19.3022 35.6804 21.334Z" fill="white"/>
<path d="M13.521 39.7477V42.605L16.2513 42.4145C18.9181 42.224 18.9181 42.224 19.1086 39.4937L19.2991 36.8269H16.4418H13.521V39.7477Z" fill="white"/>
<path d="M20.5049 39.6842V42.5415H23.3622H26.2195V39.6842V36.8269H23.3622H20.5049V39.6842Z" fill="white"/>
<path d="M27.7438 37.7155C27.5534 38.2234 27.4899 39.4298 27.6168 40.4458C27.8073 42.0966 27.9978 42.2236 30.6646 42.2236H33.5219V39.6838C33.5219 37.144 33.5219 37.144 30.7916 36.9535C28.8868 36.8265 27.9978 37.017 27.7438 37.7155Z" fill="white"/>
<path d="M35.1094 39.6842V42.5415H37.9667H40.824V39.6842V36.8269H37.9667H35.1094V39.6842Z" fill="white"/>
<path d="M13.521 46.3513V48.8911H16.3783H19.2356V46.3513V43.8115H16.3783H13.521V46.3513Z" fill="white"/>
<path d="M20.5049 46.3513V48.8911H23.3622H26.2195V46.3513V43.8115H23.3622H20.5049V46.3513Z" fill="white"/>
<path d="M28.1245 46.3513V48.8911H30.9818H33.8391V46.3513V43.8115H30.9818H28.1245V46.3513Z" fill="white"/>
<path d="M35.1094 46.3513V48.8911H37.9667H40.824V46.3513V43.8115H37.9667H35.1094V46.3513Z" fill="white"/>
</svg>
