<svg width="224" height="50" viewBox="0 0 224 50" fill="none" xmlns="http://www.w3.org/2000/svg">
<g clip-path="url(#clip0_4083_9897)">
<path d="M184.685 13.1908C184.491 13.1921 184.305 13.2417 184.117 13.2824C183.78 13.3556 183.587 13.576 183.501 13.8928C183.429 14.1606 183.413 14.4376 183.413 14.7149C183.413 17.3247 183.413 19.9348 183.413 22.5446C183.413 22.6155 183.414 22.6864 183.411 22.7573C183.409 22.8205 183.414 22.8916 183.339 22.92C183.262 22.9485 183.181 22.9519 183.116 22.8955C183.053 22.8397 182.996 22.7745 182.942 22.7088C182.133 21.7185 181.326 20.7274 180.517 19.7367C179.426 18.3993 178.335 17.062 177.243 15.7247C177.041 15.4771 176.839 15.2297 176.636 14.9823C176.614 14.9557 176.597 14.9229 176.557 14.9143C176.502 14.9473 176.522 15.0027 176.522 15.0483C176.521 17.0909 176.519 19.1334 176.522 21.176C176.523 21.4935 176.592 21.7952 176.829 22.0353C177.039 22.2484 177.298 22.3502 177.59 22.3779C177.675 22.386 177.762 22.38 177.846 22.3885C177.978 22.4015 178.015 22.4422 178.016 22.5591C178.016 22.6755 177.98 22.7107 177.842 22.7211C177.793 22.7249 177.743 22.7228 177.693 22.7228C176.731 22.7228 175.769 22.7228 174.807 22.723C174.771 22.723 174.735 22.7237 174.7 22.7224C174.513 22.716 174.466 22.6804 174.468 22.5484C174.471 22.4271 174.515 22.3881 174.687 22.3824C174.852 22.3768 175.012 22.3517 175.172 22.31C175.559 22.2084 175.771 21.9495 175.861 21.5746C175.906 21.3872 175.919 21.1969 175.919 21.0046C175.917 20.3946 175.918 19.7849 175.918 19.1749C175.918 17.5721 175.915 15.9691 175.921 14.3663C175.922 14.1553 175.882 13.9761 175.728 13.8266C175.677 13.7774 175.639 13.7163 175.592 13.6624C175.35 13.381 175.058 13.2002 174.672 13.1898C174.506 13.1853 174.467 13.1387 174.466 13.0097C174.465 12.9181 174.501 12.8587 174.599 12.8532C174.656 12.85 174.713 12.8491 174.77 12.8491C175.761 12.8489 176.751 12.8521 177.742 12.8457C177.921 12.8447 178.044 12.8953 178.159 13.0405C179.075 14.1994 180.001 15.3515 180.923 16.5061C181.53 17.2664 182.136 18.0277 182.743 18.788C182.756 18.804 182.774 18.8155 182.79 18.8295C182.86 18.8044 182.835 18.7463 182.835 18.7037C182.836 17.3705 182.84 16.037 182.832 14.7038C182.83 14.4289 182.802 14.1528 182.729 13.883C182.647 13.5822 182.452 13.3955 182.169 13.2884C181.987 13.2198 181.798 13.1877 181.604 13.1866C181.527 13.1862 181.443 13.1881 181.41 13.091C181.367 12.9643 181.427 12.8674 181.564 12.8519C181.606 12.847 181.649 12.8487 181.692 12.8487C182.69 12.8489 183.687 12.8493 184.685 12.8498V13.1902L184.685 13.1908Z" fill="white"/>
<path d="M184.687 27.6175C184.257 27.6539 183.925 27.8481 183.669 28.2006C183.297 28.7133 182.981 29.2599 182.655 29.8004C182.038 30.8209 181.426 31.8444 180.807 32.8636C180.719 33.0088 180.676 33.1538 180.677 33.3239C180.683 34.0755 180.682 34.827 180.678 35.5784C180.677 35.7921 180.71 36.0023 180.725 36.2141C180.74 36.4249 180.879 36.5584 181.045 36.667C181.184 36.7588 181.342 36.8026 181.509 36.8052C181.702 36.8081 181.894 36.8047 182.086 36.8128C182.224 36.8186 182.255 36.8563 182.257 36.9772C182.259 37.1005 182.226 37.1369 182.094 37.1486C182.038 37.1537 181.98 37.1514 181.924 37.1514C180.285 37.1514 178.646 37.1514 177.008 37.1514C176.958 37.1514 176.908 37.1533 176.858 37.1497C176.717 37.1392 176.686 37.1103 176.682 36.991C176.678 36.8592 176.713 36.8188 176.86 36.8122C177.016 36.8052 177.173 36.8086 177.33 36.8084C177.481 36.8084 177.629 36.7864 177.769 36.7302C178.02 36.6299 178.179 36.4481 178.215 36.1794C178.24 35.9974 178.263 35.8145 178.262 35.6291C178.259 34.9767 178.261 34.3246 178.264 33.6722C178.264 33.5557 178.241 33.4518 178.183 33.3482C177.321 31.7975 176.463 30.2446 175.601 28.6944C175.48 28.4776 175.337 28.2739 175.194 28.0706C174.999 27.7957 174.739 27.6496 174.407 27.6234C174.312 27.616 174.218 27.613 174.207 27.4827C174.196 27.342 174.236 27.2881 174.38 27.2764C174.43 27.2724 174.48 27.2745 174.53 27.2745C175.904 27.2745 177.279 27.2745 178.654 27.2745C178.711 27.2745 178.769 27.2721 178.825 27.2773C178.954 27.2888 178.994 27.3301 178.995 27.4469C178.996 27.5634 178.957 27.6056 178.827 27.6162C178.749 27.6226 178.67 27.619 178.592 27.6215C178.506 27.6241 178.421 27.6283 178.338 27.653C178.046 27.7399 177.961 27.8983 178.065 28.1857C178.226 28.6354 178.472 29.0436 178.701 29.4604C179.09 30.1698 179.478 30.879 179.868 31.5882C180.018 31.8612 180.168 32.1337 180.315 32.3999C180.4 32.4082 180.406 32.3451 180.429 32.3075C181.062 31.255 181.696 30.2039 182.322 29.1472C182.484 28.8732 182.639 28.5922 182.719 28.279C182.779 28.0439 182.716 27.9015 182.502 27.7867C182.297 27.6769 182.073 27.639 181.844 27.6234C181.758 27.6175 181.67 27.6143 181.65 27.5002C181.624 27.3556 181.674 27.2877 181.824 27.2758C181.852 27.2734 181.88 27.2745 181.909 27.2745C182.835 27.2751 183.761 27.276 184.687 27.2766V27.6171V27.6175Z" fill="white"/>
<path d="M68.0876 8.93604C68.3457 9.12702 68.6352 9.26668 68.9122 9.42637C70.2434 10.1941 71.5773 10.957 72.9096 11.7228C73.1758 11.8759 73.176 11.8855 72.9167 12.0347C71.5599 12.815 70.2024 13.5941 68.845 14.3733C68.6352 14.4938 68.4208 14.6067 68.2168 14.7363C68.096 14.813 67.9987 14.7987 67.8826 14.7314C67.0269 14.236 66.1686 13.7446 65.3111 13.2519C64.6017 12.8444 63.8918 12.4378 63.1829 12.0296C63.1164 11.9913 63.0097 11.9683 63.0074 11.8902C63.0044 11.796 63.1196 11.7745 63.19 11.7339C64.7308 10.8456 66.2729 9.95928 67.8146 9.07251C67.8819 9.03376 67.9561 9.00374 68.0025 8.93604H68.0881H68.0876Z" fill="white"/>
<path d="M44.6978 8.93604C45.0188 9.16087 45.369 9.33737 45.7071 9.53346C46.9935 10.2791 48.2837 11.0179 49.5726 11.759C49.5912 11.7696 49.6105 11.7788 49.6284 11.7905C49.7432 11.8652 49.7473 11.8997 49.6346 11.9694C49.4715 12.0705 49.3036 12.1642 49.137 12.26C47.7063 13.0829 46.2748 13.9041 44.8464 14.731C44.7177 14.8055 44.6172 14.8023 44.4926 14.7304C43.3531 14.0718 42.2115 13.4171 41.0703 12.7616C40.6386 12.5136 40.2064 12.2662 39.7739 12.0194C39.5579 11.8963 39.5549 11.875 39.763 11.7543C40.2366 11.4792 40.7121 11.2074 41.187 10.9344C42.2786 10.307 43.3704 9.67952 44.4622 9.05228C44.5178 9.02035 44.5753 8.99139 44.6125 8.93604H44.698L44.6978 8.93604Z" fill="white"/>
<path d="M56.8829 41.0636C56.8794 40.9716 56.8735 40.8796 56.8732 40.7876C56.8726 39.1218 56.8765 37.4558 56.8677 35.79C56.8666 35.5833 56.9389 35.4709 57.1136 35.3714C58.4369 34.6192 59.7554 33.8587 61.0753 33.1005C61.2295 33.012 61.3809 32.9181 61.5378 32.8348C61.6441 32.7784 61.6734 32.7999 61.6832 32.9217C61.6867 32.9641 61.6847 33.0066 61.6847 33.0492C61.6847 34.715 61.6822 36.3811 61.689 38.0469C61.6899 38.2332 61.6328 38.3402 61.4673 38.4344C60.0272 39.2545 58.592 40.0835 57.1561 40.9111C57.0764 40.9571 57.0022 41.0127 56.9254 41.0638H56.8827L56.8829 41.0636Z" fill="white"/>
<path d="M39.3088 12.9358C39.6195 13.0644 39.897 13.2534 40.187 13.4191C41.4411 14.1357 42.6907 14.8605 43.9458 15.5754C44.0946 15.6604 44.1545 15.7585 44.1539 15.9295C44.1487 17.5037 44.1513 19.0782 44.1502 20.6525C44.1502 20.893 44.128 20.9052 43.911 20.7806C42.7691 20.1257 41.628 19.4695 40.4868 18.8133C40.1844 18.6396 39.8834 18.464 39.5804 18.2911C39.4942 18.2419 39.4089 18.1885 39.3086 18.1697V12.9355L39.3088 12.9358Z" fill="white"/>
<path d="M56.4145 8.93604C56.5847 9.07911 56.7922 9.16087 56.982 9.27052C58.4662 10.1277 59.9525 10.9817 61.4416 11.8303C61.5844 11.9117 61.6507 12.0036 61.6372 12.1669C61.6257 12.3077 61.6259 12.451 61.6372 12.5919C61.6511 12.7678 61.5893 12.8778 61.4287 12.9662C60.9117 13.2511 60.4034 13.5517 59.8913 13.8453C58.9103 14.4078 57.9303 14.9722 56.9459 15.5288C56.799 15.6118 56.7603 15.7166 56.7607 15.8737C56.7648 17.4403 56.7633 19.0067 56.7631 20.5732C56.7631 20.6441 56.7614 20.715 56.7614 20.7859C56.7614 20.8632 56.7312 20.9228 56.6624 20.9616C56.6314 20.9791 56.6014 20.9982 56.5706 21.0161C56.3711 21.1313 56.1704 21.0974 56.023 20.9265C55.9877 20.8856 55.9775 20.8396 55.9764 20.7891C55.9749 20.7255 55.9745 20.6616 55.9745 20.5977C55.9745 19.0737 55.9745 17.5497 55.9745 16.0257C55.9745 15.9618 55.9696 15.8978 55.9749 15.8343C55.9867 15.6955 55.9208 15.615 55.8019 15.5477C55.1331 15.17 54.4675 14.7866 53.8012 14.4044C52.9559 13.9196 52.1122 13.4325 51.2648 12.9513C51.1333 12.8766 51.0617 12.788 51.07 12.6317C51.0792 12.462 51.0749 12.2915 51.0719 12.1216C51.0698 11.9943 51.1249 11.9138 51.237 11.8499C52.0901 11.3647 52.9405 10.8746 53.7918 10.3862C54.4764 9.99334 55.1613 9.60031 55.8462 9.20792C56.0068 9.11637 56.1682 9.02673 56.329 8.93604C56.3574 8.93604 56.3861 8.93604 56.4145 8.93604ZM60.8007 12.3928C60.7325 12.3503 60.7034 12.3307 60.6729 12.3132C59.8717 11.8514 59.0707 11.3896 58.269 10.9287C57.6894 10.5955 57.1063 10.2678 56.5306 9.92777C56.3998 9.85048 56.3008 9.859 56.1791 9.93373C55.955 10.0715 55.7237 10.1973 55.4955 10.3287C54.3856 10.967 53.2754 11.6049 52.1663 12.2446C52.0957 12.2853 51.9781 12.2992 51.9805 12.3965C51.9822 12.4761 52.0893 12.498 52.1552 12.5359C53.4995 13.3088 54.8455 14.0787 56.1879 14.8549C56.3194 14.9309 56.4199 14.9175 56.5424 14.847C57.7877 14.1302 59.035 13.4171 60.2813 12.702C60.4462 12.6074 60.6081 12.5078 60.8007 12.3928Z" fill="white"/>
<path d="M148.16 12.85C148.916 12.85 149.671 12.85 150.426 12.85C150.49 12.85 150.555 12.8511 150.619 12.8534C150.719 12.857 150.778 12.902 150.78 13.0093C150.782 13.1249 150.743 13.1751 150.617 13.1843C150.482 13.1941 150.346 13.1926 150.211 13.1941C150.065 13.1956 149.929 13.2354 149.801 13.3014C149.592 13.4097 149.461 13.5796 149.427 13.8138C149.403 13.9818 149.38 14.1502 149.38 14.3216C149.382 15.2293 149.381 16.1369 149.381 17.0445C149.381 17.0729 149.38 17.1014 149.382 17.1297C149.39 17.2902 149.405 17.3043 149.574 17.3115C149.61 17.313 149.646 17.3122 149.681 17.3122C150.629 17.3122 151.577 17.3122 152.524 17.3122C152.539 17.3122 152.553 17.3122 152.567 17.3122C152.815 17.3096 152.822 17.3058 152.822 17.0637C152.824 16.4752 152.824 15.8865 152.823 15.298C152.822 14.8658 152.824 14.4341 152.793 14.0018C152.758 13.5132 152.503 13.2356 152.008 13.1975C151.866 13.1864 151.723 13.1902 151.58 13.1845C151.491 13.1809 151.434 13.14 151.427 13.0431C151.418 12.9277 151.459 12.8698 151.576 12.8553C151.639 12.8474 151.704 12.85 151.768 12.85C153.271 12.8498 154.775 12.8498 156.278 12.85C156.335 12.85 156.392 12.8479 156.449 12.8536C156.578 12.8668 156.609 12.9071 156.609 13.0295C156.609 13.1385 156.551 13.1826 156.45 13.186C156.294 13.1915 156.136 13.187 155.981 13.2022C155.623 13.2369 155.348 13.4608 155.285 13.7659C155.258 13.8975 155.235 14.0306 155.237 14.1666C155.239 14.2588 155.234 14.351 155.234 14.4432C155.234 16.7337 155.235 19.024 155.237 21.3144C155.237 21.4275 155.244 21.5414 155.259 21.6534C155.322 22.0954 155.581 22.3368 156.037 22.376C156.178 22.3881 156.321 22.3845 156.464 22.3905C156.571 22.395 156.609 22.4569 156.609 22.5591C156.609 22.6653 156.561 22.7173 156.457 22.7207C156.4 22.7226 156.343 22.7241 156.286 22.7241C154.776 22.7241 153.265 22.7241 151.755 22.7241C151.712 22.7241 151.669 22.7254 151.626 22.7228C151.472 22.7137 151.429 22.6779 151.426 22.5614C151.423 22.4354 151.469 22.3956 151.636 22.3875C151.735 22.3828 151.835 22.3835 151.935 22.3822C152.043 22.3809 152.147 22.3624 152.25 22.3313C152.568 22.2353 152.757 22.0155 152.779 21.6847C152.798 21.4092 152.826 21.1343 152.824 20.8569C152.819 20.0202 152.822 19.1834 152.822 18.3467C152.822 18.2901 152.824 18.233 152.821 18.1766C152.812 18.0309 152.792 18.0128 152.639 18.0035C152.604 18.0014 152.568 18.0022 152.532 18.0022C151.578 18.0022 150.623 18.0016 149.668 18.0022C149.383 18.0022 149.381 18.0043 149.381 18.2852C149.38 19.2637 149.382 20.2422 149.379 21.2208C149.379 21.4062 149.407 21.5882 149.428 21.7711C149.457 22.0211 149.618 22.1763 149.835 22.2804C149.97 22.3458 150.115 22.3811 150.268 22.382C150.389 22.3828 150.511 22.3815 150.631 22.3926C150.746 22.403 150.78 22.4501 150.78 22.5585C150.78 22.663 150.727 22.7156 150.624 22.7201C150.567 22.7226 150.51 22.7239 150.453 22.7239C148.936 22.7239 147.418 22.7239 145.9 22.7239C145.844 22.7239 145.786 22.7226 145.73 22.7209C145.629 22.7177 145.57 22.6715 145.568 22.5649C145.566 22.4495 145.606 22.3999 145.732 22.3901C145.846 22.3811 145.96 22.3835 146.074 22.3826C146.226 22.3813 146.37 22.3475 146.51 22.29C146.749 22.1918 146.883 22.01 146.921 21.7609C146.949 21.5791 146.968 21.3962 146.968 21.2108C146.966 18.9275 146.967 16.6441 146.967 14.3608C146.967 14.2118 146.96 14.064 146.939 13.9158C146.876 13.4764 146.611 13.2262 146.16 13.197C146.018 13.1879 145.875 13.1904 145.733 13.1858C145.633 13.1824 145.573 13.1376 145.568 13.031C145.562 12.9113 145.599 12.8647 145.724 12.8536C145.787 12.8479 145.852 12.8506 145.916 12.8506C146.664 12.8506 147.412 12.8506 148.16 12.8506V12.85Z" fill="white"/>
<path d="M85.8503 17.5074C85.9643 17.5404 86.0783 17.5736 86.1924 17.606C86.529 17.7013 86.8559 17.8202 87.1698 17.976C88.1543 18.4644 88.6253 19.4383 88.3912 20.5077C88.2708 21.0581 87.9706 21.4943 87.5325 21.8409C86.9996 22.2625 86.3787 22.4778 85.719 22.6008C85.2766 22.6832 84.8285 22.7179 84.3805 22.72C82.7986 22.7279 81.2165 22.7232 79.6346 22.7232C79.5848 22.7232 79.5348 22.7247 79.485 22.7213C79.337 22.7109 79.294 22.6704 79.297 22.5484C79.2996 22.4382 79.3411 22.3956 79.4751 22.3854C79.6524 22.3719 79.8303 22.3817 80.0065 22.3426C80.4237 22.2499 80.6195 22.0324 80.6469 21.6091C80.6561 21.4677 80.6574 21.3255 80.6574 21.1837C80.6574 18.879 80.6572 16.5742 80.6552 14.2692C80.6552 14.1068 80.6559 13.9443 80.6212 13.7823C80.5592 13.4934 80.3777 13.3273 80.1021 13.2479C79.9571 13.2062 79.8087 13.1928 79.6584 13.1915C79.5801 13.1909 79.5014 13.1885 79.4236 13.1809C79.3255 13.1711 79.2957 13.1038 79.297 13.0156C79.2983 12.9262 79.3344 12.8647 79.4309 12.8553C79.4805 12.8506 79.5305 12.8491 79.5803 12.8491C81.1765 12.8491 82.7727 12.8385 84.3689 12.8547C84.9728 12.8608 85.5835 12.8841 86.1678 13.0614C87.0984 13.3439 87.729 13.9454 87.9411 14.8997C88.1158 15.6853 87.8737 16.3575 87.2139 16.8546C86.9558 17.049 86.6641 17.1816 86.3629 17.2936C86.1965 17.3554 86.0269 17.4086 85.8589 17.4654C85.8561 17.4793 85.8533 17.4931 85.8503 17.507V17.5074ZM83.0163 19.7653C83.0163 19.9567 83.0163 20.1481 83.0163 20.3395C83.0163 20.701 83.0099 21.0628 83.0171 21.4243C83.0259 21.8597 83.2765 22.1041 83.7136 22.122C83.9216 22.1305 84.1273 22.1128 84.3283 22.0619C85.0217 21.8863 85.5127 21.4794 85.7248 20.7885C85.9151 20.1681 85.8706 19.5556 85.5854 18.9673C85.4094 18.6045 85.1453 18.3245 84.7788 18.1476C84.6833 18.1014 84.5821 18.0629 84.4795 18.0356C84.064 17.926 83.6389 17.8881 83.2107 17.8834C83.0426 17.8815 83.0263 17.9034 83.018 18.0639C83.015 18.1206 83.0167 18.1774 83.0167 18.234C83.0167 18.7446 83.0167 19.2549 83.0167 19.7655L83.0163 19.7653ZM83.0167 15.3504C83.0167 15.9174 83.0152 16.4844 83.0176 17.0513C83.0184 17.2527 83.0362 17.2717 83.2397 17.2664C83.5819 17.2576 83.9248 17.2325 84.2524 17.1299C84.8932 16.9293 85.3138 16.5157 85.4522 15.8458C85.5131 15.551 85.5097 15.2518 85.4736 14.9565C85.3882 14.2584 84.9394 13.7589 84.2573 13.5786C83.9387 13.4945 83.612 13.4702 83.2849 13.4578C83.0246 13.4481 83.0178 13.4598 83.0171 13.7127C83.0159 14.2584 83.0167 14.8043 83.0169 15.35L83.0167 15.3504Z" fill="white"/>
<path d="M154.955 32.2168C154.955 31.4299 154.956 30.6432 154.955 29.8563C154.955 29.3745 154.943 28.8933 154.928 28.4115C154.911 27.9013 154.587 27.6869 154.165 27.6286C154.032 27.6103 153.894 27.6226 153.759 27.6173C153.592 27.6107 153.553 27.5752 153.555 27.4419C153.557 27.3116 153.595 27.2813 153.768 27.2745C153.81 27.2728 153.853 27.2739 153.896 27.2739C155.299 27.2739 156.702 27.2666 158.105 27.2773C158.717 27.282 159.328 27.3295 159.928 27.4698C161.809 27.9103 162.951 29.0892 163.393 30.9419C163.622 31.9025 163.6 32.8702 163.314 33.8211C162.884 35.255 161.975 36.251 160.548 36.7541C159.962 36.9604 159.362 37.0975 158.735 37.1256C158.35 37.1431 157.967 37.1491 157.582 37.1497C156.357 37.1518 155.132 37.1505 153.907 37.1503C153.843 37.1503 153.779 37.1493 153.715 37.148C153.614 37.1461 153.555 37.1022 153.555 36.9936C153.555 36.8746 153.59 36.8242 153.715 36.8146C153.864 36.8033 154.014 36.8063 154.163 36.8007C154.324 36.7948 154.469 36.743 154.602 36.6532C154.805 36.5167 154.911 36.3338 154.923 36.0856C154.943 35.6466 154.959 35.208 154.957 34.7685C154.953 33.9179 154.956 33.0674 154.956 32.2166L154.955 32.2168ZM157.371 32.0079H157.373C157.373 33.2701 157.373 34.5322 157.373 35.7945C157.373 35.9223 157.38 36.0487 157.41 36.1746C157.443 36.3102 157.521 36.4007 157.646 36.4575C157.757 36.5084 157.873 36.5429 157.996 36.5433C158.138 36.544 158.282 36.5527 158.423 36.5399C159.028 36.485 159.554 36.2685 159.948 35.7856C160.269 35.3926 160.465 34.9405 160.602 34.4587C160.787 33.8123 160.833 33.1476 160.857 32.4817C160.879 31.8849 160.828 31.2906 160.724 30.7036C160.614 30.0851 160.421 29.4939 160.061 28.9672C159.667 28.391 159.143 28.0329 158.432 27.955C158.184 27.9277 157.935 27.9292 157.687 27.9005C157.384 27.8654 157.371 27.8773 157.371 28.179C157.371 29.4554 157.371 30.7318 157.371 32.0081L157.371 32.0079Z" fill="white"/>
<path d="M131.541 22.7233C130.807 22.7233 130.073 22.7233 129.339 22.7233C129.282 22.7233 129.224 22.725 129.168 22.722C129.005 22.7137 128.973 22.6871 128.968 22.5643C128.963 22.4344 128.991 22.4052 129.142 22.3769C129.246 22.3573 129.353 22.3422 129.454 22.3101C129.698 22.2326 129.776 22.0686 129.69 21.8314C129.629 21.663 129.531 21.5149 129.432 21.3673C129.09 20.8602 128.682 20.403 128.307 19.9216C127.891 19.39 127.465 18.8667 127.043 18.3397C127.034 18.3287 127.027 18.3155 127.017 18.3061C126.941 18.2392 126.909 18.1062 126.776 18.1268C126.656 18.1458 126.5 18.3553 126.499 18.4947C126.495 18.8778 126.496 19.2606 126.497 19.6436C126.497 20.2323 126.498 20.8208 126.501 21.4095C126.501 21.5227 126.513 21.6351 126.527 21.7482C126.562 22.0382 126.739 22.2 126.997 22.2994C127.159 22.362 127.327 22.3799 127.5 22.3833C127.578 22.385 127.659 22.3908 127.691 22.4853C127.736 22.6188 127.68 22.7061 127.538 22.7195C127.481 22.7248 127.424 22.7225 127.367 22.7225C125.913 22.7225 124.459 22.7225 123.006 22.7225C122.963 22.7225 122.92 22.7238 122.877 22.7212C122.723 22.712 122.685 22.678 122.688 22.5541C122.692 22.4327 122.731 22.3961 122.884 22.3869C122.983 22.3808 123.083 22.3833 123.183 22.3808C123.269 22.3786 123.353 22.3722 123.437 22.3499C123.841 22.2419 124.021 22.028 124.048 21.6107C124.057 21.4693 124.058 21.3271 124.058 21.1853C124.059 18.9088 124.059 16.6322 124.058 14.3558C124.058 14.2353 124.05 14.1145 124.052 13.9942C124.065 13.4296 123.658 13.2418 123.284 13.1984C123.143 13.182 122.999 13.1905 122.857 13.1846C122.773 13.1809 122.704 13.1567 122.691 13.056C122.675 12.9323 122.719 12.8692 122.847 12.8537C122.903 12.8469 122.96 12.849 123.018 12.849C124.45 12.8488 125.882 12.849 127.315 12.849C127.372 12.849 127.429 12.8501 127.485 12.8522C127.586 12.856 127.644 12.9029 127.647 13.0089C127.65 13.123 127.611 13.1737 127.484 13.1848C127.334 13.1978 127.185 13.2035 127.041 13.2482C126.756 13.3366 126.581 13.5173 126.534 13.8173C126.516 13.937 126.501 14.056 126.5 14.1767C126.499 15.2193 126.497 16.2617 126.498 17.3044C126.498 17.3638 126.469 17.4455 126.543 17.4747C126.601 17.4975 126.643 17.4329 126.686 17.3982C127.85 16.4631 129.016 15.53 130.176 14.5902C130.391 14.4162 130.597 14.2278 130.745 13.9879C130.961 13.6353 130.827 13.3325 130.419 13.2369C130.257 13.1992 130.094 13.199 129.931 13.1873C129.788 13.1771 129.743 13.1264 129.748 13.007C129.752 12.9156 129.795 12.8601 129.89 12.8539C129.94 12.8507 129.99 12.8488 130.039 12.8488C131.144 12.8486 132.248 12.8486 133.353 12.8488C133.396 12.8488 133.439 12.8501 133.481 12.8511C133.581 12.8539 133.642 12.8937 133.643 13.004C133.644 13.1024 133.613 13.1696 133.507 13.1858C133.5 13.1869 133.493 13.189 133.486 13.1892C133.01 13.2052 132.635 13.4464 132.279 13.7275C131.554 14.3002 130.829 14.8742 130.105 15.4488C129.665 15.798 129.226 16.1485 128.789 16.5006C128.617 16.6392 128.618 16.6454 128.757 16.8191C129.869 18.2045 130.978 19.5916 132.092 20.9745C132.408 21.3673 132.746 21.7416 133.15 22.0505C133.388 22.2321 133.65 22.3471 133.949 22.3797C134.106 22.3969 134.144 22.4342 134.146 22.5483C134.147 22.6567 134.111 22.7022 133.999 22.7165C133.935 22.7246 133.87 22.7223 133.807 22.7223C133.051 22.7227 132.296 22.7223 131.54 22.7223L131.541 22.7233Z" fill="white"/>
<path d="M147.269 27.1451C147.963 27.1223 148.621 27.1845 149.257 27.3969C150.764 27.9009 151.787 28.9186 152.299 30.399C152.793 31.8265 152.711 33.2577 152.029 34.6163C151.292 36.0858 150.105 36.9981 148.462 37.2804C147.538 37.4393 146.617 37.4067 145.708 37.1657C144.368 36.8103 143.381 36.0053 142.714 34.8043C142.321 34.0972 142.127 33.3348 142.082 32.5283C142.038 31.7235 142.12 30.9359 142.442 30.1959C143.114 28.655 144.254 27.6437 145.916 27.2549C146.368 27.1489 146.831 27.1227 147.269 27.1451ZM144.759 32.2455C144.743 32.9075 144.796 33.5915 144.938 34.2669C145.06 34.8471 145.252 35.4004 145.598 35.8916C145.872 36.2823 146.231 36.5576 146.697 36.6883C146.933 36.7545 147.173 36.7633 147.416 36.7631C148.092 36.7626 148.623 36.4846 149.031 35.9534C149.339 35.5516 149.525 35.0943 149.659 34.6133C149.837 33.9739 149.885 33.316 149.912 32.6577C149.939 31.9986 149.899 31.3402 149.828 30.6847C149.769 30.1328 149.649 29.595 149.416 29.0855C149.07 28.3267 148.535 27.8 147.672 27.6886C146.993 27.6009 146.387 27.7655 145.886 28.252C145.394 28.7304 145.138 29.3323 144.982 29.9819C144.805 30.716 144.747 31.4637 144.759 32.2453L144.759 32.2455Z" fill="white"/>
<path d="M105.237 12.7202C105.813 12.6977 106.364 12.7492 106.907 12.8863C107.727 13.0935 108.434 13.4944 109.039 14.0848C109.791 14.8191 110.269 15.6963 110.44 16.7291C110.696 18.281 110.424 19.7218 109.463 20.9988C108.727 21.9769 107.755 22.589 106.546 22.82C105.529 23.0144 104.515 22.9957 103.523 22.6968C101.858 22.1958 100.794 21.0689 100.268 19.4456C99.8961 18.2949 99.8867 17.1155 100.314 15.9769C100.983 14.194 102.275 13.1124 104.168 12.7713C104.526 12.7068 104.891 12.7051 105.237 12.7202H105.237ZM107.847 17.7956C107.862 17.2444 107.828 16.6718 107.755 16.1019C107.669 15.4348 107.486 14.8008 107.124 14.2221C106.424 13.1005 104.796 12.8882 103.84 13.8022C103.439 14.1853 103.194 14.6601 103.026 15.1802C102.777 15.9509 102.72 16.7493 102.689 17.5501C102.668 18.11 102.707 18.6691 102.775 19.2248C102.861 19.9187 103.026 20.5907 103.373 21.2075C103.628 21.6599 103.968 22.0195 104.467 22.2049C104.863 22.3523 105.274 22.3708 105.688 22.3108C106.222 22.233 106.644 21.9665 106.968 21.5387C107.336 21.0529 107.544 20.4991 107.67 19.9113C107.817 19.2219 107.862 18.5229 107.847 17.7958L107.847 17.7956Z" fill="white"/>
<path d="M136.526 27.2753C137.901 27.2753 139.276 27.2753 140.651 27.2753C140.982 27.2753 140.989 27.2814 140.989 27.6048C140.99 28.2927 140.989 28.9807 140.989 29.6684C140.989 29.725 140.988 29.7818 140.986 29.8385C140.981 29.9258 140.948 29.9892 140.849 29.9969C140.757 30.0041 140.676 29.9905 140.643 29.8891C140.625 29.8353 140.611 29.7803 140.595 29.7258C140.505 29.4193 140.411 29.1131 140.25 28.8346C139.986 28.3777 139.612 28.0596 139.082 27.9474C139.026 27.9357 138.969 27.9268 138.913 27.9259C138.592 27.9206 138.271 27.9146 137.951 27.9161C137.769 27.917 137.747 27.9455 137.74 28.1299C137.739 28.1652 137.74 28.2008 137.74 28.2363C137.74 30.6971 137.74 33.1577 137.74 35.6185C137.74 35.7461 137.749 35.8738 137.746 36.0014C137.736 36.5249 138.081 36.7399 138.514 36.7989C138.654 36.8181 138.799 36.8042 138.941 36.8128C139.095 36.8219 139.142 36.8875 139.117 37.0344C139.106 37.1006 139.069 37.1359 139.006 37.143C138.95 37.1494 138.892 37.1515 138.836 37.1515C137.297 37.1519 135.757 37.1519 134.218 37.1517C134.176 37.1517 134.133 37.1532 134.09 37.1491C133.956 37.1362 133.924 37.1027 133.924 36.9805C133.924 36.859 133.956 36.8223 134.091 36.8132C134.212 36.8051 134.334 36.8064 134.455 36.8055C134.615 36.8042 134.763 36.7576 134.905 36.6873C135.09 36.5962 135.2 36.448 135.251 36.2522C135.29 36.1067 135.297 35.9583 135.298 35.8091C135.299 35.1638 135.3 34.5184 135.3 33.8731C135.301 31.994 135.3 30.1146 135.3 28.2355C135.3 27.915 135.299 27.9138 134.984 27.9144C134.691 27.9148 134.399 27.9016 134.108 27.9348C133.435 28.0117 132.996 28.4005 132.708 28.9862C132.582 29.2421 132.49 29.5095 132.439 29.791C132.427 29.8585 132.423 29.9351 132.352 29.9773C132.228 30.0516 132.091 29.9788 132.085 29.8302C132.079 29.6603 132.083 29.4897 132.083 29.3196C132.083 28.7382 132.083 28.1567 132.083 27.5752C132.083 27.2787 132.086 27.2753 132.379 27.2753C133.761 27.2746 135.143 27.275 136.526 27.275V27.2753Z" fill="white"/>
<path d="M144.031 20.4796C144.031 20.7259 144.033 20.9725 144.03 21.2188C144.03 21.295 143.979 21.3489 143.928 21.4C143.067 22.2663 142.054 22.8095 140.811 22.9093C139.962 22.9775 139.132 22.9144 138.317 22.6781C137.188 22.3509 136.267 21.7249 135.628 20.733C135.111 19.9294 134.837 19.0484 134.817 18.0833C134.789 16.7188 135.244 15.5301 136.116 14.5054C137.014 13.45 138.181 12.8564 139.559 12.6739C140.576 12.5391 141.543 12.7359 142.486 13.1023C142.691 13.1823 142.896 13.2641 143.113 13.3126C143.424 13.3823 143.658 13.2677 143.785 12.9743C143.813 12.9096 143.827 12.8393 143.849 12.7721C143.888 12.6516 143.944 12.6218 144.073 12.6373C144.189 12.6511 144.203 12.7297 144.204 12.8208C144.204 12.8634 144.205 12.906 144.205 12.9484C144.205 13.8843 144.205 14.8205 144.205 15.7564C144.205 15.806 144.203 15.8556 144.203 15.9052C144.204 15.9993 144.182 16.0754 144.067 16.0822C143.968 16.0879 143.88 16.0749 143.848 15.961C143.832 15.9065 143.817 15.852 143.801 15.7975C143.625 15.2022 143.344 14.6648 142.896 14.2279C142.294 13.6409 141.564 13.3214 140.721 13.335C139.612 13.3529 138.757 13.8598 138.165 14.789C137.851 15.2806 137.685 15.8354 137.589 16.4034C137.383 17.6241 137.456 18.8334 137.808 20.0223C137.971 20.5737 138.23 21.0717 138.649 21.4816C139.03 21.8539 139.489 22.0647 140.006 22.1509C140.877 22.2964 141.71 22.1801 142.484 21.7411C142.921 21.4933 143.288 21.1569 143.636 20.7992C143.748 20.6838 143.86 20.5684 143.973 20.453C143.992 20.4619 144.011 20.4709 144.031 20.4798L144.031 20.4796Z" fill="white"/>
<path d="M121.108 20.4504C121.122 20.7342 121.126 20.9925 121.107 21.2512C121.102 21.3099 121.057 21.3519 121.017 21.3928C120.161 22.267 119.146 22.8054 117.904 22.908C117.063 22.9775 116.239 22.917 115.43 22.6868C114.261 22.3547 113.317 21.7032 112.669 20.671C112.19 19.9064 111.93 19.0667 111.902 18.1574C111.858 16.7492 112.328 15.5265 113.233 14.4634C113.835 13.7557 114.597 13.2671 115.47 12.9496C116.155 12.7007 116.864 12.5966 117.591 12.6384C118.272 12.6773 118.926 12.8466 119.558 13.098C119.77 13.1821 119.984 13.26 120.206 13.3137C120.502 13.3852 120.743 13.2639 120.863 12.9843C120.893 12.913 120.909 12.8357 120.935 12.7623C120.974 12.6543 121.029 12.6266 121.149 12.6371C121.263 12.6469 121.287 12.7184 121.286 12.8134C121.286 12.863 121.287 12.9126 121.287 12.9622C121.287 13.8909 121.287 14.8198 121.287 15.7485C121.287 15.8052 121.286 15.862 121.286 15.9187C121.286 16.0062 121.259 16.073 121.158 16.0809C121.061 16.0883 120.969 16.0824 120.932 15.9697C120.912 15.9091 120.897 15.8471 120.879 15.786C120.698 15.1937 120.425 14.6527 119.972 14.2179C119.383 13.6527 118.675 13.3337 117.857 13.335C116.704 13.3367 115.815 13.8532 115.222 14.8347C114.843 15.4643 114.677 16.1695 114.606 16.897C114.509 17.8802 114.58 18.8502 114.831 19.8062C114.929 20.1777 115.061 20.5352 115.256 20.8694C115.694 21.6193 116.342 22.0494 117.205 22.1663C118.036 22.2789 118.822 22.1582 119.557 21.7449C119.825 21.5942 120.068 21.4092 120.297 21.206C120.499 21.027 120.697 20.8435 120.873 20.638C120.927 20.5748 120.978 20.5037 121.107 20.45L121.108 20.4504Z" fill="white"/>
<path d="M172.63 37.1513C171.953 37.1513 171.276 37.1513 170.599 37.1513C170.542 37.1513 170.485 37.1528 170.428 37.1504C170.258 37.143 170.221 37.1113 170.223 36.9769C170.226 36.846 170.26 36.8181 170.437 36.8104C170.53 36.8064 170.623 36.807 170.715 36.8036C170.765 36.8019 170.815 36.7993 170.864 36.7919C171.317 36.7227 171.478 36.4815 171.315 36.0582C171.112 35.5287 170.877 35.0109 170.662 34.4859C170.61 34.36 170.516 34.3494 170.404 34.3498C169.862 34.3513 169.32 34.3505 168.779 34.3505C168.316 34.3505 167.852 34.3556 167.389 34.3477C167.233 34.3451 167.135 34.3909 167.078 34.541C166.93 34.9247 166.732 35.2879 166.613 35.6837C166.572 35.8217 166.556 35.9609 166.56 36.1036C166.569 36.4061 166.74 36.6303 167.035 36.7089C167.242 36.764 167.454 36.7904 167.668 36.8049C167.749 36.8104 167.824 36.8232 167.844 36.9237C167.873 37.0695 167.825 37.1362 167.674 37.1498C167.652 37.1517 167.631 37.1513 167.609 37.1513C166.654 37.1513 165.7 37.1519 164.745 37.1504C164.655 37.1504 164.552 37.1664 164.517 37.0433C164.484 36.9243 164.528 36.8383 164.653 36.801C164.79 36.7604 164.926 36.721 165.052 36.6524C165.277 36.5304 165.447 36.3539 165.589 36.1444C165.866 35.7367 166.069 35.2913 166.271 34.8453C166.681 33.9404 167.086 33.0336 167.493 32.1275C168.011 30.9754 168.528 29.8232 169.046 28.6711C169.255 28.2053 169.466 27.74 169.677 27.2746C169.695 27.2359 169.713 27.1963 169.737 27.1618C169.81 27.0585 169.911 27.0583 169.974 27.1675C170.03 27.2659 170.073 27.3717 170.119 27.4756C170.715 28.8257 171.309 30.1764 171.906 31.5262C172.475 32.8111 173.045 34.0948 173.614 35.379C173.756 35.6975 173.921 36.0026 174.11 36.296C174.289 36.5745 174.528 36.7572 174.863 36.7996C174.968 36.813 175.035 36.8528 175.033 36.9727C175.031 37.0985 175.004 37.1353 174.874 37.1477C174.811 37.1536 174.746 37.1511 174.682 37.1511C173.998 37.1511 173.314 37.1511 172.63 37.1511L172.63 37.1513ZM168.911 30.5626C168.86 30.579 168.849 30.613 168.835 30.645C168.413 31.589 167.989 32.5326 167.569 33.4773C167.446 33.7528 167.458 33.7707 167.763 33.7713C168.51 33.7733 169.257 33.772 170.004 33.7718C170.054 33.7718 170.104 33.7724 170.153 33.7656C170.282 33.7475 170.301 33.7166 170.259 33.5991C170.252 33.5791 170.241 33.5606 170.233 33.5412C169.829 32.6123 169.426 31.6831 169.021 30.7548C168.991 30.6865 168.972 30.6079 168.911 30.5626Z" fill="white"/>
<path d="M165.358 22.7232C164.674 22.7232 163.99 22.7232 163.306 22.7232C163.242 22.7232 163.178 22.7221 163.114 22.7202C163.013 22.717 162.956 22.6725 162.956 22.5637C162.956 22.4408 162.986 22.401 163.117 22.3893C163.216 22.3804 163.316 22.3816 163.416 22.3804C163.553 22.3787 163.686 22.3574 163.814 22.3114C164.037 22.2315 164.14 22.064 164.103 21.8304C164.089 21.7404 164.063 21.6499 164.027 21.5656C163.819 21.0682 163.604 20.574 163.399 20.0756C163.35 19.9564 163.275 19.9202 163.154 19.9204C162.128 19.923 161.103 19.9238 160.077 19.9196C159.933 19.9189 159.859 19.9751 159.807 20.1059C159.684 20.4156 159.547 20.7195 159.418 21.0271C159.333 21.2319 159.283 21.4442 159.291 21.6686C159.301 21.9818 159.453 22.1898 159.756 22.2799C159.968 22.3431 160.189 22.3621 160.409 22.381C160.503 22.3891 160.574 22.4157 160.578 22.5288C160.584 22.6614 160.549 22.7082 160.414 22.7208C160.364 22.7255 160.314 22.7234 160.264 22.7234C159.367 22.7234 158.469 22.7236 157.572 22.7234C157.515 22.7234 157.458 22.7221 157.401 22.72C157.311 22.7163 157.252 22.6761 157.246 22.5803C157.24 22.4885 157.258 22.4089 157.362 22.3814C157.549 22.3325 157.728 22.269 157.892 22.1623C158.107 22.0227 158.26 21.8319 158.39 21.6171C158.671 21.1546 158.89 20.6624 159.112 20.1708C159.717 18.8258 160.324 17.4809 160.93 16.1357C161.404 15.0816 161.878 14.0273 162.353 12.9732C162.391 12.8891 162.426 12.8028 162.475 12.7251C162.538 12.6257 162.631 12.6263 162.694 12.7258C162.739 12.7973 162.772 12.8771 162.806 12.9549C163.589 14.7254 164.372 16.4962 165.155 18.2672C165.545 19.1495 165.933 20.0324 166.325 20.9136C166.455 21.2053 166.602 21.4885 166.766 21.7631C166.961 22.0889 167.214 22.3274 167.611 22.3802C167.741 22.3974 167.768 22.4455 167.761 22.5669C167.756 22.6827 167.723 22.7187 167.58 22.7204C167.188 22.7253 166.797 22.7229 166.405 22.7232C166.056 22.7232 165.707 22.7232 165.358 22.7232ZM161.646 16.1364C161.583 16.1479 161.572 16.1924 161.555 16.2298C161.129 17.1818 160.703 18.1332 160.279 19.0862C160.168 19.3364 160.178 19.3477 160.446 19.3481C161.229 19.349 162.013 19.3485 162.797 19.3483C162.847 19.3483 162.897 19.3485 162.946 19.3436C163.009 19.3373 163.033 19.2998 163.014 19.2397C163.001 19.1993 162.985 19.1597 162.968 19.1207C162.568 18.1963 162.168 17.2718 161.766 16.348C161.733 16.2724 161.71 16.189 161.646 16.1366L161.646 16.1364Z" fill="white"/>
<path d="M93.8836 22.7236C92.5444 22.7236 91.205 22.7236 89.8658 22.7236C89.8016 22.7236 89.7373 22.7262 89.6736 22.7213C89.5344 22.7104 89.5038 22.6795 89.5023 22.5582C89.5006 22.4351 89.5318 22.4013 89.6665 22.3885C89.7159 22.3838 89.7661 22.3868 89.816 22.3853C89.9156 22.3823 90.017 22.3891 90.1147 22.3738C90.5755 22.3012 90.794 22.0998 90.8477 21.7004C90.8648 21.5733 90.8731 21.4464 90.8731 21.319C90.8738 18.9653 90.874 16.6116 90.8731 14.2579C90.8731 14.1376 90.8667 14.0169 90.856 13.897C90.8216 13.5097 90.6259 13.287 90.1224 13.2025C89.9763 13.178 89.8237 13.1955 89.6744 13.1859C89.5277 13.1765 89.4875 13.1199 89.5031 12.98C89.5117 12.9036 89.5517 12.8638 89.6246 12.8572C89.6883 12.8512 89.7525 12.8499 89.8166 12.8499C91.3696 12.8495 92.9226 12.8495 94.4754 12.8499C94.5323 12.8499 94.5894 12.8512 94.6463 12.8531C94.7483 12.8565 94.8041 12.9057 94.8062 13.0111C94.8086 13.1259 94.7677 13.177 94.6416 13.185C94.5066 13.1936 94.3711 13.1893 94.2357 13.1906C94.0997 13.1919 93.9678 13.2108 93.8367 13.2528C93.5203 13.3541 93.3582 13.5774 93.3289 13.8947C93.3035 14.1695 93.2881 14.4463 93.2876 14.7223C93.2842 16.6789 93.2844 18.6357 93.2876 20.5924C93.2881 20.8756 93.3054 21.1589 93.3246 21.4415C93.3533 21.866 93.541 22.0493 93.9659 22.0853C94.6202 22.1409 95.2756 22.1453 95.9277 22.0736C96.511 22.0095 96.9945 21.7457 97.3689 21.2867C97.7209 20.8551 97.9336 20.3546 98.1186 19.8389C98.1761 19.6788 98.2281 19.5166 98.2815 19.355C98.3091 19.2713 98.3619 19.2298 98.4538 19.2255C98.6183 19.2181 98.6574 19.2519 98.6399 19.4176C98.5543 20.2204 98.4667 21.0231 98.3809 21.826C98.3585 22.0372 98.3412 22.2492 98.3204 22.4607C98.2973 22.6976 98.2721 22.723 98.03 22.7232C96.6481 22.7242 95.2661 22.7236 93.884 22.7238L93.8836 22.7236Z" fill="white"/>
<path d="M103.21 28.1268C95.4291 28.1268 87.6478 28.1268 79.8665 28.1268C79.7739 28.1268 79.6811 28.1266 79.5888 28.1215C79.5056 28.1168 79.459 28.071 79.4566 27.9854C79.4562 27.9712 79.4547 27.9571 79.4547 27.9429C79.4532 27.5209 79.4222 27.5347 79.8338 27.5347C95.4107 27.5347 110.987 27.5347 126.564 27.5347C126.571 27.5347 126.579 27.5347 126.586 27.5347C126.973 27.5351 127.026 27.5997 126.968 27.9886C126.955 28.0738 126.914 28.1177 126.832 28.1217C126.739 28.1262 126.647 28.1266 126.554 28.1266C118.773 28.1266 110.991 28.1266 103.21 28.1266L103.21 28.1268Z" fill="white"/>
<path d="M51.0234 35.5398C51.0234 34.7035 51.0227 33.867 51.0234 33.0307C51.0236 32.7649 51.0443 32.7541 51.2806 32.8897C52.7421 33.7294 54.2027 34.5708 55.6666 35.4067C55.8077 35.4874 55.8663 35.5834 55.8659 35.7455C55.8616 37.4253 55.8633 39.1052 55.8629 40.7852C55.8629 40.8276 55.8639 40.8708 55.8571 40.9126C55.8404 41.0118 55.8019 41.0367 55.7098 40.9894C55.5518 40.9083 55.3987 40.8172 55.2447 40.7286C53.919 39.9666 52.5952 39.201 51.2654 38.446C51.0875 38.3449 51.0167 38.2316 51.0191 38.0279C51.0291 37.1986 51.0232 36.3693 51.0232 35.54L51.0234 35.5398Z" fill="white"/>
<path d="M56.358 27.9071C56.2895 27.9027 56.238 27.862 56.1831 27.8305C55.3748 27.3676 54.5668 26.9043 53.7591 26.4402C53.0933 26.0576 52.4276 25.6748 51.7631 25.2898C51.5369 25.1587 51.5394 25.1389 51.762 25.0109C52.9338 24.3384 54.1049 23.6651 55.2764 22.9921C55.5662 22.8256 55.8587 22.6638 56.1446 22.4909C56.2865 22.4051 56.4029 22.397 56.5557 22.486C57.6249 23.1088 58.6998 23.7213 59.7734 24.3364C60.1497 24.5521 60.5273 24.7657 60.9039 24.9807C60.9595 25.0124 61.0138 25.0463 61.0677 25.0808C61.1474 25.1317 61.1339 25.1793 61.0608 25.2236C61.0061 25.2566 60.9518 25.2905 60.8962 25.3224C59.7005 26.0103 58.5048 26.698 57.3091 27.3859C57.0501 27.5348 56.7918 27.6847 56.5324 27.8328C56.4773 27.8644 56.4234 27.9008 56.3582 27.9071H56.358Z" fill="white"/>
<path d="M169.849 17.7878C169.849 16.6183 169.849 15.4488 169.849 14.2793C169.849 14.1801 169.844 14.0809 169.844 13.9816C169.847 13.4715 169.509 13.2622 169.104 13.2026C168.957 13.1811 168.806 13.1928 168.656 13.1858C168.576 13.182 168.5 13.1675 168.481 13.0664C168.455 12.9322 168.501 12.8654 168.64 12.8528C168.697 12.8477 168.754 12.8502 168.811 12.8502C170.314 12.8502 171.817 12.8502 173.32 12.8502C173.384 12.8502 173.448 12.8517 173.512 12.8537C173.615 12.8568 173.668 12.905 173.667 13.0123C173.667 13.1343 173.636 13.176 173.505 13.1854C173.378 13.1945 173.249 13.1924 173.121 13.1941C172.937 13.1964 172.772 13.2592 172.617 13.3512C172.469 13.4394 172.383 13.5761 172.34 13.7396C172.304 13.8773 172.292 14.0183 172.292 14.1609C172.292 15.2455 172.291 16.3298 172.29 17.4144C172.29 18.6478 172.29 19.8812 172.29 21.1143C172.29 21.2632 172.29 21.4122 172.298 21.5608C172.325 22.0707 172.609 22.3526 173.12 22.3792C173.256 22.3863 173.391 22.3852 173.526 22.3914C173.62 22.3956 173.665 22.4469 173.667 22.5423C173.669 22.6667 173.639 22.7063 173.51 22.7203C173.454 22.7265 173.397 22.7241 173.339 22.7241C171.829 22.7241 170.32 22.7241 168.81 22.7241C168.753 22.7241 168.695 22.7265 168.639 22.7214C168.508 22.7094 168.478 22.6722 168.476 22.5489C168.475 22.4418 168.527 22.392 168.63 22.3892C168.73 22.3865 168.829 22.386 168.929 22.3835C169.029 22.3811 169.128 22.3777 169.226 22.352C169.63 22.2459 169.816 22.0305 169.839 21.6157C169.852 21.3754 169.851 21.1339 169.851 20.8929C169.853 19.858 169.852 18.8232 169.852 17.7883C169.851 17.7883 169.849 17.7883 169.848 17.7883L169.849 17.7878Z" fill="white"/>
<path d="M73.3923 15.5506C73.3923 16.309 73.3821 17.0674 73.3983 17.8254C73.4035 18.0647 73.3226 18.1937 73.1169 18.3102C71.7249 19.099 70.34 19.9002 68.9527 20.6973C68.8911 20.7326 68.8315 20.7716 68.7692 20.8061C68.5933 20.9032 68.5605 20.8857 68.5528 20.6933C68.5518 20.6649 68.5524 20.6366 68.5524 20.6083C68.5524 19.0634 68.555 17.5184 68.5483 15.9735C68.5475 15.7802 68.6076 15.6637 68.7793 15.566C70.2378 14.7361 71.6914 13.8974 73.1473 13.063C73.2117 13.0262 73.2786 12.9417 73.3553 12.9923C73.4261 13.039 73.3911 13.1369 73.3913 13.212C73.3932 13.9915 73.3925 14.7712 73.3925 15.5506H73.3921H73.3923Z" fill="white"/>
<path d="M50.0078 15.5499C50.0078 16.3083 49.9975 17.0666 50.0138 17.8246C50.0189 18.0635 49.9396 18.1938 49.7332 18.3098C48.6117 18.9413 47.4986 19.5873 46.3824 20.2279C46.0495 20.4191 45.7166 20.6105 45.3828 20.8004C45.1976 20.9058 45.1689 20.8901 45.1681 20.6721C45.166 20.1334 45.1674 19.5949 45.1674 19.0563C45.1674 18.0288 45.1717 17.0011 45.1636 15.9736C45.1621 15.7796 45.2241 15.6668 45.3965 15.5688C46.732 14.8102 48.0618 14.0418 49.3933 13.2762C49.5166 13.2053 49.6377 13.1304 49.7628 13.0629C49.8284 13.0275 49.8945 12.9419 49.971 12.9918C50.0424 13.0382 50.0061 13.1361 50.0065 13.2111C50.0091 13.6292 50.0078 14.0474 50.0078 14.4653C50.0078 14.8268 50.0078 15.1881 50.0078 15.5497V15.5499Z" fill="white"/>
<path d="M67.5402 18.2685C67.5402 19.0555 67.5408 19.8424 67.54 20.6295C67.5398 20.895 67.5186 20.9063 67.2823 20.7707C65.8142 19.9275 64.3469 19.0827 62.8769 18.243C62.7479 18.1693 62.6968 18.0765 62.6998 17.9345C62.7045 17.6935 62.7009 17.4525 62.7007 17.2114C62.7007 15.8999 62.7003 14.5882 62.7003 13.2767C62.7003 12.9196 62.7062 12.9143 63.009 13.0882C63.959 13.6339 64.9076 14.182 65.857 14.7287C66.3562 15.0163 66.8532 15.3082 67.3571 15.5874C67.4948 15.6636 67.5438 15.7556 67.5427 15.908C67.5372 16.6949 67.5402 17.4818 67.5402 18.2688V18.2685Z" fill="white"/>
<path d="M55.8566 31.8508C55.8566 32.5597 55.8566 33.2685 55.8566 33.9775C55.8566 34.0341 55.8583 34.091 55.8551 34.1476C55.8453 34.3182 55.8156 34.3375 55.6625 34.2507C55.1116 33.9388 54.563 33.6228 54.0139 33.3077C53.3166 32.9079 52.6195 32.5076 51.9225 32.1073C51.8485 32.0647 51.7734 32.0239 51.7016 31.9779C51.5575 31.8861 51.5566 31.851 51.7103 31.7622C52.4557 31.3321 53.203 30.9048 53.9495 30.4764C54.5108 30.1541 55.0714 29.8302 55.6336 29.5096C55.8361 29.394 55.8555 29.4057 55.8562 29.6386C55.8577 30.3759 55.8566 31.1132 55.8568 31.8505L55.8566 31.8508Z" fill="white"/>
<path d="M51.0182 28.4973C51.0182 27.7678 51.0178 27.0382 51.0182 26.3088C51.0182 26.0409 51.0311 26.0337 51.2541 26.1619C52.5293 26.8949 53.805 27.6275 55.0798 28.3614C55.3392 28.5109 55.3366 28.5177 55.0711 28.6704C53.8142 29.3928 52.5582 30.1171 51.3003 30.8376C51.2246 30.8808 51.1467 30.9823 51.0559 30.9257C50.9802 30.8786 51.0195 30.7679 51.0193 30.6855C51.0172 29.9561 51.018 29.2265 51.018 28.497L51.0182 28.4973Z" fill="white"/>
<path d="M51.0206 21.777C51.0206 21.0402 51.0202 20.3033 51.0208 19.5664C51.021 19.3275 51.0347 19.3192 51.2355 19.4344C52.5187 20.1694 53.8018 20.9048 55.0841 21.641C55.3454 21.7911 55.3433 21.796 55.0779 21.9486C53.8576 22.6504 52.6378 23.353 51.4177 24.055C51.3375 24.1012 51.2579 24.1486 51.1752 24.1895C51.0578 24.2476 51.0298 24.2291 51.0208 24.0939C51.0176 24.0445 51.0197 23.9947 51.0197 23.9451C51.0197 23.2223 51.0197 22.4997 51.0197 21.7768H51.0202L51.0206 21.777Z" fill="white"/>
<path d="M56.8692 31.8765C56.8692 31.1392 56.8688 30.4019 56.8694 29.6646C56.8696 29.4025 56.884 29.3957 57.1096 29.5254C58.3677 30.2486 59.6265 30.9706 60.8836 31.6958C60.9667 31.7439 61.1042 31.7688 61.1089 31.8682C61.1141 31.9747 60.9729 31.9966 60.8913 32.0439C59.6348 32.7699 58.3763 33.4923 57.1173 34.2141C57.052 34.2513 56.9836 34.3318 56.9075 34.2854C56.8335 34.2402 56.8707 34.1417 56.8705 34.0671C56.8684 33.3369 56.8692 32.6068 56.8692 31.8765Z" fill="white"/>
<path d="M61.6862 28.5038C61.6862 29.2409 61.6868 29.978 61.6857 30.7149C61.6853 30.9791 61.6693 30.9879 61.4465 30.8593C60.1652 30.1202 58.884 29.3812 57.6028 28.6422C57.5782 28.628 57.5525 28.6154 57.5283 28.6003C57.4003 28.5198 57.3992 28.4949 57.5343 28.417C58.4337 27.8983 59.3337 27.3805 60.2339 26.8632C60.647 26.6258 61.0607 26.3896 61.4745 26.1533C61.5115 26.1322 61.5476 26.1086 61.5867 26.0924C61.6359 26.072 61.6729 26.0916 61.6789 26.1442C61.6859 26.2072 61.6862 26.2713 61.6862 26.3349C61.6866 27.0578 61.6864 27.7808 61.6862 28.5036V28.5038Z" fill="white"/>
<path d="M61.6409 19.3425C61.6969 19.4042 61.6867 19.4481 61.6867 19.4898C61.6865 20.9864 61.6863 22.4827 61.6843 23.9792C61.6843 24.0553 61.7185 24.157 61.6508 24.2005C61.5676 24.2537 61.4938 24.1638 61.423 24.1232C60.176 23.4084 58.9298 22.6918 57.6837 21.9753C57.6343 21.947 57.5851 21.9183 57.537 21.8878C57.401 21.8014 57.4006 21.7746 57.5468 21.6905C58.5832 21.0943 59.6203 20.4997 60.6571 19.9042C60.8855 19.773 61.1132 19.6408 61.3416 19.5098C61.4395 19.4538 61.5383 19.3998 61.6411 19.3423L61.6409 19.3425Z" fill="white"/>
<path d="M81.003 34.2853C81.003 34.5899 81.0003 34.8948 81.0041 35.1995C81.0063 35.3745 81.0244 35.3877 81.2034 35.3988C81.3651 35.4089 81.4533 35.4933 81.4681 35.6521C81.4833 35.8148 81.51 35.8297 81.6426 35.7296C82.0651 35.4111 82.3446 35.0087 82.3647 34.4633C82.3728 34.2416 82.351 34.2239 82.1233 34.2205C82.0022 34.2188 81.8808 34.2242 81.7602 34.2171C81.6268 34.2095 81.6047 34.1826 81.5938 34.0479C81.5915 34.0198 81.5921 33.9912 81.5926 33.9629C81.5962 33.7777 81.6186 33.7479 81.8 33.7468C82.3698 33.7436 82.9394 33.7451 83.5093 33.7468C83.586 33.7468 83.6782 33.7366 83.7099 33.8303C83.7466 33.9393 83.7518 34.0551 83.7034 34.1624C83.6765 34.2222 83.6091 34.2182 83.5525 34.2188C83.403 34.2207 83.2531 34.2167 83.1039 34.2222C82.9553 34.2278 82.9277 34.2525 82.9324 34.4021C82.9437 34.7611 83.0784 35.0769 83.291 35.3628C83.4067 35.5184 83.5471 35.6458 83.7107 35.7509C83.8257 35.8248 83.8283 35.8463 83.734 35.946C83.4674 36.2276 83.4945 36.2112 83.2238 36.0037C83.0521 35.8719 82.9225 35.7037 82.8007 35.5282C82.7722 35.4873 82.747 35.4443 82.7164 35.4054C82.6743 35.3515 82.6339 35.3605 82.5995 35.4156C82.5734 35.4578 82.5473 35.5001 82.5214 35.5425C82.3679 35.7944 82.1596 35.9979 81.9353 36.1853C81.7906 36.3062 81.7632 36.3015 81.6298 36.1776C81.5517 36.1052 81.4739 36.0318 81.4029 35.9528C81.3563 35.9006 81.3039 35.8782 81.2363 35.8736C81.0539 35.861 81.009 35.8989 81.0033 36.0835C81.0001 36.1897 81.0009 36.296 80.9998 36.4024C80.999 36.5065 80.9464 36.5589 80.8414 36.5589C80.8271 36.5589 80.813 36.5596 80.7986 36.5602C80.5027 36.5738 80.483 36.5553 80.4815 36.2613C80.4811 36.1904 80.4841 36.1193 80.4796 36.0488C80.4706 35.9034 80.4492 35.8776 80.2976 35.8748C80.0058 35.8695 79.7137 35.8733 79.4216 35.8716C79.3579 35.8712 79.2935 35.868 79.2304 35.8587C79.1684 35.8495 79.1244 35.8097 79.1188 35.7467C79.1049 35.5912 79.0942 35.4375 79.1793 35.2919C79.5555 34.6489 79.9264 34.0029 80.303 33.3602C80.4208 33.1592 80.6712 33.081 80.8927 33.1617C80.9842 33.1949 80.9992 33.2693 81.0001 33.3497C81.0024 33.5765 81.0018 33.8034 81.0024 34.0302C81.0024 34.1151 81.0024 34.2003 81.0024 34.2853H81.0028H81.003ZM80.4807 34.1011C80.3977 34.1183 80.3874 34.1639 80.3671 34.1986C80.213 34.4605 80.0599 34.7228 79.907 34.9855C79.8501 35.0832 79.7934 35.181 79.74 35.2806C79.7062 35.3434 79.7167 35.3947 79.7999 35.396C79.9842 35.3986 80.1685 35.3975 80.3528 35.3949C80.44 35.3937 80.48 35.3404 80.4802 35.2578C80.4811 34.8776 80.4807 34.4973 80.4807 34.1011Z" fill="white"/>
<path d="M110.278 36.5933C109.773 36.5933 109.267 36.5948 108.762 36.5925C108.522 36.5914 108.426 36.4421 108.509 36.2133C108.54 36.1275 108.61 36.1232 108.683 36.1228C108.911 36.1215 109.138 36.1217 109.366 36.1215C109.516 36.1215 109.665 36.1243 109.815 36.12C109.99 36.1153 110.019 36.0904 110.023 35.9254C110.031 35.4858 110.032 35.5386 109.652 35.5356C109.488 35.5343 109.324 35.5394 109.161 35.5322C109.014 35.5258 108.969 35.4847 108.966 35.3371C108.961 34.9971 108.96 34.6569 108.966 34.3169C108.969 34.1497 109.02 34.1023 109.184 34.0916C109.298 34.0844 109.412 34.0884 109.526 34.0882C109.967 34.088 110.409 34.0893 110.85 34.0867C110.932 34.0863 111.041 34.1148 111.076 34.0139C111.118 33.8936 111.119 33.7605 111.071 33.6394C111.044 33.5696 110.963 33.583 110.9 33.5823C110.672 33.5804 110.445 33.5813 110.217 33.5811C109.882 33.5811 109.548 33.5828 109.213 33.5798C109.131 33.5791 109.026 33.6098 108.985 33.5112C108.941 33.4056 108.949 33.2887 108.983 33.1785C108.998 33.1327 109.045 33.121 109.087 33.1167C109.144 33.1112 109.201 33.1103 109.258 33.1101C109.927 33.1097 110.597 33.1099 111.266 33.1101C111.316 33.1101 111.366 33.1088 111.415 33.1146C111.548 33.1301 111.605 33.1716 111.608 33.2977C111.616 33.6588 111.617 34.0203 111.607 34.3814C111.603 34.5208 111.545 34.5556 111.368 34.5566C110.905 34.5596 110.443 34.5577 109.98 34.5581C109.866 34.5581 109.752 34.5602 109.638 34.5596C109.531 34.559 109.485 34.6124 109.482 34.7165C109.472 35.0938 109.502 35.0633 109.793 35.0633C110.327 35.0633 110.861 35.0633 111.395 35.0633C111.452 35.0633 111.509 35.0644 111.566 35.0676C111.651 35.0723 111.695 35.1195 111.699 35.203C111.702 35.2454 111.704 35.288 111.702 35.3303C111.696 35.5024 111.674 35.5296 111.503 35.5332C111.29 35.5379 111.076 35.5345 110.862 35.5349C110.805 35.5349 110.748 35.5364 110.691 35.5381C110.607 35.5409 110.559 35.5831 110.557 35.6693C110.555 35.7613 110.551 35.8537 110.555 35.9454C110.562 36.0943 110.581 36.116 110.734 36.1185C111.026 36.1232 111.318 36.1202 111.61 36.1207C111.71 36.1207 111.81 36.1175 111.909 36.1228C112.055 36.1309 112.077 36.1564 112.086 36.3038C112.089 36.3461 112.086 36.3887 112.085 36.4313C112.082 36.5358 112.024 36.5844 111.923 36.5886C111.866 36.591 111.809 36.5922 111.752 36.5922C111.261 36.5925 110.77 36.5922 110.278 36.5922V36.5933Z" fill="white"/>
<path d="M125.61 35.4016C125.119 35.4016 124.627 35.4018 124.136 35.4016C124.079 35.4016 124.022 35.4014 123.965 35.3963C123.893 35.3897 123.846 35.3522 123.841 35.2753C123.84 35.247 123.838 35.2187 123.838 35.1904C123.832 34.9583 123.856 34.9306 124.086 34.9291C124.406 34.927 124.727 34.9287 125.047 34.9285C125.097 34.9285 125.147 34.927 125.197 34.9257C125.295 34.9234 125.335 34.8691 125.337 34.776C125.339 34.6617 125.307 34.6115 125.199 34.604C125.071 34.5953 124.943 34.5995 124.814 34.5989C124.651 34.5981 124.487 34.6023 124.323 34.5963C124.175 34.591 124.152 34.564 124.142 34.4196C124.139 34.3843 124.139 34.3487 124.142 34.3134C124.151 34.1648 124.173 34.1414 124.317 34.1288C124.331 34.1275 124.345 34.1282 124.359 34.1275C124.559 34.1187 124.658 34.0115 124.655 33.8058C124.654 33.7632 124.652 33.7209 124.651 33.6783C124.648 33.5835 124.598 33.5365 124.503 33.5337C124.461 33.5324 124.418 33.5299 124.375 33.5286C124.269 33.5256 124.221 33.4696 124.222 33.3666C124.223 33.3099 124.222 33.2531 124.225 33.1967C124.228 33.113 124.272 33.0657 124.357 33.0613C124.407 33.0585 124.457 33.0572 124.507 33.0572C125.248 33.057 125.988 33.0572 126.729 33.0572C126.772 33.0572 126.815 33.0594 126.857 33.0596C126.965 33.0602 127.011 33.119 127.011 33.2205C127.011 33.2559 127.013 33.2914 127.012 33.3268C127.006 33.4975 126.988 33.5154 126.812 33.5307C126.585 33.5505 126.581 33.555 126.577 33.786C126.577 33.8073 126.577 33.8286 126.577 33.8499C126.579 34.1145 126.583 34.1173 126.853 34.1279C126.935 34.1311 127.041 34.1035 127.077 34.2059C127.114 34.3128 127.118 34.4316 127.069 34.538C127.038 34.6053 126.961 34.5968 126.897 34.5974C126.676 34.5991 126.456 34.5985 126.235 34.5989C126.178 34.5989 126.121 34.5966 126.064 34.6008C125.93 34.6108 125.898 34.6445 125.9 34.769C125.901 34.8891 125.933 34.9242 126.074 34.9261C126.408 34.9306 126.743 34.9278 127.078 34.9287C127.142 34.9287 127.206 34.9293 127.27 34.9338C127.344 34.9391 127.386 34.9811 127.394 35.0552C127.397 35.0833 127.398 35.1118 127.399 35.1401C127.406 35.3684 127.379 35.4001 127.15 35.4009C126.637 35.4031 126.124 35.4016 125.611 35.4018L125.61 35.4016ZM125.621 33.5318C125.147 33.5314 125.126 33.5527 125.174 33.9732C125.175 33.9802 125.175 33.9872 125.176 33.9942C125.18 34.0807 125.229 34.1218 125.313 34.1235C125.434 34.126 125.555 34.1269 125.675 34.1269C125.945 34.127 126.073 33.994 126.061 33.7279C126.053 33.5595 126.033 33.5388 125.856 33.5322C125.778 33.5292 125.7 33.5318 125.622 33.5318H125.621Z" fill="white"/>
<path d="M100.028 34.2021C100.028 34.5281 100.03 34.854 100.027 35.1798C100.025 35.3893 100.002 35.4093 99.792 35.4119C99.7421 35.4125 99.6923 35.4106 99.6427 35.4078C99.5565 35.4031 99.5144 35.354 99.5125 35.2707C99.5097 35.1574 99.5114 35.044 99.5078 34.9307C99.5018 34.7476 99.4821 34.7293 99.2931 34.7233C99.2219 34.721 99.1507 34.7218 99.0795 34.7229C98.8866 34.7261 98.8824 34.7255 98.8345 34.9247C98.8097 35.0282 98.7442 35.0625 98.6501 35.0644C98.5221 35.067 98.394 35.067 98.2657 35.0672C97.931 35.0672 97.5964 35.0699 97.262 35.0657C97.0618 35.0631 97.0272 35.0282 97.0259 34.8257C97.0227 34.3299 97.0225 33.8338 97.0259 33.3379C97.0272 33.1512 97.0648 33.1131 97.2541 33.111C97.6884 33.1063 98.1226 33.1071 98.5569 33.1101C98.7699 33.1116 98.7797 33.1208 98.8411 33.3358C98.8623 33.4099 98.9042 33.4427 98.9762 33.4457C99.0331 33.448 99.09 33.4488 99.1471 33.4491C99.4746 33.4501 99.4774 33.4501 99.5086 33.131C99.5187 33.029 99.5587 32.9721 99.6652 32.9717C99.6795 32.9717 99.6936 32.9707 99.7079 32.97C100.003 32.9545 100.027 32.9762 100.028 33.2672C100.029 33.5789 100.028 33.8906 100.028 34.2025V34.2021ZM97.5154 34.0865C97.5154 34.2066 97.5149 34.3269 97.5154 34.447C97.5158 34.5411 97.5633 34.5917 97.6591 34.5922C97.8295 34.5928 97.9999 34.5932 98.1703 34.5915C98.2646 34.5907 98.3157 34.54 98.3164 34.4465C98.3179 34.2062 98.3179 33.966 98.3164 33.7256C98.3159 33.6313 98.2648 33.5826 98.1701 33.5821C97.9997 33.5815 97.8293 33.5817 97.6588 33.5817C97.5624 33.5817 97.5156 33.6311 97.5152 33.7258C97.5147 33.8459 97.5152 33.9662 97.5152 34.0863L97.5154 34.0865ZM99.1616 34.2536C99.1616 34.2522 99.1616 34.2507 99.1616 34.2492C99.2322 34.2492 99.3029 34.2509 99.3735 34.2487C99.489 34.2453 99.5074 34.1681 99.5067 34.0744C99.5061 33.9845 99.4749 33.9224 99.375 33.92C99.255 33.9172 99.1347 33.9134 99.0147 33.9181C98.8757 33.9234 98.8447 33.9551 98.8407 34.0737C98.8362 34.206 98.8714 34.2436 99.0134 34.253C99.0626 34.2562 99.1122 34.2534 99.1618 34.2534L99.1616 34.2536Z" fill="white"/>
<path d="M115.343 34.0267C115.343 34.2888 115.345 34.5509 115.343 34.813C115.341 35.0572 115.322 35.0742 115.071 35.0723C115.042 35.0721 115.014 35.0708 114.986 35.071C114.88 35.0717 114.828 35.0178 114.826 34.915C114.824 34.7591 114.826 34.6033 114.823 34.4476C114.818 34.2373 114.798 34.2175 114.59 34.2111C114.32 34.2029 114.185 34.33 114.184 34.5924C114.183 34.9331 114.174 34.9418 113.84 34.9422C113.42 34.9427 113 34.9442 112.58 34.9414C112.361 34.9399 112.336 34.9146 112.335 34.6946C112.333 34.2271 112.333 33.7597 112.335 33.2922C112.336 33.0844 112.361 33.0648 112.572 33.0618C112.818 33.0584 112.844 33.0831 112.852 33.3203C112.853 33.3627 112.854 33.4052 112.854 33.4478C112.854 33.5509 112.903 33.6064 113.01 33.6062C113.18 33.6058 113.351 33.6062 113.522 33.6054C113.619 33.6047 113.662 33.5504 113.663 33.4572C113.664 33.3722 113.665 33.2873 113.669 33.2023C113.672 33.1191 113.716 33.072 113.802 33.0661C113.823 33.0646 113.844 33.0635 113.865 33.0625C114.157 33.0471 114.182 33.0706 114.184 33.3612C114.185 33.5937 114.304 33.7089 114.541 33.7069C114.548 33.7069 114.555 33.7069 114.562 33.7069C114.802 33.7033 114.819 33.6873 114.823 33.4561C114.825 33.3569 114.82 33.2577 114.826 33.1587C114.835 33.0007 114.859 32.9794 115.019 32.9709C115.04 32.9698 115.062 32.9703 115.083 32.9705C115.322 32.9707 115.341 32.9873 115.343 33.22C115.346 33.4891 115.344 33.7582 115.344 34.0274L115.343 34.0267ZM113.261 34.5062V34.5051C113.339 34.5051 113.418 34.5092 113.496 34.5043C113.632 34.4958 113.653 34.4736 113.663 34.3382C113.666 34.2888 113.663 34.239 113.662 34.1894C113.66 34.0938 113.609 34.0463 113.515 34.0457C113.344 34.0446 113.173 34.0448 113.002 34.0461C112.958 34.0465 112.91 34.0538 112.888 34.0934C112.831 34.1992 112.84 34.3156 112.87 34.4244C112.896 34.5215 112.993 34.5026 113.069 34.5058C113.133 34.5085 113.197 34.5064 113.261 34.5064L113.261 34.5062Z" fill="white"/>
<path d="M92.8823 34.051C92.8823 34.3342 92.8849 34.6176 92.8815 34.9007C92.8789 35.1181 92.8485 35.1449 92.6334 35.1479C92.6191 35.1479 92.605 35.1481 92.5907 35.1479C92.3912 35.1428 92.3683 35.1226 92.364 34.9284C92.3606 34.7798 92.3649 34.631 92.3623 34.4824C92.3587 34.2801 92.3439 34.2667 92.1427 34.2614C92.1143 34.2605 92.0854 34.2643 92.0574 34.2605C91.85 34.2322 91.7264 34.298 91.6372 34.5096C91.4683 34.9103 90.9865 35.1081 90.5204 35.0095C89.9538 34.8897 89.6352 34.3774 89.7566 33.7817C89.8652 33.2498 90.3844 32.9053 90.9228 32.9986C91.2756 33.0597 91.5241 33.2549 91.6633 33.5726C91.7341 33.7342 91.8239 33.7949 91.9994 33.7906C92.3625 33.7815 92.3627 33.79 92.3631 33.4304C92.3631 33.3384 92.3602 33.246 92.3651 33.1542C92.3732 33.0033 92.3952 32.9826 92.5393 32.9705C92.8505 32.9441 92.8817 32.9724 92.8825 33.2862C92.8832 33.5411 92.8825 33.7959 92.8825 34.051H92.8821H92.8823ZM90.752 34.5564C90.8925 34.576 91.015 34.503 91.1127 34.3785C91.2515 34.2015 91.2613 34.0033 91.2021 33.7968C91.1253 33.5294 90.8411 33.3886 90.5773 33.4842C90.3868 33.5532 90.2826 33.7118 90.273 33.9471C90.2632 34.1843 90.2989 34.4004 90.5405 34.5213C90.5991 34.5507 90.663 34.5537 90.752 34.5564Z" fill="white"/>
<path d="M106.766 36.986C106.388 36.986 106.011 36.9879 105.634 36.9852C105.424 36.9837 105.382 36.9447 105.376 36.738C105.37 36.5255 105.37 36.3128 105.377 36.1003C105.384 35.8787 105.435 35.831 105.664 35.8297C106.17 35.8269 106.675 35.8288 107.181 35.8284C107.245 35.8284 107.309 35.8276 107.373 35.8246C107.46 35.8205 107.499 35.7724 107.5 35.6873C107.502 35.5927 107.462 35.5393 107.364 35.5374C107.293 35.5359 107.221 35.5346 107.15 35.5344C106.638 35.5342 106.125 35.5355 105.612 35.5333C105.398 35.5325 105.303 35.3745 105.392 35.1788C105.411 35.1354 105.443 35.1113 105.489 35.1075C105.545 35.1026 105.602 35.1009 105.659 35.1009C106.357 35.1005 107.054 35.1005 107.752 35.1009C107.809 35.1009 107.866 35.1015 107.923 35.1073C108.004 35.1154 108.059 35.1637 108.061 35.2438C108.066 35.5269 108.066 35.8103 108.063 36.0935C108.063 36.1853 108.001 36.234 107.913 36.2438C107.842 36.2517 107.771 36.2532 107.7 36.2534C107.223 36.2542 106.746 36.2536 106.269 36.254C106.212 36.254 106.155 36.2547 106.098 36.2589C106.011 36.2655 105.975 36.3185 105.975 36.4014C105.974 36.4827 106.005 36.5404 106.094 36.5476C106.157 36.553 106.222 36.5534 106.286 36.5534C106.791 36.5538 107.297 36.5534 107.802 36.5536C107.859 36.5536 107.916 36.5515 107.973 36.5555C108.122 36.5659 108.146 36.5908 108.154 36.7331C108.167 36.943 108.132 36.9835 107.919 36.9849C107.535 36.9875 107.15 36.9856 106.766 36.9856V36.986Z" fill="white"/>
<path d="M114.093 36.9865C113.73 36.9865 113.366 36.988 113.003 36.9858C112.751 36.9846 112.727 36.9588 112.724 36.7006C112.722 36.5232 112.721 36.3461 112.724 36.1687C112.728 35.9405 112.758 35.909 112.985 35.9079C113.47 35.9053 113.954 35.9073 114.439 35.9068C114.517 35.9068 114.595 35.9062 114.674 35.9026C114.758 35.8987 114.805 35.8549 114.806 35.7682C114.806 35.6839 114.766 35.6337 114.68 35.6283C114.616 35.6245 114.552 35.6239 114.487 35.6237C113.982 35.6232 113.476 35.6247 112.97 35.6228C112.749 35.6219 112.655 35.4776 112.737 35.2747C112.758 35.2219 112.798 35.1978 112.851 35.194C112.908 35.19 112.965 35.1893 113.022 35.1893C113.685 35.1889 114.347 35.1889 115.01 35.1891C115.06 35.1891 115.11 35.1895 115.159 35.1917C115.268 35.1966 115.336 35.2485 115.338 35.3611C115.34 35.6164 115.34 35.8717 115.338 36.1268C115.337 36.2405 115.27 36.2933 115.161 36.2954C114.997 36.2986 114.833 36.2986 114.669 36.2988C114.299 36.2992 113.928 36.2988 113.558 36.2994C113.501 36.2994 113.444 36.3007 113.387 36.3084C113.32 36.3173 113.293 36.3635 113.294 36.4289C113.295 36.4949 113.326 36.5381 113.393 36.5456C113.456 36.5526 113.521 36.5541 113.585 36.5541C114.098 36.5547 114.611 36.5543 115.124 36.5547C115.181 36.5547 115.238 36.5551 115.295 36.5596C115.379 36.5664 115.422 36.6137 115.424 36.6984C115.425 36.7338 115.427 36.7693 115.425 36.8047C115.417 36.9514 115.395 36.9784 115.248 36.9844C115.098 36.9903 114.949 36.9865 114.799 36.9867C114.564 36.9867 114.329 36.9867 114.094 36.9867L114.093 36.9865Z" fill="white"/>
<path d="M118.53 36.9874C118.152 36.9874 117.774 36.9893 117.397 36.9868C117.175 36.9853 117.139 36.9493 117.133 36.7245C117.128 36.5544 117.128 36.384 117.133 36.2141C117.139 35.9908 117.176 35.9537 117.398 35.9527C117.918 35.9505 118.438 35.952 118.958 35.9516C119.022 35.9516 119.087 35.9508 119.15 35.9454C119.218 35.9399 119.251 35.8988 119.251 35.8317C119.251 35.7655 119.222 35.7217 119.153 35.7153C119.09 35.7093 119.025 35.7085 118.961 35.7085C118.427 35.7078 117.893 35.7095 117.358 35.7065C117.174 35.7055 117.137 35.6661 117.133 35.5028C117.129 35.3329 117.168 35.282 117.34 35.2814C118.088 35.2782 118.836 35.2775 119.584 35.282C119.787 35.2833 119.826 35.3322 119.829 35.543C119.832 35.7202 119.832 35.8975 119.829 36.0749C119.826 36.301 119.793 36.3365 119.57 36.3391C119.264 36.3425 118.958 36.3402 118.651 36.3404C118.437 36.3404 118.224 36.3404 118.01 36.3406C117.96 36.3406 117.91 36.3412 117.861 36.3448C117.788 36.3502 117.74 36.383 117.737 36.4628C117.735 36.5422 117.779 36.5799 117.854 36.5848C117.911 36.5886 117.968 36.5891 118.025 36.5891C118.538 36.5893 119.051 36.5891 119.563 36.5893C119.621 36.5893 119.678 36.5871 119.734 36.591C119.883 36.6012 119.913 36.6365 119.912 36.7928C119.911 36.9455 119.882 36.9836 119.726 36.9855C119.327 36.99 118.928 36.987 118.529 36.987V36.9878L118.53 36.9874Z" fill="white"/>
<path d="M106.712 34.776C106.221 34.776 105.73 34.776 105.239 34.776C105.182 34.776 105.125 34.7749 105.068 34.7713C104.994 34.7668 104.949 34.7272 104.944 34.6523C104.94 34.5888 104.94 34.5249 104.944 34.4615C104.948 34.3874 104.99 34.3442 105.065 34.3389C105.129 34.3342 105.193 34.3335 105.257 34.3335C105.89 34.3331 106.524 34.3335 107.157 34.3331C107.221 34.3331 107.285 34.3318 107.349 34.3299C107.431 34.3276 107.485 34.2907 107.498 34.2071C107.525 34.025 107.551 33.843 107.575 33.6605C107.585 33.5813 107.539 33.5419 107.464 33.5364C107.407 33.5321 107.35 33.5321 107.293 33.5321C106.745 33.5319 106.197 33.5321 105.649 33.5317C105.585 33.5317 105.521 33.5313 105.457 33.5266C105.374 33.5204 105.328 33.4742 105.326 33.3895C105.325 33.3258 105.324 33.2622 105.326 33.1985C105.329 33.1144 105.374 33.0682 105.459 33.0637C105.509 33.0612 105.559 33.0597 105.608 33.0597C106.356 33.0595 107.103 33.0595 107.85 33.0593C107.871 33.0593 107.893 33.0586 107.914 33.0597C108.102 33.0682 108.158 33.1268 108.137 33.3105C108.111 33.5496 108.078 33.7881 108.047 34.0267C108.042 34.0619 108.034 34.0966 108.031 34.1317C108.018 34.291 108.043 34.3205 108.199 34.3318C108.228 34.334 108.256 34.332 108.285 34.3335C108.478 34.3427 108.504 34.3704 108.502 34.5611C108.5 34.7425 108.476 34.7732 108.292 34.7743C107.766 34.7775 107.239 34.7753 106.712 34.7753V34.7757V34.776Z" fill="white"/>
<path d="M91.5611 36.9822C91.2123 36.9822 90.8634 36.9849 90.5146 36.9811C90.3108 36.9788 90.276 36.9447 90.2745 36.7443C90.2711 36.3192 90.2711 35.8942 90.2749 35.469C90.2764 35.2955 90.3031 35.2744 90.4736 35.2661C90.5091 35.2644 90.5448 35.2646 90.5803 35.2659C90.7556 35.2723 90.774 35.2897 90.79 35.4603C90.8114 35.6898 90.8114 35.6917 91.0449 35.6926C91.408 35.6941 91.771 35.6949 92.1341 35.6919C92.3381 35.6902 92.3492 35.6762 92.3661 35.4769C92.3828 35.2817 92.3888 35.2757 92.5784 35.265C92.7813 35.2537 92.8831 35.3519 92.8838 35.5597C92.8844 35.907 92.8838 36.254 92.8838 36.6013C92.8838 36.6366 92.8842 36.6722 92.8831 36.7075C92.875 36.9419 92.8391 36.9802 92.6075 36.9819C92.2588 36.9843 91.9098 36.9826 91.5611 36.9826V36.9822ZM91.5587 36.5436V36.5431C91.7651 36.5431 91.9714 36.5474 92.1777 36.5417C92.3364 36.5372 92.3663 36.4972 92.3653 36.3272C92.3644 36.1671 92.3411 36.135 92.185 36.1335C91.7867 36.1295 91.3881 36.1297 90.9897 36.1333C90.8202 36.1348 90.793 36.1686 90.7915 36.3345C90.7902 36.5044 90.8172 36.5382 90.9822 36.5425C91.1743 36.5472 91.3665 36.5436 91.5585 36.5436H91.5587Z" fill="white"/>
<path d="M125.632 35.6497C125.995 35.6497 126.358 35.6474 126.721 35.6508C126.932 35.6527 126.968 35.6895 126.97 35.9012C126.974 36.1843 126.974 36.4677 126.969 36.7511C126.966 36.9355 126.926 36.9772 126.74 36.9781C126 36.981 125.259 36.9812 124.519 36.9774C124.33 36.9764 124.28 36.9246 124.276 36.7334C124.27 36.4503 124.27 36.1669 124.275 35.8837C124.279 35.6893 124.319 35.6527 124.521 35.6508C124.891 35.6476 125.261 35.6499 125.632 35.6499L125.632 35.6497ZM125.641 36.0938V36.0945C125.421 36.0945 125.201 36.0902 124.981 36.096C124.825 36.1 124.795 36.1415 124.797 36.3119C124.798 36.472 124.822 36.5048 124.976 36.5062C125.402 36.5103 125.828 36.5103 126.254 36.5067C126.423 36.5052 126.445 36.476 126.446 36.3027C126.447 36.1283 126.424 36.0985 126.258 36.0949C126.053 36.0904 125.847 36.0938 125.641 36.0938H125.641Z" fill="white"/>
<path d="M118.477 34.4044C118.043 34.4044 117.609 34.4044 117.175 34.4044C117.042 34.4044 117.017 34.3817 117.006 34.246C116.991 34.071 117.026 34.0097 117.151 33.9935C117.173 33.9908 117.194 33.9937 117.215 33.9908C117.309 33.9769 117.437 34.0353 117.486 33.9239C117.539 33.8008 117.52 33.6601 117.493 33.5275C117.486 33.4898 117.452 33.4708 117.415 33.4647C117.38 33.4587 117.345 33.4581 117.309 33.4555C117.108 33.4404 117.076 33.4097 117.085 33.2358C117.092 33.0816 117.12 33.0584 117.329 33.0574C117.721 33.0554 118.112 33.0567 118.503 33.0567C118.887 33.0567 119.271 33.0548 119.655 33.058C119.847 33.0597 119.884 33.1014 119.874 33.2822C119.867 33.4146 119.844 33.4387 119.71 33.4536C119.682 33.4568 119.653 33.4549 119.625 33.457C119.596 33.4593 119.564 33.4561 119.541 33.4691C119.385 33.5577 119.465 33.7078 119.453 33.8326C119.444 33.9218 119.489 33.9822 119.587 33.9867C119.665 33.9903 119.744 33.9867 119.822 33.9961C119.933 34.0095 119.959 34.051 119.958 34.1926C119.958 34.3338 119.933 34.3791 119.821 34.388C119.694 34.3981 119.565 34.3938 119.437 34.394C119.117 34.3946 118.797 34.394 118.477 34.394V34.4042L118.477 34.4044ZM118.506 33.4564V33.4553C118.456 33.4553 118.407 33.4553 118.357 33.4553C118.026 33.4559 118.007 33.4759 118.034 33.804C118.047 33.9563 118.072 33.9833 118.231 33.9888C118.38 33.994 118.529 33.9918 118.677 33.9905C118.919 33.9884 118.954 33.952 118.957 33.7052C118.957 33.6912 118.957 33.6769 118.957 33.6629C118.951 33.4908 118.928 33.4649 118.761 33.4572C118.676 33.4532 118.591 33.4566 118.506 33.4566V33.4564Z" fill="white"/>
<path d="M98.6965 35.3592C98.9415 35.349 99.1981 35.3986 99.4483 35.4878C99.6054 35.5438 99.7389 35.6332 99.8537 35.754C100.11 36.0235 100.115 36.4138 99.8674 36.6946C99.6779 36.9094 99.4248 36.9971 99.1577 37.0534C98.7903 37.1306 98.423 37.1142 98.0586 37.0259C97.8765 36.9818 97.7084 36.9084 97.5611 36.7921C97.1888 36.4989 97.1918 35.9628 97.5668 35.6733C97.8322 35.4685 98.2171 35.3594 98.6965 35.3592ZM98.6578 35.7923C98.4602 35.8006 98.2389 35.8183 98.0432 35.9334C97.7794 36.0889 97.7772 36.3842 98.0501 36.5198C98.4469 36.717 98.8573 36.7221 99.2612 36.5277C99.3972 36.4623 99.496 36.3567 99.4846 36.196C99.4735 36.0378 99.367 35.9437 99.2246 35.8894C99.0501 35.8229 98.868 35.7953 98.6576 35.7923H98.6578Z" fill="white"/>
<path d="M123.596 34.336C123.596 34.7256 123.597 35.1154 123.595 35.5051C123.595 35.5811 123.606 35.6777 123.506 35.698C123.389 35.7218 123.263 35.7437 123.154 35.6733C123.095 35.6349 123.109 35.5581 123.109 35.4955C123.107 35.2404 123.108 34.9853 123.108 34.7303C123.108 34.6736 123.11 34.6168 123.106 34.5604C123.097 34.4209 123.066 34.3881 122.947 34.3873C122.825 34.3864 122.788 34.4188 122.783 34.5551C122.777 34.732 122.783 34.9093 122.78 35.0865C122.777 35.3032 122.76 35.3198 122.553 35.3247C122.283 35.3311 122.262 35.3128 122.262 35.0416C122.261 34.4535 122.261 33.8654 122.263 33.2774C122.263 33.1899 122.232 33.0726 122.347 33.0381C122.468 33.0017 122.601 32.997 122.723 33.0485C122.783 33.0736 122.778 33.1428 122.779 33.1992C122.781 33.3694 122.777 33.5395 122.783 33.7094C122.789 33.8388 122.831 33.8701 122.955 33.8682C123.05 33.8667 123.104 33.8275 123.105 33.7296C123.106 33.595 123.107 33.4605 123.107 33.3257C123.108 33.2621 123.105 33.198 123.11 33.1345C123.122 33.0029 123.145 32.9827 123.283 32.9712C123.297 32.9702 123.312 32.9706 123.326 32.9702C123.569 32.9636 123.595 32.987 123.596 33.231C123.598 33.5993 123.597 33.9678 123.597 34.3362H123.596V34.336Z" fill="white"/>
<path d="M102.69 34.141C102.679 34.5442 102.533 34.8796 102.155 35.0631C101.778 35.2464 101.398 35.224 101.037 34.9984C100.926 34.9287 100.846 34.8306 100.776 34.7222C100.452 34.2191 100.574 33.2348 101.475 33.0856C102.064 32.9879 102.708 33.3788 102.69 34.141H102.69ZM102.163 34.1544C102.163 34.0486 102.159 33.9715 102.135 33.8963C102.071 33.6951 101.937 33.5734 101.725 33.5459C101.506 33.5176 101.336 33.6049 101.221 33.7888C101.085 34.0034 101.126 34.3756 101.299 34.5632C101.473 34.752 101.777 34.7682 101.971 34.5998C102.116 34.4742 102.17 34.3128 102.163 34.1546V34.1544Z" fill="white"/>
<path d="M121.204 33.1055C121.382 33.1055 121.56 33.1 121.737 33.1072C121.901 33.1138 121.955 33.1656 121.959 33.3295C121.966 33.6125 121.966 33.8961 121.96 34.179C121.956 34.3472 121.913 34.3824 121.734 34.3873C121.57 34.3917 121.406 34.3866 121.243 34.3896C121.055 34.3928 121.028 34.4168 121.027 34.5704C121.025 34.7332 121.057 34.7647 121.252 34.7656C121.479 34.7669 121.707 34.7726 121.933 34.7341C122.111 34.7038 122.154 34.7309 122.173 34.8544C122.205 35.0615 122.163 35.152 122 35.1774C121.563 35.2451 121.122 35.2453 120.68 35.2355C120.568 35.2329 120.51 35.1699 120.509 35.0609C120.507 34.7564 120.503 34.452 120.509 34.1475C120.512 34.0025 120.557 33.9631 120.708 33.9572C120.886 33.9504 121.064 33.9572 121.241 33.9529C121.418 33.9484 121.499 33.812 121.426 33.6495C121.393 33.5763 121.328 33.5756 121.264 33.5746C121.1 33.5722 120.937 33.5746 120.773 33.5722C120.532 33.5686 120.434 33.423 120.517 33.1956C120.545 33.1211 120.604 33.1064 120.67 33.106C120.848 33.1045 121.026 33.1053 121.203 33.1055H121.204Z" fill="white"/>
<path d="M84.5969 33.7635C84.5969 33.9547 84.5924 34.1459 84.5984 34.337C84.6026 34.4731 84.6285 34.4931 84.7634 34.5046C84.7846 34.5065 84.8062 34.504 84.8274 34.5063C84.9161 34.5157 85.0305 34.471 85.0829 34.5661C85.1423 34.6741 85.1184 34.8014 85.0979 34.9198C85.0865 34.986 85.0277 35.0058 84.9689 35.0111C84.8911 35.0181 84.8126 35.0184 84.7346 35.0228C84.6505 35.0275 84.6037 35.0718 84.5996 35.1563C84.5969 35.213 84.5958 35.2696 84.5956 35.3262C84.5952 35.8078 84.5967 36.2892 84.5941 36.7706C84.5937 36.8581 84.6238 36.9758 84.5069 37.0071C84.385 37.0397 84.2528 37.0455 84.1301 36.9935C84.0967 36.9795 84.0845 36.9397 84.0822 36.9035C84.0783 36.847 84.0764 36.7904 84.0764 36.7338C84.0762 35.5796 84.076 34.4254 84.0764 33.2712C84.0764 32.9729 84.1057 32.9478 84.4115 32.97C84.5575 32.9804 84.5879 33.0034 84.5922 33.1473C84.5984 33.3526 84.5937 33.558 84.5937 33.7633H84.5964L84.5969 33.7635Z" fill="white"/>
<path d="M103.656 34.9921C103.656 35.5661 103.657 36.1401 103.656 36.7141C103.655 37.0132 103.626 37.039 103.321 37.0236C103.145 37.0149 103.117 36.9877 103.108 36.8054C103.104 36.7277 103.107 36.6496 103.107 36.5716C103.107 35.4732 103.106 34.3748 103.107 33.2764C103.107 32.9735 103.11 32.9715 103.418 32.9686C103.649 32.9664 103.655 32.9692 103.655 33.2062C103.657 33.8015 103.656 34.3968 103.656 34.9921H103.656Z" fill="white"/>
<path d="M87.1874 33.0531C87.2087 33.0531 87.2301 33.0523 87.2515 33.0531C87.4311 33.061 87.454 33.0833 87.46 33.2701C87.4632 33.3693 87.4615 33.4685 87.4611 33.5679C87.4583 34.0966 87.7251 34.4707 88.163 34.7281C88.4186 34.8782 88.3953 34.8599 88.2289 35.0734C88.085 35.258 88.0574 35.2631 87.8615 35.139C87.6507 35.0053 87.4563 34.852 87.3026 34.6508C87.2019 34.5188 87.1871 34.519 87.0918 34.661C86.9265 34.9071 86.7118 35.1009 86.4691 35.2663C86.3152 35.3713 86.3015 35.3677 86.1593 35.238C85.9256 35.0247 85.9264 35.0259 86.1884 34.8371C86.4097 34.6776 86.6017 34.4907 86.7343 34.2488C86.8457 34.0455 86.9077 33.8307 86.9015 33.5973C86.8985 33.484 86.8983 33.3703 86.9025 33.2571C86.9094 33.0831 86.9325 33.0616 87.1018 33.0535C87.1303 33.0523 87.1589 33.0535 87.1874 33.0535V33.0531Z" fill="white"/>
<path d="M96.5262 34.3192C96.5262 34.6658 96.5272 35.0124 96.5257 35.359C96.5247 35.5981 96.5073 35.6141 96.2734 35.616C96.245 35.6162 96.2165 35.6169 96.1881 35.615C96.0389 35.6045 96.0239 35.5901 96.004 35.4404C95.9783 35.2492 95.9775 35.2483 95.781 35.2428C95.7525 35.2419 95.7241 35.2428 95.6957 35.2424C95.4707 35.2379 95.3848 35.1114 95.4583 34.897C95.4801 34.8332 95.5263 34.8093 95.5873 34.8068C95.6796 34.8029 95.7724 34.8072 95.8642 34.7985C95.979 34.7878 96.0036 34.7461 96.0025 34.6064C96.0016 34.5108 95.9792 34.4369 95.8642 34.4348C95.7788 34.4333 95.6937 34.4308 95.6084 34.4303C95.5039 34.4297 95.4508 34.3788 95.4502 34.2745C95.45 34.2462 95.4481 34.2178 95.4491 34.1897C95.4549 34.0307 95.4786 34.0045 95.6347 33.9958C95.7055 33.9917 95.7769 33.9926 95.8479 33.993C95.9552 33.9939 96.0023 33.9389 96.0023 33.8355C96.0023 33.6232 96.001 33.4109 96.0046 33.1989C96.0083 32.9911 96.0297 32.9723 96.2418 32.9693C96.2843 32.9687 96.3271 32.9711 96.3696 32.9713C96.4761 32.9719 96.5238 33.0283 96.5244 33.1307C96.5247 33.1801 96.5266 33.2297 96.5266 33.2791C96.5266 33.6257 96.5266 33.9724 96.5266 34.319L96.5262 34.3192Z" fill="white"/>
<path d="M122.152 36.2382C121.971 36.499 121.754 36.6772 121.503 36.8166C121.378 36.8861 121.244 36.9335 121.113 36.9878C121.005 37.0323 120.919 37.0112 120.849 36.9201C120.832 36.8978 120.811 36.8784 120.792 36.8569C120.634 36.6751 120.638 36.6559 120.861 36.5818C121.017 36.5301 121.165 36.4624 121.308 36.3819C121.603 36.2154 121.792 35.9727 121.856 35.6363C121.893 35.4436 121.899 35.4429 122.089 35.437C122.11 35.4363 122.131 35.4366 122.153 35.4366C122.406 35.4361 122.41 35.4355 122.46 35.6754C122.529 36.0057 122.734 36.2282 123.016 36.3915C123.158 36.4736 123.308 36.5377 123.465 36.5888C123.685 36.6608 123.684 36.6631 123.536 36.8513C123.523 36.8682 123.511 36.8858 123.497 36.902C123.39 37.0293 123.363 37.0398 123.203 36.9874C122.788 36.8516 122.426 36.6393 122.153 36.2382H122.152Z" fill="white"/>
<path d="M88.6499 34.4494C88.6499 34.0391 88.6484 33.6286 88.6509 33.2183C88.6514 33.137 88.6246 33.0282 88.7232 32.9935C88.8504 32.9486 88.9916 32.9449 89.1181 33.002C89.1817 33.0307 89.1707 33.1127 89.1712 33.1757C89.1727 33.4021 89.1708 33.6286 89.1729 33.8549C89.175 34.0866 89.1962 34.1051 89.4282 34.1185C89.5094 34.1232 89.6119 34.0904 89.6559 34.189C89.7004 34.2884 89.6869 34.3974 89.6625 34.5017C89.6521 34.5467 89.6144 34.5709 89.5702 34.5797C89.5355 34.5865 89.5 34.5897 89.4645 34.592C89.2705 34.6049 89.1732 34.7058 89.1725 34.8948C89.1718 35.1637 89.1735 35.4326 89.1718 35.7013C89.1703 35.9446 89.1504 35.9623 88.9009 35.9606C88.8868 35.9606 88.8725 35.9608 88.8584 35.9602C88.6787 35.9525 88.6524 35.9304 88.6512 35.7441C88.6482 35.3125 88.6501 34.8809 88.6501 34.4494H88.6499Z" fill="white"/>
<path d="M94.4069 35.4517C94.191 35.4632 93.9827 35.4229 93.7871 35.3286C93.5818 35.2296 93.4447 35.0799 93.4345 34.8389C93.4236 34.5896 93.514 34.3899 93.74 34.276C94.1809 34.0535 94.6366 34.0473 95.0756 34.2658C95.5178 34.4859 95.5257 35.0374 95.1061 35.2965C94.8921 35.4287 94.6552 35.4623 94.4072 35.4519L94.4069 35.4517ZM94.4208 34.5119C94.3146 34.5125 94.2077 34.511 94.1121 34.5677C94.0218 34.6209 93.9575 34.6916 93.9673 34.8051C93.9761 34.9077 94.0381 34.9735 94.129 35.0086C94.321 35.0825 94.5162 35.0821 94.7089 35.0107C94.8096 34.9735 94.8744 34.897 94.8748 34.7878C94.8754 34.6784 94.8087 34.6066 94.7108 34.5626C94.6184 34.5208 94.5207 34.511 94.4208 34.5121V34.5119Z" fill="white"/>
<path d="M95.1474 35.7032C95.4895 35.7032 95.8314 35.703 96.1735 35.7034C96.2304 35.7034 96.2877 35.7042 96.3444 35.7094C96.4502 35.7189 96.5199 35.7713 96.5205 35.8839C96.5223 36.2171 96.5218 36.5503 96.5205 36.8838C96.5201 36.9783 96.4682 37.026 96.3734 37.0281C96.3377 37.029 96.3022 37.0307 96.2665 37.0309C96.0181 37.0322 96.0007 37.0158 95.9977 36.7673C95.996 36.6255 96.001 36.4835 95.995 36.3419C95.9892 36.2063 95.9661 36.1835 95.8275 36.1784C95.671 36.1726 95.5141 36.1761 95.3573 36.1761C94.9299 36.1761 94.5023 36.1773 94.0748 36.1746C93.9936 36.1741 93.889 36.2037 93.8477 36.1037C93.8039 35.9974 93.8041 35.8788 93.8477 35.7715C93.8802 35.6919 93.9662 35.7049 94.0359 35.7045C94.2925 35.7025 94.5489 35.7034 94.8055 35.7034C94.9194 35.7034 95.0334 35.7034 95.1476 35.7034L95.1474 35.7032Z" fill="white"/>
<path d="M87.9733 36.9422C87.6106 36.9422 87.2478 36.9445 86.8851 36.9413C86.6782 36.9394 86.642 36.9064 86.639 36.7116C86.6345 36.4144 86.6348 36.1169 86.639 35.8197C86.6414 35.6472 86.667 35.626 86.8381 35.6174C86.8736 35.6157 86.9093 35.6159 86.9448 35.6172C87.1381 35.6238 87.1591 35.6445 87.1631 35.8448C87.1659 35.9934 87.1603 36.1423 87.1661 36.2907C87.1717 36.4382 87.195 36.4633 87.3444 36.4669C87.579 36.4727 87.8138 36.4693 88.0486 36.4695C88.39 36.4697 88.7313 36.4686 89.0728 36.4708C89.1487 36.4712 89.234 36.458 89.28 36.5444C89.3135 36.6073 89.3022 36.8542 89.2629 36.8955C89.2068 36.9543 89.1314 36.9413 89.0619 36.9415C88.6992 36.943 88.3364 36.9422 87.9737 36.9422H87.9733Z" fill="white"/>
<path d="M118.491 35.0682C117.98 35.0682 117.468 35.0693 116.956 35.0678C116.727 35.0672 116.69 35.0271 116.704 34.8119C116.714 34.6675 116.738 34.6422 116.884 34.6337C116.97 34.6288 117.055 34.6318 117.14 34.6318C118.071 34.6318 119.002 34.6318 119.934 34.6318C119.976 34.6318 120.019 34.6311 120.061 34.6322C120.261 34.6371 120.291 34.6652 120.293 34.8466C120.294 35.0322 120.264 35.0663 120.069 35.0672C119.543 35.0695 119.017 35.068 118.491 35.068V35.0682Z" fill="white"/>
<path d="M101.035 36.2106C100.877 36.2106 100.755 36.2151 100.635 36.2095C100.474 36.2023 100.451 36.1765 100.443 36.0203C100.441 35.9709 100.444 35.921 100.446 35.8716C100.449 35.7865 100.495 35.7441 100.58 35.7384C100.729 35.7281 100.878 35.706 101.027 35.7073C101.647 35.7124 102.265 35.6941 102.879 35.5985C103.03 35.5751 103.053 35.6 103.063 35.7492C103.078 35.9864 103.047 36.032 102.805 36.0737C102.496 36.1271 102.185 36.1727 101.872 36.1729C101.58 36.1729 101.291 36.2353 101.035 36.2106H101.035Z" fill="white"/>
<path d="M94.3709 33.9659C94.0869 33.9659 93.8032 33.9671 93.5192 33.965C93.4429 33.9646 93.3499 33.9754 93.3251 33.8769C93.3011 33.7817 93.2866 33.6776 93.3415 33.5884C93.3785 33.5283 93.4538 33.5362 93.5171 33.5356C93.7228 33.5339 93.9287 33.5343 94.1346 33.5343C94.4966 33.5343 94.8584 33.5324 95.2204 33.5354C95.4385 33.5371 95.4727 33.5756 95.461 33.7813C95.4524 33.9331 95.4285 33.9616 95.2651 33.9639C94.967 33.9684 94.669 33.9652 94.3709 33.9652V33.9657V33.9659Z" fill="white"/>
<path d="M82.6407 33.4531C82.4914 33.4531 82.3422 33.4582 82.1933 33.4514C82.0546 33.445 82.0289 33.4058 82.0274 33.2387C82.0259 33.0696 82.0526 33.0215 82.1841 33.0187C82.4895 33.0121 82.795 33.0121 83.1002 33.0179C83.24 33.0206 83.265 33.0624 83.2661 33.2297C83.2672 33.4062 83.2398 33.4456 83.088 33.4518C82.9392 33.458 82.7897 33.4531 82.6407 33.4531Z" fill="white"/>
<path d="M94.4216 33.3611C94.2794 33.3611 94.137 33.3662 93.995 33.3596C93.8472 33.3526 93.8228 33.3181 93.8213 33.1546C93.8198 32.9804 93.8472 32.94 94.0035 32.9368C94.2879 32.9313 94.5723 32.931 94.8567 32.9372C95.004 32.9404 95.0286 32.9783 95.0305 33.1416C95.0324 33.3153 95.0049 33.3532 94.8481 33.3601C94.7062 33.3662 94.5637 33.3613 94.4216 33.3613V33.3611Z" fill="white"/>
</g>
<defs>
<clipPath id="clip0_4083_9897">
<rect width="145.379" height="32.1281" fill="white" transform="translate(39.3101 8.93604)"/>
</clipPath>
</defs>
</svg>
