<svg width="379" height="82" viewBox="0 0 379 82" fill="none" xmlns="http://www.w3.org/2000/svg">
<path d="M37.5353 0.782593C37.3309 1.33716 36.1343 4.25592 34.9084 7.32062C32.4274 13.45 32.048 14.1797 31.2891 14.1797C31.0264 14.1505 28.9541 13.5084 26.7067 12.7203C24.4592 11.9323 22.5328 11.4069 22.4161 11.5236C22.2701 11.6404 22.5036 13.3041 22.9123 15.2013C24.1381 21.3015 25.3932 28.3065 25.3932 29.2989C25.3932 30.1161 25.043 31.1669 24.6343 31.6631C24.5176 31.7798 19.9935 28.0146 17.6001 25.7964C16.7829 25.0375 15.9656 24.3954 15.7905 24.3954C15.6154 24.3954 15.4111 24.8916 15.2943 25.4753C14.5354 29.7951 13.689 33.8813 13.4847 34.0857C13.3387 34.2316 10.887 34.4067 7.9974 34.4943C5.13702 34.5818 2.5977 34.6986 2.39338 34.7862C2.15988 34.8445 2.86039 36.479 4.52408 39.7189C5.8959 42.3749 7.00502 44.7683 7.00502 45.0602C7.00502 45.3229 5.45808 46.899 3.50251 48.5919C1.57613 50.2556 0 51.7442 0 51.8609C0 52.0068 0.817253 52.5322 1.80963 53.0284C2.8312 53.5246 5.80833 55.1007 8.46441 56.5017C11.1205 57.9027 18.0671 61.5804 23.9338 64.6743C29.8005 67.7682 34.7332 70.395 34.8792 70.5702C35.0543 70.7161 35.2294 73.2262 35.317 76.2909L35.4629 81.749H38.2358H41.0086L41.0961 76.3201C41.1545 71.5917 41.2421 70.8329 41.6799 70.4242C41.9426 70.1907 43.8982 69.1108 45.9705 68.0017C48.072 66.9217 54.2889 63.6235 59.8346 60.6756C65.3802 57.7276 71.3929 54.5754 73.1733 53.6414C74.983 52.7365 76.4423 51.8901 76.384 51.8025C76.3548 51.6858 74.8954 50.3723 73.115 48.8546C71.3637 47.3368 69.7292 45.8483 69.4957 45.5856C69.1162 45.1186 69.3206 44.5348 71.5972 39.9816C73.903 35.3699 74.1073 34.7278 73.2025 34.8737C73.0566 34.8737 70.7799 34.757 68.0947 34.611C64.9424 34.4067 63.0744 34.1732 62.8701 33.9397C62.6658 33.7646 62.1696 31.6923 61.7318 29.3573C61.294 27.0223 60.8853 24.9499 60.827 24.7456C60.7102 24.3078 60.9145 24.1619 55.4564 28.8319C53.6468 30.408 51.9831 31.6923 51.7788 31.6923C51.5745 31.6923 51.2242 31.1669 51.0491 30.5248C50.6697 29.2697 50.9324 27.5184 53.0047 17.186C53.5593 14.4132 53.9971 12.0198 53.9971 11.8739C53.9971 11.3193 53.0047 11.5236 49.7357 12.7495C47.9844 13.4208 46.058 14.0338 45.4451 14.1213L44.3652 14.2673L43.4895 12.3117C42.9933 11.2318 41.6799 8.10868 40.5708 5.33586C39.4325 2.59222 38.3817 0.198837 38.2358 0.0529022C38.0606 -0.122223 37.7979 0.140465 37.5353 0.782593ZM41.1837 11.115C45.0657 20.1632 46.671 23.9867 48.5098 28.7735C51.2242 35.7785 51.5161 36.5958 51.3118 36.8001C51.0783 37.0336 48.393 35.8369 42.468 32.8598L38.0898 30.6707L38.1774 17.9741C38.2066 10.9983 38.2649 5.07317 38.2649 4.83967C38.2649 4.54779 38.3525 4.60617 38.5276 4.98561C38.6736 5.30667 39.8703 8.05031 41.1837 11.115ZM40.8626 33.9105L43.1977 34.9905V36.1872C43.1977 37.2963 41.5923 45.6439 40.921 48.1541C40.7459 48.7378 40.7167 49.2048 40.8626 49.2048C41.0086 49.2048 42.0885 48.3292 43.256 47.2201C44.4235 46.1401 46.4959 44.3305 47.8677 43.1922C49.2395 42.0247 51.6621 39.9816 53.2674 38.5805C54.8727 37.2087 56.3321 36.0704 56.5364 36.0704C56.8575 36.0704 57.091 36.7417 57.6163 39.0184C57.7915 39.7772 57.8498 39.8064 61.0313 40.0107C63.5414 40.1567 64.3003 40.3026 64.417 40.6529C64.5338 40.9156 63.9792 42.3749 63.2204 43.9219L61.8193 46.7239L63.95 48.6795C65.351 49.9345 65.9932 50.7226 65.818 50.8977C65.6721 51.0437 63.4247 52.2403 60.8562 53.583C52.8879 57.6984 48.8892 59.7999 48.5974 60.0043C47.605 60.7339 41.6799 63.5068 41.4464 63.3608C41.2713 63.2441 41.1545 61.7555 41.1545 59.8291V56.5017H38.2649C34.9668 56.5017 34.9084 56.5601 35.2003 58.8659C35.4338 60.7048 35.0835 63.5651 34.6457 63.4484C34.2079 63.3316 18.7384 55.2467 14.2436 52.7949C12.3464 51.7442 10.7994 50.7518 10.7994 50.5767C10.7994 50.3723 11.675 49.4092 12.755 48.446L14.7397 46.6363L13.3095 43.6884C12.4923 42.0831 11.9377 40.6821 12.0253 40.5945C12.1129 40.4777 13.6306 40.2734 15.3819 40.0983C17.1039 39.9232 18.5925 39.7481 18.6509 39.6897C18.6801 39.6605 18.8844 38.8432 19.0887 37.9092C19.2638 36.946 19.5557 36.2164 19.76 36.2164C20.1686 36.2164 26.5315 41.4701 30.7637 45.2645C35.6089 49.6427 35.4629 49.4967 35.5505 49.0297C35.6089 48.767 35.4338 47.6871 35.2003 46.6363C34.3538 43.2214 32.982 35.3991 33.1863 35.1072C33.4198 34.7278 37.3893 32.889 38.0314 32.889C38.3233 32.8598 39.6076 33.3268 40.8626 33.9105Z" fill="white"/>
<path d="M154.548 7.20467C148.944 7.99273 144.041 11.1158 141.326 15.6399C141.005 16.1945 140.363 17.7122 139.925 18.9965C137.97 24.7464 139.4 32.0725 143.369 36.2463C148.944 42.1422 158.372 43.8059 166.223 40.3034C169.697 38.7565 173.082 35.3707 174.746 31.7806C175.126 30.9342 175.563 30.1753 175.68 30.1169C175.797 30.0294 176.468 31.0801 177.169 32.4228C179.854 37.7641 184.466 40.9164 191.004 41.9379C196.637 42.8135 203.467 40.7996 206.765 37.2971L207.611 36.3923L205.481 34.4075C204.313 33.3276 203.262 32.3936 203.146 32.3352C203.029 32.306 202.504 32.6563 201.949 33.1524C201.394 33.6486 200.169 34.4659 199.205 34.9913C197.513 35.8961 197.308 35.9253 194.098 35.9253C191.062 35.9253 190.566 35.8377 189.077 35.1372C184.524 33.0065 182.043 28.1906 182.714 22.7617C183.181 18.9089 185.283 15.9901 188.756 14.2681C190.916 13.2173 191.12 13.1589 193.922 13.1589C197.425 13.1589 198.855 13.6259 201.278 15.5231C202.212 16.2236 203.029 16.8074 203.117 16.8074C203.204 16.7782 204.284 15.8734 205.481 14.7643L207.67 12.7503L206.794 11.8163C205.364 10.2986 202.62 8.69323 200.11 7.87598C198.096 7.20467 197.221 7.08791 194.243 7.08791C190.04 7.05873 187.676 7.5841 184.349 9.30617C181.167 10.9407 178.803 13.3633 177.198 16.6323C176.497 18.0041 175.826 19.084 175.709 18.9965C175.563 18.9089 174.98 17.8873 174.425 16.7198C170.981 9.74399 163.13 5.97879 154.548 7.20467ZM160.94 13.4508C164.064 14.414 166.661 16.6615 168.062 19.6678C168.763 21.1563 168.85 21.6817 168.85 24.5421C168.85 27.5484 168.792 27.8695 167.945 29.6499C166.778 32.0725 164.968 33.8821 162.575 35.0205C160.794 35.8669 160.473 35.9253 157.467 35.9253C154.782 35.8961 154.023 35.8085 152.855 35.254C150.754 34.2908 148.215 31.7223 147.222 29.5624C146.463 27.9279 146.376 27.4609 146.376 24.5421C146.376 21.6233 146.463 21.1563 147.222 19.5218C148.507 16.7198 151.192 14.3848 154.256 13.4216C155.862 12.9254 159.218 12.9254 160.94 13.4508Z" fill="white"/>
<path d="M252.209 7.23328C246.751 7.99215 241.41 11.7282 239.133 16.369C237.732 19.2002 237.44 20.6012 237.44 24.6875C237.44 27.6062 237.586 29.0364 237.966 30.2331C239.571 35.3701 243.745 39.3688 249.407 41.2368C251.45 41.9082 252.239 41.9957 255.537 42.0249C259.74 42.0249 261.87 41.5871 264.702 40.1569C266.599 39.1937 269.401 37.063 269.401 36.5376C269.401 36.2166 265.227 32.2762 264.877 32.2762C264.76 32.2762 264.06 32.8308 263.301 33.5313C261.199 35.3993 258.718 36.1582 255.303 36.0123C253.085 35.9247 252.268 35.7496 250.954 35.1074C248.561 33.9399 246.78 32.2179 245.788 30.1164C241.848 21.9146 247.072 13.0124 255.829 13.0124C258.923 13.0124 262.133 14.2383 263.826 16.0479C264.235 16.4566 264.672 16.8068 264.789 16.8068C264.935 16.8068 265.752 16.2231 266.57 15.5226C267.416 14.7929 268.467 13.8881 268.963 13.5086L269.809 12.8081L268.817 11.8449C264.527 7.84621 258.893 6.27008 252.209 7.23328Z" fill="white"/>
<path d="M84.5267 7.37897C84.4391 7.49572 84.3516 9.71398 84.3516 12.3409V17.0984H86.8325H89.3135V15.2304C89.3135 13.9754 89.4594 13.2749 89.7513 13.0122C90.0431 12.7787 91.8528 12.6911 96.5228 12.7787C102.185 12.8662 103.002 12.9246 104.053 13.45C105.804 14.3256 106.622 15.7266 106.476 17.6238C106.33 19.4043 105.571 20.3966 103.674 21.2431C102.535 21.7393 101.747 21.7976 93.7208 21.7393C88.9048 21.7393 84.8478 21.7976 84.6726 21.9144C84.264 22.1479 84.264 25.7088 84.6434 26.4677C84.9353 26.993 85.3731 27.0222 94.6548 27.0222C104.141 27.0222 104.403 27.0514 105.659 27.6644C109.073 29.3864 109.19 33.6186 105.921 35.4866L104.637 36.2163L94.5672 36.3623L84.4975 36.5082V38.9891V41.4701L93.9835 41.5577C104.024 41.6452 106.505 41.4701 109.716 40.361C112.955 39.2518 114.999 36.7709 115.466 33.3559C115.874 30.3788 114.21 26.7304 111.642 25.0375C110.883 24.5413 110.124 24.0743 109.949 24.0159C109.745 23.9575 110.212 23.3154 110.971 22.6149C114.035 19.7253 114.677 15.1429 112.488 11.8447C110.971 9.53885 108.052 8.19622 103.674 7.75841C100.346 7.43734 84.7894 7.14547 84.5267 7.37897Z" fill="white"/>
<path d="M119.874 7.40877L116.751 7.49633L116.809 24.4835L116.897 41.4707H129.156H141.415L141.502 38.6103L141.59 35.7791H132.979C125.42 35.7791 124.369 35.7207 124.223 35.3121C124.135 35.0494 124.048 28.7157 124.048 21.1853C124.048 8.43033 124.019 7.52552 123.552 7.43795C123.26 7.37958 121.625 7.35039 119.874 7.40877Z" fill="white"/>
<path d="M208.575 7.64183C208.342 7.87533 208.254 12.5162 208.312 24.4247C208.371 33.4729 208.458 41.0616 208.546 41.2368C208.633 41.5286 209.626 41.6162 212.048 41.6162H215.405V37.3548V33.0934L217.798 30.6417C219.112 29.299 220.338 28.1899 220.513 28.1899C220.688 28.1899 222.527 30.2622 224.599 32.7724C226.701 35.2825 229.211 38.318 230.232 39.4855L232.071 41.6162H236.041C239.339 41.6162 239.952 41.5578 239.835 41.2076C239.747 40.9741 236.508 36.8294 232.655 31.9843C228.773 27.1392 225.621 22.9653 225.621 22.7026C225.621 22.2648 227.781 19.8714 236.508 10.7065C238.084 9.04284 239.28 7.58345 239.135 7.49589C239.018 7.37914 237.237 7.34995 235.194 7.40833L231.487 7.52508L225.446 13.8296C222.147 17.3029 218.616 20.9222 217.623 21.8854L215.843 23.6075L215.697 15.6976C215.609 11.3487 215.493 7.75858 215.405 7.67102C215.055 7.34995 208.896 7.32077 208.575 7.64183Z" fill="white"/>
<path d="M270.452 7.64183C270.219 7.84615 270.131 13.1291 270.189 24.5706C270.189 33.7064 270.248 41.266 270.248 41.3827C270.277 41.5286 271.853 41.6162 273.75 41.6162H277.224L277.34 34.8155C277.399 31.1087 277.545 27.8688 277.661 27.6645C277.837 27.4018 279.734 27.3143 285.425 27.3143C290.971 27.3143 293.072 27.4018 293.423 27.6645C293.861 27.9856 293.919 28.8612 293.977 34.7571L294.065 41.4703H300.895H307.754L309.126 38.2596C309.855 36.4792 311.169 33.4145 312.015 31.4005C312.862 29.3866 314.613 25.1836 315.956 22.0605C317.269 18.9374 318.466 16.0771 318.553 15.6976C318.67 15.3182 318.933 15.0847 319.108 15.143C319.283 15.2014 319.954 16.5441 320.626 18.1494C321.297 19.7255 322.464 22.4691 323.223 24.2496C324.011 26.0008 325.879 30.4665 327.397 34.1734C328.915 37.851 330.287 41.0616 330.462 41.2368C330.695 41.5286 332.476 41.6162 337.584 41.6162H344.413V24.5706C344.413 15.1722 344.326 7.43752 344.209 7.37914C344.063 7.32077 342.37 7.34996 340.415 7.40833L336.825 7.52508L336.766 22.8486L336.679 38.1721L334.957 34.2609C333.994 32.1302 332.651 29.1823 331.98 27.7521C329.82 23.1113 327.747 18.4996 326.317 15.2014C325.529 13.421 324.449 10.9692 323.865 9.71415L322.844 7.46671H319.195C316.656 7.46671 315.518 7.58346 315.313 7.81696C315.167 8.02127 313.562 11.6113 311.723 15.7852C309.914 19.959 307.55 25.2711 306.47 27.6062C305.39 29.9412 303.872 33.2394 303.113 34.9614C302.325 36.6835 301.654 38.0553 301.595 37.9969C301.537 37.9386 301.508 31.2546 301.508 23.1696C301.508 15.0555 301.449 8.1964 301.333 7.93371C301.187 7.52508 300.603 7.46671 297.538 7.46671H293.919L293.861 14.2382L293.773 21.0389L285.717 21.1265L277.632 21.1849L277.428 19.8131C277.311 19.0542 277.311 16.2522 277.428 13.5961C277.545 10.9108 277.545 8.45909 277.457 8.10883C277.282 7.55427 277.019 7.4959 274.013 7.40833C271.97 7.34996 270.627 7.43752 270.452 7.64183Z" fill="white"/>
<path d="M347.681 24.4247L347.769 41.7622H351.271H354.774L354.862 31.1671C354.891 25.3588 355.037 20.6012 355.153 20.6012C355.387 20.6012 362.217 28.7153 368.463 36.4209C370.506 38.9602 372.462 41.2076 372.812 41.4703C373.542 41.9665 377.832 42.0833 378.562 41.6163C378.941 41.3828 379 39.1645 379 24.6582C379 15.4933 378.912 7.87537 378.825 7.72944C378.737 7.55431 377.132 7.49594 375.176 7.52512L371.703 7.61269L371.557 18.237L371.411 28.8905L365.865 22.1481C362.83 18.4413 358.889 13.6253 357.109 11.4363L353.898 7.46675H351.68C350.454 7.46675 349.024 7.37918 348.528 7.29162L347.623 7.08731L347.681 24.4247Z" fill="white"/>
<path d="M132.658 46.3153C123.989 47.6287 117.772 53.583 116.868 61.4637C116.78 62.1934 116.663 62.9522 116.605 63.1566C116.371 63.7987 117.305 68.2644 118.006 70.074C120.399 76.1742 125.595 79.9978 132.862 81.0194C138.729 81.8366 145.092 79.8227 149.003 75.9115C152.944 72.0004 154.578 67.1844 153.819 61.7556C153.177 56.998 151.718 53.9916 148.624 51.0145C146.843 49.3216 143.312 47.4244 140.685 46.7531C138.466 46.1986 134.76 45.9942 132.658 46.3153ZM140.305 53.116C142.524 54.1376 144.771 56.4142 145.88 58.7492C146.581 60.267 146.668 60.7632 146.668 63.6527C146.668 66.6591 146.61 66.9801 145.734 68.819C144.596 71.2123 142.64 73.2263 140.451 74.2478C138.963 74.9484 138.466 75.0359 135.431 75.0359C132.395 75.0359 131.899 74.9484 130.411 74.2478C126.762 72.555 124.398 68.9065 124.135 64.5868C123.785 58.9244 126.47 54.4878 131.345 52.7366C133.826 51.8318 137.883 52.0069 140.305 53.116Z" fill="white"/>
<path d="M86.0444 46.491L84.3516 46.6077V62.7485C84.3516 71.6507 84.4391 79.327 84.5267 79.8232L84.731 80.728H88H91.2982L91.5025 77.4298C91.6193 75.6494 91.6777 70.8626 91.6193 66.8639C91.5317 61.6101 91.5901 59.567 91.8236 59.567C92.1738 59.567 93.3705 60.968 103.002 72.6722C106.301 76.6418 109.161 80.0859 109.365 80.3194C109.657 80.6113 110.562 80.728 112.547 80.728C115.144 80.728 115.29 80.6988 115.436 80.0567C115.524 79.7065 115.553 72.0009 115.524 62.9236L115.436 46.4326L112.43 46.345C108.198 46.2283 108.169 46.2575 108.402 49.5848C108.694 53.496 108.285 67.8563 107.877 67.6812C107.702 67.6228 105.717 65.317 103.469 62.5733C101.222 59.8589 98.3032 56.298 96.9606 54.6927C95.6472 53.0874 93.6332 50.6356 92.4949 49.2054C90.3058 46.4326 90.0431 46.2575 88.6421 46.345C88.1168 46.3742 86.9493 46.4326 86.0444 46.491Z" fill="white"/>
<path d="M238.171 46.548L235.106 46.7231L235.018 53.2903C234.989 56.8804 234.843 59.9451 234.726 60.0618C234.61 60.1494 230.99 60.2953 226.7 60.3537C220.016 60.4413 218.848 60.3829 218.615 60.0035C218.469 59.77 218.323 56.6469 218.323 53.0568V46.5772L200.314 46.6355L182.276 46.7231L182.189 48.6787C182.13 49.7878 182.072 50.6634 182.014 50.6634C181.955 50.6634 181.05 50.0797 179.97 49.35C176.41 46.9566 173.637 46.5188 163.012 46.6355L155.424 46.7231V49.4959V52.2688L164.034 52.4147C172.586 52.5606 172.674 52.5606 174.104 53.3195C176.147 54.3411 177.227 56.0048 177.402 58.223C177.606 61.1418 176.556 63.1849 174.133 64.4692C172.995 65.0821 172.498 65.1113 164.18 65.2572L155.424 65.4032L155.336 72.4082C155.307 76.261 155.336 79.7051 155.424 80.0554C155.57 80.6975 155.686 80.7267 158.897 80.7267H162.224L162.429 79.9094C162.516 79.4424 162.575 77.4285 162.516 75.3853C162.487 72.7293 162.545 71.591 162.808 71.3283C163.071 71.0656 164.297 70.9488 166.865 70.9488H170.514L171.302 71.9412C171.71 72.4666 173.257 74.6556 174.688 76.7572L177.314 80.5807L181.05 80.6683C183.181 80.6975 184.757 80.6391 184.757 80.464C184.757 80.318 184.203 79.4424 183.502 78.5084C180.963 75.0059 177.752 70.2483 177.752 69.9564C177.752 69.7813 178.453 69.1976 179.299 68.6722C182.335 66.7166 183.911 64.2649 184.465 60.6748C184.816 58.4273 184.553 56.0048 183.706 54.02C183.473 53.4363 183.356 52.8525 183.444 52.7066C183.561 52.5314 185.633 52.4147 188.231 52.4147C192.025 52.4147 192.93 52.5023 193.222 52.8525C193.514 53.2028 193.572 56.1799 193.484 66.9501L193.368 80.5807L196.928 80.6683L200.519 80.7559L200.577 66.6582L200.664 52.5606L205.597 52.4731C209.1 52.4147 210.647 52.5023 210.939 52.7649C211.289 53.0568 211.347 55.0708 211.318 66.2496C211.289 73.4881 211.289 79.7051 211.289 80.0554C211.318 80.7267 211.376 80.7267 214.82 80.7267H218.323V73.8968C218.323 68.4679 218.411 67.0085 218.732 66.7458C218.994 66.5123 221.417 66.4247 226.963 66.4831L234.814 66.5707L234.902 73.6341L234.96 80.7267H238.608H242.257L242.315 73.4881C242.344 69.5186 242.315 61.8715 242.257 56.501C242.198 47.2485 242.082 46.081 241.381 46.3437C241.294 46.3729 239.863 46.4604 238.171 46.548Z" fill="white"/>
</svg>
