<svg width="224" height="50" viewBox="0 0 224 50" fill="none" xmlns="http://www.w3.org/2000/svg">
<mask id="mask0_3746_4665" style="mask-type:luminance" maskUnits="userSpaceOnUse" x="31" y="15" width="162" height="20">
<path d="M192.811 15.2393H31.1895V34.7608H192.811V15.2393Z" fill="white"/>
</mask>
<g mask="url(#mask0_3746_4665)">
<path d="M189.79 28.272H192.15V30.8934H189.79V28.272Z" fill="white"/>
<path d="M183.885 21.0818H186.162V23.1362L186.08 22.9875C186.378 22.3461 186.777 21.8395 187.269 21.4769C187.76 21.1144 188.306 20.9331 188.912 20.9331H189.344V22.9689C189.124 22.8992 188.857 22.862 188.545 22.862C188.081 22.862 187.641 22.9968 187.232 23.2617C186.823 23.5267 186.488 23.9171 186.226 24.4377V30.8984H183.885V21.0818Z" fill="white"/>
<path d="M177.893 31.1074C176.975 31.1074 176.162 30.8983 175.45 30.4799C174.739 30.0477 174.183 29.4434 173.788 28.6765C173.393 27.9096 173.191 27.0125 173.191 25.99C173.191 24.9674 173.389 24.0518 173.788 23.2849C174.183 22.5133 174.739 21.923 175.45 21.5C176.162 21.0817 176.975 20.8726 177.893 20.8726C178.743 20.8726 179.5 21.0631 180.171 21.4396C180.841 21.8161 181.36 22.3553 181.732 23.0571C182.104 23.7543 182.287 24.5677 182.287 25.4927C182.287 25.8552 182.283 26.1201 182.269 26.2921H174.945V25.0139H180.258L179.991 25.6414C180.005 25.5159 180.01 25.3672 180.01 25.1998C180.01 24.4004 179.831 23.7171 179.477 23.1454C179.137 22.5737 178.614 22.2855 177.916 22.2855C177.397 22.2855 176.956 22.4482 176.603 22.7689C176.263 23.0757 176.006 23.508 175.845 24.0704C175.68 24.6281 175.597 25.2742 175.597 25.9993C175.597 26.7244 175.68 27.3472 175.845 27.9096C176.011 28.4534 176.263 28.881 176.603 29.1878C176.956 29.4946 177.397 29.648 177.916 29.648C178.504 29.648 178.977 29.4806 179.33 29.146C179.684 28.7974 179.955 28.3465 180.129 27.8027L181.975 28.3047C181.686 29.1599 181.19 29.8432 180.478 30.3591C179.78 30.8611 178.917 31.1121 177.893 31.1121V31.1074Z" fill="white"/>
<path d="M171.074 31.0237C169.94 31.0237 169.091 30.7634 168.531 30.2475C167.984 29.7316 167.709 28.8856 167.709 27.7097V22.7177H166.336V21.0817H167.259C167.521 21.0817 167.709 21.0026 167.833 20.8493C167.957 20.6959 168.039 20.403 168.081 19.9661L168.246 18.2231H170.073V21.077H172.332V22.7131H170.073V27.6632C170.073 28.2907 170.197 28.7462 170.441 29.0251C170.689 29.3039 171.065 29.4434 171.57 29.4434C171.915 29.4434 172.227 29.4062 172.516 29.3365V30.8238C172.351 30.8796 172.135 30.9214 171.86 30.9493C171.584 30.9912 171.327 31.0144 171.079 31.0144L171.074 31.0237Z" fill="white"/>
<path d="M160.464 21.0818H162.741V23.1362L162.659 22.9875C162.962 22.3461 163.357 21.8395 163.848 21.4769C164.339 21.1144 164.885 20.9331 165.492 20.9331H165.923V22.9689C165.703 22.8992 165.436 22.862 165.124 22.862C164.661 22.862 164.22 22.9968 163.811 23.2617C163.402 23.5267 163.067 23.9171 162.806 24.4377V30.8984H160.468V21.0818H160.464Z" fill="white"/>
<path d="M154.068 31.1074C153.135 31.1074 152.309 30.8983 151.584 30.4799C150.858 30.0616 150.289 29.4667 149.88 28.6951C149.485 27.9096 149.283 27.0079 149.283 25.99C149.283 24.9721 149.481 24.0518 149.88 23.2849C150.289 22.5133 150.858 21.923 151.584 21.5C152.309 21.0817 153.135 20.8726 154.068 20.8726C155 20.8726 155.826 21.0817 156.552 21.5C157.277 21.9184 157.837 22.5133 158.237 23.2849C158.645 24.0518 158.852 24.9581 158.852 25.99C158.852 27.0218 158.645 27.9143 158.237 28.6951C157.842 29.4667 157.277 30.057 156.552 30.4799C155.826 30.8983 155 31.1074 154.068 31.1074ZM154.068 29.6201C154.848 29.6201 155.427 29.2901 155.812 28.6347C156.207 27.9793 156.409 27.0962 156.409 25.99C156.409 24.8838 156.212 23.9914 155.812 23.3453C155.431 22.6899 154.848 22.3599 154.068 22.3599C153.287 22.3599 152.699 22.6899 152.304 23.3453C151.923 23.9867 151.73 24.8698 151.73 25.99C151.73 27.1102 151.923 27.9747 152.304 28.6347C152.699 29.2901 153.287 29.6201 154.068 29.6201Z" fill="white"/>
<path d="M138.801 21.0773H141.078V22.9876H140.895C141.184 22.3741 141.611 21.8675 142.189 21.4771C142.777 21.0727 143.489 20.8682 144.324 20.8682C145.036 20.8682 145.683 21.0727 146.276 21.4771C146.863 21.8675 147.327 22.4485 147.672 23.22C148.016 23.9916 148.186 24.9119 148.186 25.9902C148.186 27.0686 148.002 27.9889 147.63 28.7604C147.258 29.532 146.762 30.1177 146.133 30.522C145.518 30.9125 144.834 31.1077 144.081 31.1077C143.328 31.1077 142.626 30.9171 142.052 30.5406C141.478 30.1502 141.078 29.6714 140.862 29.1137H141.147V34.7563H138.81V21.0773H138.801ZM143.438 29.6203C144.164 29.6203 144.724 29.3135 145.123 28.6954C145.532 28.0679 145.739 27.1615 145.739 25.9902C145.739 24.8189 145.541 23.9265 145.142 23.3269C144.761 22.7274 144.219 22.4252 143.521 22.4252C143.002 22.4252 142.52 22.6019 142.084 22.9505C141.661 23.2851 141.344 23.722 141.138 24.2519V27.7751C141.289 28.3189 141.569 28.7697 141.978 29.1183C142.401 29.453 142.887 29.6203 143.434 29.6203H143.438Z" fill="white"/>
<path d="M132.809 31.1074C131.891 31.1074 131.078 30.8983 130.366 30.4799C129.655 30.0477 129.099 29.4434 128.704 28.6765C128.309 27.9096 128.107 27.0125 128.107 25.99C128.107 24.9674 128.305 24.0518 128.704 23.2849C129.099 22.5133 129.655 21.923 130.366 21.5C131.078 21.0817 131.891 20.8726 132.809 20.8726C133.659 20.8726 134.416 21.0631 135.087 21.4396C135.757 21.8161 136.276 22.3553 136.648 23.0571C137.015 23.7543 137.203 24.5677 137.203 25.4927C137.203 25.8552 137.199 26.1201 137.185 26.2921H129.861V25.0139H135.174L134.907 25.6414C134.921 25.5159 134.926 25.3672 134.926 25.1998C134.926 24.4004 134.747 23.7171 134.393 23.1454C134.053 22.5737 133.53 22.2855 132.832 22.2855C132.313 22.2855 131.877 22.4482 131.519 22.7689C131.179 23.0757 130.922 23.508 130.761 24.0704C130.596 24.6281 130.513 25.2742 130.513 25.9993C130.513 26.7244 130.596 27.3472 130.761 27.9096C130.927 28.4534 131.179 28.881 131.519 29.1878C131.877 29.4946 132.313 29.648 132.832 29.648C133.42 29.648 133.893 29.4806 134.246 29.146C134.6 28.7974 134.871 28.3465 135.045 27.8027L136.891 28.3047C136.606 29.1599 136.106 29.8432 135.394 30.3591C134.696 30.8611 133.833 31.1121 132.809 31.1121V31.1074Z" fill="white"/>
<path d="M122.092 21.0818H124.37V23.1362L124.287 22.9875C124.585 22.3461 124.985 21.8395 125.476 21.4769C125.968 21.1144 126.514 20.9331 127.115 20.9331H127.547V22.9689C127.327 22.8992 127.06 22.862 126.748 22.862C126.284 22.862 125.844 22.9968 125.435 23.2617C125.026 23.5267 124.691 23.9171 124.429 24.4377V30.8984H122.092V21.0818Z" fill="white"/>
<path d="M111.472 21.0773H113.75V23.0899L113.626 22.9226C113.942 22.3369 114.397 21.8442 114.998 21.4538C115.6 21.0634 116.279 20.8682 117.028 20.8682C118.029 20.8682 118.773 21.1703 119.264 21.7699C119.769 22.3695 120.022 23.2107 120.022 24.2891V30.8985H117.662V24.647C117.662 23.9637 117.524 23.4524 117.253 23.1131C116.977 22.7645 116.596 22.5879 116.105 22.5879C115.641 22.5879 115.196 22.7506 114.773 23.0713C114.351 23.392 114.03 23.7964 113.809 24.2891V30.8985H111.472V21.0773Z" fill="white"/>
<path d="M106.963 21.0815H109.305V30.8981H106.963V21.0815Z" fill="white"/>
<path d="M99.663 31.0239C98.8136 31.0239 98.1295 30.7776 97.6106 30.2896C97.0918 29.7876 96.8301 29.1276 96.8301 28.3188C96.8301 27.352 97.1515 26.6176 97.7943 26.1157C98.4371 25.6137 99.3416 25.2883 100.503 25.1489C101.229 25.0652 101.954 25.0094 102.68 24.9816V24.0984C102.68 23.5128 102.551 23.0759 102.289 22.797C102.028 22.5042 101.651 22.3554 101.16 22.3554C100.696 22.3554 100.292 22.5042 99.9477 22.797C99.6079 23.0898 99.3508 23.4756 99.1901 23.9497L97.2617 23.4663C97.5509 22.625 98.0422 21.9929 98.7401 21.556C99.4381 21.1237 100.278 20.9053 101.265 20.9053C102.386 20.9053 103.277 21.1795 103.933 21.7233C104.59 22.2671 104.92 23.0712 104.92 24.1356V27.933C104.92 28.6581 104.98 29.6481 105.104 30.8891H102.951C102.84 30.2338 102.781 29.6388 102.767 29.1043H102.909C102.625 29.6342 102.193 30.0897 101.614 30.4662C101.04 30.8287 100.388 31.01 99.6676 31.01L99.663 31.0239ZM100.425 29.5133C100.889 29.5133 101.321 29.3785 101.72 29.1136C102.129 28.8487 102.45 28.5001 102.684 28.0632V26.2597C102.083 26.2876 101.481 26.3527 100.88 26.4503C100.292 26.5479 99.8421 26.7431 99.5253 27.036C99.2131 27.3148 99.0524 27.6913 99.0524 28.1701C99.0524 28.5884 99.1763 28.9184 99.4197 29.1554C99.6676 29.3925 100.003 29.5133 100.425 29.5133Z" fill="white"/>
<path d="M86.6411 16.6333H88.9828V23.094L88.7991 22.9267C89.1113 22.341 89.5705 21.8483 90.172 21.4579C90.7735 21.0675 91.4484 20.8723 92.2014 20.8723C93.1978 20.8723 93.9462 21.1744 94.4375 21.774C94.9426 22.3736 95.1951 23.2148 95.1951 24.2932V30.9026H92.8351V24.6511C92.8351 23.9678 92.6973 23.4565 92.4264 23.1172C92.1509 22.7686 91.7698 22.592 91.2785 22.592C90.8148 22.592 90.3694 22.7547 89.947 23.0754C89.5246 23.3961 89.2032 23.8005 88.9828 24.2932V30.9026H86.6411V16.6333Z" fill="white"/>
<path d="M80.7686 31.1074C79.8503 31.1074 79.0376 30.8983 78.3259 30.4799C77.6142 30.0616 77.0587 29.4667 76.6638 28.6951C76.2689 27.9096 76.0669 27.0079 76.0669 25.99C76.0669 24.9721 76.2643 24.0518 76.6638 23.2849C77.0587 22.5133 77.6142 21.923 78.3259 21.5C79.0376 21.0817 79.8503 20.8726 80.7686 20.8726C81.9578 20.8726 82.9312 21.1933 83.6842 21.8393C84.4372 22.4808 84.8826 23.3499 85.0158 24.4422H82.7797C82.6557 23.8147 82.4307 23.3081 82.1047 22.9316C81.7787 22.5551 81.3471 22.3646 80.8099 22.3646C80.2727 22.3646 79.8595 22.5179 79.5151 22.8247C79.1753 23.1175 78.9182 23.5359 78.7575 24.0843C78.5922 24.6142 78.5096 25.251 78.5096 25.9946C78.5096 26.7383 78.5922 27.3565 78.7575 27.905C78.9228 28.4348 79.1662 28.8578 79.4968 29.1646C79.8411 29.4713 80.2773 29.6247 80.8099 29.6247C81.3839 29.6247 81.8568 29.4341 82.2241 29.0577C82.6052 28.6812 82.8807 28.1885 83.046 27.5889L84.9331 28.0909C84.6301 29.0298 84.125 29.7688 83.4133 30.3126C82.7016 30.8425 81.8201 31.1121 80.7686 31.1121V31.1074Z" fill="white"/>
<path d="M69.0143 26.1989L73.2798 21.0814H75.7225L71.5167 25.5295L69.0143 28.1928V26.1989ZM67.2466 16.6333H69.5837V30.898H67.2466V16.6333ZM70.6351 25.2971L72.4396 24.2885L75.8649 30.898H73.2798L70.6351 25.2971Z" fill="white"/>
<path d="M61.3741 31.1074C60.4558 31.1074 59.6431 30.8983 58.9314 30.4799C58.2197 30.0616 57.6641 29.4667 57.2693 28.6951C56.8744 27.9096 56.6724 27.0079 56.6724 25.99C56.6724 24.9721 56.8698 24.0518 57.2693 23.2849C57.6641 22.5133 58.2197 21.923 58.9314 21.5C59.6431 21.0817 60.4558 20.8726 61.3741 20.8726C62.5633 20.8726 63.5367 21.1933 64.2897 21.8393C65.0427 22.4808 65.4881 23.3499 65.6212 24.4422H63.3852C63.2612 23.8147 63.0362 23.3081 62.7102 22.9316C62.3796 22.5551 61.9526 22.3646 61.4154 22.3646C60.8782 22.3646 60.465 22.5179 60.1206 22.8247C59.7808 23.1175 59.5237 23.5359 59.363 24.0843C59.1977 24.6142 59.115 25.251 59.115 25.9946C59.115 26.7383 59.1977 27.3565 59.363 27.905C59.5283 28.4348 59.7716 28.8578 60.1022 29.1646C60.442 29.4713 60.8828 29.6247 61.4154 29.6247C61.9893 29.6247 62.4623 29.4341 62.8296 29.0577C63.2107 28.6812 63.4862 28.1885 63.6515 27.5889L65.5386 28.0909C65.2355 29.0298 64.7305 29.7688 64.0188 30.3126C63.3071 30.8425 62.4255 31.1121 61.3741 31.1121V31.1074Z" fill="white"/>
<path d="M50.8366 31.1074C49.9045 31.1074 49.0781 30.8983 48.3526 30.4799C47.6271 30.0616 47.0578 29.4667 46.6491 28.6951C46.2543 27.9096 46.0522 27.0079 46.0522 25.99C46.0522 24.9721 46.2497 24.0518 46.6491 23.2849C47.0578 22.5133 47.6271 21.923 48.3526 21.5C49.0781 21.0817 49.9045 20.8726 50.8366 20.8726C51.7687 20.8726 52.5952 21.0817 53.3206 21.5C54.0461 21.9184 54.6062 22.5133 55.0011 23.2849C55.4097 24.0518 55.6164 24.9581 55.6164 25.99C55.6164 27.0218 55.4097 27.9143 55.0011 28.6951C54.6062 29.4667 54.0415 30.057 53.3206 30.4799C52.5952 30.8983 51.7687 31.1074 50.8366 31.1074ZM50.8366 29.6201C51.6172 29.6201 52.1957 29.2901 52.5814 28.6347C52.9762 27.9793 53.1783 27.0962 53.1783 25.99C53.1783 24.8838 52.9808 23.9914 52.5814 23.3453C52.2003 22.6899 51.6172 22.3599 50.8366 22.3599C50.056 22.3599 49.4683 22.6899 49.0735 23.3453C48.6924 23.9867 48.4995 24.8698 48.4995 25.99C48.4995 27.1102 48.6924 27.9747 49.0735 28.6347C49.4683 29.2901 50.056 29.6201 50.8366 29.6201Z" fill="white"/>
<path d="M42.1035 16.6333H44.4406V30.898H42.1035V16.6333Z" fill="white"/>
<path d="M36.3321 31.1071C35.524 31.1071 34.8261 30.9026 34.2384 30.4982C33.6506 30.0939 33.2466 29.5826 33.0262 28.9644H33.3338L32.9022 30.8933H31.061V16.6333H33.3981V22.9917H33.1502C33.4394 22.3782 33.8664 21.8716 34.445 21.4811C35.0189 21.0768 35.7306 20.8723 36.58 20.8723C37.2917 20.8723 37.9391 21.0768 38.5314 21.4811C39.1191 21.8716 39.5829 22.4526 39.9272 23.2241C40.267 23.9957 40.4415 24.916 40.4415 25.9943C40.4415 27.0727 40.2578 27.993 39.8859 28.7645C39.5186 29.5361 39.0181 30.1217 38.3891 30.5261C37.7738 30.9166 37.0897 31.1118 36.3367 31.1118L36.3321 31.1071ZM35.6985 29.6198C36.4239 29.6198 36.9841 29.313 37.379 28.6948C37.7876 28.0673 37.9942 27.161 37.9942 25.9897C37.9942 24.8184 37.7968 23.926 37.3973 23.3264C37.0162 22.7268 36.4744 22.4247 35.7765 22.4247C35.2577 22.4247 34.7802 22.6013 34.3394 22.9499C33.917 23.2846 33.6001 23.7215 33.3935 24.2513V27.7745C33.545 28.3183 33.8251 28.7692 34.2338 29.1178C34.6562 29.4524 35.1429 29.6198 35.6893 29.6198H35.6985Z" fill="white"/>
<path d="M106.408 17.6979L108.134 15.9316L109.861 17.6979L108.134 19.4641L106.408 17.6979Z" fill="white"/>
</g>
</svg>
