<svg width="224" height="50" viewBox="0 0 224 50" fill="none" xmlns="http://www.w3.org/2000/svg">
<g clip-path="url(#clip0_3281_2944)">
<path d="M106.234 15.9438C105.111 16.1899 104.19 16.9069 103.655 17.9343C103.431 18.3516 103.398 18.5657 103.398 19.593C103.398 20.6632 103.42 20.8237 103.687 21.3053C104.073 22.033 104.768 22.675 105.528 23.0282C106.374 23.4135 107.593 23.4349 108.503 23.0817C109.306 22.7714 110.098 22.0223 110.483 21.1982C110.74 20.6418 110.783 20.417 110.783 19.593C110.783 18.7155 110.75 18.555 110.429 17.9129C109.83 16.7036 108.813 16.008 107.412 15.8689C107.09 15.8368 106.555 15.8689 106.234 15.9438ZM108.129 17.7844C109.295 18.6513 109.295 20.5348 108.129 21.4016C107.679 21.7333 106.63 21.7548 106.074 21.4444C105.485 21.1019 105.164 20.4491 105.164 19.593C105.175 18.5978 105.582 17.8915 106.341 17.5811C106.695 17.4313 107.829 17.5704 108.129 17.7844Z" fill="white"/>
<path d="M114.475 15.9335C113.277 16.201 112.228 17.1 111.811 18.1915C111.511 19.0048 111.5 20.1713 111.811 20.9739C112.838 23.7349 116.873 24.1737 118.456 21.691C118.917 20.9526 118.906 20.9311 117.697 20.9311C116.862 20.9311 116.627 20.9632 116.573 21.0917C116.466 21.3806 115.835 21.6802 115.332 21.6802C114.165 21.6802 113.405 20.8563 113.405 19.5934C113.405 18.3306 114.133 17.5066 115.278 17.5066C115.835 17.5066 116.455 17.7849 116.573 18.0952C116.627 18.2236 116.862 18.2557 117.761 18.2557H118.874L118.574 17.71C117.825 16.3187 116.091 15.5696 114.475 15.9335Z" fill="white"/>
<path d="M130.196 15.901C129.008 16.1043 127.97 16.8748 127.456 17.9236C127.188 18.4586 127.156 18.6299 127.156 19.593C127.167 20.8879 127.381 21.4337 128.226 22.2791C129.917 23.97 133.064 23.5312 134.123 21.4551L134.38 20.9307H133.267C132.379 20.9307 132.143 20.9628 132.09 21.0912C131.908 21.5621 130.827 21.8296 130.131 21.5621C128.868 21.0912 128.505 19.09 129.489 18.052C130.11 17.3885 131.341 17.3243 131.961 17.9236C132.293 18.2446 132.325 18.2553 133.342 18.2553H134.38L134.155 17.7951C133.663 16.7999 132.721 16.1257 131.544 15.9117C130.859 15.7832 130.902 15.7832 130.196 15.901Z" fill="white"/>
<path d="M91.6797 19.593V23.3065L93.7986 23.2637C95.8212 23.2316 95.939 23.2208 96.4419 22.9533C97.3837 22.4717 97.7047 21.5086 97.2338 20.5455C97.0198 20.0853 96.474 19.6465 96.1316 19.6465C95.8319 19.6465 95.9496 19.4967 96.3991 19.2827C96.87 19.0686 97.1268 18.7476 97.2338 18.2232C97.4158 17.3885 97.0091 16.6608 96.1208 16.1899C95.7356 15.9866 95.4787 15.9545 93.6916 15.9224L91.6797 15.8796V19.593ZM95.2112 17.5062C95.4681 17.763 95.5002 18.3302 95.2754 18.6406C95.147 18.8118 94.9865 18.8439 94.3016 18.8439H93.4776V18.1162C93.4882 17.7202 93.4882 17.3778 93.4882 17.3457C93.499 17.3136 93.8414 17.2922 94.2481 17.2922C94.8581 17.2922 95.04 17.335 95.2112 17.5062ZM95.4253 20.524C95.7035 20.8344 95.7035 21.3374 95.4038 21.6477C95.2005 21.8618 95.0721 21.8939 94.3123 21.8939H93.4455V21.0912V20.2886H94.323C95.0935 20.2886 95.2326 20.3207 95.4253 20.524Z" fill="white"/>
<path d="M98.7441 19.5927V23.2847H100.724H102.704V22.5892V21.8936H101.58H100.446L100.456 18.9185L100.467 15.9542L99.611 15.9221L98.7441 15.89V19.5927Z" fill="white"/>
<path d="M119.985 16.0405C119.953 16.1047 119.942 17.7635 119.953 19.7005L119.985 23.232L120.863 23.2641L121.74 23.2962L121.772 21.6802L121.805 20.075L123.025 21.6802L124.245 23.2855H125.347C125.957 23.2855 126.46 23.2641 126.46 23.232C126.46 23.1999 125.807 22.3865 125.004 21.4127C124.063 20.2676 123.581 19.6041 123.635 19.5185C123.677 19.4436 124.32 18.641 125.058 17.7421C125.796 16.8431 126.428 16.0619 126.438 16.0084C126.46 15.9442 126.021 15.9014 125.347 15.9014H124.223L123.014 17.5066L121.805 19.1119L121.772 17.5066L121.74 15.9014H120.884C120.296 15.9014 120.017 15.9442 119.985 16.0405Z" fill="white"/>
<path d="M135.557 19.5927V23.2847H136.413H137.269V21.7866V20.2883H138.714H140.158V21.7866V23.2847H141.068H141.978L141.956 19.6141L141.924 15.9542L141.047 15.9221L140.158 15.89V17.3989V18.9078L138.746 18.8757L137.322 18.8436L137.29 17.3668L137.258 15.9006H136.413H135.557V19.5927Z" fill="white"/>
<path d="M145.295 16.1578C145.242 16.3076 144.685 17.9129 144.054 19.7214C143.423 21.5407 142.888 23.0817 142.866 23.1459C142.824 23.2529 143.048 23.285 143.766 23.285H144.707L144.921 22.6644L145.135 22.0544H146.462H147.789L147.96 22.6429L148.142 23.2316L149.116 23.2637L150.101 23.2958L149.244 20.8023C148.763 19.4325 148.196 17.7737 147.982 17.1316L147.575 15.9545L146.494 15.9224C145.413 15.8903 145.403 15.901 145.295 16.1578ZM146.901 19.379C147.093 19.9676 147.275 20.5133 147.308 20.5776C147.34 20.6845 147.137 20.7167 146.483 20.7167C146.002 20.7167 145.616 20.6845 145.616 20.6418C145.616 20.4064 146.419 18.159 146.483 18.2339C146.527 18.2767 146.708 18.7904 146.901 19.379Z" fill="white"/>
<path d="M150.967 19.5934V23.2855H151.876H152.786V19.5934V15.9014H151.876H150.967V19.5934Z" fill="white"/>
<path d="M154.392 15.9542C154.392 15.9863 154.381 17.6343 154.381 19.6141V23.2313L155.248 23.2634L156.104 23.2955V21.0374C156.104 19.8067 156.136 18.7901 156.19 18.8008C156.232 18.8008 156.907 19.8174 157.699 21.0481L159.122 23.2955L160.031 23.2634L160.93 23.2313V19.5927V15.9542L160.021 15.9221L159.1 15.89L159.079 18.1694L159.047 20.4382L157.603 18.2015L156.158 15.9542L155.269 15.9221C154.788 15.9006 154.392 15.9221 154.392 15.9542Z" fill="white"/>
<path d="M91.6797 30.5622V34.2007H92.2682H92.8569L92.8782 31.7821L92.9103 29.3636L93.9806 31.7607L95.0507 34.1472H95.4681H95.8854L96.9342 31.8143C97.5013 30.5301 98.0043 29.4492 98.0364 29.4171C98.0685 29.3743 98.1007 30.4444 98.1007 31.7715V34.2007H98.6892H99.2779V30.5622V26.9236H98.6571H98.0258L96.7629 29.7595C96.078 31.322 95.5002 32.5954 95.4787 32.5954C95.4681 32.5954 94.9116 31.3755 94.2481 29.888C93.5845 28.4111 92.9853 27.1269 92.9318 27.0521C92.8782 26.9771 92.5893 26.9236 92.2576 26.9236H91.6797V30.5622Z" fill="white"/>
<path d="M105.335 27.2664C105.035 27.9942 102.916 33.9657 102.916 34.0834C102.916 34.1583 103.141 34.2011 103.483 34.2011H104.061L104.318 33.452L104.575 32.6921L106.116 32.7242L107.657 32.7563L107.892 33.452L108.128 34.1476L108.727 34.1797C109.059 34.2011 109.337 34.169 109.337 34.1262C109.337 34.0834 108.759 32.4461 108.063 30.509L106.79 26.9775L106.137 26.9454C105.484 26.9133 105.474 26.9133 105.335 27.2664ZM106.715 30.081C107.004 30.905 107.25 31.6434 107.282 31.7076C107.314 31.8146 107.047 31.8467 106.137 31.8467C105.484 31.8467 104.949 31.8146 104.949 31.7611C104.939 31.5578 106.084 28.4436 106.137 28.5078C106.169 28.5506 106.437 29.2569 106.715 30.081Z" fill="white"/>
<path d="M114.827 27.1487C114.078 27.4376 113.265 28.1867 112.901 28.9358C112.634 29.4709 112.602 29.6635 112.602 30.5625C112.602 31.4614 112.634 31.654 112.901 32.1784C113.233 32.8633 113.896 33.5268 114.603 33.8907C114.935 34.0619 115.309 34.1475 115.94 34.1796C117.16 34.2438 117.845 34.0191 118.648 33.2699C119.376 32.6065 119.718 31.8894 119.804 30.9156L119.857 30.2414H117.856H115.866V30.6694V31.0976H117.203C118.712 31.0976 118.712 31.0976 118.338 31.9109C117.76 33.1736 116.037 33.591 114.817 32.767C113.265 31.7289 113.426 29 115.074 28.1974C116.101 27.7051 117.407 27.9513 117.995 28.7539C118.209 29.0321 118.284 29.0642 118.862 29.0642C119.611 29.0642 119.654 28.9786 119.194 28.3579C118.766 27.7479 118.306 27.3948 117.631 27.1487C116.839 26.849 115.598 26.849 114.827 27.1487Z" fill="white"/>
<path d="M125.486 27.2123C125.165 28.0256 123.035 34.0292 123.035 34.1148C123.035 34.1576 123.292 34.2004 123.613 34.2004H124.191L124.437 33.4727L124.694 32.7557H126.235H127.765L128.033 33.4727L128.3 34.2004H128.878C129.274 34.2004 129.456 34.1576 129.445 34.0613C129.445 33.9971 128.878 32.3704 128.183 30.4549L126.931 26.9768L126.267 26.9447C125.625 26.9126 125.593 26.9234 125.486 27.2123ZM126.813 29.9519C127.102 30.7866 127.359 31.5571 127.391 31.6534C127.444 31.8246 127.337 31.8461 126.256 31.8461C125.604 31.8461 125.068 31.8033 125.068 31.7604C125.068 31.707 125.304 31.0007 125.604 30.1766C125.892 29.3633 126.139 28.6249 126.139 28.5499C126.139 28.154 126.353 28.5821 126.813 29.9519Z" fill="white"/>
<path d="M132.85 26.9883C132.807 27.031 132.775 27.2451 132.775 27.4698V27.8872L134.477 27.9085L136.179 27.9406L134.477 30.6161C132.936 33.0346 132.775 33.3343 132.807 33.7195L132.829 34.1476L135.215 34.1797L137.602 34.2011L137.57 33.7516L137.538 33.2915L135.868 33.2379L134.209 33.1845L135.9 30.509C137.452 28.0691 137.602 27.8015 137.57 27.4056L137.538 26.9775L135.226 26.9454C133.963 26.9347 132.893 26.9561 132.85 26.9883Z" fill="white"/>
<path d="M141.336 30.5617V34.211L141.903 34.1789L142.46 34.1468V30.5617V26.9767L141.903 26.9446L141.336 26.9125V30.5617Z" fill="white"/>
<path d="M146.473 30.5617V34.2003H147.061H147.65V31.4928V28.796L149.437 31.4928L151.214 34.2003H151.792H152.358V30.5511V26.9125L151.802 26.9446L151.235 26.9767V29.6307C151.235 31.0861 151.214 32.274 151.182 32.274C151.15 32.274 150.336 31.0647 149.373 29.5986L147.618 26.9232H147.051H146.473V30.5617Z" fill="white"/>
<path d="M156.426 30.5622V34.2007H158.416H160.396L160.364 33.7405L160.332 33.2911L158.92 33.259L157.496 33.2269V32.1139V30.9902H158.78H160.064V30.5728C160.064 30.0378 159.957 29.995 158.587 30.0378L157.549 30.0699L157.517 28.9784L157.485 27.8868H158.94H160.396L160.364 27.4266L160.332 26.9771L158.384 26.945L156.426 26.9236V30.5622Z" fill="white"/>
<path d="M73.9697 11.7808C75.0185 11.5882 77.5443 11.5882 78.6572 11.7808C83.1838 12.5728 87.0153 15.6545 88.749 19.9029C90.1722 23.3808 90.0435 27.3728 88.4277 30.7222C86.5442 34.6175 83.1728 37.218 78.7851 38.1705C77.8004 38.3845 74.8151 38.3639 73.7236 38.1285C71.8829 37.7325 70.4273 37.1115 68.79 36.0094C65.9221 34.0938 63.814 30.8936 63.1611 27.4478C62.9471 26.2707 62.9472 23.5522 63.1719 22.4498C63.7284 19.7211 64.948 17.452 66.9062 15.5045C68.9181 13.5033 71.2516 12.2731 73.9697 11.7808ZM78.458 12.5133C77.2969 12.3197 75.4258 12.3198 74.3183 12.524C70.8563 13.1476 68.0174 14.9756 65.9961 17.8677C64.4157 20.1148 63.706 22.588 63.8135 25.4156C63.8887 27.2432 64.0825 28.1683 64.6953 29.6842C66.0178 32.9741 68.5441 35.4799 71.8125 36.7594C73.307 37.3507 74.1137 37.5122 75.8877 37.5875C77.0596 37.6305 77.6623 37.6091 78.5117 37.4586C83.4358 36.6413 87.3708 33.0175 88.6933 28.0826C88.9621 27.115 88.9834 26.8565 88.9834 24.9859C88.9834 23.1152 88.9621 22.8567 88.6933 21.8892C87.3601 16.9327 83.4682 13.3736 78.458 12.5133ZM68.3183 16.3736C71.0386 13.7931 74.6195 12.7285 78.4795 13.3306C80.0599 13.578 82.1132 14.449 83.4033 15.4166C88.0804 18.9325 89.6077 25.115 87.0488 30.2437C85.7371 32.867 83.4788 34.9527 80.834 35.9957C79.3288 36.5977 78.1888 36.8023 76.415 36.8023C75.0173 36.8023 74.6405 36.7596 73.6191 36.5123C71.4689 35.9747 69.5013 34.8455 67.9531 33.2545C66.9425 32.2223 66.437 31.5014 65.8135 30.2545C63.4803 25.5559 64.4801 19.997 68.3183 16.3736ZM79.9951 16.5318C79.1604 16.1038 78.9032 16.1468 76.0566 17.1099C74.6121 17.6021 72.7822 18.2654 71.9902 18.5865L70.5449 19.1646V22.8834H68.6191V24.1881H70.4922V24.8697H68.6191V26.1744H70.9092L70.4922 26.1851L70.5127 28.4537L70.5449 30.7222L70.7715 30.7086H74.0361C77.884 30.7086 78.8104 30.7438 80.0078 30.2506C82.1813 29.35 82.7858 26.9593 81.2402 25.4049L80.7314 24.8931C80.7277 24.8738 80.727 24.8545 80.7226 24.8365C80.6982 24.7413 80.632 24.6203 80.539 24.4869L80.8262 24.0943C81.3744 23.3847 81.5577 22.3958 81.3213 21.5357C81.203 21.1165 80.7941 20.4609 80.6221 20.3961C80.6083 20.3915 80.5771 20.4125 80.5312 20.4547C81.1547 19.5465 81.3007 19.1149 81.3008 18.4801C81.3008 17.7203 80.7655 16.9278 79.9951 16.5318ZM79.9853 27.5416C80.1058 27.4003 80.2139 27.2533 80.3057 27.106C80.2139 27.2583 80.1073 27.4033 79.9853 27.5416ZM79.9805 27.5484C79.964 27.567 79.9467 27.5848 79.9297 27.6031C79.9462 27.5845 79.9643 27.5673 79.9805 27.5484Z" fill="white"/>
</g>
<defs>
<clipPath id="clip0_3281_2944">
<rect width="98" height="26.7273" fill="white" transform="translate(63 11.6364)"/>
</clipPath>
</defs>
</svg>
