<svg width="335" height="98" viewBox="0 0 335 98" fill="none" xmlns="http://www.w3.org/2000/svg">
<path d="M73.654 38.4271C71.2234 38.3698 68.8547 39.1974 66.9887 40.756C65.0732 42.4142 63.726 44.6313 63.1367 47.0953H62.9643V39.2888H53.5322V84.8144H62.9643V57.6826C62.9102 55.6935 63.3101 53.7183 64.1334 51.9069C64.8579 50.3664 66.0341 49.0829 67.5057 48.2272C69.0938 47.3462 70.8884 46.9056 72.7038 46.9509C73.5416 46.9458 74.3788 46.9971 75.2097 47.1046C75.7846 47.1657 76.3514 47.2875 76.9005 47.4679V38.7718C76.4508 38.6652 75.9951 38.5859 75.5358 38.5342C74.9113 38.4599 74.2829 38.4242 73.654 38.4271Z" fill="white"/>
<path d="M110.088 40.286C107.38 39.0439 104.163 38.4229 100.437 38.4229C96.7103 38.4229 93.4933 39.0268 90.7856 40.2347C88.2679 41.2955 86.0748 43.0018 84.4276 45.1814C82.9064 47.2482 81.9918 49.6985 81.7867 52.2566L81.7494 52.7224H90.5713L90.6598 52.3358C91.0648 50.5125 92.1577 48.9158 93.7107 47.8782C95.3456 46.7278 97.4975 46.1455 100.185 46.1455C103.092 46.1455 105.326 46.8613 106.888 48.2928C108.448 49.7181 109.217 51.6883 109.217 54.1989V57.6084L96.8454 58.3537C91.4734 58.6642 87.3124 59.9839 84.3624 62.3128C81.4125 64.6418 79.9328 67.7935 79.9235 71.7682V71.8521C79.8737 74.3788 80.5337 76.8688 81.8286 79.0391C83.1063 81.1273 84.9532 82.8078 87.1525 83.8832C89.6322 85.0853 92.3622 85.6808 95.1174 85.6206C97.0558 85.6314 98.9811 85.3003 100.805 84.6425C102.548 84.0092 104.166 83.0725 105.583 81.8757C106.995 80.6836 108.169 79.2362 109.044 77.6091H109.217V84.7915H118.658V53.4397C118.72 50.6342 117.936 47.875 116.408 45.5214C114.838 43.2145 112.647 41.3994 110.088 40.286ZM109.221 67.7672C109.248 69.6444 108.722 71.4879 107.707 73.0678C106.689 74.6508 105.262 75.9287 103.576 76.7661C101.744 77.6828 99.7181 78.1445 97.6698 78.1122C95.1639 78.1122 93.1455 77.5346 91.6147 76.3795C90.8825 75.836 90.2937 75.1224 89.8992 74.3003C89.5048 73.4781 89.3166 72.5723 89.351 71.6611V71.5773C89.3245 70.6758 89.5166 69.7814 89.9108 68.9704C90.305 68.1593 90.8896 67.4556 91.6147 66.9194C93.1393 65.7488 95.2975 65.078 98.089 64.9072L109.207 64.2132L109.221 67.7672Z" fill="white"/>
<path d="M151.245 38.4272C147.81 38.4272 144.926 39.1414 142.59 40.5698C140.336 41.908 138.493 43.842 137.267 46.1592H137.094V39.2889H127.662V84.8145H137.094V58.2882C137.042 56.136 137.495 54.0016 138.417 52.056C139.247 50.3508 140.554 48.9235 142.181 47.9478C143.919 46.937 145.904 46.4275 147.914 46.476C151.147 46.476 153.563 47.3982 155.162 49.2427C156.761 51.0872 157.562 53.7266 157.565 57.161V84.8099H166.956V55.3445C166.956 50.0967 165.585 45.9652 162.843 42.95C160.101 39.9348 156.235 38.4272 151.245 38.4272Z" fill="white"/>
<path d="M207.46 47.044H207.273C205.957 44.439 203.941 42.252 201.451 40.728C198.874 39.177 195.912 38.3828 192.904 38.4364C189.365 38.3571 185.886 39.3597 182.932 41.3102C179.996 43.3459 177.701 46.1746 176.313 49.4661C174.739 52.9874 173.953 57.1717 173.956 62.0189V62.0609C173.956 66.9081 174.732 71.1002 176.285 74.637C177.659 77.9468 179.957 80.7911 182.904 82.8301C185.764 84.7724 189.117 85.7319 192.988 85.7319C195.945 85.8165 198.864 85.0486 201.397 83.5199C203.93 81.9912 205.97 79.7662 207.273 77.1103H207.446V84.8143H216.878V0H207.46V47.044ZM207.506 62.0609C207.567 64.8795 207.044 67.6801 205.969 70.2866C205.08 72.4522 203.612 74.3312 201.726 75.7176C199.9 77.0062 197.71 77.68 195.475 77.6413C193.212 77.696 190.989 77.0448 189.113 75.7782C187.238 74.4234 185.8 72.5502 184.976 70.389C183.953 67.7312 183.458 64.8991 183.519 62.0515V62.0096C183.452 59.1792 183.944 56.3634 184.967 53.7234C185.805 51.574 187.242 49.7101 189.108 48.3529C190.981 47.0808 193.207 46.4291 195.471 46.4897C197.692 46.4471 199.87 47.1163 201.684 48.3995C203.559 49.7896 205.025 51.6593 205.927 53.8119C207.02 56.4038 207.552 59.1976 207.488 62.0096L207.506 62.0609Z" fill="white"/>
<path d="M271.272 32.498C269.472 29.3338 266.808 26.7485 263.591 25.0455C260.302 23.2538 256.464 22.3579 252.077 22.3579H226.976V32.7542H248.867C249.726 32.7497 250.583 32.8041 251.434 32.9172C253.717 33.1562 255.872 34.0874 257.61 35.5861C259.681 37.4803 260.72 40.2145 260.726 43.7886V43.8817C260.726 47.3999 259.688 50.1185 257.61 52.0376C255.881 53.557 253.723 54.5025 251.434 54.7438C250.583 54.8585 249.726 54.9145 248.867 54.9114H226.976V84.8147H240.05V65.1726H252.077C253.055 65.1726 254.002 65.1276 254.918 65.0376C257.95 64.7867 260.899 63.9264 263.591 62.5084C266.806 60.8034 269.47 58.2186 271.272 55.0558C271.43 54.7795 271.585 54.5047 271.737 54.2314C273.317 51.0022 274.104 47.4432 274.034 43.8491V43.7606C274.102 40.1392 273.304 36.5539 271.705 33.3038C271.551 33.0243 271.421 32.7588 271.272 32.498Z" fill="white"/>
<path d="M318.036 62.69C321.677 61.2898 324.761 58.7403 326.821 55.4285C329.021 51.9364 330.154 47.8781 330.082 43.7513V43.6628C330.082 39.2099 329.136 35.4014 327.245 32.2372C325.314 29.0338 322.462 26.4869 319.061 24.929C315.521 23.215 311.264 22.3579 306.289 22.3579H282.115V85.7043H295.19V64.9397L303.9 64.8047L319.205 85.7043H335L318.036 62.69ZM315.829 43.7839C315.829 47.0351 314.844 49.5829 312.875 51.4274C310.915 53.2905 308.218 54.2221 304.771 54.2221H295.19V33.2898H304.585C308 33.2898 310.727 34.2214 312.764 36.0845C314.801 37.9476 315.822 40.48 315.829 43.6814V43.7839Z" fill="white"/>
<path d="M39.489 54.3711C37.125 52.9513 34.4641 52.0983 31.7151 51.8792V51.7022C33.8796 51.4084 35.9307 50.5578 37.6678 49.2336C39.4007 47.9234 40.8134 46.2367 41.7993 44.3009C42.8023 42.3803 43.3234 40.2448 43.3178 38.0781V37.9942C43.409 35.1046 42.6307 32.2541 41.0836 29.8117C39.5365 27.3694 37.2918 25.4478 34.6402 24.2956C31.889 23.0038 28.6503 22.3579 24.924 22.3579H19.9914V30.2762H22.5905C26.1087 30.2762 28.8257 31.0525 30.7416 32.6051C32.6576 34.1577 33.6171 36.3655 33.6202 39.2286V39.3171C33.6202 42.4223 32.4945 44.8164 30.2433 46.4994C27.992 48.1824 24.7315 49.0177 20.4618 49.0053H8.29559V30.2762H13.5077V22.3579H0V84.8147H13.5077V76.8964H8.29559V56.4672H22.4181C25.0474 56.3974 27.6686 56.7867 30.1641 57.6176C32.0736 58.1944 33.7323 59.3993 34.8712 61.0369C36.01 62.6746 36.5622 64.649 36.4382 66.6399V66.7283C36.4382 70.0478 35.297 72.5708 33.0147 74.2973C30.7323 76.0238 27.4315 76.8886 23.1121 76.8917H19.9914V84.81H25.0591C29.4933 84.81 33.3003 84.1036 36.4801 82.6907C39.4653 81.4358 42.0151 79.3299 43.8115 76.6355C45.5287 74.0085 46.3873 70.8645 46.3873 67.2034V67.1103C46.4323 64.5245 45.815 61.9702 44.594 59.6904C43.3843 57.5032 41.6246 55.6697 39.489 54.3711Z" fill="white"/>
<path d="M8.29514 9.80469H1.83008V18.1003H8.29514V9.80469Z" fill="white"/>
<path d="M19.9905 9.80469H13.5254V18.1003H19.9905V9.80469Z" fill="white"/>
<path d="M8.29514 89.0854H1.83008V97.381H8.29514V89.0854Z" fill="white"/>
<path d="M19.9905 89.0854H13.5254V97.381H19.9905V89.0854Z" fill="white"/>
</svg>
