<svg width="239" height="104" viewBox="0 0 239 104" fill="none" xmlns="http://www.w3.org/2000/svg">
<g clip-path="url(#clip0_198_230)">
<path d="M164.677 86.0835V16.9229L178.016 29.4273V73.5791L164.677 86.0835Z" fill="white"/>
<path d="M194.335 72.8459H180.977V29.4273L194.335 16.9229V72.8459Z" fill="white"/>
<path d="M222.524 103.741H180.242L167.639 90.5034H209.921L222.524 103.741Z" fill="white"/>
<path d="M221.033 75.7791L208.43 89.0167H169.109H167.674C171.594 84.4401 180.241 75.7593 180.241 75.7593H221.033V75.7791Z" fill="white"/>
<path d="M237.354 43.4186H195.827V30.1611H224.751L237.354 43.4186Z" fill="white"/>
<path d="M237.354 44.8848L224.751 58.1224H195.827V44.8848H237.354Z" fill="white"/>
<path d="M179.959 0L193.298 13.2376L179.436 27.1415L165.865 13.9709L179.959 0Z" fill="white"/>
<path d="M224.751 75.7788L238.845 89.7695L225.487 103.007L211.393 89.0363L224.751 75.7788Z" fill="white"/>
<path d="M238.845 86.0834C236.579 84.2998 225.486 73.579 225.486 73.579V60.3413C225.486 60.3413 236.559 49.6204 238.845 47.8369V86.1032V86.0834Z" fill="white"/>
<path d="M72.6978 43.4191H30.4153L17.812 30.1616H60.0746L72.6978 43.4191Z" fill="white"/>
<path d="M0 86.0842V44.1519L13.3587 31.6475V73.5798L0 86.0842Z" fill="white"/>
<path d="M56.3765 75.7793L43.7534 89.0367H1.49072L14.094 75.7793H56.3765Z" fill="white"/>
<path d="M56.3765 103.742H14.094L1.49072 90.5039H43.7534L56.3765 103.742Z" fill="white"/>
<path d="M28.1882 73.5837H14.8296V31.6475L28.1882 44.1519V73.5837Z" fill="white"/>
<path d="M72.6969 44.8857L60.0738 58.1234H31.1499V44.8857H72.6969Z" fill="white"/>
<path d="M60.0737 75.7793L74.1678 89.77L60.0737 103.741L45.9795 89.77L60.0737 75.7793Z" fill="white"/>
<path d="M142.413 102.274L142.644 31.665L146.866 35.5855C146.866 35.5855 153.645 42.4871 157.243 45.6181V88.2837L142.413 102.255V102.274Z" fill="white"/>
<path d="M140.943 102.274L127.584 89.7697V44.1514L140.943 31.647V102.274Z" fill="white"/>
<path d="M94.943 102.274L80.1133 88.2834V46.3511L94.943 60.3417V102.274Z" fill="white"/>
<path d="M109.772 60.314L109.772 89.7695L96.4336 102.274V60.314H109.772Z" fill="white"/>
<path d="M139.451 28.6943C137.404 31.112 125.357 43.4182 125.357 43.4182H111.998C111.998 43.4182 99.9518 31.112 97.9043 28.6943H139.451Z" fill="white"/>
<path d="M95.6782 30.1611L109.772 44.1518L95.6782 58.1227L81.584 44.1518L95.6782 30.1611Z" fill="white"/>
<path d="M98.3135 58.2031C100.122 55.944 111.999 44.8848 111.999 44.8848H126.093V58.2031H98.3135Z" fill="white"/>
</g>
<defs>
<clipPath id="clip0_198_230">
<rect width="238.846" height="103.741" fill="white"/>
</clipPath>
</defs>
</svg>
