<svg width="376" height="69" viewBox="0 0 376 69" fill="none" xmlns="http://www.w3.org/2000/svg">
<g clip-path="url(#clip0_193_107)">
<path d="M93.2892 45.6301C97.6167 50.0904 105.663 50.3836 110.487 46.5915C110.971 46.2116 112.501 44.3959 112.893 44.4647C114.889 46.1937 116.767 48.3563 118.908 49.8073C119.01 50.1822 118.806 50.2306 118.661 50.4448C116.928 52.9873 112.516 55.5401 109.604 56.4173C92.9939 61.4156 76.7809 49.231 80.5967 31.4385C83.5522 17.66 99.6125 11.7972 111.875 17.1959C113.512 17.915 118.025 20.7559 118.799 22.263C119.061 22.7705 117.913 23.6784 117.518 24.0532C116.933 24.6092 113.206 28.0442 112.883 28.0927C109.413 24.9993 105.821 23.0867 100.997 23.5662C90.1504 24.6474 86.1334 38.2525 93.2917 45.6327L93.2892 45.6301Z" fill="white"/>
<path d="M357.638 24.8839C368.841 24.3254 377.662 32.5139 375.735 44.0305C374.521 51.2882 368.108 56.5925 360.869 57.1893C336.489 59.1988 334.977 26.011 357.638 24.8839ZM358.407 32.519C348 32.9016 348.497 50.541 359.596 49.5413C369.391 48.659 368.801 32.1365 358.407 32.519Z" fill="white"/>
<path d="M137.187 24.8832C161.829 23.9677 161.198 59.2747 136.1 57.1887C115.534 55.48 115.916 25.6738 137.187 24.8832ZM143.516 34.5891C139.15 30.4324 131.302 33.0259 130.436 39.029C128.443 52.8381 147.215 53.139 145.896 39.7303C145.733 38.0676 144.733 35.7469 143.516 34.5917V34.5891Z" fill="white"/>
<path d="M210.553 56.6836H201.134V37.9399C201.134 37.792 200.549 36.1268 200.417 35.8539C198.505 31.9318 192.189 32.225 189.549 35.2597C188.592 36.3589 187.643 38.807 187.643 40.2351V56.6836H178.479V25.3167H187.388V28.6319C194.307 22.4758 207.101 23.6412 209.856 33.5384C210.08 34.3391 210.553 36.1956 210.553 36.9199V56.6836Z" fill="white"/>
<path d="M335.796 56.6846H326.378V37.9409C326.378 36.7882 324.746 34.3324 323.661 33.7765C320.21 31.9965 315.437 33.1236 313.777 36.7959C313.52 37.362 312.886 39.4735 312.886 39.9836V56.6871H303.722V25.3201H312.631V28.6354C319.375 22.413 332.49 23.7875 335.104 33.5368C335.318 34.3375 335.796 36.4694 335.796 37.1784V56.6871V56.6846Z" fill="white"/>
<path d="M281.574 33.2204L274.353 36.8162C270.511 29.7879 260.186 31.8714 259.43 39.9835C258.537 49.5746 269.679 53.2086 274.571 45.2342L281.572 49.0391C277.794 58.8011 262.951 59.3978 255.729 53.3769C246.801 45.9304 248.571 31.3384 259.255 26.5492C266.79 23.1702 278.334 24.6187 281.574 33.2204Z" fill="white"/>
<path d="M247.701 33.2034C246.538 33.4534 241.421 36.8884 240.751 36.7584C240.342 36.6793 239.468 34.986 238.934 34.4989C232.496 28.6489 223.192 35.8097 226.287 44.618C228.502 50.9245 237.855 51.2458 240.713 45.2325C241.678 46.097 247.187 48.3743 247.607 49.0297C248.439 50.3329 243.911 54.2652 242.798 54.941C234.003 60.2912 220.079 56.3691 216.991 46.0282C213.964 35.8939 220.359 26.6062 230.569 25.0939C237.114 24.1223 245.517 26.29 247.704 33.2034H247.701Z" fill="white"/>
<path d="M295.576 25.3179H286.412V56.6848H295.576V25.3179Z" fill="white"/>
<path d="M289.4 11.0987C293.781 10.3592 297.577 12.8481 296.421 17.622C295.512 21.3759 290.146 22.3016 287.305 20.2181C283.607 17.5047 285.002 11.8434 289.4 11.0987Z" fill="white"/>
<path d="M170.332 25.3184H161.168V56.6853H170.332V25.3184Z" fill="white"/>
<path d="M170.244 12.6567C171.833 14.3577 171.759 17.5428 170.333 19.3254C167.205 23.2399 159.351 21.1105 159.955 15.5715C160.472 10.8308 167.307 9.5098 170.244 12.6542V12.6567Z" fill="white"/>
<path d="M68.3116 34.2171C68.3116 53.1138 53.0201 68.4351 34.1545 68.4351C15.289 68.4351 0 53.1138 0 34.2171C0 15.3204 15.2915 -0.000976562 34.1571 -0.000976562C53.0226 -0.000976562 68.3141 15.3178 68.3141 34.2171H68.3116ZM50.6883 39.8529H42.6696C42.471 39.8529 40.8164 42.3419 40.1189 42.908C35.7328 46.4655 28.7807 44.6115 26.2886 39.6897C22.2181 31.6593 28.1545 21.2878 37.6522 24.2255C40.684 25.164 40.9844 26.7502 42.695 28.8643C43.1864 29.4712 46.2258 33.4061 46.5186 33.4673C46.9004 33.5489 50.9454 28.8388 50.9454 28.5047V17.1565H42.5449C42.4761 17.1565 42.5092 18.3831 42.1401 18.4469C28.1112 13.0941 14.2656 23.6645 17.9288 38.8839C20.5253 49.6659 33.1592 54.2384 42.7969 49.6659C46.5873 47.8681 50.1181 44.0658 50.6908 39.8504L50.6883 39.8529Z" fill="white"/>
</g>
<defs>
<clipPath id="clip0_193_107">
<rect width="376" height="68.4335" fill="white" transform="translate(0 0.000488281)"/>
</clipPath>
</defs>
</svg>
