<svg width="224" height="50" viewBox="0 0 224 50" fill="none" xmlns="http://www.w3.org/2000/svg">
<g clip-path="url(#clip0_3281_2973)">
<path d="M64.5175 9.57629V16.6134C61.8133 17.1666 59.326 18.9192 58.2239 21.4951C56.0862 26.5051 58.848 32.3782 64.2962 33.3431V40.4244C59.3437 39.7207 54.4398 36.9501 51.9569 32.5154C49.0182 27.2575 49.4475 21.1366 52.6828 16.131C55.3073 12.068 59.7022 9.7843 64.5175 9.57629Z" fill="white"/>
<path d="M96.5837 23.1315C96.1588 23.1448 95.1941 23.1581 94.84 23.1448C94.4859 23.1316 94.7249 23.0917 94.7249 23.0298C94.7028 22.5828 94.9152 21.5118 94.1717 21.2418C93.8841 21.1356 92.636 21.1356 92.2908 21.1754C91.7155 21.2418 91.596 21.6622 91.5606 22.1712C91.5739 23.9105 91.6048 25.7073 91.6181 27.3935C91.6181 27.7431 91.8615 28.0529 92.2067 28.1149C92.5519 28.1768 92.2377 28.1193 92.251 28.1237C92.5785 28.168 93.7823 28.168 94.0744 28.0971C95.0259 27.867 94.6453 26.6057 94.7648 26.1764C94.8134 26.1454 94.84 26.141 94.8975 26.1322C95.1763 26.0967 96.566 26.1144 96.7298 26.1631C96.8935 26.2118 96.743 26.172 96.743 26.1853C96.743 26.2649 96.743 26.38 96.743 26.4641C96.7873 28.0175 96.8183 29.8055 94.5391 29.9338C93.8132 29.9736 92.3085 30.009 91.5916 29.9294C90.3391 29.7878 89.569 28.8407 89.4761 27.6192C89.4628 25.6763 89.4318 23.7511 89.4761 21.733C89.569 20.4009 90.4055 19.4715 91.7553 19.3653C92.5032 19.3078 94.3709 19.2901 95.0436 19.4892C96.1721 19.8212 96.6678 20.7417 96.7386 21.8658C96.7519 22.0738 96.7475 22.7111 96.7475 23.0386C96.7386 23.0961 96.7961 23.1448 96.5837 23.1448V23.1315Z" fill="white"/>
<path d="M130.722 25.4106C130.674 25.4593 130.559 25.4593 130.492 25.4681C129.483 25.477 128.607 25.4681 127.7 25.4681C127.536 25.4858 127.434 25.5389 127.412 25.7115C127.412 26.4241 127.412 27.2649 127.412 27.9686C127.434 28.0881 127.496 28.1102 127.607 28.1279C128.647 28.1368 129.921 28.1279 130.975 28.1279C131.209 28.1456 131.369 28.1678 131.395 28.4156C131.413 28.5971 131.417 29.7035 131.373 29.8097C131.329 29.9159 131.209 29.9602 131.112 29.9469L125.469 29.9203C125.376 29.8584 125.319 29.7743 125.332 29.6592L125.359 19.5023C125.42 19.4094 125.505 19.3518 125.62 19.3651L131.262 19.3917C131.351 19.4492 131.386 19.5067 131.4 19.6085C131.422 19.7856 131.417 20.9318 131.364 21.038C131.311 21.1442 131.32 21.1088 131.276 21.1265L127.567 21.1796C127.465 21.1929 127.43 21.2903 127.416 21.3832C127.408 21.8656 127.416 22.8791 127.412 23.3748C127.416 23.45 127.421 23.5606 127.478 23.6182C127.633 23.7687 129.877 23.6978 130.656 23.7155C130.696 23.7333 130.722 23.7642 130.745 23.8041C130.802 23.928 130.798 24.9857 130.78 25.1893C130.762 25.3929 130.771 25.3707 130.722 25.4194V25.4106Z" fill="white"/>
<path d="M114.177 22.4105C114.239 22.4193 114.248 22.3972 114.274 22.353C114.673 21.7245 114.974 21.574 115.744 21.5209C117.448 21.4014 118.833 21.9015 118.957 23.8001C118.97 25.7032 118.961 27.7124 118.957 29.6465C118.935 29.8943 118.917 29.912 118.669 29.9341C118.421 29.9562 117.102 29.9562 117.01 29.912C116.917 29.8677 116.886 29.7084 116.877 29.6022C116.877 27.8541 116.89 25.8935 116.859 24.0436C116.802 23.3045 115.916 23.2956 115.35 23.3355C114.686 23.3841 114.208 23.747 114.19 24.3002C114.155 26.044 114.173 27.8673 114.182 29.6022C114.164 29.7836 114.137 29.9076 113.938 29.9341C113.739 29.9607 112.323 29.9562 112.199 29.9031C112.075 29.85 112.053 29.7659 112.053 29.5137C112.044 27.1017 112.053 24.4728 112.053 22.0299C112.053 21.7997 112.075 21.5696 112.345 21.5254C112.628 21.4767 113.496 21.4944 113.805 21.5209C114.115 21.5475 114.182 21.6227 114.182 21.7643V22.4061L114.177 22.4105Z" fill="white"/>
<path d="M168.707 22.412C168.809 22.4342 168.778 22.3988 168.804 22.3545C169.216 21.7039 169.53 21.5756 170.318 21.5225C171.938 21.4207 173.336 21.8987 173.482 23.7176C173.482 25.7667 173.482 27.7273 173.482 29.648C173.491 29.8162 173.398 29.9135 173.239 29.9357C173.079 29.9578 171.628 29.9534 171.535 29.9091C171.442 29.8649 171.455 29.8339 171.424 29.7985L171.38 24.0451C171.309 23.2972 170.402 23.2927 169.827 23.337C169.256 23.3813 168.879 23.5981 168.747 24.1026C168.614 24.6072 168.702 24.3416 168.707 24.4655C168.733 26.1119 168.689 27.9441 168.702 29.6037C168.694 29.7055 168.671 29.8604 168.57 29.9135C168.468 29.9666 167.052 29.9578 166.866 29.9357C166.574 29.9003 166.6 29.7188 166.578 29.471L166.6 21.788C166.649 21.5844 166.76 21.5402 166.954 21.5225C167.273 21.4959 168.118 21.4826 168.415 21.5269C168.711 21.5712 168.707 21.6774 168.707 21.7659V22.4076V22.412Z" fill="white"/>
<path d="M79.235 9.79725C79.7838 9.85478 80.2972 10.2398 80.4919 10.7532C80.6866 11.2666 80.545 13.1563 80.5406 13.9308C80.5273 15.6259 80.5494 17.312 80.4742 19.0026C78.5579 15.5506 75.8184 12.4836 72.3841 10.4965L71.0254 9.79725H79.235Z" fill="white"/>
<path d="M80.5413 39.0753C80.4794 39.602 80.0766 40.1021 79.5854 40.288C79.0941 40.4738 77.3725 40.3411 76.629 40.3366C74.8632 40.3234 73.1018 40.3366 71.3359 40.2702C74.7658 38.3716 77.8018 35.6587 79.7978 32.2686L80.5413 30.8214V39.0753Z" fill="white"/>
<path d="M151.113 21.5248C151.188 21.5425 151.338 21.6841 151.356 21.7682C151.4 21.9939 151.383 22.7949 151.356 23.0516C151.33 23.3083 151.347 23.2331 151.299 23.2818C151.17 23.4101 150.02 23.295 149.741 23.3393C149.462 23.3835 149.573 23.3791 149.546 23.4544L149.537 27.2958C149.537 27.3755 149.542 27.4552 149.559 27.5348C149.732 28.3447 150.577 28.0305 151.192 28.119C151.436 28.1544 151.502 28.2562 151.529 28.4908C151.555 28.7253 151.564 29.4556 151.529 29.6813C151.498 29.8671 151.418 29.9114 151.245 29.9291C150.847 29.9689 150.099 29.9601 149.692 29.9291C146.453 29.6901 147.639 25.6274 147.413 23.4898C147.351 23.1667 146.377 23.4676 146.262 23.2596C146.147 23.0516 146.191 21.9939 146.222 21.8124C146.253 21.631 146.373 21.5203 146.461 21.5203H147.346C147.395 21.5203 147.408 21.4141 147.417 21.3699C147.475 20.8653 147.355 20.2369 147.417 19.7279C147.439 19.5332 147.51 19.4624 147.705 19.4403C147.9 19.4181 149.05 19.396 149.298 19.4403C149.546 19.4845 149.542 19.6394 149.542 19.7279V21.4539C149.542 21.4672 149.595 21.4982 149.608 21.5203C150.037 21.5823 150.719 21.4362 151.113 21.5203V21.5248Z" fill="white"/>
<path d="M74.3442 29.0929C72.5917 27.1367 70.4231 25.4506 67.75 25.0434C69.9982 24.623 72.0916 23.4988 73.614 21.7905L74.3442 20.8169V29.0929Z" fill="white"/>
<path d="M142.893 21.5357C143.097 21.4914 144.252 21.4959 144.473 21.5268C144.695 21.5578 144.717 21.6419 144.752 21.7791L144.765 29.6037C144.761 29.6966 144.739 29.8958 144.646 29.9267H142.84C142.712 29.9135 142.677 29.7851 142.65 29.6789L142.637 21.9428C142.637 21.7658 142.699 21.5755 142.893 21.5357Z" fill="white"/>
<path d="M107.928 21.5351C108.189 21.4864 109.189 21.4908 109.463 21.5307C109.738 21.5705 109.715 21.5882 109.746 21.7343L109.76 29.7359C109.76 29.8465 109.711 29.9129 109.6 29.9306C109.406 29.966 108.074 29.966 107.879 29.9306C107.684 29.8952 107.817 29.9129 107.79 29.8908C107.72 29.8421 107.68 29.758 107.68 29.6695V21.8095C107.684 21.6325 107.764 21.5617 107.932 21.5351H107.928Z" fill="white"/>
<path d="M155.42 21.6269L155.468 29.8144C155.437 29.9118 155.371 29.9251 155.278 29.9339C154.773 30.0003 154.118 29.8808 153.596 29.9339C153.486 29.9118 153.393 29.8056 153.393 29.6949L153.406 21.7376C153.437 21.5738 153.583 21.5429 153.729 21.5296C154.061 21.4942 154.818 21.4942 155.145 21.5296C155.247 21.5429 155.335 21.5827 155.42 21.6314V21.6269Z" fill="white"/>
<path d="M126.526 35.8653V33.232C126.526 33.2276 126.588 33.1656 126.592 33.1656H127.367V37.6355H126.637C126.614 37.6355 126.491 37.485 126.473 37.4452L125.11 34.9359V37.5691C125.11 37.5736 125.048 37.6355 125.043 37.6355H124.291C124.287 37.6355 124.225 37.5736 124.225 37.5691V33.232C124.225 33.2276 124.287 33.1656 124.291 33.1656H124.999C125.123 33.1656 126.07 35.1085 126.207 35.3652C126.296 35.5289 126.398 35.7369 126.526 35.8653Z" fill="white"/>
<path d="M132.303 34.0952C132.37 34.1174 132.396 34.3209 132.41 34.3873C132.538 35.122 132.578 35.8788 132.68 36.6179C132.759 36.6046 132.755 36.5294 132.773 36.4674C132.989 35.7858 133.034 34.9273 133.228 34.2236C133.242 34.1838 133.259 34.1351 133.295 34.1129C133.375 34.0687 134.114 34.0731 134.158 34.1351L134.689 36.6134C134.72 36.6134 134.742 36.4497 134.751 36.4099C134.857 35.7681 134.866 34.8388 135.025 34.2501C135.039 34.2015 135.096 34.0908 135.131 34.0908H135.928C136.052 34.0908 135.91 34.5776 135.893 34.675C135.702 35.6575 135.459 36.6311 135.247 37.6048C135.22 37.6446 134.397 37.6491 134.291 37.6313C134.184 37.6136 134.184 37.6004 134.158 37.5428L133.737 35.153L133.228 37.5871C133.175 37.6579 132.233 37.6579 132.162 37.5871L131.432 34.0908C131.648 34.1351 132.118 34.0333 132.295 34.0908L132.303 34.0952Z" fill="white"/>
<path d="M106.698 35.9548C106.574 35.9327 106.158 36.0035 106.096 35.915C106.069 35.8044 106.038 35.2025 106.144 35.2025H107.583V36.8621C107.583 37.1188 107.207 37.4817 106.963 37.5702C106.609 37.6941 105.37 37.6897 105.047 37.4994C104.719 37.3047 104.6 36.9639 104.573 36.601C104.525 35.9681 104.507 34.6979 104.582 34.0828C104.657 33.4676 105.02 33.2198 105.529 33.1711C105.998 33.1224 106.976 33.1003 107.322 33.4588C107.667 33.8172 107.587 33.8836 107.587 33.9456V34.6094C107.587 34.6139 107.525 34.6758 107.521 34.6758H106.813C106.653 34.6758 106.729 34.2155 106.68 34.1005C106.565 33.8438 105.68 33.8659 105.534 34.0562C105.388 34.2465 105.472 34.2244 105.467 34.2996C105.414 34.8174 105.419 35.946 105.467 36.4682C105.516 36.9904 105.485 36.6762 105.538 36.7515C105.702 36.9904 106.711 36.9108 106.711 36.6851V35.9548H106.698Z" fill="white"/>
<path d="M156.491 34.0954C156.509 34.1131 156.478 34.383 156.491 34.4494C156.752 33.9759 157.744 33.998 158.124 34.2547C158.275 34.3565 158.527 34.6884 158.527 34.8699V37.5695C158.527 37.574 158.465 37.6359 158.461 37.6359H157.708C157.704 37.6359 157.642 37.574 157.642 37.5695V35.0912C157.642 34.7902 156.828 34.7725 156.624 35.0026C156.58 35.0557 156.491 35.3036 156.491 35.3567V37.6359H155.65V34.0954C155.77 34.1175 156.46 34.0644 156.491 34.0954Z" fill="white"/>
<path d="M97.8027 34.0965V36.5528C97.8027 37.0263 98.9534 36.9865 98.9534 36.5085V34.1629C98.9534 34.1585 99.0153 34.0965 99.0198 34.0965H99.7721C99.7765 34.0965 99.8385 34.1585 99.8385 34.1629V37.5707C99.8385 37.5751 99.7765 37.6371 99.7721 37.6371H99.0198C98.9357 37.6371 98.9489 37.3538 98.9534 37.283C98.8649 37.345 98.8383 37.4512 98.7321 37.522C98.5197 37.6636 98.0815 37.6592 97.8293 37.6327C97.3955 37.5884 97.099 37.345 96.9839 36.929C96.8689 36.513 96.8733 34.8755 96.9176 34.3355C96.9618 33.7956 96.9441 34.1762 96.9618 34.0921H97.8027V34.0965Z" fill="white"/>
<path d="M171.428 34.0948C171.525 34.1257 171.49 34.3559 171.495 34.4488C171.583 34.3869 171.61 34.2806 171.716 34.2098C172.043 33.993 172.959 34.0594 173.243 34.3603C173.526 34.6612 173.486 34.7763 173.486 34.825V37.6353H172.645V35.2676C172.645 34.8029 171.995 34.7409 171.685 34.9268C171.623 34.9622 171.495 35.1348 171.495 35.1791V37.5689C171.495 37.5733 171.433 37.6353 171.428 37.6353H170.676C170.671 37.6353 170.609 37.5733 170.609 37.5689V34.1611C170.609 34.1567 170.671 34.0948 170.676 34.0948C170.835 34.0948 171.322 34.0638 171.428 34.0948Z" fill="white"/>
<path d="M90.4332 33.1656L91.2741 34.9801L92.0043 33.1656H92.9116C92.9293 33.1656 92.9868 33.2364 92.978 33.2718L91.6945 35.9759V37.5691C91.6945 37.5736 91.6326 37.6355 91.6281 37.6355H90.8758C90.8713 37.6355 90.8094 37.5736 90.8094 37.5691V36.0202C90.4465 35.1748 90.0039 34.2455 89.5613 33.4179C89.5304 33.3293 89.5127 33.2585 89.5259 33.1656H90.4332Z" fill="white"/>
<path d="M150.604 34.0962V34.7821C150.604 34.8308 150.498 34.8441 150.453 34.853C150.219 34.8795 149.338 34.7821 149.232 34.9149C149.17 34.9901 149.183 35.0698 149.223 35.1539C149.334 35.3885 150.413 35.7823 150.67 36.1408C150.927 36.4949 150.905 37.1454 150.551 37.4331C150.475 37.4951 150.179 37.6411 150.095 37.6411H148.302C148.249 37.5349 148.214 36.933 148.325 36.933H149.608C149.825 36.933 150.011 36.725 149.851 36.5126C149.674 36.278 148.811 35.9771 148.524 35.716C148.236 35.4548 148.143 34.4768 148.656 34.2201C149.17 33.9634 148.962 34.105 148.984 34.105H150.599L150.604 34.0962Z" fill="white"/>
<path d="M137.748 36.9285C137.978 36.8975 138.128 36.7426 137.991 36.5169C137.854 36.2912 136.947 35.9415 136.708 35.7512C136.247 35.3795 136.243 34.4412 136.818 34.189C137.394 33.9367 138.252 34.0518 138.588 34.096C138.925 34.1403 138.69 34.096 138.721 34.1403C138.752 34.1845 138.761 34.7909 138.699 34.8307C138.606 34.8971 137.703 34.8218 137.482 34.8528C137.261 34.8838 137.274 34.9104 137.292 35.0387C137.34 35.4016 138.703 35.7468 138.907 36.3398C139.111 36.9329 138.907 37.402 138.389 37.5658C138.066 37.6675 136.911 37.6764 136.548 37.6366C136.185 37.5967 136.398 37.6144 136.398 37.5658V36.924C136.814 36.8798 137.345 36.9816 137.748 36.924V36.9285Z" fill="white"/>
<path d="M163.842 33.2107C163.842 33.2107 163.895 33.2063 163.913 33.2329C163.93 33.2594 163.926 33.3169 163.926 33.3214V34.0516C163.926 34.0737 163.944 34.0959 163.97 34.0959H164.572C164.634 34.0959 164.683 34.1445 164.683 34.2065V34.8084C164.683 34.8305 164.665 34.8526 164.638 34.8526H163.997C163.948 34.8526 163.935 34.9589 163.926 35.0031C163.895 35.2642 163.886 36.4061 163.939 36.6318C164.023 37.0124 164.603 36.8221 164.736 36.9106C164.869 36.9991 164.753 36.9283 164.753 36.9416C164.762 37.1186 164.855 37.601 164.66 37.6364C164.466 37.6718 163.855 37.6452 163.634 37.5567C162.687 37.185 163.165 35.7112 163.041 34.919C162.983 34.742 162.558 34.9721 162.514 34.7376C162.47 34.503 162.505 34.1401 162.563 34.1003C162.62 34.0605 163.045 34.149 163.045 34.0295V33.3214C163.045 33.2594 163.094 33.2107 163.156 33.2107H163.846H163.842Z" fill="white"/>
<path d="M152.461 33.2104V33.9849C152.461 33.9982 152.519 34.0513 152.506 34.0956H153.191C153.28 34.0956 153.284 34.7417 153.24 34.8081C153.147 34.9409 152.545 34.724 152.47 34.9674C152.426 35.1268 152.439 36.1579 152.461 36.3748C152.51 36.9546 152.806 36.8838 153.302 36.8838V37.6361H152.439C152.178 37.6361 151.784 37.3042 151.687 37.0608C151.501 36.5917 151.656 34.9276 151.576 34.8479C151.496 34.7683 151.142 34.9232 151.094 34.7771C151.045 34.6311 151.076 34.1841 151.107 34.1398C151.173 34.0469 151.545 34.1266 151.576 34.1C151.607 34.0735 151.527 33.3432 151.62 33.2149H152.461V33.2104Z" fill="white"/>
<path d="M142.894 18.3492C143.115 18.3005 144.182 18.3094 144.434 18.3404C144.686 18.3713 144.744 18.4466 144.766 18.628C144.806 18.929 144.802 19.8318 144.766 20.1372C144.731 20.4426 144.638 20.447 144.434 20.4691C144.208 20.4957 143.031 20.5001 142.859 20.447C142.699 20.3983 142.655 20.239 142.642 20.0885C142.606 19.7787 142.606 19.0263 142.642 18.7165C142.659 18.5484 142.713 18.389 142.894 18.3492Z" fill="white"/>
<path d="M107.929 18.3476C108.203 18.2989 109.128 18.3033 109.425 18.3387C109.721 18.3741 109.734 18.3874 109.757 18.5821C109.796 18.8787 109.796 19.9275 109.757 20.2241C109.717 20.5206 109.597 20.4453 109.425 20.4675C109.088 20.5029 108.442 20.494 108.097 20.4675C107.858 20.4498 107.712 20.4542 107.676 20.1798C107.641 19.9054 107.632 18.8831 107.676 18.591C107.721 18.2989 107.774 18.383 107.929 18.3564V18.3476Z" fill="white"/>
<path d="M153.648 18.3475C153.932 18.2944 154.839 18.3033 155.144 18.3387C155.45 18.3741 155.454 18.4184 155.476 18.6706C155.507 19.0291 155.516 19.8301 155.476 20.1798C155.445 20.4542 155.295 20.4542 155.056 20.4674C154.702 20.494 154.073 20.5028 153.728 20.4674C153.383 20.432 153.423 20.4055 153.396 20.1798C153.37 19.9541 153.352 18.8831 153.396 18.591C153.423 18.4316 153.493 18.383 153.648 18.3564V18.3475Z" fill="white"/>
<path d="M120.949 32.7685H121.768C121.772 32.7685 121.834 32.8305 121.834 32.8349V37.5704C121.834 37.5748 121.772 37.6368 121.768 37.6368H121.016C121.011 37.6368 120.949 37.5748 120.949 37.5704V32.7685Z" fill="white"/>
<path d="M109.267 32.7685H108.426V37.6368H109.267V32.7685Z" fill="white"/>
<path d="M101.474 34.0961C101.491 34.1138 101.46 34.3838 101.474 34.4502C101.646 34.3263 101.73 34.1625 101.956 34.1138C102.182 34.0651 102.58 34.0519 102.58 34.1625V34.8485H101.894C101.673 34.8485 101.474 35.1539 101.474 35.3574V37.6367H100.633V34.0961C100.752 34.1183 101.443 34.0651 101.474 34.0961Z" fill="white"/>
<path d="M166.228 34.0976H165.387V37.6381H166.228V34.0976Z" fill="white"/>
<path d="M154.808 37.6381H153.967V34.0976H154.741C154.746 34.0976 154.808 34.1596 154.808 34.164V37.6381Z" fill="white"/>
<path d="M154.8 32.7768C154.889 32.8653 154.884 33.5115 154.791 33.6089C154.698 33.7062 154.07 33.6752 153.99 33.6089C153.91 33.5425 153.897 32.8698 153.968 32.7812C154.039 32.6927 154.72 32.6927 154.804 32.7724L154.8 32.7768Z" fill="white"/>
<path d="M165.399 32.7773C165.483 32.6932 166.156 32.6844 166.236 32.7862C166.315 32.888 166.307 33.5385 166.214 33.6138C166.121 33.689 165.483 33.6802 165.413 33.6138C165.342 33.5474 165.315 32.8703 165.404 32.7818L165.399 32.7773Z" fill="white"/>
<path d="M140.326 18.5468C140.291 18.3654 140.118 18.3476 139.963 18.3344C139.631 18.3078 138.866 18.2945 138.547 18.3388C138.463 18.3521 138.255 18.4362 138.255 18.5335V22.406C138.197 22.4237 138.184 22.3883 138.158 22.3485C137.565 21.481 136.71 21.4589 135.71 21.5209C134.073 21.6271 133.387 22.5211 133.294 24.1054C133.241 25.0702 133.241 26.3714 133.294 27.3406C133.347 28.3497 133.67 29.3587 134.688 29.7526C135.431 30.0403 137.326 30.0934 137.914 29.4826C138.073 29.3056 138.189 29.0179 138.25 29.0887V29.7747C138.25 29.8057 138.392 29.9163 138.45 29.9296C138.675 29.9739 139.839 29.965 140.087 29.9296C140.246 29.9075 140.339 29.8101 140.331 29.642L140.317 18.5424L140.326 18.5468ZM138.259 26.9025C138.224 27.4335 138.056 27.9868 137.463 28.0974C137.193 28.1505 136.303 28.1505 136.033 28.1062C135.622 28.0354 135.458 27.7345 135.422 27.345C135.44 26.3094 135.422 25.1499 135.427 24.0745C135.471 23.7514 135.644 23.4504 135.985 23.3929C136.259 23.3487 137.277 23.3487 137.538 23.4106C137.764 23.4637 137.989 23.6673 138.096 23.8709C138.326 24.3223 138.299 26.3138 138.255 26.898L138.259 26.9025Z" fill="white"/>
<path d="M164.371 23.0975C163.743 21.3361 161.627 21.4201 160.069 21.5396C158.719 21.6414 157.741 22.3894 157.644 23.8056C157.569 24.8854 157.564 26.6247 157.644 27.7046C157.724 28.78 158.396 29.6386 159.459 29.8732C160.087 30.0104 162.34 30.0059 162.937 29.8068C163.995 29.4527 164.486 28.5543 164.552 27.4833C164.614 26.5318 164.663 23.9118 164.375 23.0975H164.371ZM162.464 27.3904C162.375 28.2888 161.375 28.218 160.671 28.1693C160.1 28.1295 159.773 28.0188 159.72 27.3948C159.702 26.3503 159.689 25.2306 159.733 24.1287C159.729 24.0047 159.746 23.8808 159.795 23.7658C159.901 23.5135 160.096 23.3984 160.423 23.3586C160.773 23.3143 161.623 23.3099 161.946 23.4028C162.331 23.5179 162.437 23.7835 162.468 24.1641C162.539 24.9651 162.543 26.607 162.468 27.3948L162.464 27.3904Z" fill="white"/>
<path d="M105.507 23.7596C105.428 21.4007 102.878 21.4007 101.073 21.5379C99.5414 21.6529 98.6961 22.4805 98.6031 24.0251C98.5412 24.9899 98.4925 27.6187 98.7934 28.4419C99.0545 29.1544 99.6609 29.6767 100.391 29.8537C101.024 30.0042 102.591 29.9909 103.277 29.9378C104.157 29.867 104.874 29.3934 105.246 28.6676C105.414 28.3357 105.494 27.9684 105.498 27.5966C105.507 26.2955 105.498 24.981 105.512 23.7596H105.507ZM103.467 27.2558C103.409 27.9639 103.157 28.1188 102.476 28.1675C101.98 28.2029 100.913 28.2605 100.754 27.6718C100.59 27.0611 100.63 25.0341 100.679 24.3349C100.719 23.7817 100.812 23.4276 101.422 23.3524C101.759 23.3081 102.639 23.2993 102.945 23.3966C103.37 23.5294 103.44 23.8923 103.467 24.2906C103.524 25.0917 103.529 26.4592 103.467 27.2558Z" fill="white"/>
<path d="M144.189 34.2056C144.163 33.8737 144.048 33.5418 143.76 33.3515C143.693 33.3072 143.384 33.1656 143.326 33.1656H141.246C141.233 33.1877 141.18 33.2187 141.18 33.232V37.5691C141.18 37.5736 141.242 37.6355 141.246 37.6355H143.326C143.716 37.6355 144.109 37.1664 144.167 36.7946C144.26 36.2237 144.233 34.8075 144.189 34.2012V34.2056ZM143.3 36.507C143.291 36.5866 143.269 36.7194 143.211 36.7725C143.189 36.7946 142.946 36.8832 142.923 36.8832H142.127C142.122 36.8832 142.06 36.8212 142.06 36.8168V33.9622H143.1C143.229 33.9622 143.286 34.1879 143.3 34.2941C143.353 34.8075 143.353 35.9892 143.3 36.507Z" fill="white"/>
<path d="M116.616 35.2237C116.594 34.8519 116.51 34.5067 116.191 34.2766C115.868 34.042 114.903 33.9889 114.633 34.2899C114.585 34.3474 114.558 34.4005 114.532 34.4536V32.8382C114.532 32.8338 114.47 32.7719 114.465 32.7719H113.646V37.5737C113.646 37.5781 113.708 37.6401 113.713 37.6401H115.749C115.935 37.6401 116.324 37.379 116.426 37.2108C116.674 36.8213 116.643 35.7061 116.612 35.2237H116.616ZM115.678 36.6001C115.678 36.6355 115.673 36.6753 115.656 36.7107C115.603 36.8213 115.47 36.8833 115.35 36.8833C115.35 36.8833 114.89 36.8833 114.58 36.87C114.554 36.87 114.536 36.8479 114.532 36.8213C114.518 36.3168 114.518 35.6707 114.532 35.1971C114.545 34.7236 114.532 35.1706 114.536 35.1573C114.611 34.8431 115.116 34.7811 115.421 34.8519C115.554 34.8829 115.651 35.0024 115.656 35.1396C115.665 35.5379 115.673 36.2372 115.678 36.5956V36.6001Z" fill="white"/>
<path d="M118.051 34.0976C118.033 34.0976 117.772 34.1994 117.732 34.2215C117.502 34.3366 117.312 34.6066 117.259 34.8588C117.183 35.235 117.192 36.2839 117.228 36.6911C117.298 37.5142 118.042 37.7709 118.781 37.6204C119.007 37.5762 119.126 37.4478 119.263 37.2841C119.263 37.3549 119.246 37.6381 119.33 37.6381H120.104V34.0976H118.046H118.051ZM119.224 36.5981C119.224 36.8769 118.33 37.0186 118.17 36.722C118.13 36.6424 118.122 36.5539 118.113 36.4698C118.086 36.1732 118.077 35.474 118.117 35.1908C118.144 35.0137 118.25 34.8544 118.445 34.8544H119.219V36.6025L119.224 36.5981Z" fill="white"/>
<path d="M162.046 34.0976H160.055C159.723 34.0976 159.338 34.4871 159.249 34.7969C159.147 35.1421 159.147 36.6335 159.258 36.9743C159.51 37.7399 160.758 37.8993 161.227 37.2841C161.227 37.377 161.196 37.6072 161.294 37.6381C161.4 37.6691 161.887 37.6381 162.046 37.6381C162.205 37.6381 162.113 37.5762 162.113 37.5718V34.164C162.113 34.1596 162.051 34.0976 162.046 34.0976ZM161.232 36.4034C161.232 36.4609 161.223 36.5185 161.201 36.5716C161.103 36.8371 160.825 36.9079 160.541 36.8858C160.223 36.8637 160.108 36.7884 160.077 36.4653C160.059 36.2972 160.046 35.6599 160.05 35.2262C160.05 35.0093 160.227 34.8367 160.444 34.8411C160.754 34.8411 161.139 34.85 161.139 34.85C161.188 34.85 161.227 34.8898 161.227 34.9385C161.232 35.3589 161.249 35.9962 161.227 36.4034H161.232Z" fill="white"/>
<path d="M130.957 36.9016C130.36 36.7157 128.846 37.3176 129.05 36.2643H130.931C130.935 36.2643 130.997 36.2023 130.997 36.1979V34.8702C130.997 34.8304 130.82 34.4763 130.776 34.4276C130.444 34.0337 129.545 34.0426 129.072 34.0957C128.758 34.1311 128.404 34.3303 128.275 34.6268C128.12 34.9808 128.12 36.3484 128.178 36.7644C128.24 37.2335 128.598 37.5875 129.072 37.6407C129.271 37.6628 130.878 37.6761 130.957 37.623C131.024 37.5787 131.024 36.9547 130.957 36.9104V36.9016ZM129.74 34.8481C130.276 34.8923 130.081 35.2375 130.112 35.6447H129.05C129.005 35.0162 129.054 34.7861 129.74 34.8481Z" fill="white"/>
<path d="M147.682 36.884H146.022C145.783 36.884 145.686 36.4459 145.779 36.2644H147.66C147.664 36.2644 147.726 36.2024 147.726 36.198V34.9146C147.726 34.6889 147.43 34.3215 147.226 34.2197C146.881 34.0427 145.81 34.0339 145.451 34.1888C145.124 34.3304 144.929 34.6535 144.894 35.0031C144.854 35.4102 144.849 36.406 144.903 36.8043C144.956 37.1584 145.332 37.6364 145.708 37.6364H147.655C147.766 37.6364 147.726 36.9858 147.677 36.884H147.682ZM146.469 34.8482C147.005 34.8924 146.81 35.2376 146.841 35.6448H145.779C145.73 35.0119 145.779 34.7862 146.469 34.8482Z" fill="white"/>
<path d="M96.2561 35.0024C96.2207 34.6174 95.9728 34.2722 95.6011 34.1527C95.3178 34.0641 94.5123 34.0641 94.207 34.1084C93.1669 34.2589 93.2776 35.6176 93.3307 36.423C93.4104 37.6976 94.1981 37.733 95.3045 37.6401C95.7515 37.6003 96.1675 37.317 96.2428 36.8523C96.3047 36.4806 96.2915 35.4007 96.2561 35.0024ZM95.3267 36.7638C95.2249 36.9231 94.53 36.9187 94.3796 36.8302C94.2822 36.7727 94.2734 36.6974 94.2601 36.5956C94.238 36.3965 94.238 35.1042 94.2911 34.9891C94.3884 34.7811 95.1718 34.7988 95.309 34.9449C95.3621 34.998 95.3621 35.1042 95.3665 35.175C95.3842 35.383 95.3886 36.662 95.3222 36.7638H95.3267Z" fill="white"/>
<path d="M169.822 34.728C169.716 34.4492 169.49 34.2367 169.202 34.1527C168.91 34.0641 168.167 34.0641 167.853 34.1084C167.485 34.1571 167.162 34.4049 167.043 34.759C166.928 35.1042 166.945 36.1973 166.976 36.6001C167.06 37.702 168.007 37.7153 168.906 37.6401C169.317 37.6047 169.672 37.4011 169.818 37.0028C169.95 36.6532 169.95 35.0776 169.818 34.728H169.822ZM169.017 36.5912C168.95 37.0161 167.985 36.9718 167.888 36.662C167.839 36.5071 167.839 35.3299 167.87 35.1352C167.897 34.967 168.003 34.8829 168.167 34.8563C168.397 34.8165 168.915 34.7944 168.999 35.0643C169.048 35.2192 169.048 36.3965 169.017 36.5912Z" fill="white"/>
<path d="M112.84 34.733C112.733 34.4542 112.508 34.2417 112.22 34.1576C111.928 34.0691 111.184 34.0691 110.87 34.1134C110.503 34.1621 110.18 34.4099 110.06 34.764C109.945 35.1092 109.963 36.2023 109.994 36.605C110.078 37.707 111.025 37.7203 111.923 37.6451C112.335 37.6097 112.689 37.4061 112.835 37.0078C112.968 36.6581 112.968 35.0826 112.835 34.733H112.84ZM112.03 36.5962C111.963 37.021 110.999 36.9768 110.901 36.667C110.852 36.5121 110.852 35.3349 110.883 35.1401C110.91 34.972 111.016 34.8879 111.18 34.8613C111.41 34.8215 111.928 34.7994 112.012 35.0693C112.061 35.2242 112.061 36.4015 112.03 36.5962Z" fill="white"/>
<path d="M90.8094 36.0202C90.4465 35.1748 89.9818 34.2587 89.5613 33.4179C89.5304 33.3293 89.5127 33.2585 89.5259 33.1656" fill="white"/>
<path d="M90.8086 36.0204C90.5121 35.2946 89.981 34.259 89.5605 33.4181L90.8086 36.0204Z" fill="white"/>
</g>
<defs>
<clipPath id="clip0_3281_2973">
<rect width="129.239" height="31.9998" fill="white" transform="translate(47.3809 9.00002)"/>
</clipPath>
</defs>
</svg>
