<svg width="224" height="50" viewBox="0 0 224 50" fill="none" xmlns="http://www.w3.org/2000/svg">
<g clip-path="url(#clip0_3746_4735)">
<path d="M61.8953 15.4568L59.6625 16.4726C53.5709 11.6755 44.3295 14.7019 42.3013 22.148C38.3437 36.6662 60.6713 41.6432 63.5743 27.5482C63.8212 26.3525 63.5037 24.0739 63.6977 23.4566C63.867 22.9204 65.9869 21.9787 66.128 22.1656C67.6341 28.2431 63.9623 34.9837 58.3715 37.5127C45.4512 43.3539 32.8236 27.3507 42.3119 16.1622C46.9185 10.7338 55.6309 9.37223 61.1616 14.254C61.5637 14.6067 62.0293 14.7936 61.8953 15.4568Z" fill="white"/>
<path d="M51.2181 16.6034C58.6113 15.3441 64.1455 22.642 60.3079 29.2133L58.5407 27.4673C61.1897 20.6879 52.04 15.7145 47.9766 21.8272C45.3981 25.7108 48.2376 31.0546 52.9006 31.0122C54.9923 30.9911 55.7189 29.9082 57.3027 32.2186C49.331 36.9804 40.7668 27.6719 46.0789 19.9296C47.0418 18.5222 49.5533 16.8855 51.2181 16.6034Z" fill="white"/>
<path d="M83.7611 20.0422L82.2233 20.7265C79.7753 17.7848 75.4051 18.9876 73.585 22.0386C71.899 24.864 72.9501 29.3224 75.9059 30.9026C78.7912 32.4441 80.7982 31.2871 83.1897 29.5905C85.6941 31.3365 81.2356 32.959 79.7048 33.0966C73.3804 33.6645 69.2323 27.901 71.4898 22.0633C73.1229 17.8377 78.5866 16.0423 82.4772 18.335C82.8758 18.5678 84.0856 19.5907 83.7611 20.0422Z" fill="white"/>
<path d="M125.435 20.6985C123.531 17.7991 119.301 18.9172 117.467 21.478C113.866 26.5008 118.674 33.6647 124.293 31.1251C124.938 30.8323 126.176 29.5061 126.575 29.5907C129.037 31.1992 124.868 32.8852 123.407 33.0616C116.448 33.8905 112.219 27.291 115.443 21.217C117.351 17.6192 121.732 16.4129 125.39 18.1024C127.224 18.949 128.021 20.3458 125.435 20.6985Z" fill="white"/>
<path d="M110.572 30.6277V22.1623H111.982V32.7441L109.93 32.6771C108.321 30.2785 106.79 27.3262 105.023 25.0793C104.801 24.8007 105.055 24.4303 104.222 24.6314V32.7441H102.812V22.1623C103.312 22.1693 103.834 22.0847 104.328 22.2328C105.813 22.6773 108.903 29.439 110.572 30.6277Z" fill="white"/>
<path d="M53.0031 28.5712C54.9824 28.5712 56.5868 26.9667 56.5868 24.9875C56.5868 23.0083 54.9824 21.4038 53.0031 21.4038C51.0239 21.4038 49.4194 23.0083 49.4194 24.9875C49.4194 26.9667 51.0239 28.5712 53.0031 28.5712Z" fill="white"/>
<path d="M129.619 22.6917L129.968 22.3354L131.03 22.1661V26.748H136.674V22.1626H138.085V32.7444L136.674 32.7479L136.342 27.9614H131.362L131.03 32.7479L129.619 32.7444V22.6917Z" fill="white"/>
<path d="M175.473 22.1626V23.5735H170.182V26.748H175.121V28.1589H170.182V31.6862H175.826V32.7444H168.771V22.1626H175.473Z" fill="white"/>
<path d="M167.007 22.1626L167.011 23.5735H163.833V32.7444H162.422V23.5735H158.895V22.1626H167.007Z" fill="white"/>
<path d="M99.99 22.1623V32.7441H98.5791V22.6914C98.96 22.1447 99.3375 22.0847 99.99 22.1623Z" fill="white"/>
<path d="M177.589 22.6916C177.875 21.6053 182.428 22.2151 183.479 22.797C185.885 24.1268 185.088 27.4532 182.521 27.9894L184.996 32.5675L183.278 32.6945C182.344 31.1565 181.522 27.8483 179.35 28.1584V32.7482H177.586V22.6955L177.589 22.6916ZM180.592 23.5402C180.266 23.5526 179.943 23.5717 179.644 23.5753L179.353 23.5734V27.1037C179.358 27.1095 179.366 27.1154 179.377 27.1203C179.41 27.1353 179.468 27.1449 179.545 27.1515C180.134 27.2036 181.853 27.0186 182.547 26.7882C182.663 26.7499 182.75 26.7101 182.799 26.6701C183.049 26.4655 183.261 25.5133 183.258 25.1535C183.255 24.8863 183.215 24.6619 183.145 24.4738C182.794 23.5333 181.679 23.4988 180.592 23.5402Z" fill="white"/>
<path d="M91.058 21.934C98.0525 21.8529 98.5534 32.924 91.3334 33.1147C83.9967 33.3087 83.746 22.0187 91.058 21.934ZM92.2074 23.353C91.7652 23.2443 91.2735 23.2156 90.7338 23.2846C90.4572 23.3199 90.1969 23.3781 89.9525 23.4545C89.8463 23.4878 89.7431 23.5246 89.643 23.5649C89.5168 23.6157 89.3953 23.6715 89.2787 23.7329C89.2276 23.7598 89.1776 23.7881 89.1283 23.8168C89.0827 23.8435 89.0376 23.8706 88.9936 23.8989C86.3795 25.5725 86.5216 29.9612 89.1264 31.2983C89.3949 31.4364 89.6895 31.5421 90.0102 31.6088C90.9326 31.8003 91.7237 31.769 92.3881 31.5776C92.599 31.5169 92.7964 31.4396 92.9818 31.3481C93.1127 31.2835 93.2376 31.2126 93.3559 31.1342C95.3872 29.7896 95.5716 26.5165 94.1352 24.6362C94.0922 24.58 94.0482 24.5248 94.0024 24.4711C93.8653 24.3108 93.7148 24.1629 93.5522 24.0288C93.4437 23.9393 93.33 23.8557 93.2104 23.7797C93.0906 23.7037 92.9653 23.6348 92.8344 23.5737C92.769 23.5431 92.7023 23.5143 92.6342 23.4877C92.4975 23.4344 92.3552 23.3893 92.2074 23.353Z" fill="white"/>
<path d="M145.347 22.4902L149.728 32.7441H149.724C147.949 33.0933 147.731 31.6579 147.205 30.3281L142.196 30.2617L141.227 32.709L139.498 32.7412L144.281 22.1729L145.347 22.4902ZM142.669 28.8643H146.549C146.726 28.6934 145.141 24.8127 144.496 24.3193L144.437 24.2822L142.669 28.8643Z" fill="white"/>
<path d="M151.135 22.6917C151.389 21.7289 155.61 22.1695 156.591 22.5257C157.865 22.9913 158.126 23.5064 158.214 24.7904C158.461 28.5322 155.424 28.2675 152.546 28.1546V32.7445H151.135V22.6917ZM152.546 23.5736L152.877 26.9486C153.226 27.0557 153.596 27.1068 153.965 27.1097C153.968 27.1097 153.971 27.1097 153.973 27.1097C155.983 27.1214 157.949 25.6782 156.077 23.7493L152.546 23.5726V23.5736Z" fill="white"/>
</g>
<defs>
<clipPath id="clip0_3746_4735">
<rect width="146" height="27.5091" fill="white" transform="translate(38.9995 11.2456)"/>
</clipPath>
</defs>
</svg>
