<svg width="224" height="50" viewBox="0 0 224 50" fill="none" xmlns="http://www.w3.org/2000/svg">
<path d="M99.3196 17.5718H95.8193V32.3691H99.3196V17.5718Z" fill="white"/>
<path d="M68.849 29.144C66.5467 29.144 64.6743 27.2714 64.6743 24.9701C64.6743 22.6678 66.5468 20.7953 68.849 20.7953C70.5583 20.7953 72.0304 21.8277 72.6752 23.3027L75.6945 21.6832C74.4705 19.1347 71.8654 17.3765 68.849 17.3765C64.6547 17.3765 61.2554 20.7757 61.2554 24.9701C61.2554 29.1635 64.6547 32.5627 68.849 32.5627C71.8654 32.5627 74.4705 30.8035 75.6953 28.256L72.6751 26.6375C72.0304 28.1115 70.5583 29.144 68.849 29.144Z" fill="white"/>
<path d="M85.8867 17.3765C81.693 17.3765 78.2935 20.7762 78.2935 24.9698C78.2935 29.1634 81.6931 32.5631 85.8867 32.5631C90.0805 32.5631 93.4802 29.1634 93.4802 24.9698C93.4802 20.7762 90.0804 17.3765 85.8867 17.3765ZM85.8867 29.1444C83.5849 29.1444 81.7122 27.2717 81.7122 24.9699C81.7122 22.6681 83.5849 20.7954 85.8867 20.7954C88.1886 20.7954 90.0612 22.6681 90.0612 24.9699C90.0612 27.2717 88.1885 29.1444 85.8867 29.1444Z" fill="white"/>
<path d="M114.689 28.8887H114.124L109.029 17.6806L108.987 17.583L102.841 17.6201V32.3197H106.26V21.0017H106.783L111.911 32.3075L118.108 32.3197V17.6201H114.689V28.8887Z" fill="white"/>
<path d="M167.638 28.8887H167.073L161.936 17.583L155.79 17.6201V32.3197H159.209V21.0017H159.732L164.868 32.3075L171.056 32.3197V17.6201H167.638V28.8887Z" fill="white"/>
<path d="M143.124 17.6196L138.562 32.382H142.14L143.156 29.0932H149.259L150.276 32.382H153.854L149.292 17.6196H143.124ZM144.213 25.6744L145.637 21.0678L145.638 21.0676H146.778L146.779 21.0678L148.203 25.6744H144.213Z" fill="white"/>
<path d="M136.435 23.4247V23.2509C136.435 20.1252 133.893 17.5825 130.767 17.5825L121.597 17.6198V32.3194H125.016V29.0931H129.975L132.557 32.3655H136.912L133.688 28.2804C135.333 27.288 136.435 25.4829 136.435 23.4247ZM125.016 21.0012H130.767C132.007 21.0012 133.016 22.0102 133.016 23.2508V23.4246C133.016 24.6651 132.007 25.6742 130.767 25.6742H125.016V21.0012Z" fill="white"/>
<path d="M177.455 17.6919H174.098V32.211H177.455V17.6919Z" fill="white"/>
<path d="M188.683 17.6919H184.441L179.623 23.9257L179.603 23.952V25.9511L184.412 32.173L184.441 32.211H188.683L183.072 24.9496L188.683 17.6919Z" fill="white"/>
<path d="M37.4858 20.6479L37.4881 29.3403L41.8191 25.0004V20.6479H37.4858Z" fill="white"/>
<path d="M50.4828 25.0003V29.3336H41.8163V27.3162L35.3169 33.6668H46.1496L50.4828 29.3336H54.8175V20.6479L50.4828 25.0003ZM46.1495 33.6667L50.4828 29.3335L46.1495 33.6667Z" fill="white"/>
<path d="M46.1294 16.3335L41.8169 20.6482H50.4834V22.8337L56.9843 16.3335H46.1294Z" fill="white"/>
</svg>
