<svg width="224" height="50" viewBox="0 0 224 50" fill="none" xmlns="http://www.w3.org/2000/svg">
<g clip-path="url(#clip0_3746_4892)">
<path d="M67.4632 9.70495C60.5191 9.75375 54.8161 15.4882 55.0287 22.4567C55.2239 28.9337 59.7069 34.9052 67.9896 34.6751C74.8361 34.689 80.0407 28.5676 80.0163 22.0279C79.9919 15.2965 74.1912 9.65266 67.4632 9.70495ZM75.5019 24.3879C75.2126 27.8007 72.0752 30.1642 67.641 30.2409C65.8178 30.4047 64.1132 29.6343 62.7676 28.1354C62.1889 27.4939 61.6486 27.1767 60.8224 27.5532C60.1636 27.853 59.7243 27.717 59.5431 26.9466C59.4001 26.354 59.2084 25.7788 60.0904 25.6324C60.7527 25.5209 60.9863 25.1862 60.7144 24.5378C60.5087 24.0428 60.5784 23.2794 59.6686 23.5234C58.8005 23.7535 58.6158 23.2306 58.3997 22.5404C58.1068 21.6096 58.7169 21.5713 59.2816 21.4736C60.2298 21.3098 60.1531 20.5777 60.2716 19.891C60.7876 16.8512 62.5863 14.9095 65.5215 14.045C68.2476 13.2432 70.7784 13.414 72.9223 15.5823C73.8565 16.5305 74.104 17.1371 72.5981 17.782C71.2874 18.3432 70.3322 19.1067 68.7879 17.8587C67.3621 16.7118 65.3891 17.9249 65.0509 19.8143C64.7686 21.4074 65.1067 22.9308 65.7237 24.3844C66.2954 25.744 67.3098 26.5004 68.8646 26.3261C70.388 26.1553 71.0852 25.1235 71.3048 23.7779C71.7301 21.1355 73.6892 22.7356 74.8675 22.5822C76.2131 22.4044 75.5577 23.7535 75.5019 24.3879Z" fill="white"/>
<path d="M113.443 29.9863C113.443 32.2348 113.401 34.0893 113.46 35.9369C113.488 36.8398 113.199 37.1082 112.282 37.1361C108.977 37.2372 108.984 37.2755 108.977 33.929C108.967 28.8882 108.918 23.8475 108.97 18.8068C108.977 18.1375 108.183 16.9836 109.734 16.7884C112.097 16.4921 112.648 16.75 113.052 18.5697C113.844 17.8167 114.618 17.137 115.636 16.8197C116.946 16.4119 118.25 16.3282 119.557 16.7814C122.552 17.8202 124.11 20.9681 123.699 25.1059C123.354 28.571 121.147 31.0949 118.083 31.4818C116.476 31.684 114.984 31.3772 113.443 29.9828V29.9863ZM113.495 24.0601C113.495 24.0601 113.464 24.0601 113.446 24.0601C113.446 24.4053 113.446 24.7539 113.446 25.099C113.453 26.6921 114.196 27.7483 115.775 28.069C117.18 28.3549 118.581 27.3823 119.014 25.8171C119.404 24.3983 119.414 22.9621 118.756 21.599C118.156 20.3545 117.131 19.8282 115.782 20.0408C114.485 20.243 113.764 21.111 113.516 22.3381C113.405 22.8923 113.499 23.485 113.499 24.0601H113.495Z" fill="white"/>
<path d="M91.9591 16.9802C92.2449 16.9069 92.4087 16.8372 92.5761 16.8268C95.3439 16.6501 97.1276 17.8946 97.9271 20.5603C98.4604 22.3277 99.0042 24.0951 99.548 25.859C99.5794 25.9635 99.6596 26.0542 99.8095 26.3121C100.5 23.5896 101.235 21.0169 101.779 18.4024C102.044 17.1405 102.549 16.7326 103.846 16.771C106.991 16.8616 106.991 16.7884 105.948 19.7236C104.613 23.4745 103.452 27.2952 101.772 30.9136C100.576 33.4933 99.1576 35.93 96.3444 37.1152C95.6681 37.4011 94.577 37.8926 94.3086 37.4394C93.7508 36.4982 93.594 35.2851 93.4371 34.1626C93.3848 33.7966 94.0681 33.7791 94.4236 33.6118C97.1462 32.3499 97.6203 31.21 96.4943 28.47C95.2917 25.5452 94.089 22.6205 92.7852 19.7411C92.3739 18.8347 92.3774 17.8795 91.9556 16.9871L91.9591 16.9802Z" fill="white"/>
<path d="M144.057 31.5308C139.598 31.5482 136.579 28.6026 136.548 24.2067C136.517 19.5076 139.518 16.4888 144.235 16.4888C148.655 16.4888 151.66 19.4728 151.667 23.8686C151.674 28.4248 148.606 31.5099 144.057 31.5308ZM147.006 24.0778C147.023 21.3901 145.911 19.6784 144.134 19.6645C142.328 19.6506 141.136 21.3622 141.122 23.9906C141.108 26.5319 142.363 28.3446 144.134 28.3376C145.842 28.3307 146.989 26.633 147.006 24.0778Z" fill="white"/>
<path d="M132.149 31.4785C129.043 31.5029 127.526 30.1294 127.37 27.0269C127.272 25.1201 127.349 23.2062 127.314 21.2924C127.307 20.8288 127.547 20.2083 126.739 20.0654C126.275 19.9817 125.543 20.3861 125.403 19.6715C125.25 18.8906 125.344 18.0574 125.365 17.2487C125.365 17.1197 125.557 16.8757 125.644 16.8827C127.76 17.0744 127.307 15.565 127.321 14.3728C127.328 13.8185 127.589 13.5257 128.136 13.442C128.478 13.3897 128.816 13.3026 129.154 13.2224C131.605 12.6472 131.706 12.6507 131.584 15.1327C131.511 16.5968 132.069 17.0047 133.355 16.7781C134.812 16.5166 134.857 17.3254 134.906 18.4653C134.962 19.7656 134.586 20.3129 133.275 20.0619C131.846 19.7865 131.493 20.4628 131.602 21.7735C131.713 23.154 131.591 24.5553 131.678 25.9393C131.737 26.8979 132.027 27.9228 133.282 27.7555C134.809 27.5533 134.746 28.3969 134.791 29.4775C134.844 30.7081 134.589 31.4924 133.191 31.4715C132.843 31.4646 132.497 31.4715 132.149 31.4715V31.4785Z" fill="white"/>
<path d="M81.6928 25.0642C81.6544 22.8088 81.6858 20.5499 81.5429 18.3049C81.4627 17.043 81.9019 16.799 83.0837 16.7606C84.6942 16.7083 85.8411 16.9105 85.5064 19.3402C86.6394 17.7437 87.6155 16.6491 89.2539 16.5096C90.0661 16.4399 90.6413 16.5236 90.5158 17.5589C90.467 17.9598 90.467 18.3746 90.5158 18.772C90.6762 20.0932 90.4844 20.9299 88.7763 20.759C87.1832 20.5987 86.3814 21.648 86.2071 23.1539C85.9561 25.3327 85.8028 27.5184 86.1269 29.7041C86.2838 30.7534 86.0677 31.2554 84.7988 31.2449C81.7311 31.2135 81.7346 31.2867 81.7276 28.3097C81.7276 27.616 81.6997 26.9223 81.6858 26.2286C81.8322 25.8416 81.8322 25.4512 81.6858 25.0608L81.6928 25.0642Z" fill="white"/>
<path d="M162.864 37.1921C163.111 36.1219 163.359 35.1912 163.533 34.2465C163.659 33.5667 163.795 33.0821 164.694 33.117C165.621 33.1519 165.663 33.748 165.785 34.3754C165.911 35.0238 166.043 35.6722 166.193 36.4078C167.096 35.7664 167.023 34.8879 167.145 34.1245C167.277 33.2983 167.706 33.0124 168.455 33.1658C169.351 33.3506 168.849 33.978 168.748 34.3964C168.372 35.9651 167.922 37.5163 167.539 39.085C167.382 39.7334 167.288 40.2389 166.392 40.2842C165.308 40.34 165.356 39.5765 165.203 38.9595C164.98 38.0706 164.837 37.1607 164.565 35.7838C164.206 37.2793 163.896 38.3111 163.732 39.3639C163.613 40.1308 163.226 40.2668 162.554 40.2633C161.923 40.2598 161.665 40.0576 161.529 39.4092C161.18 37.7115 160.706 36.0383 160.33 34.3476C160.235 33.9258 159.789 33.2739 160.72 33.1588C161.417 33.0717 161.839 33.1902 162.027 34.0756C162.24 35.0622 162.1 36.1707 162.857 37.1956L162.864 37.1921Z" fill="white"/>
<path d="M135.551 36.6691C135.551 35.7488 135.572 34.8285 135.545 33.9082C135.527 33.2598 135.893 33.1377 136.423 33.1482C136.921 33.1587 137.145 33.3818 137.141 33.8942C137.127 35.7488 137.138 37.6033 137.141 39.4544C137.141 39.9006 137.068 40.2457 136.489 40.2457C135.89 40.2457 135.377 40.2457 135.043 39.5764C134.429 38.3493 133.725 37.171 132.846 35.5814C132.846 37.1187 132.829 38.2203 132.853 39.3184C132.867 39.9598 132.665 40.2561 131.957 40.2526C131.236 40.2526 131.264 39.8204 131.264 39.3428C131.264 37.6626 131.25 35.9823 131.274 34.3021C131.281 33.8942 131.023 33.2632 131.724 33.1831C132.379 33.1099 133.118 32.9042 133.554 33.7373C134.084 34.7448 134.666 35.7244 135.224 36.7179C135.332 36.7004 135.44 36.683 135.548 36.6621L135.551 36.6691Z" fill="white"/>
<path d="M146.083 36.5608C146.083 35.8078 146.086 35.0548 146.083 34.3053C146.079 33.7162 146.002 33.1515 146.909 33.1306C147.85 33.1097 147.752 33.7092 147.725 34.2809C147.686 35.142 147.637 35.8217 148.92 35.8078C150.053 35.7939 150.336 35.4034 150.221 34.3925C150.147 33.7441 150.123 33.1166 151.127 33.1271C152.225 33.1375 151.922 33.8975 151.932 34.4657C151.957 36.0867 151.925 37.7042 151.95 39.3252C151.96 39.9422 151.831 40.2803 151.099 40.2664C150.405 40.2524 150.234 39.9736 150.193 39.3356C150.147 38.6419 150.597 37.76 149.792 37.2893C148.739 36.6758 147.815 37.3939 147.704 38.7116C147.658 39.2589 148.23 40.2141 146.975 40.249C145.623 40.2873 146.17 39.2659 146.1 38.6419C146.023 37.9552 146.083 37.2545 146.083 36.5608Z" fill="white"/>
<path d="M159.716 36.6413C159.695 38.8584 158.29 40.312 156.213 40.2807C154.212 40.2493 152.887 38.7921 152.911 36.6517C152.932 34.4974 154.414 32.9461 156.418 32.9775C158.377 33.0089 159.741 34.5218 159.72 36.6448L159.716 36.6413ZM157.924 36.6029C157.823 35.4944 157.638 34.3475 156.255 34.4033C154.898 34.4556 154.689 35.6338 154.696 36.6971C154.707 37.7777 154.979 38.8967 156.373 38.8549C157.802 38.8131 157.82 37.6278 157.924 36.6029Z" fill="white"/>
<path d="M123.821 40.2771C121.852 40.2318 120.471 38.6945 120.523 36.6098C120.576 34.4938 122.148 32.9007 124.107 32.9705C126.049 33.0402 127.419 34.5914 127.377 36.6796C127.335 38.8618 125.888 40.3259 123.821 40.2771ZM125.648 36.6168C125.428 35.5745 125.327 34.3544 123.922 34.3997C122.563 34.4416 122.326 35.5884 122.34 36.6691C122.354 37.7463 122.566 38.8827 123.985 38.8583C125.404 38.8339 125.435 37.6208 125.648 36.6168Z" fill="white"/>
<path d="M141.659 40.2947C141.659 40.2947 141.146 40.2041 140.651 39.9879C140.188 39.7857 140.32 39.4476 140.38 39.1234C140.453 38.7295 140.648 38.5099 141.105 38.6493C141.432 38.7504 141.777 38.8201 142.119 38.8515C142.586 38.8933 143.133 38.9108 143.311 38.3774C143.5 37.8057 143.011 37.5791 142.576 37.3874C142.363 37.2933 142.14 37.2235 141.934 37.1224C140.449 36.4078 139.958 35.3795 140.547 34.2465C141.143 33.1066 143.249 32.5907 144.406 33.2286C144.842 33.4691 144.789 33.6783 144.667 34.0373C144.51 34.487 144.343 34.6718 143.796 34.5045C143.214 34.3267 142.374 34.1071 142.15 34.9088C141.945 35.6514 142.813 35.7455 143.308 35.9477C144.49 36.4357 145.406 37.1224 145.037 38.5378C144.667 39.9635 143.475 40.2633 141.659 40.2912V40.2947Z" fill="white"/>
<path d="M118.505 40.2733C116.162 40.2977 114.496 38.7011 114.639 36.5607C114.789 34.2774 116.797 32.6495 119.091 33.0015C119.537 33.0713 120.203 32.9841 120.192 33.751C120.182 34.6504 119.599 34.4552 118.993 34.4238C117.393 34.3402 116.476 35.1559 116.441 36.5782C116.406 37.9656 117.239 38.7709 118.697 38.8789C119.206 38.9173 120.084 38.3072 120.126 39.475C120.15 40.099 119.781 40.2629 118.508 40.2768L118.505 40.2733Z" fill="white"/>
<path d="M128.346 36.5888C128.346 35.7278 128.36 34.8667 128.346 34.0057C128.335 33.4584 128.506 33.1691 129.116 33.1412C129.827 33.1098 129.984 33.4479 129.977 34.0684C129.956 35.8463 129.963 37.6276 129.977 39.4055C129.977 39.9423 129.848 40.2456 129.214 40.2596C128.517 40.2735 128.314 39.9911 128.339 39.3427C128.374 38.4259 128.349 37.5056 128.349 36.5888H128.346Z" fill="white"/>
</g>
<defs>
<clipPath id="clip0_3746_4892">
<rect width="113.957" height="30.5895" fill="white" transform="translate(55.0215 9.70508)"/>
</clipPath>
</defs>
</svg>
