<svg width="224" height="50" viewBox="0 0 224 50" fill="none" xmlns="http://www.w3.org/2000/svg">
<g clip-path="url(#clip0_4083_10222)">
<path d="M80.1661 30.9918C79.1353 30.4473 78.3008 29.6554 77.7118 28.6161C77.1227 27.6262 76.8281 26.4878 76.8281 25.201C76.8281 23.9142 77.1227 22.7759 77.7118 21.786C78.3008 20.7961 79.1353 20.0042 80.1661 19.4103C81.197 18.8659 82.375 18.5688 83.7004 18.5688C84.7803 18.5688 85.8111 18.7669 86.6948 19.1628C87.5783 19.5588 88.3146 20.1032 88.9528 20.8456L87.0874 22.5778C86.2529 21.588 85.173 21.0931 83.8968 21.0931C83.1113 21.0931 82.4241 21.291 81.786 21.6375C81.1479 21.9839 80.7061 22.4789 80.3625 23.0728C80.0188 23.7163 79.8225 24.4092 79.8225 25.201C79.8225 25.9929 80.0188 26.6858 80.3625 27.3293C80.7061 27.9726 81.197 28.418 81.786 28.7646C82.4241 29.111 83.1113 29.309 83.8968 29.309C85.173 29.309 86.2529 28.814 87.0874 27.7747L88.9528 29.5069C88.3637 30.2494 87.5783 30.7937 86.6948 31.1897C85.8111 31.5856 84.7803 31.7837 83.7004 31.7837C82.4241 31.8331 81.2461 31.5362 80.1661 30.9918Z" fill="white"/>
<path d="M94.3533 21.9841C94.9423 21.7367 95.5804 21.6377 96.3167 21.6377V24.2609C96.0223 24.2609 95.7769 24.2113 95.6786 24.2113C94.8441 24.2113 94.2551 24.4588 93.7643 24.9042C93.3224 25.3497 93.077 26.0426 93.077 26.9829V31.6354H90.23V21.7862H92.9298V23.073C93.3224 22.5781 93.7643 22.2316 94.3533 21.9841Z" fill="white"/>
<path d="M107.557 21.7861L103.139 32.2293C102.697 33.3677 102.157 34.1595 101.47 34.605C100.832 35.0504 99.9975 35.2979 99.0648 35.2979C98.574 35.2979 98.034 35.1989 97.5431 35.0504C97.0522 34.9019 96.6596 34.6545 96.3159 34.407L97.3468 32.3778C97.5431 32.5757 97.8377 32.7242 98.0831 32.8232C98.3776 32.9222 98.6722 32.9717 98.9176 32.9717C99.3103 32.9717 99.6048 32.8727 99.8502 32.6747C100.096 32.4767 100.292 32.1798 100.488 31.7344L100.685 31.6849L96.4633 21.7861H99.3594L102.108 28.4677L104.857 21.7861H107.557Z" fill="white"/>
<path d="M116.537 22.2316C117.274 22.677 117.863 23.2214 118.304 24.0134C118.746 24.7557 118.942 25.6467 118.942 26.686C118.942 27.7254 118.746 28.5668 118.304 29.3587C117.863 30.1011 117.323 30.695 116.537 31.1404C115.801 31.5364 114.966 31.7838 114.083 31.7838C112.856 31.7838 111.874 31.3879 111.138 30.596V35.1494H108.291V21.7862H110.99V22.9245C111.678 22.0831 112.708 21.6377 114.034 21.6377C114.966 21.6377 115.752 21.8356 116.537 22.2316ZM115.359 28.6658C115.801 28.1708 116.046 27.5274 116.046 26.686C116.046 25.8446 115.801 25.2013 115.359 24.7063C114.917 24.2113 114.279 23.9639 113.592 23.9639C112.856 23.9639 112.267 24.2113 111.825 24.7063C111.383 25.2013 111.138 25.8446 111.138 26.686C111.138 27.5274 111.383 28.1708 111.825 28.6658C112.267 29.1607 112.905 29.4082 113.592 29.4082C114.279 29.4082 114.868 29.1607 115.359 28.6658Z" fill="white"/>
<path d="M126.65 31.1404C126.356 31.3384 126.012 31.4869 125.619 31.5859C125.227 31.6848 124.785 31.7344 124.343 31.7344C123.165 31.7344 122.282 31.4374 121.643 30.8434C121.005 30.2495 120.711 29.3587 120.711 28.2203V24.1618H119.189V21.9841H120.711V19.6084H123.558V21.9841H125.963V24.1618H123.558V28.1708C123.558 28.5668 123.656 28.9132 123.852 29.1112C124.049 29.3587 124.343 29.4576 124.736 29.4576C125.178 29.4576 125.57 29.3587 125.865 29.1112L126.65 31.1404Z" fill="white"/>
<path d="M129.35 31.0909C128.516 30.6455 127.878 30.0516 127.436 29.3092C126.995 28.5172 126.749 27.6759 126.749 26.686C126.749 25.6961 126.995 24.8548 127.436 24.0628C127.878 23.271 128.516 22.677 129.35 22.2811C130.185 21.8356 131.069 21.6377 132.1 21.6377C133.131 21.6377 134.063 21.8356 134.849 22.2811C135.682 22.7266 136.272 23.3205 136.763 24.0628C137.205 24.8548 137.451 25.6961 137.451 26.686C137.451 27.6759 137.205 28.5172 136.763 29.3092C136.321 30.1011 135.682 30.695 134.849 31.0909C134.063 31.5364 133.131 31.7344 132.1 31.7344C131.069 31.7344 130.136 31.5364 129.35 31.0909ZM133.867 28.6658C134.309 28.1708 134.554 27.5274 134.554 26.686C134.554 25.8446 134.309 25.2013 133.867 24.7063C133.425 24.2113 132.787 23.9639 132.1 23.9639C131.363 23.9639 130.774 24.2113 130.284 24.7063C129.793 25.2013 129.596 25.8446 129.596 26.686C129.596 27.5274 129.841 28.1708 130.284 28.6658C130.774 29.1607 131.363 29.4082 132.1 29.4082C132.836 29.4082 133.425 29.1607 133.867 28.6658Z" fill="white"/>
<path d="M154.14 18.8164V31.6352H151.735L145.402 23.8647V31.6352H142.507V18.8164H144.912L151.244 26.5869V18.8164H154.14Z" fill="white"/>
<path d="M166.016 27.4778H158.653C158.801 28.0717 159.096 28.5667 159.587 28.9131C160.078 29.2596 160.715 29.4575 161.451 29.4575C161.942 29.4575 162.433 29.3585 162.826 29.21C163.219 29.0616 163.562 28.8141 163.906 28.4677L165.428 30.101C164.495 31.1403 163.17 31.6847 161.402 31.6847C160.323 31.6847 159.341 31.4868 158.507 31.0413C157.672 30.5959 156.985 30.002 156.543 29.2596C156.101 28.4677 155.855 27.6263 155.855 26.6364C155.855 25.696 156.101 24.8052 156.543 24.0133C156.985 23.2213 157.623 22.6274 158.408 22.182C159.194 21.7365 160.078 21.5386 161.059 21.5386C161.992 21.5386 162.876 21.7365 163.661 22.182C164.446 22.5779 165.035 23.1719 165.476 23.9637C165.919 24.7556 166.115 25.6466 166.115 26.6364C166.066 26.7849 166.066 27.0324 166.016 27.4778ZM159.39 24.3102C158.948 24.6566 158.703 25.1516 158.604 25.795H163.416C163.317 25.1516 163.072 24.6566 162.63 24.3102C162.188 23.9637 161.649 23.7658 161.01 23.7658C160.372 23.7658 159.832 23.9637 159.39 24.3102Z" fill="white"/>
<path d="M183.004 21.7861L179.469 31.6353H176.769L174.56 25.5476L172.302 31.6353H169.602L166.019 21.7861H168.67L170.977 28.4183L173.382 21.7861H175.787L178.094 28.4183L180.451 21.7861H183.004Z" fill="white"/>
<path d="M184.621 31.4373C183.835 31.2394 183.247 30.9919 182.756 30.695L183.688 28.6658C184.13 28.9627 184.67 29.1607 185.259 29.3587C185.897 29.5566 186.486 29.6061 187.076 29.6061C188.253 29.6061 188.892 29.3092 188.892 28.7153C188.892 28.4183 188.744 28.2203 188.4 28.1214C188.057 28.0224 187.566 27.8739 186.878 27.8243C186.094 27.7254 185.406 27.5769 184.915 27.3789C184.375 27.2304 183.934 26.9335 183.541 26.5375C183.148 26.1416 182.952 25.5477 182.952 24.8053C182.952 24.1618 183.148 23.6174 183.492 23.172C183.835 22.7266 184.375 22.3306 185.063 22.0337C185.75 21.7862 186.535 21.6377 187.468 21.6377C188.155 21.6377 188.843 21.7367 189.53 21.8852C190.217 22.0337 190.757 22.2316 191.247 22.5285L190.315 24.5578C189.48 24.0628 188.499 23.8154 187.517 23.8154C186.928 23.8154 186.437 23.9144 186.142 24.0628C185.849 24.2113 185.701 24.4588 185.701 24.7063C185.701 25.0032 185.849 25.2013 186.191 25.3497C186.535 25.4486 187.026 25.5971 187.762 25.6961C188.548 25.8446 189.235 25.9931 189.726 26.1416C190.217 26.29 190.659 26.5871 191.051 26.9829C191.444 27.3789 191.591 27.9233 191.591 28.6658C191.591 29.2597 191.395 29.8041 191.051 30.299C190.707 30.794 190.168 31.1404 189.48 31.3879C188.793 31.6354 187.959 31.7838 187.026 31.7838C186.192 31.7344 185.406 31.6354 184.621 31.4373Z" fill="white"/>
<mask id="mask0_4083_10222" style="mask-type:luminance" maskUnits="userSpaceOnUse" x="32" y="7" width="35" height="36">
<path d="M66.5242 7.94482H32.4141V42.0549H66.5242V7.94482Z" fill="white"/>
</mask>
<g mask="url(#mask0_4083_10222)">
<path d="M35.5954 15.7094C35.2782 15.8926 35.0148 16.156 34.8318 16.4733C34.6487 16.7906 34.5525 17.1505 34.5527 17.5168V30.2133L40.5726 26.7377V20.9924C40.5723 20.6261 40.6686 20.2662 40.8516 19.9489C41.0347 19.6317 41.2981 19.3682 41.6153 19.1851L46.5889 16.3107V9.35938L35.5954 15.7094Z" fill="white"/>
<path d="M52.6078 9.35927V16.3106L50.6405 15.1741C50.3235 14.991 49.9638 14.8947 49.5978 14.8947C49.2317 14.8947 48.8721 14.991 48.5551 15.1741L46.5879 16.3106V9.35927L48.5551 8.22274C48.8721 8.03971 49.2317 7.94336 49.5978 7.94336C49.9638 7.94336 50.3235 8.03971 50.6405 8.22274L52.6078 9.35927Z" fill="white"/>
<path d="M64.6466 16.3107V16.3142L58.6267 19.7863L52.6069 16.3107V9.35938L64.6466 16.3107Z" fill="white"/>
<path d="M49.5965 25.0035V31.9548L43.5767 28.4792V21.5278L49.5965 25.0035Z" fill="white"/>
<path d="M55.6164 21.5275L49.5965 25.0032L43.5767 21.5275L49.5965 18.0483L55.6164 21.5275Z" fill="white"/>
<path d="M58.6265 30.2168L50.6325 34.8291C50.3155 35.012 49.9559 35.1084 49.5898 35.1084C49.2238 35.1084 48.8642 35.012 48.5472 34.8291L43.577 31.9546L37.5571 35.4303L48.5541 41.7803C48.8711 41.9634 49.2307 42.0597 49.5968 42.0597C49.9628 42.0597 50.3225 41.9634 50.6395 41.7803L64.6464 33.6924L58.6265 30.2168Z" fill="white"/>
<path d="M55.6156 21.5278V28.4792L49.5957 31.9548V25.0035L55.6156 21.5278Z" fill="white"/>
<path d="M43.5757 31.9508L40.5657 33.6887L37.5558 35.4265L35.5886 34.2899C35.2719 34.1071 35.0088 33.8441 34.8258 33.5276C34.6428 33.2109 34.5463 32.8517 34.5459 32.4861V30.213L37.5558 28.4751L40.5657 26.7373V29.007C40.5655 29.3733 40.6617 29.7331 40.8448 30.0504C41.0278 30.3677 41.2912 30.6312 41.6084 30.8143L43.5757 31.9508Z" fill="white"/>
</g>
</g>
<defs>
<clipPath id="clip0_4083_10222">
<rect width="159.181" height="34.1101" fill="white" transform="translate(32.4097 7.94482)"/>
</clipPath>
</defs>
</svg>
