<svg width="224" height="50" viewBox="0 0 224 50" fill="none" xmlns="http://www.w3.org/2000/svg">
<g clip-path="url(#clip0_3746_4955)">
<path d="M66.8368 41.3076C66.5423 41.3319 66.2459 41.3766 65.9514 41.3785C61.2633 41.3822 56.5751 41.399 51.8889 41.3561C51.3986 41.3524 50.7947 41.108 50.4424 40.7666C48.1086 38.5054 45.8381 36.1789 43.5248 33.8972C43.0961 33.4737 43.0756 33.2032 43.5192 32.7667C45.8605 30.4663 48.1831 28.1454 50.489 25.8096C50.927 25.3656 51.2141 25.4141 51.6279 25.832C54.0904 28.3189 56.577 30.7816 59.0469 33.2629C61.431 35.6565 63.804 38.0651 66.19 40.4569C66.4211 40.6882 66.7138 40.8561 66.9785 41.052C66.9319 41.1378 66.8834 41.2237 66.8368 41.3095V41.3076Z" fill="white"/>
<path d="M51.5381 8.70137C51.9128 8.66966 52.211 8.62115 52.5074 8.62115C57.1638 8.61555 61.8203 8.60623 66.4767 8.63608C66.8924 8.63794 67.418 8.79466 67.7051 9.07264C70.1508 11.4513 72.5535 13.8748 74.9656 16.2871C75.0719 16.3934 75.1502 16.5315 75.2266 16.636C72.5815 19.2852 69.9569 21.9139 67.3453 24.5277C62.1427 19.3188 56.9029 14.0726 51.5381 8.70137Z" fill="white"/>
<path d="M42.8686 32.8166C42.8387 32.2868 42.8089 31.9902 42.8089 31.6916C42.8052 27.0312 42.7884 22.3709 42.8331 17.7123C42.8369 17.2217 43.0792 16.6153 43.4185 16.2646C45.6572 13.9549 47.9668 11.7143 50.2186 9.41764C50.6827 8.94377 51.0127 8.94937 51.447 9.38406C53.7137 11.6602 55.986 13.9307 58.2545 16.2049C58.674 16.6247 58.8026 16.9288 58.2545 17.4717C53.8628 21.8317 49.5195 26.2402 45.1539 30.6282C44.4661 31.3185 43.7465 31.9771 42.8667 32.8185L42.8686 32.8166Z" fill="white"/>
<path d="M75.3872 33.4456C74.2352 34.5445 73.085 35.6247 71.9554 36.7273C70.6692 37.9847 69.3755 39.2366 68.1378 40.5407C67.6513 41.0537 67.3549 41.0481 66.8665 40.5537C64.6203 38.2758 62.3406 36.0295 60.072 33.7721C59.6917 33.3934 59.4755 33.0986 60.0161 32.5743C62.3145 30.3505 64.5644 28.0781 66.8069 25.7964C67.1629 25.4345 67.3829 25.3319 67.7706 25.7237C70.1193 28.0875 72.4829 30.4363 74.8391 32.7926C74.9901 32.9437 75.115 33.121 75.3853 33.4456H75.3872Z" fill="white"/>
<path d="M111.007 19.8541C112.087 20.2011 113.297 19.2758 114.201 20.5855C115.03 19.6489 116.156 19.55 117.308 19.772C118.956 20.0892 119.765 21.356 120.017 22.8242C120.246 24.1638 120.261 25.6059 120.039 26.9455C119.601 29.5816 116.794 31.1768 114.117 29.2383C114.117 30.5219 114.083 31.7103 114.13 32.8932C114.156 33.5629 113.981 33.8185 113.257 33.8204C110.933 33.8297 110.933 33.8577 110.933 31.5256C110.933 28.0779 110.931 24.6283 110.937 21.1806C110.937 20.7832 110.978 20.3877 111.007 19.8523V19.8541ZM114.117 24.8821C114.117 25.3485 114.156 25.8167 114.107 26.2776C114.035 26.9567 114.361 27.4025 114.954 27.5108C115.56 27.6208 116.266 27.7682 116.648 26.9735C117.23 25.7608 117.069 24.5052 116.831 23.272C116.669 22.4306 116.074 22.0519 115.172 22.2254C114.29 22.3951 114.027 22.938 114.111 23.7645C114.148 24.1339 114.117 24.5089 114.117 24.8802V24.8821Z" fill="white"/>
<path d="M158.558 19.9514H161.525C161.876 21.7387 162.221 23.4943 162.603 25.442C163.097 23.7107 163.581 22.1883 163.954 20.638C164.154 19.8077 164.7 19.9178 165.281 19.8936C165.878 19.8693 166.325 19.9085 166.506 20.6491C166.873 22.1659 167.339 23.6584 167.82 25.3636C168.2 23.429 168.54 21.7032 168.886 19.9458H171.854C171.606 21.0913 171.384 22.192 171.127 23.2853C170.659 25.2629 170.147 27.2293 169.707 29.2125C169.585 29.7554 169.358 29.9382 168.832 29.914C168.186 29.8841 167.535 29.9065 166.828 29.9065C166.301 28.2256 165.786 26.5894 165.207 24.7405C164.856 25.845 164.56 26.7741 164.269 27.7032C164.241 27.7909 164.264 27.8916 164.241 27.9812C163.77 29.8599 163.276 30.1994 161.344 29.8823C161.132 29.8468 160.854 29.5464 160.796 29.3188C160.274 27.2909 159.788 25.2536 159.301 23.2181C159.053 22.1771 158.824 21.1305 158.558 19.9533V19.9514Z" fill="white"/>
<path d="M100.351 19.9588H103.782C104.245 21.7125 104.711 23.4811 105.212 25.3822C105.678 23.7908 106.152 22.3319 106.522 20.8487C106.716 20.0689 107.102 19.8189 107.872 19.8879C108.607 19.9551 109.35 19.9028 110.251 19.9028C109.954 20.789 109.704 21.5577 109.44 22.3207C108.362 25.427 107.322 28.5483 106.185 31.6322C105.473 33.5613 103.687 34.3765 101.767 33.8467C101.335 33.7273 101.104 33.6415 101.271 33.1116C101.437 32.5874 101.475 32.0221 101.566 31.4885C101.627 31.44 101.672 31.3747 101.723 31.3691C103.751 31.1452 104.023 30.5986 103.324 28.6658C102.291 25.8132 101.359 22.9252 100.352 19.9607L100.351 19.9588Z" fill="white"/>
<path d="M138.657 29.847V19.9683H141.616C141.662 20.2314 141.711 20.5169 141.727 20.6101C142.633 20.3135 143.545 19.8247 144.49 19.7482C146.302 19.6008 147.547 20.6848 147.633 22.5075C147.746 24.9235 147.661 27.3489 147.661 29.8395H144.389C144.389 27.7332 144.391 25.6586 144.389 23.584C144.389 22.4832 143.815 22.0206 142.747 22.2277C142.158 22.3415 141.862 22.5896 141.876 23.278C141.925 25.4459 141.895 27.6175 141.895 29.8488H138.659L138.657 29.847Z" fill="white"/>
<path d="M132.571 19.6769C135.568 19.5929 137.641 21.7235 137.421 25.3914C137.268 27.9455 135.589 30.3092 132.194 30.1021C129.49 29.938 127.652 28.1395 127.648 24.8709C127.644 21.6284 129.516 19.5836 132.569 19.6769H132.571ZM134.215 24.8709C134.187 24.8671 134.159 24.8634 134.131 24.8578C134.131 24.4847 134.168 24.1078 134.124 23.7403C134.01 22.7869 133.414 22.2086 132.575 22.203C131.641 22.1974 131.119 22.675 131.078 23.5985C131.039 24.4809 130.947 25.3932 131.123 26.2421C131.223 26.7309 131.728 27.3261 132.194 27.5052C132.957 27.7999 133.676 27.4455 133.932 26.5873C134.096 26.035 134.127 25.4436 134.217 24.8709H134.215Z" fill="white"/>
<path d="M152.384 25.9475C152.958 27.7907 153.364 27.8784 157.061 27.0389C157.32 27.6471 157.583 28.2572 157.836 28.8504C155.937 30.468 151.692 30.8355 149.849 28.1657C148.382 26.0426 148.641 21.6677 151.295 20.164C153.605 18.8562 156.94 19.9102 157.758 22.4083C158.064 23.3449 157.956 24.427 157.948 25.4438C157.948 25.593 157.469 25.8579 157.206 25.8673C155.935 25.9139 154.664 25.8859 153.39 25.8934C153.062 25.8952 152.734 25.9288 152.384 25.9494V25.9475ZM154.766 23.7815C154.805 22.6341 154.486 22.2069 153.653 22.205C152.822 22.2013 152.399 22.7274 152.416 23.7815H154.768H154.766Z" fill="white"/>
<path d="M172.423 26.6245C173.247 26.6245 174.021 26.5853 174.787 26.6487C175.016 26.6674 175.292 26.9267 175.428 27.1487C175.847 27.8372 176.8 28.1898 177.497 27.8017C177.745 27.6637 178.08 27.3596 178.066 27.1525C178.047 26.8838 177.773 26.5125 177.516 26.4006C176.813 26.0965 176.067 25.8838 175.327 25.6767C173.525 25.1711 172.511 24.1227 172.561 22.7757C172.615 21.3074 173.694 20.1003 175.484 19.7999C176.945 19.5537 178.425 19.5406 179.786 20.3969C180.726 20.9884 181.126 21.7794 181.057 22.9286H178.036C177.946 21.923 177.257 21.7141 176.407 21.9081C176.127 21.9716 175.801 22.2589 175.698 22.5219C175.629 22.6973 175.859 23.1376 176.062 23.2402C176.569 23.4958 177.139 23.6301 177.687 23.8092C178.328 24.02 178.998 24.1693 179.609 24.4435C181.615 25.3428 181.738 27.8073 179.872 29.283C178.25 30.5666 174.748 30.3632 173.336 28.8577C172.8 28.2849 172.197 27.686 172.419 26.6208L172.423 26.6245Z" fill="white"/>
<path d="M89.5127 26.3037H92.2827C92.4729 28.3503 90.8996 29.9342 88.7914 30.1114C84.1219 30.507 82.7201 25.9268 83.7789 22.8261C84.765 19.9399 88.3309 18.6526 90.8661 20.3597C91.9808 21.1097 92.3797 22.0183 92.3014 23.675C92.1653 23.6973 92.0199 23.7421 91.8726 23.744C91.1009 23.7514 90.3292 23.7477 89.7979 23.7477C89.3077 23.1395 89.0337 22.5127 88.5677 22.2906C87.9339 21.9884 87.192 22.2515 87.0652 23.0518C86.9012 24.0929 86.8229 25.1693 86.8863 26.2178C86.9292 26.923 87.2759 27.5387 88.2209 27.5779C89.1716 27.6189 89.3152 26.9753 89.5127 26.3037Z" fill="white"/>
<path d="M122.207 22.1154C121.659 22.0781 121.237 22.0482 120.768 22.0165V19.9662C121.221 19.927 121.666 19.8897 122.194 19.8449V17.3599H125.303V19.8486C125.883 19.8841 126.362 19.9121 126.908 19.9457V22.0165C126.41 22.052 125.929 22.0874 125.426 22.1229C125.426 23.7329 125.392 25.3038 125.461 26.8709C125.472 27.1098 125.957 27.5258 126.216 27.5183C126.971 27.4997 127.214 27.7907 127.176 28.5015C127.156 28.897 127.247 29.2982 127.288 29.6993C125.61 30.6526 123.282 30.1582 122.524 28.6396C122.326 28.2441 122.229 27.7609 122.22 27.3168C122.186 25.6135 122.207 23.9083 122.207 22.1173V22.1154Z" fill="white"/>
<path d="M93.5951 19.9082C94.5309 19.9082 95.3977 19.8616 96.2533 19.9381C96.4937 19.9605 96.7007 20.3504 96.9393 20.5855C97.2058 20.3933 97.5805 20.0052 98.0372 19.8336C98.4715 19.6713 98.9897 19.7366 99.6161 19.6899C99.5173 20.7235 99.4296 21.6265 99.3439 22.5164C97.6339 22.805 96.7789 23.836 96.7789 25.6096C96.7789 27.0014 96.7789 28.3932 96.7789 29.8465H93.5933V19.9082H93.5951Z" fill="white"/>
</g>
<defs>
<clipPath id="clip0_3746_4955">
<rect width="138.394" height="32.7683" fill="white" transform="translate(42.8032 8.61572)"/>
</clipPath>
</defs>
</svg>
