<svg width="224" height="50" viewBox="0 0 224 50" fill="none" xmlns="http://www.w3.org/2000/svg">
<g clip-path="url(#clip0_3746_4868)">
<path d="M178.918 22.1V11.9H181.371V28.679C177.726 24.7152 174.219 20.9043 170.577 16.9453V27.4897H168.164V10.7075C171.772 14.6198 175.26 18.4018 178.745 22.1837L178.918 22.1Z" fill="white"/>
<path d="M42.6291 27.6364V11.9711C42.6807 11.9309 42.7226 11.8697 42.7629 11.8697C45.1905 11.9084 47.6294 11.5784 50.0376 12.1498C53.099 12.8756 55.5298 15.9752 55.604 19.1118C55.6573 21.3745 55.0588 23.3476 53.5426 25.0454C52.4216 26.3023 51.0118 27.1601 49.3908 27.3468C47.1906 27.5994 44.955 27.5511 42.6274 27.6348L42.6291 27.6364ZM45.1453 14.0359V25.2063C46.2293 25.2063 47.2697 25.2417 48.3068 25.1983C49.8311 25.1339 51.0376 24.4467 51.9635 23.2317C52.9248 21.97 53.1378 20.5457 53.0829 19.0056C53.0152 17.1355 51.6522 15.1834 49.9327 14.493C48.3794 13.8701 46.7922 14.0633 45.1437 14.0359H45.1453Z" fill="white"/>
<path d="M81.0298 11.9951C83.538 11.9951 86.0043 11.8567 88.4464 12.0369C90.5675 12.1931 92.0643 14.5459 92.074 16.3612C92.0821 17.8274 91.9014 19.1953 90.8949 20.2993C90.3868 20.8561 89.719 21.2681 89.0367 21.8137C90.1674 23.5888 91.3675 25.4733 92.6821 27.5381C91.6224 27.5381 90.7546 27.559 89.89 27.5188C89.7432 27.5124 89.5803 27.2581 89.4706 27.0891C88.3738 25.3945 87.2205 23.7304 86.2333 21.9746C85.8994 21.3808 85.9946 20.5471 85.8833 19.7409C86.535 19.6733 87.0366 19.5606 87.5318 19.5847C88.3867 19.6282 88.9061 19.1824 89.24 18.4984C90.2336 16.4675 89.5126 13.9585 86.6237 14.0213C85.5575 14.0438 84.4897 14.0245 83.3493 14.0245V27.493H81.0298V11.9951Z" fill="white"/>
<path d="M105.663 11.8809H108.181C108.181 12.177 108.181 12.4602 108.181 12.7435C108.181 15.7207 108.128 18.7012 108.192 21.6769C108.302 26.7045 104.1 28.2639 100.694 27.5623C97.582 26.9218 96.1497 24.9809 96.1465 21.8555C96.1432 18.8509 96.1465 15.8463 96.1465 12.8416C96.1465 12.5503 96.1465 12.2574 96.1465 11.9002H98.6643C98.6643 12.1995 98.6643 12.486 98.6643 12.7708C98.6643 15.9364 98.6643 19.102 98.6643 22.2675C98.6643 23.7208 99.4515 24.7685 100.84 25.2529C101.815 25.5924 102.771 25.5393 103.713 25.1933C104.962 24.733 105.662 23.7095 105.663 22.3657C105.67 19.1728 105.665 15.9798 105.665 12.7885C105.665 12.5021 105.665 12.214 105.665 11.8825L105.663 11.8809Z" fill="white"/>
<path d="M115.301 27.5254H112.985V11.7539C115.325 11.8424 117.68 11.7008 119.948 12.079C122.39 12.4862 123.821 15.0466 123.4 17.5556C123.206 18.7127 122.803 19.733 121.995 20.6004C121.135 21.5226 120.043 21.8525 118.845 21.9137C118.042 21.9539 117.234 21.9217 116.427 21.9217C115.714 21.9217 115.357 22.2913 115.356 23.0306C115.356 24.2102 115.359 25.3915 115.353 26.5711C115.353 26.8624 115.322 27.1537 115.301 27.527V27.5254ZM117.184 14.0504C117.184 14.0424 117.184 14.0343 117.184 14.0263C116.833 14.0263 116.482 14.0601 116.137 14.0182C115.535 13.9474 115.33 14.1792 115.345 14.7811C115.379 16.149 115.369 17.517 115.35 18.8849C115.341 19.4192 115.511 19.6831 116.085 19.6558C117.13 19.6075 118.179 19.6155 119.222 19.5495C119.488 19.5335 119.787 19.379 119.992 19.1987C120.951 18.3554 121.135 17.245 120.926 16.0573C120.711 14.8422 119.834 14.2725 118.711 14.0649C118.217 13.9732 117.695 14.0488 117.184 14.0488V14.0504Z" fill="white"/>
<path d="M67.8608 23.4309C69.1157 25.1256 70.7642 25.7951 72.4869 25.3638C73.3273 25.1529 74.1209 24.2726 74.2015 23.4583C74.3145 22.3269 73.9854 21.6607 72.9708 21.1988C71.7643 20.6468 70.5094 20.1994 69.3125 19.6281C67.4318 18.7317 66.5091 16.9147 66.9705 14.9417C67.3479 13.3259 68.9125 11.8212 71.0288 11.6634C72.9853 11.517 74.7225 11.892 76.1242 13.4772C75.6355 14.0549 75.1597 14.6166 74.6209 15.2555C73.7354 14.3237 72.7515 13.7717 71.4788 13.8586C70.2384 13.9439 69.3529 14.821 69.4851 16.0408C69.5271 16.4287 69.7948 16.9389 70.1158 17.1223C71.032 17.647 72.0611 17.9721 72.9821 18.4887C73.9612 19.0374 75.0371 19.5637 75.7726 20.37C77.5405 22.3108 76.8114 25.2028 74.9242 26.6384C72.3498 28.5969 68.3109 27.8502 66.3188 25.3332C66.2075 25.1916 66.2575 24.7506 66.3962 24.6138C66.8285 24.1873 67.3398 23.8397 67.8592 23.4309H67.8608Z" fill="white"/>
<path d="M130.539 14.0231H126.69V11.873C126.934 11.8602 127.189 11.8376 127.445 11.836C130.345 11.8328 133.246 11.8585 136.144 11.8167C136.868 11.807 137.131 12.034 137.03 12.7276C137.01 12.8596 137.01 12.998 137.03 13.1283C137.131 13.8203 136.875 14.0843 136.144 14.0392C135.136 13.9764 134.12 14.0231 133.038 14.0231V27.4917H130.541V14.0231H130.539Z" fill="white"/>
<path d="M156.541 11.6106C161.952 11.572 164.977 15.4344 164.919 19.7442C164.849 24.9698 160.586 27.9873 156.539 27.6477V25.6199C160.697 24.8491 162.656 22.8213 162.428 19.3387C162.26 16.7654 160.755 13.9233 156.539 13.8058V11.6106H156.541Z" fill="white"/>
<path d="M155.449 27.6748C151.411 27.7053 147.624 24.6138 147.485 19.8469C147.353 15.3649 151.131 11.5669 155.391 11.6828V13.5078C154.213 14.1048 152.997 14.4991 152.06 15.2426C149.595 17.1964 149.211 20.9606 151.395 23.5034C152.294 24.5494 153.4 25.2366 154.81 25.3815C155.207 25.4217 155.504 25.5955 155.46 26.1041C155.416 26.6046 155.45 27.1115 155.45 27.6748H155.449Z" fill="white"/>
<path d="M58.6007 21.1296V11.8823H60.8573V19.369C61.7219 18.8057 62.451 18.3309 63.2671 17.7999V27.5106H60.8396V19.6088C60.0395 20.1511 59.375 20.6033 58.5991 21.1296H58.6007Z" fill="white"/>
<path d="M140.722 11.8633H143.124V27.4948H140.722V11.8633Z" fill="white"/>
<path d="M104.304 33.1787V38.9386C104.016 38.9563 103.768 38.9708 103.46 38.9885V30.916C105.367 32.9824 107.157 34.9233 108.947 36.8641C109.01 36.8432 109.073 36.8223 109.134 36.7998C109.134 35.6877 109.134 34.574 109.134 33.462C109.134 32.9792 109.118 32.4948 109.141 32.0136C109.157 31.6676 109.038 31.1381 109.633 31.2459C109.822 31.2797 110.056 31.7303 110.062 31.9943C110.099 33.7919 110.081 35.5895 110.081 37.3872C110.081 37.9681 110.081 38.5491 110.081 39.1301L109.881 39.225C108.07 37.2633 106.26 35.2999 104.302 33.1787H104.304Z" fill="white"/>
<path d="M90.9365 34.9733C92.1624 35.8166 92.4043 36.3879 92.0543 37.5273C91.7301 38.5847 91.0994 38.9951 89.7993 38.9951C88.8896 38.9951 87.9799 38.9951 86.9475 38.9951C86.9475 38.3545 86.9475 37.7752 86.9475 37.1958C86.9475 35.4513 86.9717 33.7051 86.9346 31.9606C86.9217 31.3475 87.133 31.1431 87.7218 31.1914C88.5234 31.2573 89.3267 31.3056 90.13 31.3169C90.9688 31.3282 91.5027 31.7836 91.7623 32.4949C92.0382 33.2497 92.0124 34.019 91.3252 34.6144C91.2042 34.719 91.0881 34.8301 90.9349 34.9717L90.9365 34.9733ZM87.8928 38.2531C88.646 38.2531 89.3138 38.2692 89.9816 38.2483C90.7397 38.2242 91.2413 37.6979 91.301 36.9093C91.3494 36.2656 90.7462 35.5076 90.0768 35.4642C89.3638 35.4191 88.646 35.4545 87.8928 35.4545V38.2531ZM87.8815 34.5468C88.6347 34.5468 89.3025 34.5758 89.9687 34.5388C90.6574 34.5002 90.9139 33.9771 90.9655 33.3994C91.0171 32.8152 90.8187 32.202 90.1768 32.1055C89.4283 31.9912 88.6509 32.0781 87.8831 32.0781V34.5468H87.8815Z" fill="white"/>
<path d="M131.031 39.2927C129.105 37.1958 127.341 35.271 125.471 33.2352V38.9403C125.147 38.958 124.9 38.9709 124.594 38.9886V30.9531C126.475 32.9922 128.252 34.9185 130.186 37.0155C130.186 35.1857 130.178 33.5892 130.192 31.9928C130.196 31.6838 130.026 31.238 130.604 31.2138C131.241 31.1865 131.083 31.6661 131.084 32.0056C131.094 34.1525 131.091 36.2994 131.088 38.4462C131.088 38.649 131.062 38.8518 131.031 39.2943V39.2927Z" fill="white"/>
<path d="M141.043 32.9021C140.821 33.0727 140.651 33.2014 140.619 33.2272C139.858 32.8055 139.204 32.3452 138.482 32.0652C137.29 31.6033 136.261 32.0942 135.459 32.9504C134.522 33.953 134.354 35.2018 134.873 36.4475C135.346 37.5804 136.248 38.2483 137.533 38.2773C137.746 38.2821 137.962 38.2757 138.174 38.2563C140.054 38.0874 140.401 37.574 140.132 35.9679H138.251C138.012 35.3676 138.038 35.0216 138.743 35.0377C139.488 35.0554 140.233 35.0409 141.083 35.0409C141.083 35.9502 141.129 36.7741 141.058 37.5885C141.035 37.8508 140.748 38.155 140.503 38.3239C138.049 40.0137 134.52 39.1141 133.825 36.1513C133.394 34.3135 133.854 32.709 135.933 31.5293C137.272 30.7697 139.554 31.1398 140.616 32.2583C140.779 32.4305 140.883 32.6558 141.043 32.8989V32.9021Z" fill="white"/>
<path d="M114.291 34.6966C115.804 36.3092 117.008 37.5918 118.238 38.9018C117.727 39.0756 117.266 39.066 116.809 38.5993C115.887 37.6578 114.92 36.7582 113.836 35.7105V38.9388H112.925C112.925 36.8934 112.925 34.8914 112.925 32.8877C112.925 32.5127 112.87 32.1265 112.948 31.7676C112.993 31.56 113.249 31.3959 113.409 31.2124C113.548 31.391 113.799 31.5632 113.807 31.7483C113.851 32.5948 113.827 33.4462 113.827 34.3699C115.353 33.4059 116.079 31.5423 117.966 31.2317C116.72 32.4049 115.477 33.5781 114.291 34.6966Z" fill="white"/>
<path d="M101.1 38.8648C100.168 39.2848 99.9632 38.6137 99.7309 38.0649C99.1115 36.6004 98.5212 35.1231 97.9147 33.6537C97.8566 33.5121 97.7614 33.385 97.6147 33.1355C96.8678 34.8994 96.1404 36.5682 95.4581 38.2532C95.2226 38.8326 94.9435 39.177 94.1709 38.8712C95.2984 36.2464 96.421 33.6328 97.6469 30.7778C98.8534 33.6022 99.9729 36.2271 101.099 38.8632L101.1 38.8648Z" fill="white"/>
<path d="M121.73 38.9498H120.829C120.829 38.0099 120.829 37.1071 120.829 36.2042C120.829 34.7301 120.813 33.2559 120.85 31.7834C120.854 31.5886 121.137 31.4004 121.292 31.2104C121.438 31.3826 121.709 31.5532 121.711 31.7254C121.738 34.1057 121.73 36.4875 121.73 38.9498Z" fill="white"/>
</g>
<defs>
<clipPath id="clip0_3746_4868">
<rect width="138.742" height="28.5851" fill="white" transform="translate(42.6289 10.7075)"/>
</clipPath>
</defs>
</svg>
