<svg width="224" height="50" viewBox="0 0 224 50" fill="none" xmlns="http://www.w3.org/2000/svg">
<g clip-path="url(#clip0_3474_14950)">
<mask id="mask0_3474_14950" style="mask-type:luminance" maskUnits="userSpaceOnUse" x="54" y="12" width="116" height="26">
<path d="M169.91 12H54V37.9087H169.91V12Z" fill="white"/>
</mask>
<g mask="url(#mask0_3474_14950)">
<path d="M69.3051 12.1277C68.4798 12.2372 68.5515 12.6021 69.5743 13.7151L70.4176 14.6456L69.6102 14.7004C66.7932 14.8646 65.2681 15.4849 62.164 17.8204C59.5981 19.7361 58.8087 20.0463 56.1172 20.174L54 20.2653V22.0351V23.8231L56.207 23.8961C58.8804 23.9874 59.4367 24.2063 62.4331 26.3958C65.5193 28.6765 66.3805 29.0413 68.9464 29.2603L70.3459 29.3698L69.5204 30.3368C68.3183 31.7782 68.3722 31.8877 70.4536 31.8877H72.194L74.1318 29.9171C75.6749 28.3481 76.0696 27.8371 76.0696 27.4358C76.0696 27.0344 75.6569 26.5053 74.1318 24.9361L72.194 22.9474H70.4536C68.749 22.9474 68.713 22.9474 68.713 23.367C68.713 23.6589 69.0002 24.0604 69.6281 24.5895C70.4176 25.2646 70.5074 25.3923 70.2383 25.5565C69.8255 25.7755 68.0851 25.5565 67.1879 25.1551C66.3626 24.7902 62.792 22.2358 62.792 21.9986C62.792 21.7067 66.7932 19.0063 67.6903 18.7144C68.2107 18.5502 69.0719 18.4042 69.6102 18.4042L70.5791 18.386L69.6461 19.353C69.0898 19.9368 68.713 20.466 68.713 20.7214C68.713 21.1046 68.7849 21.1228 70.3638 21.1228H71.9966L74.042 19.0793C75.5851 17.5284 76.0696 16.9263 76.0696 16.5614C76.0696 16.2147 75.6211 15.6491 74.2394 14.2442C73.2167 13.2407 72.2119 12.3102 71.9966 12.2007C71.6198 12 70.5074 11.9818 69.3051 12.1277Z" fill="white"/>
<path d="M160.221 14.1165C160.221 16.1965 160.221 16.233 160.741 16.7621C161.208 17.2365 161.387 17.2912 162.374 17.2912C163.361 17.2912 163.54 17.2365 164.007 16.7621C164.527 16.233 164.527 16.1965 164.527 14.1165C164.527 12 164.527 12 164.096 12C163.666 12 163.666 12.0365 163.594 13.934C163.54 15.7039 163.504 15.8863 163.11 16.2147C162.553 16.6891 162.087 16.6526 161.566 16.1053C161.154 15.7039 161.118 15.5396 161.118 13.8246V12H160.669H160.221V14.1165Z" fill="white"/>
<path d="M166.663 12.4926C166.555 12.7846 166.197 13.7333 165.874 14.6456C165.551 15.5396 165.192 16.5067 165.084 16.7803C164.905 17.273 164.923 17.2912 165.425 17.2912C165.874 17.2912 165.999 17.1817 166.215 16.6526C166.466 16.0323 166.519 16.014 167.435 16.014C168.386 16.014 168.403 16.0323 168.637 16.6526C168.816 17.1817 168.942 17.2912 169.39 17.2912C169.695 17.2912 169.911 17.2182 169.875 17.1453C169.857 17.054 169.426 15.8681 168.942 14.4996L168.045 12H167.453C166.968 12 166.807 12.0912 166.663 12.4926ZM168.009 14.8646C168.134 15.2477 168.081 15.2842 167.417 15.2842H166.699L166.968 14.4996C167.435 13.1312 167.417 13.1495 167.668 13.8246C167.793 14.1712 167.937 14.6456 168.009 14.8646Z" fill="white"/>
<path d="M83.4795 12.7116C81.2725 13.4779 79.9626 15.047 79.6934 17.2548C79.5858 18.1488 79.5141 18.2948 79.1552 18.3495C78.8502 18.4042 78.6349 18.6779 78.3119 19.426C78.0607 19.9916 77.8633 20.466 77.8633 20.5025C77.8633 20.5207 78.2401 20.5754 78.7245 20.6119L79.5679 20.6667L79.6217 26.0856L79.6576 31.5229H80.8238H81.9902V26.0492V20.5754H83.5153H85.0405V19.4807V18.386H83.5153H81.9902V17.8751C82.0081 17.1453 82.5823 15.9776 83.2103 15.4302C83.7127 15.0105 85.0763 14.5544 85.8479 14.5544C86.0632 14.5544 86.117 14.299 86.117 13.4597V12.3649H85.2737C84.7892 12.3832 83.9997 12.5291 83.4795 12.7116Z" fill="white"/>
<path d="M111.596 21.9439V31.5229H112.762H113.928V28.6035V25.6842H115.059C118.055 25.6842 119.311 27.0526 119.311 30.2821V31.5229H120.477H121.644V30.1908C121.644 26.9066 120.908 25.2281 119.078 24.2793L118.414 23.9509L119.939 21.2505C120.782 19.7727 121.464 18.5137 121.464 18.459C121.464 18.4042 120.872 18.386 120.172 18.4225L118.863 18.4772L117.553 20.9769L116.225 23.4948H115.077H113.928V17.9298V12.3649H112.762H111.596V21.9439Z" fill="white"/>
<path d="M124.192 20.3565L124.246 28.3481L124.713 29.2421C125.413 30.6287 126.364 31.1579 128.606 31.4134L129.539 31.5045V30.3368C129.539 29.2056 129.522 29.1508 129.091 29.1508C128.283 29.1508 127.207 28.5853 126.884 27.9831C126.615 27.4723 126.579 26.5782 126.525 19.8821L126.471 12.3649H125.305H124.139L124.192 20.3565Z" fill="white"/>
<path d="M90.7474 18.6961C87.2486 20.0463 85.544 24.2246 87.105 27.6547C88.6839 31.1397 92.757 32.435 96.202 30.574C97.4579 29.8989 98.2115 29.0779 98.8396 27.6913C99.2523 26.8155 99.3061 26.4505 99.3061 24.8632C99.3061 23.2028 99.2523 22.9474 98.7857 21.9803C98.1577 20.7396 97.1171 19.6996 95.7714 19.0063C94.5154 18.3495 92.0572 18.2035 90.7474 18.6961ZM93.8335 20.7761C96.202 21.3235 97.44 23.8232 96.6685 26.4871C96.3456 27.5453 95.1971 28.6765 94.1565 28.9319C92.5417 29.3516 91.4472 29.0779 90.3168 28.0197C88.3071 26.1403 88.7019 22.4182 91.0524 21.1593C91.501 20.9221 92.0213 20.7761 92.9364 20.5937C92.9902 20.5937 93.385 20.6667 93.8335 20.7761Z" fill="white"/>
<path d="M104.259 18.6596C103.29 18.9698 102.518 19.6996 102.016 20.7579C101.675 21.5242 101.639 21.9256 101.585 26.5418L101.531 31.5228H102.698H103.882L103.9 27.1803C103.918 20.8856 104.007 20.7214 107.309 20.6119L109.265 20.5389V19.4625V18.386L107.165 18.4042C105.909 18.4042 104.725 18.5137 104.259 18.6596Z" fill="white"/>
<path d="M135.82 18.5502C134.151 19.0976 132.734 20.32 131.926 21.8891C131.46 22.7832 131.424 23.0204 131.424 24.8632C131.424 26.7242 131.46 26.9432 131.944 27.9284C133.218 30.4829 135.945 31.8513 138.727 31.3403C140.88 30.939 142.638 29.68 143.481 27.9102C144.181 26.4687 144.289 24.0604 143.715 22.546C143.212 21.1593 141.902 19.6997 140.539 19.0246C139.66 18.5867 139.247 18.4955 137.883 18.4407C137.004 18.4225 136.071 18.459 135.82 18.5502ZM139.588 21.1958C141.221 22.0169 142.046 24.1516 141.49 26.1221C140.341 30.1544 135.066 30.1361 133.918 26.1039C133.667 25.2281 133.649 24.8814 133.81 24.0604C134.187 22.2723 135.084 21.2688 136.681 20.8309C137.704 20.5572 138.511 20.6484 139.588 21.1958Z" fill="white"/>
<path d="M150.335 18.6414C148.72 19.2253 147.231 20.6484 146.441 22.3635C146.029 23.2575 145.957 23.6407 145.957 25.1368C145.957 26.7424 146.011 26.9797 146.549 28.0926C147.267 29.5705 148.379 30.6287 149.797 31.1761C150.622 31.4863 151.071 31.541 152.416 31.4863C153.493 31.4316 154.247 31.2856 154.713 31.0666L155.377 30.72V29.461V28.2021L154.928 28.494C154.677 28.6582 153.995 28.9137 153.403 29.0779C152.506 29.315 152.147 29.315 151.286 29.1326C148.702 28.6034 147.392 25.4653 148.702 22.9291C149.635 21.1046 151.089 20.5207 154.426 20.6119L156.184 20.6667L156.238 26.3228C156.292 32.3803 156.238 32.9642 155.431 34.0589C154.623 35.1171 153.673 35.4092 150.766 35.5003L148.2 35.5734V36.741V37.9087H150.138C151.196 37.9087 152.578 37.8176 153.224 37.7081C155.521 37.3249 157.494 35.7923 158.248 33.7852C158.589 32.8365 158.607 32.3803 158.607 25.593V18.386H154.803C152.147 18.4042 150.784 18.4772 150.335 18.6414Z" fill="white"/>
</g>
</g>
<defs>
<clipPath id="clip0_3474_14950">
<rect width="116" height="26" fill="white" transform="translate(54 12)"/>
</clipPath>
</defs>
</svg>
