<svg width="224" height="50" viewBox="0 0 224 50" fill="none" xmlns="http://www.w3.org/2000/svg">
<g clip-path="url(#clip0_4083_10326)">
<path d="M166.568 14.4456V39.1096H162.123V14.4456H157.685V10.9268H171.003V14.4456H166.568Z" fill="white"/>
<path d="M142.337 39.1096V10.9268H155.653V14.4456H146.77V22.6711H152.324V26.1998H146.775L146.77 35.6058L155.653 35.6033V39.1096H142.337Z" fill="white"/>
<path d="M126.828 39.1096V10.9268H140.144V14.4456H131.261V22.6711H136.814V26.1998H131.266L131.261 35.6058L140.144 35.6033V39.1096H126.828Z" fill="white"/>
<path d="M111.135 10.9268H119.527C122.799 10.9268 124.438 12.5355 124.438 15.7555V22.7034C124.438 25.1639 123.589 26.7203 121.893 27.3728L124.884 39.1121H120.82L118.008 27.7289H115.575V39.1096H111.132L111.135 10.9268ZM115.578 24.5089H118.235C119.515 24.5089 120.03 23.8565 120.03 22.4967V16.3332C120.03 14.9735 119.535 14.4456 118.255 14.4456H115.58V24.5114L115.578 24.5089Z" fill="white"/>
<path d="M104.817 14.4431V39.1096H100.372V14.4431H95.937V10.9268H109.253V14.4431H104.817Z" fill="white"/>
<path d="M90.2035 17.9668L90.2185 16.0268C90.2284 14.9012 89.6407 14.4305 88.3632 14.4181L87.6783 14.4131C86.4332 14.4006 85.8355 14.951 85.8256 16.0766L85.7907 20.5667C85.7857 21.0921 85.8679 21.5379 86.1119 21.7222C86.351 21.9089 86.7445 22.148 87.2899 22.4419L91.4213 24.4042C92.3303 24.8575 92.9728 25.2111 93.3513 25.4626C93.7273 25.7141 94.0212 26.0179 94.2329 26.3741C94.442 26.7302 94.5441 27.4051 94.5342 28.4012L94.4869 34.4128C94.462 37.583 92.6864 39.1519 89.1626 39.1195L86.473 39.0946C82.9791 39.0622 81.2459 37.319 81.2733 33.8624L81.2782 31.9947L85.6737 32.0345L85.6836 33.9645C85.6737 35.0653 86.2987 35.5733 87.6061 35.5832L88.3657 35.5907C89.5212 35.6007 90.0641 35.1574 90.074 34.0567L90.1114 29.2529C90.1164 28.7299 90.0367 28.3887 89.7951 28.2044C89.5536 28.0177 89.1601 27.7786 88.6147 27.4847L84.4858 25.4452C83.5768 25.0168 82.9169 24.6582 82.511 24.3669C82.105 24.073 81.8087 23.6995 81.6319 23.2388C81.4526 22.7805 81.3679 22.1829 81.3729 21.4482L81.4177 15.6732C81.4426 12.4457 83.2033 10.8495 86.6972 10.8818L89.4315 10.9067C92.9254 10.9391 94.6612 12.5653 94.6338 15.7877L94.6164 18.0066L90.2035 17.9668Z" fill="white"/>
<path d="M79.7272 38.8605H75.7178L73.3919 28.2244H73.3047L70.5031 38.8605H66.668L70.5903 24.7155L66.6655 10.8818H70.7123L73.3047 21.2092H73.3919L75.9768 10.8818H79.8119L76.1063 24.7155L79.7272 38.8605Z" fill="white"/>
<path d="M62.8462 22.539L62.8412 26.1026H57.37V38.863H52.9995V10.8818H64.3977L65.3664 14.3757H57.37V22.539H62.8462Z" fill="white"/>
</g>
<defs>
<clipPath id="clip0_4083_10326">
<rect width="118.003" height="28.2376" fill="white" transform="translate(52.998 10.8813)"/>
</clipPath>
</defs>
</svg>
