<svg width="307" height="106" viewBox="0 0 307 106" fill="none" xmlns="http://www.w3.org/2000/svg">
<g clip-path="url(#clip0_200_306)">
<path d="M172.644 31.7863C178.953 31.7863 181.535 27.9774 181.535 22.3433V6.27441H184.869V22.5428C184.869 29.3272 181.259 34.885 172.65 34.885C167.415 34.885 164.116 33.0598 162.174 30.2017L164.991 28.3354C166.54 30.636 168.723 31.7863 172.65 31.7863H172.644Z" fill="white"/>
<path d="M222.283 6.27441V20.9583C222.283 29.0514 217.206 34.885 207.64 34.885C198.074 34.885 192.956 29.0514 192.956 20.9583V6.27441H196.29V20.7587C196.29 27.5842 200.374 31.7921 207.64 31.7921C214.906 31.7921 218.949 27.5842 218.949 20.7587V6.27441H222.283Z" fill="white"/>
<path d="M230.934 34.0516V6.27441H234.267V34.0516H230.934Z" fill="white"/>
<path d="M269.186 26.4695L272.361 28.0541C269.744 32.2209 264.902 34.8795 258.118 34.8795C247.759 34.8795 241.415 29.1633 241.415 20.1605C241.415 11.1577 247.765 5.44141 258.241 5.44141C264.908 5.44141 269.75 8.14107 272.367 12.2669L269.192 13.8515C267.009 10.16 263.042 8.53429 258.2 8.53429C250.142 8.53429 244.831 12.5016 244.831 20.1605C244.831 27.8193 250.148 31.7866 258.2 31.7866C263.042 31.7866 267.05 30.2021 269.192 26.4695H269.186Z" fill="white"/>
<path d="M305.532 30.9529V34.0458H278.67V6.27441H305.138V9.36729H282.003V18.376H301.605V21.4688H282.003V30.9529H305.532Z" fill="white"/>
<path d="M186.829 59.6586C184.898 62.282 181.089 64.1835 175.848 64.1835C168.096 64.1835 163.377 60.3746 163.377 53.9189C163.377 47.4632 168.096 43.6543 175.848 43.6543C180.596 43.6543 183.959 45.4502 185.89 47.3223L182.439 49.8342C180.755 48.1792 178.794 47.4045 175.872 47.4045C170.825 47.4045 167.872 49.6112 167.872 53.913C167.872 58.2149 170.907 60.4216 176.036 60.4216C178.935 60.4216 181.306 59.7877 182.685 58.1327V56.2547H175.402V52.6688H186.823V59.6469L186.829 59.6586Z" fill="white"/>
<path d="M206.054 59.4933H194.387L192.315 63.578H187.597L197.832 44.2695H202.662L212.897 63.578H208.126L206.054 59.4933ZM204.206 55.9074L200.203 48.0432L196.2 55.9074H204.2H204.206Z" fill="white"/>
<path d="M241.368 44.2637V63.5722H236.955V50.1384L228.486 60.4852H228.263L219.794 50.1384V63.5722H215.516V44.2637H220.316L228.48 54.4696L236.643 44.2637H241.362H241.368Z" fill="white"/>
<path d="M246.55 63.578V44.2695H250.963V63.578H246.55Z" fill="white"/>
<path d="M278.136 44.2637V63.5722H274.274L260.424 49.6161V63.5722H256.146V44.2637H260.835L273.858 57.5038V44.2637H278.136Z" fill="white"/>
<path d="M305.532 59.6586C303.601 62.282 299.792 64.1835 294.551 64.1835C286.799 64.1835 282.08 60.3746 282.08 53.9189C282.08 47.4632 286.799 43.6543 294.551 43.6543C299.299 43.6543 302.662 45.4502 304.593 47.3223L301.142 49.8342C299.458 48.1792 297.498 47.4045 294.575 47.4045C289.528 47.4045 286.576 49.6112 286.576 53.913C286.576 58.2149 289.61 60.4216 294.739 60.4216C297.638 60.4216 300.009 59.7877 301.389 58.1327V56.2547H294.105V52.6688H305.526V59.6469L305.532 59.6586Z" fill="white"/>
<path d="M194.03 73.2266V99.6774H191.236L169.017 77.2702V99.6774H165.918V73.2266H169.357L190.937 95.0293V73.2266H194.036H194.03Z" fill="white"/>
<path d="M228.379 96.7313V99.6774H202.797V73.2266H228.004V76.1727H205.972V84.753H224.641V87.6991H205.972V96.7313H228.379Z" fill="white"/>
<path d="M274.862 73.2266L265.149 99.6774H261.786L253.282 77.0413L244.743 99.6774H241.38L231.667 73.2266H235.141L243.117 95.8275L251.697 73.2266H254.908L263.447 95.8275L271.458 73.2266H274.862Z" fill="white"/>
<path d="M306.189 92.0072C306.189 96.8842 301.236 100.47 292.621 100.47C286.84 100.47 281.282 98.6566 277.162 95.0296L279.392 92.6469C283.248 96.0508 287.515 97.5239 292.808 97.5239C299.194 97.5239 302.938 95.5226 302.938 92.2361C302.938 88.9495 299.047 88.2276 291.905 87.6231C284.839 87.0187 278.072 85.4693 278.072 80.2519C278.072 75.0345 284.346 72.4287 291.412 72.4287C297.157 72.4287 301.882 74.43 304.939 77.1531L302.445 79.2718C299.875 76.7423 295.983 75.416 291.558 75.3807C286.834 75.3455 281.317 76.666 281.317 80.1404C281.317 83.4269 286.306 84.1077 292.538 84.6007C300.591 85.2404 306.184 86.7956 306.184 92.0072H306.189Z" fill="white"/>
<path d="M120.17 5.51866C120.17 2.47274 117.699 0.00195312 114.653 0.00195312H28.1056C25.0596 0.00195312 22.5889 2.47274 22.5889 5.51866V22.5911H120.17V5.51866Z" fill="white"/>
<path d="M137.067 22.5908H120.17V72.7166C120.17 78.5737 115.423 83.3275 109.56 83.3275H80.2623V60.75H62.4973V83.3275H33.2C27.3429 83.3275 22.5892 78.5796 22.5892 72.7166V22.5908H5.69278C2.54708 22.5908 0 25.1379 0 28.2836V63.215C0 67.0062 1.50829 70.6449 4.19035 73.327L32.5897 101.726C35.2717 104.408 38.9104 105.917 42.7017 105.917H58.0663C60.5136 105.917 62.4973 103.933 62.4973 101.486V83.3392H80.2623V101.486C80.2623 103.933 82.246 105.917 84.6933 105.917H100.058C103.849 105.917 107.488 104.408 110.17 101.726L138.569 73.327C141.251 70.6449 142.76 67.0062 142.76 63.215V28.2836C142.76 25.1379 140.213 22.5908 137.067 22.5908Z" fill="white"/>
<path d="M40.0432 62.8052H46.1761V56.0267H52.9546V49.8938H46.1761V43.1094H40.0432V49.8938H33.2588V56.0267H40.0432V62.8052Z" fill="white"/>
<path d="M101.384 47.7102C102.945 46.1491 102.945 43.6138 101.384 42.0527C99.823 40.4916 97.2876 40.4916 95.7206 42.0527C94.1595 43.6138 94.1595 46.1491 95.7206 47.7102C97.2818 49.2713 99.8171 49.2713 101.384 47.7102Z" fill="white"/>
<path d="M103.31 55.2923C104.871 56.8534 107.406 56.8534 108.973 55.2923C110.534 53.7312 110.534 51.1958 108.973 49.6288C107.412 48.0677 104.876 48.0677 103.31 49.6288C101.748 51.19 101.748 53.7253 103.31 55.2923Z" fill="white"/>
<path d="M90.9674 56.466C93.1779 56.466 94.97 54.674 94.97 52.4635C94.97 50.2529 93.1779 48.4609 90.9674 48.4609C88.7569 48.4609 86.9648 50.2529 86.9648 52.4635C86.9648 54.674 88.7569 56.466 90.9674 56.466Z" fill="white"/>
<path d="M95.7206 57.2167C94.1595 58.7778 94.1595 61.3132 95.7206 62.8802C97.2818 64.4413 99.8171 64.4413 101.384 62.8802C102.945 61.3191 102.945 58.7837 101.384 57.2167C99.823 55.6556 97.2876 55.6556 95.7206 57.2167Z" fill="white"/>
</g>
<defs>
<clipPath id="clip0_200_306">
<rect width="306.189" height="105.915" fill="white"/>
</clipPath>
</defs>
</svg>
