<svg width="224" height="50" viewBox="0 0 224 50" fill="none" xmlns="http://www.w3.org/2000/svg">
<mask id="mask0_4083_10357" style="mask-type:luminance" maskUnits="userSpaceOnUse" x="47" y="10" width="22" height="30">
<path d="M68.7588 10.2993H47.5679V39.7007H68.7588V10.2993Z" fill="white"/>
</mask>
<g mask="url(#mask0_4083_10357)">
<path d="M68.7189 35.4962C68.6919 36.5635 68.2602 37.5815 67.5101 38.3458C66.7601 39.1102 65.7472 39.5644 64.6744 39.6178C63.6016 39.6711 62.5481 39.3195 61.7251 38.6333C60.9021 37.9471 60.3704 36.9771 60.2364 35.9179C60.2103 35.6831 60.2088 35.4462 60.2318 35.2115C60.2421 35.0915 60.2472 34.97 60.2472 34.8472C60.2472 34.8283 60.2472 34.8093 60.2472 34.7901C60.2472 34.7523 60.2472 34.7148 60.2441 34.6772C60.2192 34.142 60.0849 33.6174 59.8492 33.1355C59.6136 32.6537 59.2816 32.2245 58.8735 31.8744C58.8735 31.8744 56.8439 29.8445 56.736 29.7496C56.272 29.3418 55.7094 29.0608 55.1032 28.9341C54.4972 28.8074 53.8683 28.8394 53.2784 29.0268C53.2098 29.0489 53.1422 29.0725 53.0756 29.0986C52.4564 29.3006 51.7984 29.3564 51.1537 29.2617C50.5091 29.167 49.8955 28.9243 49.3615 28.5529C48.8276 28.1814 48.3881 27.6915 48.0777 27.1219C47.7673 26.5523 47.5947 25.9187 47.5735 25.2712C47.5523 24.6238 47.6831 23.9803 47.9555 23.3918C48.2279 22.8033 48.6345 22.286 49.143 21.8809C49.6515 21.4757 50.2479 21.1939 50.885 21.0576C51.5221 20.9214 52.1823 20.9346 52.8134 21.0961C52.9449 21.1463 53.0795 21.1879 53.2165 21.2207C53.7092 21.3416 54.2221 21.3569 54.7212 21.2656C55.2202 21.1742 55.694 20.9783 56.111 20.6908C56.2493 20.5954 59.1769 18.0551 59.1769 18.0551C59.7619 17.4927 60.1234 16.7396 60.1951 15.9339V15.9169C60.2109 15.7205 60.2128 15.5232 60.2008 15.3265C60.1921 15.1812 60.1757 15.0365 60.1518 14.893C60.1146 14.2796 60.2121 13.6655 60.4375 13.0934C60.663 12.5212 61.011 12.0047 61.4575 11.5796C61.9039 11.1545 62.438 10.8311 63.0228 10.6318C63.6075 10.4325 64.2289 10.3621 64.8438 10.4254C67.0845 10.6562 68.7725 12.6164 68.6549 14.853C68.6007 15.9031 68.1553 16.8956 67.4054 17.6371C66.6555 18.3787 65.6548 18.8162 64.5981 18.8646C64.3606 18.8716 64.123 18.8544 63.8891 18.8133C63.7699 18.7938 63.6481 18.7789 63.5278 18.7691C63.5087 18.7691 63.4896 18.7661 63.4705 18.7655C63.4324 18.763 63.3947 18.7615 63.357 18.7599C62.8183 18.7424 62.2816 18.8342 61.7798 19.0298C61.278 19.2253 60.8215 19.5204 60.4382 19.8972C60.4382 19.8972 56.8774 22.8725 56.7097 23.0603C56.2859 23.5349 56.0434 24.1425 56.0245 24.7768C56.0057 25.4112 56.2116 26.0319 56.6065 26.5306C56.7401 26.6989 60.6214 30.4847 60.6214 30.4847C61.2313 31.0201 62.0149 31.3189 62.8286 31.3265H62.8456C63.044 31.3267 63.2421 31.313 63.4385 31.2855C63.5836 31.2656 63.7274 31.2381 63.8695 31.2029C64.4817 31.1174 65.1054 31.1654 65.6971 31.3436C66.2889 31.5218 66.8345 31.8259 67.2961 32.2348C67.7577 32.6437 68.1242 33.1476 68.3702 33.7117C68.6161 34.2754 68.7356 34.8859 68.7204 35.5002L68.7189 35.4962Z" fill="white"/>
<path d="M51.845 18.8026C54.2071 18.8026 56.1221 16.8991 56.1221 14.551C56.1221 12.2028 54.2071 10.2993 51.845 10.2993C49.4828 10.2993 47.5679 12.2028 47.5679 14.551C47.5679 16.8991 49.4828 18.8026 51.845 18.8026Z" fill="white"/>
<path d="M64.4802 29.263C66.8424 29.263 68.7573 27.3595 68.7573 25.0114C68.7573 22.6633 66.8424 20.7598 64.4802 20.7598C62.118 20.7598 60.2031 22.6633 60.2031 25.0114C60.2031 27.3595 62.118 29.263 64.4802 29.263Z" fill="white"/>
<path d="M51.845 39.7015C54.2071 39.7015 56.1221 37.7979 56.1221 35.45C56.1221 33.1017 54.2071 31.1982 51.845 31.1982C49.4828 31.1982 47.5679 33.1017 47.5679 35.45C47.5679 37.7979 49.4828 39.7015 51.845 39.7015Z" fill="white"/>
</g>
<path d="M77.1925 14.5H81.3441V20.8535L83.2313 22.7314L89.3328 14.5H93.8934L85.9361 25.3604L94.9313 35.1566H89.9303L81.3441 26.2055L81.3128 35.1566H77.1611L77.1925 14.5Z" fill="white"/>
<path d="M96.8164 14.5H100.968V35.1566H96.8164V14.5Z" fill="white"/>
<path d="M108.057 35.4697C107.093 35.4697 106.212 35.2713 105.415 34.875C104.618 34.4576 103.99 33.884 103.528 33.1534C103.088 32.4024 102.868 31.547 102.868 30.5871C102.868 29.0849 103.35 27.9164 104.315 27.0818C105.3 26.2471 106.694 25.7464 108.498 25.5795C109.672 25.4751 111.223 25.423 113.152 25.423C113.131 24.4632 112.88 23.6911 112.397 23.1069C111.936 22.5227 111.192 22.2306 110.165 22.2306C109.368 22.2306 108.665 22.4497 108.057 22.8879C107.47 23.3052 107.114 23.8894 106.988 24.6405H103.214C103.339 23.3886 103.738 22.3349 104.409 21.4794C105.101 20.6239 105.95 19.998 106.956 19.6015C107.963 19.1842 109.043 18.9756 110.196 18.9756C112.502 18.9756 114.263 19.6642 115.48 21.0413C116.696 22.3975 117.304 24.3276 117.304 26.8314V35.1566H113.152V32.2459C112.733 33.2058 112.104 33.9882 111.265 34.5931C110.427 35.1776 109.357 35.4697 108.057 35.4697ZM106.925 30.2116C106.925 30.9001 107.155 31.4218 107.617 31.7765C108.099 32.1103 108.686 32.2772 109.378 32.2772C110.51 32.2772 111.423 31.8808 112.114 31.0879C112.827 30.2742 113.173 29.2309 113.152 27.9581C112.817 27.9164 112.261 27.8955 111.485 27.8955C110.71 27.8955 110.133 27.9164 109.756 27.9581C107.868 28.1459 106.925 28.897 106.925 30.2116Z" fill="white"/>
<path d="M119.176 19.2891H123.359V21.4174C123.863 20.708 124.544 20.1759 125.404 19.8212C126.263 19.4456 127.196 19.2578 128.203 19.2578C128.601 19.2578 128.989 19.2891 129.366 19.3517L128.706 23.2014C128.14 23.0344 127.574 22.951 127.008 22.951C125.959 22.951 125.079 23.2327 124.366 23.796C123.674 24.3594 123.328 25.2253 123.328 26.3938L123.359 35.1571H119.176V19.2891Z" fill="white"/>
<path d="M137.691 35.5011C136.244 35.5011 134.934 35.1358 133.76 34.4056C132.607 33.6753 131.694 32.6842 131.024 31.4322C130.373 30.1803 130.048 28.8032 130.048 27.3009C130.048 25.5899 130.373 24.1085 131.024 22.8566C131.694 21.6046 132.596 20.6449 133.728 19.9772C134.86 19.3095 136.14 18.9756 137.565 18.9756C140.207 18.9756 142.136 20.0293 143.352 22.1367V14.5H147.315V35.1566H143.384V32.3086C142.776 33.3727 141.99 34.1761 141.025 34.7184C140.061 35.24 138.949 35.5011 137.691 35.5011ZM134.2 27.2696C134.2 28.1459 134.399 28.9388 134.798 29.6482C135.217 30.3577 135.772 30.9106 136.465 31.307C137.156 31.7035 137.911 31.9017 138.729 31.9017C139.547 31.9017 140.291 31.7035 140.962 31.307C141.654 30.9106 142.199 30.3681 142.598 29.6795C142.996 28.9701 143.195 28.1668 143.195 27.2696C143.195 25.8299 142.765 24.6823 141.906 23.8268C141.046 22.9505 139.977 22.5123 138.697 22.5123C137.398 22.5123 136.318 22.9609 135.458 23.8581C134.619 24.7345 134.2 25.8716 134.2 27.2696Z" fill="white"/>
<path d="M154.402 35.4697C153.437 35.4697 152.557 35.2713 151.76 34.875C150.963 34.4576 150.334 33.884 149.873 33.1534C149.433 32.4024 149.212 31.547 149.212 30.5871C149.212 29.0849 149.695 27.9164 150.659 27.0818C151.645 26.2471 153.039 25.7464 154.842 25.5795C156.017 25.4751 157.568 25.423 159.497 25.423C159.476 24.4632 159.224 23.6911 158.742 23.1069C158.281 22.5227 157.537 22.2306 156.509 22.2306C155.712 22.2306 155.01 22.4497 154.402 22.8879C153.815 23.3052 153.458 23.8894 153.332 24.6405H149.558C149.684 23.3886 150.082 22.3349 150.754 21.4794C151.446 20.6239 152.295 19.998 153.301 19.6015C154.308 19.1842 155.387 18.9756 156.541 18.9756C158.847 18.9756 160.608 19.6642 161.824 21.0413C163.04 22.3975 163.649 24.3276 163.649 26.8314V35.1566H159.497V32.2459C159.078 33.2058 158.449 33.9882 157.61 34.5931C156.771 35.1776 155.702 35.4697 154.402 35.4697ZM153.27 30.2116C153.27 30.9001 153.5 31.4218 153.962 31.7765C154.444 32.1103 155.031 32.2772 155.723 32.2772C156.855 32.2772 157.767 31.8808 158.459 31.0879C159.172 30.2742 159.518 29.2309 159.497 27.9581C159.162 27.9164 158.606 27.8955 157.83 27.8955C157.054 27.8955 156.478 27.9164 156.1 27.9581C154.213 28.1459 153.27 28.897 153.27 30.2116Z" fill="white"/>
<path d="M173.301 29.2397H173.271C171.541 29.2397 170.14 30.6415 170.14 32.3706C170.14 34.0997 171.541 35.5015 173.271 35.5015H173.301C175.03 35.5015 176.432 34.0997 176.432 32.3706C176.432 30.6415 175.03 29.2397 173.301 29.2397Z" fill="white"/>
</svg>
