<svg width="495" height="139" viewBox="0 0 495 139" fill="none" xmlns="http://www.w3.org/2000/svg">
<path d="M326.176 49.5186C328.36 49.5186 330.544 49.5186 332.794 49.5186C333.175 50.2607 333.556 51.0029 333.949 51.7675C335.008 53.8294 335.008 53.8294 336.077 55.8863C336.127 55.9831 336.177 56.08 336.229 56.1797C336.57 56.8286 336.948 57.4494 337.344 58.0663C337.386 57.9798 337.429 57.8933 337.474 57.8042C338.418 55.9022 339.381 54.0138 340.377 52.138C340.832 51.2736 341.287 50.4092 341.755 49.5186C343.985 49.5186 346.214 49.5186 348.511 49.5186C348.511 56.616 348.511 63.7134 348.511 71.0259C346.827 71.0259 345.144 71.0259 343.41 71.0259C343.364 66.7037 343.319 62.3816 343.272 57.9285C341.443 61.5808 341.443 61.5808 339.669 65.2588C339.585 65.4358 339.499 65.6117 339.412 65.7869C338.047 65.7869 336.682 65.7869 335.276 65.7869C334.557 64.4723 333.887 63.1443 333.249 61.789C332.657 60.5368 332.035 59.3064 331.415 58.0663C331.37 62.343 331.324 66.6196 331.277 71.0259C329.594 71.0259 327.911 71.0259 326.176 71.0259C326.176 63.9285 326.176 56.8311 326.176 49.5186Z" fill="white"/>
<path d="M108.475 65.4121C108.475 65.4098 108.475 65.4075 108.475 65.4052C108.573 65.4148 108.693 65.4218 108.836 65.4218C109.079 65.554 109.329 65.6699 109.581 65.7841C110.656 66.8007 111.052 68.3469 111.125 69.7783C111.193 73.6187 110.316 77.3155 108.753 80.8125C108.71 80.9091 108.668 81.0059 108.624 81.1054C107.65 83.2601 106.313 85.241 104.755 87.0166C104.652 87.1351 104.548 87.2538 104.442 87.3759C104.137 87.7199 103.827 88.0588 103.514 88.3955C103.43 88.487 103.346 88.5785 103.259 88.6728C102.044 89.9454 100.566 91.0126 99.102 91.9804C98.9087 92.109 98.9085 92.1091 98.7114 92.2402C95.8098 94.1003 92.5684 95.2721 89.1753 95.8408C89.0352 95.8649 88.8948 95.8892 88.7505 95.914C88.07 95.9955 87.3992 96.0066 86.7143 96.0117C86.57 96.0128 86.4255 96.0135 86.2768 96.0146C85.9708 96.0165 85.6639 96.0184 85.3579 96.0195C85.051 96.0211 84.7439 96.0232 84.437 96.0273C77.4397 96.1207 71.0668 93.4227 66.0513 88.5683C63.6222 86.1771 61.8507 83.353 60.4878 80.2431C60.4351 80.124 60.3829 80.0045 60.3286 79.8818C59.998 79.1007 59.6748 78.305 59.8901 77.4492C60.202 76.8826 60.487 76.4785 61.0483 76.124H61.3198C61.4395 76.3773 61.5773 76.6228 61.7348 76.8564C65.2097 76.9753 68.1798 75.0641 70.8843 73.0576C71.2054 72.818 71.527 72.5792 71.8511 72.3437C73.7539 70.969 75.6168 69.5568 77.3237 67.9414C77.9389 67.3569 78.5439 66.761 79.228 66.2568C79.8002 65.9029 80.3786 65.8189 81.0376 65.9638C81.6396 66.5658 81.7734 67.3825 81.7749 68.2021C81.7729 68.3078 81.7709 68.411 81.769 68.5136C81.7678 68.8659 81.7665 69.218 81.7622 69.5703C81.7591 69.8218 81.7568 70.0736 81.7554 70.3252C81.7527 70.9879 81.7486 71.6507 81.7427 72.3134C81.7328 73.3941 81.7237 74.4749 81.7182 75.5556C81.7164 75.9359 81.7146 76.316 81.7104 76.6963C81.7077 76.9361 81.7051 77.1762 81.7036 77.416C81.703 77.5305 81.7032 77.6417 81.7026 77.7529C81.6897 78.5629 81.7701 79.2477 82.0024 80.0273C82.3053 80.6106 82.6337 81.0064 83.228 81.3105C84.2632 81.6492 85.302 81.3965 86.2768 80.9922C86.344 80.9251 86.4109 80.8581 86.4145 80.8545C86.4145 80.8545 86.9406 80.4631 87.2505 80.1972C87.3413 80.1015 87.4299 80.008 87.5181 79.915C87.6088 79.8204 87.6966 79.7285 87.7847 79.6367C87.9822 79.4291 88.1828 79.2243 88.3852 79.0215C88.6302 78.7769 88.8746 78.5316 89.1186 78.2861C89.3882 78.0147 89.6583 77.7437 89.9282 77.4726C90.0755 77.3248 90.2224 77.1762 90.3696 77.0283C91.2757 76.1148 92.1857 75.2154 93.1489 74.3613C93.3269 74.2037 93.5048 74.0452 93.6802 73.8847C97.4004 70.4266 102.576 65.412 107.975 65.3867C108.145 65.3955 108.31 65.4035 108.475 65.4121ZM72.6128 45.3613C81.9783 40.7464 93.6042 41.8675 101.577 48.7627C102.001 49.1421 102.414 49.5336 102.825 49.9277C102.899 49.9981 102.973 50.069 103.049 50.1416C105.669 52.6393 109.281 56.9861 109.52 60.7422C109.393 61.5469 108.946 62.0868 108.339 62.6123H108.064C108.067 62.6347 108.071 62.6573 108.075 62.6797C108.064 62.634 108.057 62.6045 108.057 62.6045C108.057 62.6045 108.057 62.6045 107.919 62.6045C107.65 62.1412 107.482 62.0001 106.967 61.8359C103.999 61.6472 103.999 61.6479 97.1841 66.7129C97.0853 66.7864 96.9889 66.8573 96.8931 66.9287C96.2416 67.4108 95.5919 67.8951 94.9468 68.3857C94.8585 68.4528 94.7726 68.5188 94.687 68.5839C93.7553 69.2883 92.849 70.0008 91.9985 70.8027C91.2624 71.5004 90.5315 72.3155 89.5854 72.7197C88.9953 72.8394 88.5429 72.8347 88.0171 72.5302C87.3004 70.6556 87.3006 70.6554 87.3657 68.6181C87.3715 68.3784 87.3762 68.1382 87.3804 67.8984C87.3902 67.2666 87.4022 66.6346 87.4155 66.0029C87.4374 64.9711 87.4554 63.9391 87.4731 62.9072C87.4793 62.5442 87.4859 62.1813 87.4936 61.8183C87.4986 61.5896 87.5039 61.3605 87.5083 61.1318C87.5103 61.0233 87.5122 60.9178 87.5141 60.8125C87.5228 60.4603 87.5244 60.1123 87.5181 59.7597C87.345 58.868 86.991 58.1674 86.2505 57.622C84.4764 56.5487 82.733 57.8729 81.4907 59.1386C80.8027 59.8536 80.1218 60.5725 79.3696 61.2207C78.9126 61.6128 78.4848 62.0254 78.062 62.4541C74.1646 66.4258 69.609 70.8315 64.3208 72.8632C64.1917 72.9082 64.0662 72.9514 63.9409 72.9951C62.9687 73.3338 62.1089 73.4513 61.0786 73.4238C60.9741 73.4189 60.8724 73.4139 60.771 73.4091C60.7717 73.3952 60.7721 73.3812 60.7729 73.3672C60.6791 73.3643 60.5845 73.3613 60.4878 73.3584C59.8617 73.1584 59.5062 72.7862 59.1177 72.2636C57.2961 68.7275 58.3987 64.0217 59.5317 60.4062C61.7392 53.8881 66.4803 48.4651 72.6128 45.3613Z" fill="white"/>
<path d="M248.276 49.5223C251.074 49.5095 251.074 49.5095 253.928 49.4965C254.513 49.4927 255.097 49.4889 255.7 49.4851C256.425 49.4832 256.425 49.4832 256.767 49.4828C257 49.4822 257.234 49.4808 257.468 49.4787C259.736 49.4591 262.23 49.4862 264.044 51.0443C265.237 52.2849 265.557 53.7271 265.538 55.4027C265.459 56.6682 264.965 57.823 264.036 58.7045C263.841 58.8648 263.641 59.0194 263.441 59.1731C263.396 59.264 263.35 59.355 263.303 59.4488C263.474 59.4872 263.474 59.4872 263.648 59.5263C264.819 60.0071 265.53 60.9475 266.061 62.0683C266.654 63.514 266.736 65.3724 266.204 66.8522C265.483 68.4485 264.478 69.5783 262.89 70.3403C261.577 70.8304 260.33 71.0518 258.935 71.0453C258.817 71.0453 258.699 71.0454 258.578 71.0454C258.2 71.0453 257.822 71.0442 257.445 71.0431C257.21 71.0429 256.976 71.0428 256.741 71.0427C255.875 71.042 255.01 71.0401 254.144 71.0383C252.207 71.0354 250.271 71.0326 248.276 71.0297C248.276 63.9322 248.276 56.8348 248.276 49.5223ZM253.653 53.7962C253.653 55.1611 253.653 56.526 253.653 57.9322C254.359 57.945 255.065 57.9559 255.772 57.9625C256.011 57.9653 256.251 57.9691 256.491 57.9738C256.838 57.9806 257.184 57.9837 257.53 57.9861C257.689 57.9904 257.689 57.9904 257.851 57.9947C258.621 57.995 259.216 57.8169 259.857 57.3808C260.33 56.775 260.342 56.1432 260.318 55.3989C260.248 54.8699 260.09 54.5906 259.719 54.2098C258.97 53.8146 258.382 53.739 257.544 53.7558C257.376 53.7567 257.376 53.7567 257.205 53.7576C256.851 53.7599 256.497 53.7651 256.143 53.7704C255.902 53.7724 255.66 53.7743 255.419 53.776C254.83 53.7802 254.242 53.7883 253.653 53.7962ZM253.653 61.7925C253.653 63.4759 253.653 65.1593 253.653 66.8936C254.843 66.9022 254.843 66.9022 256.057 66.9109C256.429 66.9146 256.429 66.9146 256.808 66.9185C257.008 66.9193 257.209 66.92 257.409 66.9206C257.56 66.9227 257.56 66.9227 257.715 66.9248C258.8 66.9252 259.836 66.7931 260.684 66.0664C261.268 65.3071 261.182 64.36 261.098 63.447C260.843 62.6836 260.413 62.2898 259.709 61.917C259.136 61.7404 258.597 61.7586 258.001 61.7656C257.877 61.766 257.752 61.7664 257.624 61.7668C257.228 61.7683 256.832 61.7718 256.436 61.7753C256.167 61.7767 255.898 61.7779 255.628 61.7791C254.97 61.7819 254.311 61.7873 253.653 61.7925Z" fill="white"/>
<path d="M122.801 49.5186C124.803 49.5186 126.804 49.5186 128.867 49.5186C130.129 50.7803 130.129 50.7803 130.511 51.788C130.746 52.3432 131.108 52.7762 131.486 53.241C132.09 54.0264 132.655 54.8332 133.21 55.6537C133.825 56.564 134.457 57.4552 135.13 58.3243C135.89 59.3148 136.566 60.3409 137.277 61.3752C137.322 57.4625 137.368 53.5498 137.415 49.5186C138.962 49.5186 140.508 49.5186 142.102 49.5186C142.102 56.616 142.102 63.7134 142.102 71.0259C140.601 71.0259 139.099 71.0259 137.553 71.0259C136.881 70.1864 136.227 69.3575 135.605 68.484C134.974 67.6031 134.337 66.7272 133.692 65.8559C133.067 65.0094 132.446 64.1596 131.831 63.3053C131.204 62.4344 130.572 61.5671 129.935 60.7031C129.861 60.6016 129.786 60.5001 129.709 60.3956C129.065 59.5236 128.414 58.6577 127.764 57.7906C127.719 62.1583 127.673 66.5259 127.626 71.0259C126.034 71.0259 124.441 71.0259 122.801 71.0259C122.801 63.9285 122.801 56.8311 122.801 49.5186Z" fill="white"/>
<path d="M197.862 52.0696C198.828 52.9799 199.596 53.9623 200.156 55.17C199.536 55.4853 198.915 55.7994 198.294 56.1125C198.083 56.2192 197.871 56.3262 197.66 56.4335C197.357 56.5876 197.054 56.7406 196.75 56.8934C196.655 56.9416 196.561 56.9899 196.464 57.0396C196.06 57.2418 195.789 57.3759 195.331 57.3759C195.153 57.1734 195.153 57.1734 194.969 56.8934C193.964 55.4937 192.708 54.6695 191.011 54.3778C189.252 54.2102 187.595 54.7467 186.232 55.8594C185.178 56.826 184.493 58.1402 184.406 59.5737C184.359 61.526 184.705 63.0562 186.063 64.5364C187.402 65.8074 188.935 66.1311 190.717 66.0993C192.142 66.038 193.455 65.5223 194.504 64.545C194.69 64.2713 194.875 63.9958 195.055 63.7178C194.901 63.7186 194.747 63.7193 194.589 63.72C194.02 63.7225 193.452 63.7241 192.883 63.7254C192.637 63.7261 192.39 63.727 192.144 63.7282C191.79 63.7299 191.437 63.7307 191.083 63.7313C190.917 63.7324 190.917 63.7324 190.747 63.7335C190.483 63.7335 190.218 63.7264 189.954 63.7178C189.908 63.6723 189.863 63.6268 189.816 63.58C189.816 62.1696 189.816 60.7592 189.816 59.3061C193.592 59.3061 197.368 59.3061 201.259 59.3061C201.259 62.7901 200.585 65.6523 198.147 68.2255C196.186 70.0862 193.645 71.3208 190.919 71.4384C190.817 71.4439 190.715 71.4494 190.61 71.4551C187.6 71.5389 184.898 70.5156 182.647 68.5432C182.552 68.4614 182.457 68.3797 182.359 68.2955C180.399 66.4822 179.159 63.6992 179.009 61.0493C178.96 59.4706 179.118 58.0471 179.614 56.5487C179.655 56.4206 179.697 56.2924 179.739 56.1604C180.286 54.6489 181.255 53.4103 182.371 52.2748C182.466 52.1783 182.561 52.0818 182.658 51.9824C186.95 47.8979 193.531 48.4033 197.862 52.0696Z" fill="white"/>
<path d="M374.567 49.5186C387.785 49.5186 387.785 49.5186 390.422 51.5866C390.559 51.6928 390.695 51.7991 390.836 51.9086C392.687 53.4664 393.514 56.0905 393.834 58.411C394.106 61.8966 393.573 65.475 391.275 68.2206C389.71 69.8999 387.709 70.7484 385.459 71.0259C385.088 71.0375 384.721 71.0434 384.35 71.0416C384.187 71.0416 384.187 71.0416 384.022 71.0416C383.675 71.0415 383.329 71.0405 382.982 71.0394C382.767 71.0392 382.552 71.039 382.336 71.0389C381.542 71.0382 380.747 71.0363 379.953 71.0345C378.176 71.0317 376.398 71.0288 374.567 71.0259C374.567 63.9285 374.567 56.8311 374.567 49.5186ZM379.944 54.0682C379.944 58.2083 379.944 62.3485 379.944 66.6141C383.714 66.8198 383.714 66.8198 386.941 65.3302C388.429 63.5534 388.623 61.5475 388.492 59.3072C388.329 57.7068 387.893 56.2099 386.684 55.0973C384.749 53.5923 382.29 54.0682 379.944 54.0682Z" fill="white"/>
<path d="M240.287 51.3095C242.72 53.1911 244.168 55.8767 244.625 58.9073C244.947 61.8474 244.077 64.8423 242.251 67.1677C240.383 69.4342 237.711 70.97 234.772 71.3003C231.459 71.4974 228.541 70.7573 225.989 68.5531C223.816 66.6066 222.421 63.8865 222.226 60.9603C222.219 60.8545 222.212 60.7488 222.204 60.6398C222.1 57.741 223.136 54.9734 225.035 52.8002C225.245 52.5767 225.458 52.3554 225.673 52.1367C225.767 52.0402 225.862 51.9437 225.96 51.8443C229.901 48.093 236.009 48.3126 240.287 51.3095ZM228.845 56.2049C227.61 57.7371 227.309 59.3072 227.465 61.236C227.789 62.8667 228.715 64.2871 230.084 65.2342C231.684 66.144 233.135 66.4497 234.956 66.1147C236.644 65.6124 237.9 64.5477 238.77 63.0283C239.511 61.5378 239.577 59.7418 239.115 58.1512C238.452 56.4572 237.269 55.2552 235.634 54.4977C233.163 53.5509 230.63 54.3048 228.845 56.2049Z" fill="white"/>
<path d="M353.349 49.5186C358.627 49.5186 363.904 49.5186 369.342 49.5186C369.342 50.9744 369.342 52.4303 369.342 53.9303C365.793 53.9303 362.244 53.9303 358.588 53.9303C358.588 55.2952 358.588 56.6601 358.588 58.0663C361.727 58.0663 364.867 58.0663 368.101 58.0663C368.101 59.6132 368.101 61.1601 368.101 62.7538C364.962 62.7538 361.822 62.7538 358.588 62.7538C358.588 63.9822 358.588 65.2106 358.588 66.4763C362.455 66.4763 366.322 66.4763 370.307 66.4763C370.307 67.9776 370.307 69.479 370.307 71.0259C364.711 71.0259 359.115 71.0259 353.349 71.0259C353.349 63.9285 353.349 56.8311 353.349 49.5186Z" fill="white"/>
<path d="M415.933 49.5186C417.662 49.5186 419.391 49.5186 421.172 49.5186C422.285 51.9041 422.285 51.9041 422.727 52.8807C422.777 52.9927 422.828 53.1048 422.88 53.2202C423.044 53.5804 423.206 53.9406 423.369 54.3008C423.426 54.4266 423.483 54.5524 423.542 54.682C424.368 56.5102 425.188 58.3415 426.001 60.1759C426.897 62.1977 427.803 64.2149 428.712 66.231C428.808 66.4447 428.904 66.6583 429.001 66.8721C429.263 67.4547 429.527 68.0364 429.794 68.617C429.851 68.743 429.909 68.869 429.968 68.9988C430.079 69.2424 430.191 69.4858 430.304 69.7288C430.354 69.8384 430.403 69.948 430.455 70.0608C430.499 70.1575 430.544 70.2542 430.59 70.3538C430.685 70.6123 430.685 70.6123 430.685 71.0259C428.956 71.0259 427.227 71.0259 425.446 71.0259C425.045 70.1686 425.045 70.1686 424.636 69.2939C424.552 69.1156 424.468 68.9372 424.382 68.7535C424.315 68.6103 424.249 68.4672 424.18 68.3197C424.112 68.1746 424.045 68.0295 423.975 67.88C423.791 67.4413 423.791 67.4413 423.516 66.4763C420.194 66.5218 416.873 66.5673 413.451 66.6141C412.769 68.0245 412.086 69.4349 411.383 70.888C411.245 71.0259 411.245 71.0259 410.774 71.0416C410.565 71.0415 410.356 71.0407 410.146 71.0394C410.036 71.0392 409.926 71.039 409.813 71.0388C409.46 71.038 409.108 71.0363 408.755 71.0345C408.517 71.0338 408.278 71.0332 408.04 71.0326C407.454 71.0311 406.868 71.0287 406.282 71.0259C406.497 70.3308 406.779 69.6814 407.08 69.0209C407.158 68.8496 407.158 68.8496 407.237 68.6748C407.407 68.3008 407.577 67.9271 407.747 67.5534C407.866 67.2914 407.985 67.0293 408.104 66.7673C408.879 65.0593 409.66 63.3539 410.441 61.649C411.178 60.0425 411.898 58.4292 412.613 56.813C413.694 54.3696 414.813 51.9446 415.933 49.5186ZM418.552 54.7575C418.489 54.9056 418.425 55.0536 418.359 55.2061C418.119 55.7604 417.88 56.3146 417.64 56.8688C417.537 57.1077 417.434 57.3466 417.331 57.5856C417.181 57.931 417.032 58.2763 416.883 58.6216C416.838 58.7268 416.792 58.8319 416.745 58.9403C416.701 59.0423 416.657 59.1444 416.612 59.2495C416.569 59.3491 416.526 59.4487 416.481 59.5513C416.387 59.7675 416.289 59.9827 416.191 60.1971C416.115 60.3621 416.115 60.3621 416.037 60.5305C415.991 60.6297 415.945 60.7289 415.897 60.8311C415.771 61.1161 415.771 61.1161 415.795 61.513C417.66 61.513 419.526 61.513 421.448 61.513C421.134 60.555 421.134 60.555 420.772 59.6251C420.725 59.5148 420.678 59.4045 420.63 59.2908C420.581 59.1766 420.532 59.0624 420.481 58.9447C420.404 58.7637 420.404 58.7637 420.325 58.5791C420.163 58.1983 419.999 57.8178 419.836 57.4373C419.725 57.1773 419.614 56.9173 419.503 56.6572C419.233 56.0238 418.962 55.3906 418.69 54.7575C418.645 54.7575 418.599 54.7575 418.552 54.7575Z" fill="white"/>
<path d="M278.2 49.5186C279.929 49.5186 281.658 49.5186 283.439 49.5186C283.593 49.8825 283.746 50.2465 283.904 50.6215C284.64 52.3473 285.415 54.0551 286.187 55.7649C286.93 57.4113 287.666 59.0603 288.398 60.7117C288.934 61.9214 289.474 63.1296 290.018 64.3356C290.101 64.5184 290.101 64.5184 290.185 64.705C290.45 65.2929 290.716 65.8805 290.982 66.4679C291.665 67.977 292.314 69.4972 292.952 71.0259C291.178 71.0259 289.403 71.0259 287.575 71.0259C286.688 68.9751 286.688 68.9751 286.408 68.3284C286.335 68.1594 286.262 67.9905 286.188 67.8216C286.15 67.7337 286.112 67.6458 286.073 67.5552C285.868 67.0807 285.868 67.0807 285.645 66.6141C282.324 66.6141 279.003 66.6141 275.581 66.6141C274.496 68.7977 274.496 68.7977 273.513 71.0259C271.829 71.0259 270.146 71.0259 268.412 71.0259C269.256 69.0466 270.139 67.0909 271.048 65.1407C271.887 63.3413 272.712 61.5373 273.513 59.7208C274.716 56.9919 275.974 54.2889 277.235 51.5866C277.713 50.5629 277.713 50.5629 278.2 49.5186ZM280.682 54.8954C280.333 55.6824 279.984 56.4697 279.637 57.2574C279.518 57.5251 279.4 57.7927 279.281 58.0601C279.11 58.4456 278.94 58.8313 278.77 59.2172C278.717 59.3359 278.664 59.4545 278.61 59.5768C278.535 59.7464 278.535 59.7464 278.459 59.9195C278.394 60.0669 278.394 60.0669 278.328 60.2173C278.165 60.6394 278.049 61.0781 277.924 61.513C279.835 61.513 281.746 61.513 283.715 61.513C282.838 59.2879 281.907 57.0901 280.958 54.8954C280.867 54.8954 280.776 54.8954 280.682 54.8954Z" fill="white"/>
<path d="M163.612 51.863C163.693 51.9245 163.774 51.9859 163.858 52.0493C164.755 52.7484 165.664 53.8371 166.093 54.8961C166.093 55.0325 166.093 55.169 166.093 55.3097C165.516 55.6088 164.937 55.9058 164.357 56.2008C164.159 56.3014 163.963 56.4027 163.766 56.5045C163.483 56.6508 163.2 56.795 162.916 56.9388C162.828 56.9847 162.741 57.0307 162.65 57.078C162.295 57.256 162.037 57.3844 161.634 57.3503C161.325 57.2007 161.207 57.0168 161.018 56.7314C160.176 55.5582 158.99 54.749 157.546 54.4825C155.728 54.3395 154.141 54.6787 152.72 55.8611C151.566 56.9435 150.911 58.2803 150.79 59.8593C150.772 61.5862 151.27 63.0019 152.444 64.2711C153.566 65.4074 154.882 65.9199 156.469 65.9772C158.132 65.9463 159.451 65.4196 160.605 64.2371C161.036 63.7671 161.419 63.3406 161.682 62.7545C162.244 62.8388 162.672 63.0232 163.173 63.2882C163.324 63.3674 163.474 63.4466 163.63 63.5281C163.786 63.6112 163.942 63.6943 164.103 63.7799C164.413 63.9434 164.724 64.107 165.034 64.2705C165.171 64.3433 165.308 64.416 165.45 64.491C165.754 64.6514 166.06 64.8079 166.369 64.9604C165.906 66.0066 165.329 66.8577 164.577 67.7177C164.505 67.8027 164.433 67.8876 164.359 67.9752C162.764 69.723 160.238 70.857 157.912 71.0684C157.45 71.0866 156.991 71.0911 156.529 71.0869C156.366 71.0857 156.203 71.0846 156.035 71.0834C153.508 71.0346 151.336 70.1947 149.411 68.545C149.33 68.4835 149.249 68.422 149.165 68.3586C147.01 66.6794 145.88 63.868 145.551 61.238C145.372 58.2404 146.119 55.5763 148.033 53.2416C148.145 53.0961 148.145 53.0961 148.259 52.9476C149.98 50.8174 152.656 49.6355 155.322 49.2693C158.382 49.0664 161.263 49.8501 163.612 51.863Z" fill="white"/>
<path d="M295.425 49.5186C297.2 49.5186 298.974 49.5186 300.802 49.5186C300.802 55.1146 300.802 60.7106 300.802 66.4763C304.305 66.4763 307.809 66.4763 311.418 66.4763C311.418 67.9322 311.418 69.388 311.418 70.888C306.14 70.888 300.863 70.888 295.425 70.888C295.425 63.8361 295.425 56.7842 295.425 49.5186Z" fill="white"/>
<path d="M204.155 49.5186C205.93 49.5186 207.704 49.5186 209.532 49.5186C209.532 55.1146 209.532 60.7106 209.532 66.4763C213.035 66.4763 216.539 66.4763 220.148 66.4763C220.148 67.9322 220.148 69.388 220.148 70.888C214.87 70.888 209.593 70.888 204.155 70.888C204.155 63.8361 204.155 56.7842 204.155 49.5186Z" fill="white"/>
<path d="M398.009 49.5186C399.784 49.5186 401.558 49.5186 403.386 49.5186C403.386 56.616 403.386 63.7134 403.386 71.0259C401.612 71.0259 399.837 71.0259 398.009 71.0259C398.009 63.9285 398.009 56.8311 398.009 49.5186Z" fill="white"/>
<path d="M241.518 79.0282C242.587 79.0169 243.656 79.0055 244.757 78.9938C245.093 78.9887 245.428 78.9837 245.774 78.9785C246.043 78.9769 246.311 78.9755 246.58 78.9744C246.717 78.9715 246.854 78.9687 246.996 78.9658C248.096 78.9653 248.826 79.1948 249.635 79.9502C250.097 80.671 250.295 81.3732 250.126 82.225C249.898 82.9659 249.378 83.467 248.825 83.9915C248.924 84.0199 249.024 84.0483 249.126 84.0776C249.764 84.3896 250.094 84.7782 250.322 85.4375C250.535 86.3589 250.511 87.1429 250.065 87.9896C249.524 88.6653 248.827 89.0069 247.997 89.2304C247.488 89.2834 246.984 89.2789 246.472 89.2708C246.283 89.2702 246.283 89.2702 246.09 89.2696C245.623 89.2674 245.156 89.2616 244.689 89.2563C243.642 89.2477 242.596 89.2392 241.518 89.2304C241.518 85.8637 241.518 82.497 241.518 79.0282ZM243.723 80.8205C243.723 81.5939 243.723 82.3674 243.723 83.1643C244.235 83.1754 244.746 83.1836 245.257 83.1901C245.474 83.1953 245.474 83.1953 245.695 83.2006C246.469 83.208 247.061 83.2099 247.722 82.7507C247.937 82.3192 247.956 81.8392 247.859 81.372C247.56 80.9896 247.402 80.8356 246.916 80.7579C246.769 80.7608 246.622 80.7637 246.47 80.7666C246.23 80.7693 246.23 80.7693 245.985 80.772C245.819 80.7767 245.653 80.7813 245.481 80.786C245.313 80.7885 245.144 80.791 244.971 80.7936C244.555 80.8001 244.139 80.81 243.723 80.8205ZM243.723 84.8187C243.723 85.6831 243.723 86.5475 243.723 87.4381C244.307 87.4493 244.889 87.4575 245.473 87.464C245.72 87.4692 245.72 87.4692 245.973 87.4745C246.212 87.4765 246.212 87.4765 246.457 87.4785C246.676 87.4818 246.676 87.4818 246.901 87.4851C247.367 87.4314 247.622 87.3014 247.997 87.0245C248.235 86.5489 248.204 86.0282 248.135 85.508C247.832 85.09 247.66 84.9818 247.17 84.8187C246.906 84.8073 246.641 84.8039 246.376 84.8052C246.145 84.8059 246.145 84.8059 245.909 84.8065C245.748 84.8077 245.587 84.8089 245.421 84.81C245.258 84.8107 245.096 84.8113 244.928 84.8119C244.527 84.8136 244.125 84.816 243.723 84.8187Z" fill="white"/>
<path d="M122.526 79.0215C123.027 79.0215 123.527 79.0215 124.043 79.0215C124.1 79.2301 124.157 79.4388 124.216 79.6538C124.428 80.4293 124.64 81.2047 124.852 81.9801C124.944 82.3155 125.036 82.6509 125.128 82.9863C125.259 83.4689 125.392 83.9514 125.524 84.4339C125.565 84.5834 125.606 84.7329 125.648 84.887C125.686 85.0277 125.725 85.1684 125.765 85.3134C125.798 85.4365 125.832 85.5595 125.867 85.6863C125.983 86.0875 126.117 86.4836 126.249 86.8799C127.204 82.99 127.204 82.99 128.179 79.0215C128.77 79.0215 129.362 79.0215 129.971 79.0215C130.294 79.9485 130.553 80.8783 130.787 81.8311C130.823 81.9762 130.859 82.1213 130.897 82.2709C131.011 82.73 131.124 83.1893 131.238 83.6487C131.316 83.9618 131.393 84.275 131.471 84.5882C131.661 85.352 131.85 86.1159 132.039 86.8799C132.362 85.9534 132.631 85.0178 132.885 84.0703C132.924 83.9252 132.964 83.7801 133.004 83.6306C133.128 83.1714 133.251 82.7121 133.375 82.2528C133.459 81.9396 133.544 81.6264 133.628 81.3133C133.834 80.5494 134.04 79.7855 134.245 79.0215C134.746 79.0215 135.246 79.0215 135.762 79.0215C135.505 79.9427 135.247 80.8638 134.99 81.7849C134.903 82.0966 134.816 82.4083 134.729 82.7201C134.123 84.8924 133.503 87.06 132.866 89.2237C132.32 89.2237 131.775 89.2237 131.212 89.2237C130.916 88.3625 130.66 87.5005 130.431 86.6193C130.398 86.4941 130.366 86.369 130.332 86.2401C130.263 85.9778 130.195 85.7155 130.127 85.4532C130.023 85.0523 129.918 84.6515 129.813 84.2508C129.746 83.9948 129.679 83.7388 129.613 83.4828C129.581 83.3636 129.55 83.2444 129.518 83.1216C129.379 82.5842 129.244 82.0495 129.144 81.5031C128.822 82.4186 128.565 83.3419 128.328 84.2825C128.292 84.4246 128.256 84.5667 128.219 84.713C128.104 85.1624 127.991 85.6119 127.877 86.0614C127.8 86.3679 127.722 86.6744 127.644 86.9809C127.454 87.7284 127.265 88.476 127.076 89.2237C126.485 89.2237 125.893 89.2237 125.284 89.2237C124.944 88.0362 124.605 86.8485 124.266 85.6606C124.109 85.1089 123.952 84.5573 123.794 84.0059C123.641 83.4733 123.489 82.9405 123.338 82.4076C123.28 82.2047 123.222 82.002 123.164 81.7993C123.082 81.5144 123.001 81.2292 122.92 80.9441C122.874 80.7821 122.828 80.6202 122.78 80.4533C122.662 79.9773 122.587 79.5078 122.526 79.0215Z" fill="white"/>
<path d="M148.731 79.0215C151.416 79.0215 154.1 79.0215 156.866 79.0215C156.866 79.6129 156.866 80.2044 156.866 80.8138C154.909 80.8138 152.953 80.8138 150.937 80.8138C150.937 81.5872 150.937 82.3606 150.937 83.1575C152.666 83.1575 154.395 83.1575 156.176 83.1575C156.176 83.7035 156.176 84.2494 156.176 84.8119C154.447 84.8119 152.719 84.8119 150.937 84.8119C150.937 85.6764 150.937 86.5408 150.937 87.4314C152.894 87.4314 154.85 87.4314 156.866 87.4314C156.866 88.0229 156.866 88.6143 156.866 89.2237C154.181 89.2237 151.497 89.2237 148.731 89.2237C148.731 85.857 148.731 82.4902 148.731 79.0215Z" fill="white"/>
<path d="M328.519 78.4707C329.201 78.4707 329.883 78.4707 330.587 78.4707C330.632 79.5626 330.678 80.6545 330.724 81.7795C331.043 81.5975 331.361 81.4156 331.69 81.2281C332.079 81.1715 332.398 81.142 332.784 81.1505C332.881 81.152 332.978 81.1535 333.078 81.1551C333.88 81.1886 334.439 81.333 334.998 81.9174C336.046 83.1873 336.112 84.7516 335.963 86.3292C335.781 87.3603 335.505 88.2235 334.691 88.9163C333.88 89.4819 332.921 89.465 331.965 89.3622C331.379 89.1829 330.884 88.9707 330.449 88.535C330.403 88.7625 330.358 88.99 330.311 89.2244C329.719 89.2244 329.128 89.2244 328.519 89.2244C328.519 85.6757 328.519 82.127 328.519 78.4707ZM330.862 83.5718C330.463 84.5414 330.367 85.771 330.768 86.76C331.113 87.3536 331.113 87.3536 331.701 87.6551C332.216 87.713 332.562 87.7441 333.051 87.5527C333.631 87.0409 333.821 86.538 333.895 85.7777C333.939 84.8748 333.944 83.9665 333.344 83.2358C332.895 82.8848 332.554 82.8267 331.979 82.8351C331.464 82.9194 331.205 83.1964 330.862 83.5718Z" fill="white"/>
<path d="M280.956 78.4707C281.639 78.4707 282.321 78.4707 283.024 78.4707C283.024 82.0194 283.024 85.5681 283.024 89.2244C282.433 89.2244 281.841 89.2244 281.232 89.2244C281.232 88.9969 281.232 88.7694 281.232 88.535C281.159 88.5832 281.085 88.6314 281.01 88.681C280.913 88.7437 280.815 88.8065 280.715 88.8711C280.619 88.9335 280.523 88.9958 280.424 89.0601C279.605 89.5161 278.488 89.518 277.599 89.2728C276.787 88.906 276.211 88.3387 275.85 87.5237C275.373 86.0445 275.336 84.1727 275.993 82.7446C276.305 82.1531 276.705 81.6297 277.314 81.3191C277.79 81.1891 278.26 81.168 278.75 81.1591C278.844 81.1566 278.937 81.154 279.033 81.1513C279.837 81.1614 280.046 81.3384 280.818 81.7795C280.864 80.6876 280.909 79.5957 280.956 78.4707ZM278.061 83.2961C277.518 84.0835 277.571 85.191 277.69 86.1046C277.779 86.5826 277.88 86.9489 278.139 87.3632C278.643 87.6734 279.128 87.7352 279.715 87.7078C280.232 87.4943 280.529 87.2196 280.818 86.7428C281.103 85.8664 281.125 84.6866 280.775 83.8303C280.511 83.3807 280.318 83.1146 279.853 82.8825C279.123 82.8346 278.649 82.8117 278.061 83.2961Z" fill="white"/>
<path d="M300.246 79.0222C301.02 79.0222 301.793 79.0222 302.59 79.0222C302.711 79.368 302.833 79.7139 302.958 80.0702C303.078 80.412 303.198 80.7538 303.318 81.0956C303.4 81.3298 303.482 81.564 303.564 81.7983C303.644 82.0258 303.724 82.2534 303.804 82.4809C303.883 82.7059 303.962 82.9308 304.041 83.1558C304.223 83.6738 304.406 84.191 304.595 84.7064C304.643 84.8398 304.643 84.8398 304.693 84.9759C304.779 85.2124 304.866 85.4486 304.954 85.6847C305.071 86.0534 305.071 86.0534 305.071 86.4671C305.162 86.4671 305.253 86.4671 305.347 86.4671C305.383 86.2921 305.419 86.1171 305.455 85.9369C305.619 85.2004 305.852 84.4956 306.097 83.7829C306.143 83.6504 306.188 83.5178 306.234 83.3812C306.329 83.1035 306.424 82.8259 306.52 82.5485C306.666 82.1219 306.812 81.6949 306.957 81.2679C307.05 80.9976 307.142 80.7272 307.235 80.4569C307.278 80.3288 307.322 80.2007 307.367 80.0687C307.408 79.9513 307.448 79.8339 307.49 79.7129C307.525 79.6092 307.561 79.5055 307.598 79.3986C307.691 79.1601 307.691 79.1601 307.829 79.0222C308.201 79.0121 308.569 79.0095 308.94 79.0136C309.045 79.0142 309.15 79.0148 309.257 79.0155C309.516 79.0171 309.776 79.0196 310.035 79.0222C309.747 80.0211 309.417 80.9988 309.062 81.9756C309.009 82.1221 308.956 82.2685 308.902 82.4195C308.734 82.8841 308.566 83.3486 308.398 83.8131C308.286 84.1226 308.174 84.4321 308.062 84.7416C307.9 85.1898 307.738 85.638 307.576 86.0862C307.198 87.1313 306.823 88.1774 306.45 89.2244C305.631 89.2244 304.812 89.2244 303.969 89.2244C303.477 88.0639 303.019 86.8962 302.583 85.7136C302.52 85.5432 302.457 85.3727 302.393 85.1971C302.261 84.84 302.129 84.4828 301.998 84.1256C301.83 83.6689 301.661 83.2126 301.492 82.7563C301.33 82.3176 301.168 81.8787 301.007 81.4397C300.916 81.195 300.916 81.195 300.823 80.9453C300.768 80.7934 300.712 80.6415 300.654 80.4849C300.605 80.3518 300.556 80.2188 300.506 80.0816C300.384 79.7115 300.384 79.7115 300.246 79.0222Z" fill="white"/>
<path d="M183.494 81.1872C183.607 81.1832 183.72 81.1792 183.837 81.1751C184.655 81.1667 185.257 81.3246 185.941 81.7818C186.672 82.5128 186.8 83.3085 186.825 84.314C186.828 84.4077 186.831 84.5014 186.833 84.598C186.842 84.8943 186.848 85.1906 186.854 85.487C186.86 85.6891 186.865 85.8913 186.87 86.0934C186.884 86.5863 186.895 87.0793 186.906 87.5722C187.316 87.6405 187.316 87.6405 187.733 87.7101C187.733 88.2106 187.733 88.711 187.733 89.2266C186.941 89.4247 186.151 89.5169 185.389 89.1836C185.114 88.9509 185.114 88.9509 184.838 88.5373C184.739 88.6226 184.639 88.7079 184.536 88.7958C183.61 89.4956 182.653 89.4648 181.529 89.3645C180.894 89.202 180.454 88.9256 180.082 88.3822C179.713 87.6213 179.764 86.808 180.021 86.0212C180.711 85.0417 181.394 84.6978 182.571 84.4643C183.284 84.3697 183.983 84.3664 184.7 84.4013C184.661 84.2 184.621 83.999 184.58 83.7981C184.557 83.6861 184.535 83.5742 184.512 83.4588C184.443 83.1347 184.443 83.1347 184.149 82.8847C183.858 82.846 183.858 82.846 183.537 82.8589C183.429 82.8598 183.321 82.8607 183.21 82.8616C182.883 82.8743 182.883 82.8743 182.494 83.0226C182.403 83.2501 182.312 83.4776 182.219 83.7119C181.582 83.7119 180.945 83.7119 180.288 83.7119C180.288 82.5727 180.288 82.5727 180.84 81.9197C181.721 81.2403 182.421 81.1996 183.494 81.1872ZM182.122 86.3934C181.912 86.6058 181.912 86.6058 181.891 86.9518C181.953 87.3632 182.034 87.4571 182.356 87.7101C182.989 87.8438 183.496 87.76 184.071 87.4774C184.445 87.14 184.582 86.9541 184.7 86.4693C184.723 86.0958 184.723 86.0958 184.7 85.78C183.767 85.7216 182.871 85.7555 182.122 86.3934Z" fill="white"/>
<path d="M261.262 81.1872C261.433 81.1812 261.433 81.1812 261.607 81.1751C262.428 81.1667 263.032 81.3226 263.718 81.7818C264.306 82.3694 264.525 82.9717 264.577 83.7972C264.575 83.9777 264.574 84.1582 264.572 84.3442C264.572 84.4409 264.572 84.5377 264.571 84.6374C264.57 84.9436 264.566 85.2497 264.563 85.5559C264.561 85.7647 264.56 85.9735 264.559 86.1823C264.556 86.6916 264.551 87.2008 264.545 87.7101C264.864 87.7101 265.182 87.7101 265.51 87.7101C265.51 88.1651 265.51 88.62 265.51 89.0888C264.833 89.4275 264.325 89.4442 263.58 89.3645C263.072 89.1422 262.925 89.0019 262.615 88.5373C262.516 88.6226 262.416 88.7079 262.314 88.7958C261.389 89.4943 260.429 89.4684 259.306 89.3645C258.649 89.172 258.127 88.8768 257.79 88.2616C257.542 87.5172 257.555 86.7539 257.807 86.0126C258.47 85.0624 259.287 84.7164 260.375 84.4444C261.075 84.377 261.775 84.391 262.477 84.4013C262.438 84.2 262.398 83.999 262.357 83.7981C262.334 83.6861 262.312 83.5742 262.289 83.4588C262.22 83.1347 262.22 83.1347 261.926 82.8847C261.635 82.846 261.635 82.846 261.314 82.8589C261.206 82.8598 261.098 82.8607 260.987 82.8616C260.661 82.8743 260.661 82.8743 260.271 83.0226C260.18 83.2501 260.089 83.4776 259.996 83.7119C259.359 83.7119 258.722 83.7119 258.066 83.7119C258.066 82.556 258.066 82.556 258.617 81.9197C259.483 81.3016 260.235 81.199 261.262 81.1872ZM259.996 86.1936C259.699 86.6392 259.655 86.7797 259.72 87.2965C259.939 87.5839 260.063 87.6966 260.421 87.765C261.316 87.7568 261.316 87.7568 262.064 87.2965C262.355 86.7437 262.477 86.4081 262.477 85.78C261.59 85.7377 260.8 85.7801 259.996 86.1936Z" fill="white"/>
<path d="M166.653 81.1854C166.76 81.1832 166.866 81.181 166.976 81.1787C167.88 81.1779 168.523 81.3615 169.238 81.9437C170.232 83.1525 170.246 84.1808 170.246 85.7782C168.517 85.7782 166.788 85.7782 165.007 85.7782C165.279 87.0806 165.279 87.0806 165.834 87.5704C166.431 87.7501 166.953 87.7437 167.549 87.5704C168.014 87.2636 168.014 87.2636 168.178 86.3296C168.861 86.3296 169.543 86.3296 170.246 86.3296C170.183 87.3681 170.015 87.9525 169.247 88.6992C168.081 89.4672 166.909 89.4811 165.559 89.3627C164.709 89.1797 164.049 88.8407 163.53 88.1303C162.989 87.2614 162.866 86.3178 162.879 85.3129C162.88 85.1986 162.881 85.0844 162.883 84.9667C162.912 83.9178 163.041 82.9945 163.744 82.1737C164.627 81.3431 165.475 81.1806 166.653 81.1854ZM165.421 83.1587C165.284 83.5681 165.148 83.9776 165.007 84.3995C166.008 84.3995 167.009 84.3995 168.04 84.3995C168.04 83.55 168.037 83.447 167.489 82.8829C166.789 82.5332 166.021 82.7083 165.421 83.1587Z" fill="white"/>
<path d="M197.65 81.1802C197.756 81.1768 197.861 81.1735 197.97 81.17C198.979 81.1648 199.744 81.492 200.468 82.197C201.286 83.238 201.252 84.5168 201.252 85.7815C199.523 85.7815 197.794 85.7815 196.013 85.7815C196.191 86.9088 196.191 86.9088 196.504 87.367C197.118 87.7451 197.776 87.7581 198.477 87.6514C198.943 87.3088 199.017 86.8787 199.184 86.333C199.866 86.333 200.549 86.333 201.252 86.333C201.17 87.2848 201.03 87.9332 200.33 88.6337C199.182 89.4955 197.938 89.4681 196.564 89.3661C195.733 89.2142 195.036 88.7701 194.496 88.1253C193.7 86.8152 193.651 85.1069 193.974 83.6403C194.271 82.7115 194.806 82.0581 195.599 81.5076C196.29 81.2171 196.913 81.1814 197.65 81.1802ZM196.289 83.2999C196.069 83.7094 196.013 83.9374 196.013 84.4029C197.014 84.4029 198.015 84.4029 199.046 84.4029C199.009 83.3968 199.009 83.3968 198.719 83.0328C197.871 82.4784 197.017 82.6734 196.289 83.2999Z" fill="white"/>
<path d="M354.98 81.3691C355.663 81.3691 356.345 81.3691 357.048 81.3691C357.441 82.2409 357.813 83.1182 358.169 84.0059C358.216 84.1237 358.264 84.2415 358.314 84.3629C358.574 85.0129 358.801 85.655 358.979 86.3324C359.288 85.8684 359.427 85.4113 359.583 84.8831C359.628 84.7326 359.628 84.7326 359.674 84.5789C359.771 84.2588 359.866 83.9385 359.961 83.6181C360.026 83.4008 360.091 83.1835 360.156 82.9662C360.316 82.4341 360.475 81.9016 360.633 81.3691C361.361 81.3691 362.089 81.3691 362.839 81.3691C362.114 83.5807 361.386 85.7911 360.59 87.9782C360.537 88.1263 360.484 88.2744 360.43 88.4269C359.96 89.6988 359.433 90.9214 358.289 91.7092C357.807 91.8701 357.419 91.8654 356.911 91.8643C356.74 91.8647 356.569 91.865 356.394 91.8654C355.946 91.8471 355.946 91.8471 355.532 91.7092C355.532 91.2542 355.532 90.7993 355.532 90.3305C355.633 90.3186 355.735 90.3067 355.839 90.2945C356.485 90.2015 356.949 90.1218 357.497 89.7532C357.76 89.3301 357.759 89.1727 357.675 88.696C357.515 88.0671 357.259 87.4727 357.013 86.8731C356.956 86.7285 356.898 86.584 356.838 86.4351C356.653 85.9753 356.468 85.5162 356.282 85.0571C356.095 84.596 355.909 84.1348 355.724 83.6732C355.609 83.3865 355.493 83.1 355.376 82.8138C355.324 82.6845 355.272 82.5551 355.219 82.4219C355.173 82.3081 355.127 82.1944 355.079 82.0772C354.98 81.7827 354.98 81.7827 354.98 81.3691Z" fill="white"/>
<path d="M271.154 81.1802C271.25 81.1768 271.346 81.1735 271.445 81.17C272.159 81.166 272.555 81.3336 273.102 81.7834C273.568 82.4013 273.809 82.8677 273.807 83.6407C273.807 83.7648 273.807 83.889 273.807 84.017C273.806 84.1505 273.805 84.2841 273.804 84.4217C273.804 84.5588 273.804 84.696 273.804 84.8372C273.803 85.2755 273.801 85.7138 273.8 86.1521C273.799 86.4491 273.798 86.7461 273.798 87.0431C273.796 87.7715 273.794 88.4999 273.791 89.2282C273.109 89.2282 272.426 89.2282 271.723 89.2282C271.719 88.9746 271.719 88.9746 271.715 88.7159C271.704 88.0892 271.692 87.4626 271.679 86.8359C271.674 86.5646 271.669 86.2933 271.665 86.0219C271.659 85.6321 271.651 85.2423 271.642 84.8526C271.641 84.7311 271.639 84.6095 271.637 84.4844C271.635 84.3712 271.632 84.2581 271.629 84.1415C271.627 84.042 271.625 83.9425 271.624 83.84C271.598 83.5307 271.598 83.5307 271.309 83.1621C270.686 82.9537 270.19 82.9689 269.595 83.2396C268.999 83.8064 268.936 84.4294 268.913 85.2323C268.911 85.3842 268.911 85.3842 268.909 85.5392C268.906 85.6451 268.903 85.7511 268.9 85.8602C268.892 86.1959 268.886 86.5316 268.879 86.8673C268.874 87.096 268.869 87.3247 268.863 87.5534C268.85 88.1116 268.839 88.6699 268.828 89.2282C268.145 89.2282 267.463 89.2282 266.76 89.2282C266.76 86.635 266.76 84.0417 266.76 81.3698C267.351 81.3698 267.943 81.3698 268.552 81.3698C268.643 81.5973 268.734 81.8248 268.828 82.0591C268.93 81.9738 269.033 81.8885 269.138 81.8006C269.812 81.2797 270.306 81.1818 271.154 81.1802Z" fill="white"/>
<path d="M294.509 81.6114C295.049 82.0139 295.373 82.393 295.553 83.0612C295.57 83.4403 295.57 83.4403 295.432 83.7161C295.119 83.7347 294.806 83.748 294.493 83.7592C294.232 83.7712 294.232 83.7712 293.965 83.7834C293.812 83.7612 293.659 83.739 293.502 83.7161C293.251 83.3773 293.251 83.3773 293.089 83.0267C292.768 82.8664 292.566 82.866 292.21 82.863C292.103 82.8611 291.997 82.8591 291.888 82.8571C291.542 82.8919 291.319 82.992 291.021 83.1646C291.053 83.4354 291.053 83.4354 291.158 83.7161C291.531 83.8836 291.874 84.0117 292.261 84.1297C292.364 84.1622 292.467 84.1946 292.573 84.2281C293.213 84.4289 293.213 84.4289 293.854 84.6224C294.653 84.8757 295.146 85.1998 295.61 85.9236C295.83 86.5397 295.812 87.2331 295.623 87.8564C295.287 88.5342 294.734 88.9242 294.054 89.2308C292.796 89.5748 291.107 89.5678 289.921 89.003C289.374 88.6386 288.97 88.1626 288.677 87.5764C288.677 87.2579 288.677 86.9394 288.677 86.6113C289.359 86.6113 290.042 86.6113 290.745 86.6113C290.836 86.8843 290.927 87.1572 291.021 87.4385C291.699 87.8284 292.483 87.7422 293.226 87.5764C293.317 87.4854 293.408 87.3944 293.502 87.3006C293.458 86.9418 293.458 86.9418 293.364 86.6113C293.167 86.5462 293.167 86.5462 292.965 86.4799C292.594 86.3575 292.224 86.2334 291.854 86.1083C291.521 85.9957 291.187 85.8891 290.85 85.7873C289.987 85.513 289.431 85.1933 288.952 84.4054C288.721 83.7111 288.741 83.2053 289.021 82.527C289.408 81.9134 290.034 81.4988 290.727 81.2973C291.887 81.0486 293.46 81.0264 294.509 81.6114Z" fill="white"/>
<path d="M318.982 81.1653C319.145 81.1664 319.145 81.1664 319.311 81.1674C320.198 81.194 320.911 81.3585 321.619 81.9236C322.172 82.5297 322.191 82.9174 322.17 83.7159C321.857 83.7345 321.544 83.7479 321.231 83.759C320.97 83.771 320.97 83.771 320.703 83.7832C320.55 83.761 320.397 83.7388 320.24 83.7159C319.997 83.3771 319.997 83.3771 319.827 83.0265C319.21 82.8209 318.594 82.8014 317.974 82.9921C317.7 83.2116 317.691 83.3798 317.621 83.7159C318.221 83.9231 318.818 84.1202 319.432 84.2814C321.712 84.8893 321.712 84.8893 322.368 85.9735C322.558 86.8591 322.509 87.5112 322.068 88.2989C321.58 88.98 320.883 89.181 320.102 89.3685C319.716 89.4081 319.335 89.4145 318.948 89.4115C318.845 89.411 318.742 89.4104 318.635 89.4098C317.555 89.3877 316.609 89.2069 315.828 88.4034C315.391 87.7251 315.415 87.4804 315.415 86.6111C316.097 86.6111 316.78 86.6111 317.483 86.6111C317.574 86.8841 317.665 87.1571 317.759 87.4383C318.437 87.8282 319.221 87.742 319.964 87.5762C320.055 87.4852 320.146 87.3942 320.24 87.3004C320.196 86.9416 320.196 86.9416 320.102 86.6111C320.008 86.5827 319.913 86.5544 319.816 86.5252C319.382 86.393 318.949 86.2565 318.517 86.12C318.368 86.0754 318.22 86.0309 318.067 85.985C317.111 85.6791 316.348 85.3224 315.691 84.5431C315.459 83.8498 315.469 83.2554 315.716 82.5785C316.47 81.4346 317.69 81.1545 318.982 81.1653Z" fill="white"/>
<path d="M171.201 81.366C171.929 81.366 172.657 81.366 173.407 81.366C173.595 81.893 173.784 82.42 173.973 82.9471C174.037 83.1259 174.101 83.3046 174.165 83.4833C174.52 84.4746 174.871 85.4663 175.199 86.4671C175.248 86.3174 175.298 86.1678 175.349 86.0136C175.531 85.4603 175.715 84.9072 175.898 84.3541C175.978 84.1144 176.057 83.8746 176.136 83.6347C176.25 83.2907 176.364 82.9468 176.478 82.603C176.513 82.4951 176.549 82.3873 176.585 82.2762C176.838 81.5195 176.838 81.5195 176.991 81.366C177.34 81.3559 177.685 81.3532 178.034 81.3573C178.181 81.3583 178.181 81.3583 178.331 81.3592C178.574 81.3609 178.816 81.3633 179.059 81.366C178.778 82.3471 178.452 83.305 178.097 84.2617C178.046 84.4002 177.995 84.5387 177.942 84.6814C177.835 84.9712 177.728 85.2609 177.621 85.5506C177.455 85.996 177.291 86.4417 177.127 86.8874C177.022 87.1697 176.918 87.452 176.813 87.7343C176.764 87.8679 176.715 88.0016 176.664 88.1394C176.619 88.2619 176.573 88.3844 176.526 88.5106C176.466 88.6729 176.466 88.6729 176.405 88.8385C176.302 89.0865 176.302 89.0865 176.164 89.2244C175.815 89.2345 175.47 89.2372 175.121 89.233C175.023 89.2324 174.925 89.2318 174.824 89.2311C174.581 89.2295 174.339 89.227 174.096 89.2244C173.483 87.8117 172.948 86.3707 172.412 84.9275C172.259 84.5156 172.105 84.104 171.951 83.6925C171.854 83.4308 171.756 83.169 171.659 82.9073C171.613 82.7842 171.567 82.6611 171.519 82.5344C171.477 82.421 171.435 82.3077 171.392 82.1909C171.355 82.0912 171.318 81.9915 171.28 81.8888C171.201 81.6417 171.201 81.6417 171.201 81.366Z" fill="white"/>
<path d="M139.741 81.1783C139.9 81.1732 139.9 81.1732 140.062 81.168C140.855 81.164 141.452 81.3306 142.11 81.7814C143.203 82.9228 143.213 84.0947 143.213 85.6417C141.348 85.6417 139.483 85.6417 137.561 85.6417C137.736 87.0579 137.736 87.0579 138.526 87.9855C139.269 88.3079 139.821 88.2854 140.594 88.1234C141.17 87.8673 141.422 87.5844 141.697 87.0204C141.742 86.8384 141.788 86.6564 141.835 86.4689C142.29 86.4689 142.745 86.4689 143.213 86.4689C143.048 87.3807 142.904 88.1434 142.124 88.7357C141.023 89.4543 139.953 89.4576 138.664 89.3642C137.86 89.1763 137.261 88.7839 136.764 88.125C135.958 86.7947 135.992 85.0163 136.268 83.5242C136.587 82.4973 137.194 81.8441 138.14 81.3458C138.677 81.1845 139.183 81.1792 139.741 81.1783ZM137.845 83.0481C137.633 83.5618 137.633 83.5618 137.561 84.6767C138.971 84.6767 140.382 84.6767 141.835 84.6767C141.751 83.4773 141.751 83.4773 141.145 82.6086C139.985 81.9516 138.749 82.0274 137.845 83.0481Z" fill="white"/>
<path d="M218.473 81.1802C218.632 81.1752 218.632 81.1752 218.794 81.17C219.714 81.1653 220.406 81.4231 221.117 82.0096C221.177 82.0828 221.237 82.156 221.299 82.2315C221.361 82.3033 221.423 82.3751 221.487 82.449C222.043 83.3605 222.149 84.1774 222.135 85.2215C222.137 85.3376 222.138 85.4537 222.14 85.5734C222.135 86.7168 221.895 87.761 221.087 88.6068C220.174 89.3847 219.211 89.4541 218.04 89.4189C217.149 89.3259 216.361 89.103 215.75 88.4183C214.776 86.9424 214.687 85.2429 214.999 83.5234C215.322 82.4987 215.926 81.8461 216.872 81.3477C217.41 81.1864 217.915 81.1811 218.473 81.1802ZM216.913 82.8034C216.231 83.5684 216.261 84.2916 216.25 85.2645C216.246 85.3778 216.242 85.491 216.238 85.6076C216.229 86.4197 216.378 87.0375 216.844 87.7117C217.413 88.2046 217.885 88.3883 218.637 88.401C219.3 88.2823 219.839 88.0974 220.291 87.5824C220.777 86.8388 220.738 86.1299 220.748 85.2645C220.752 85.1448 220.756 85.025 220.76 84.9016C220.768 84.0663 220.627 83.4457 220.153 82.7485C219.278 81.9504 217.765 82.0107 216.913 82.8034Z" fill="white"/>
<path d="M351.125 79.1641C351.717 79.1641 352.308 79.1641 352.917 79.1641C352.917 79.892 352.917 80.6199 352.917 81.3699C353.327 81.3699 353.736 81.3699 354.158 81.3699C354.158 81.9159 354.158 82.4619 354.158 83.0244C353.749 83.0244 353.339 83.0244 352.917 83.0244C352.963 84.5257 353.008 86.0271 353.055 87.574C353.419 87.6195 353.783 87.665 354.158 87.7119C354.158 88.2123 354.158 88.7128 354.158 89.2284C353.67 89.3504 353.286 89.3932 352.788 89.4007C352.648 89.4043 352.507 89.4078 352.362 89.4115C351.877 89.358 351.642 89.2583 351.263 88.9527C350.827 88.2631 350.793 87.7166 350.809 86.9288C350.81 86.7607 350.81 86.7607 350.811 86.5893C350.813 86.2339 350.818 85.8786 350.824 85.5232C350.826 85.2812 350.827 85.0392 350.829 84.7972C350.834 84.2062 350.841 83.6153 350.849 83.0244C350.531 83.0244 350.212 83.0244 349.884 83.0244C349.884 82.4784 349.884 81.9324 349.884 81.3699C350.203 81.3699 350.521 81.3699 350.849 81.3699C350.94 80.642 351.031 79.9141 351.125 79.1641Z" fill="white"/>
<path d="M189.539 79.1641C190.13 79.1641 190.722 79.1641 191.331 79.1641C191.331 79.892 191.331 80.6199 191.331 81.3699C191.74 81.3699 192.15 81.3699 192.572 81.3699C192.572 81.9159 192.572 82.4619 192.572 83.0244C192.162 83.0244 191.753 83.0244 191.331 83.0244C191.376 84.5257 191.422 86.0271 191.469 87.574C191.833 87.6195 192.197 87.665 192.572 87.7119C192.572 88.2123 192.572 88.7128 192.572 89.2284C191.793 89.4231 190.836 89.5903 190.084 89.2316C189.696 88.919 189.432 88.5884 189.263 88.1255C189.24 87.7308 189.231 87.35 189.236 86.9557C189.237 86.7871 189.237 86.7871 189.237 86.615C189.239 86.2568 189.242 85.8986 189.246 85.5404C189.247 85.2972 189.248 85.054 189.249 84.8107C189.252 84.2152 189.257 83.6198 189.263 83.0244C188.944 83.0244 188.626 83.0244 188.298 83.0244C188.298 82.4784 188.298 81.9324 188.298 81.3699C188.616 81.3699 188.935 81.3699 189.263 81.3699C189.354 80.642 189.445 79.9141 189.539 79.1641Z" fill="white"/>
<path d="M224.006 81.3691C224.415 81.3691 224.825 81.3691 225.246 81.3691C225.249 81.536 225.252 81.7029 225.255 81.8749C225.265 82.4962 225.278 83.1175 225.29 83.7387C225.296 84.0072 225.3 84.2758 225.305 84.5443C225.311 84.931 225.319 85.3177 225.327 85.7044C225.329 85.8238 225.33 85.9432 225.332 86.0662C225.348 86.7082 225.398 87.251 225.66 87.8489C226.196 88.2394 226.817 88.2115 227.452 88.1247C227.946 87.9494 228.315 87.7007 228.647 87.2882C228.903 86.725 228.897 86.2226 228.902 85.6102C228.904 85.4888 228.907 85.3673 228.909 85.2422C228.917 84.856 228.921 84.4697 228.926 84.0834C228.93 83.8209 228.935 83.5583 228.94 83.2958C228.952 82.6536 228.961 82.0114 228.969 81.3691C229.424 81.3691 229.879 81.3691 230.348 81.3691C230.348 83.9624 230.348 86.5557 230.348 89.2276C229.984 89.2276 229.62 89.2276 229.245 89.2276C229.176 88.8181 229.176 88.8181 229.107 88.4004C228.987 88.5084 228.868 88.6165 228.745 88.7278C227.988 89.4126 227.074 89.4274 226.101 89.4075C225.474 89.3478 225.044 89.2127 224.557 88.814C223.958 88.0064 223.931 87.1886 223.952 86.216C223.953 86.0768 223.953 85.9376 223.954 85.7942C223.957 85.3531 223.964 84.9122 223.971 84.4712C223.974 84.1707 223.976 83.8701 223.979 83.5696C223.985 82.8361 223.994 82.1026 224.006 81.3691Z" fill="white"/>
<path d="M205.809 79.0247C206.34 78.9281 206.796 78.9074 207.325 79.0247C207.734 79.3707 207.982 79.798 208.254 80.2553C208.549 80.74 208.865 81.2108 209.179 81.6834C209.356 81.9491 209.53 82.2159 209.704 82.4836C209.825 82.6682 209.825 82.6682 209.948 82.8565C210.02 82.9681 210.093 83.0797 210.167 83.1948C210.23 83.2745 210.293 83.3543 210.358 83.4365C210.449 83.4365 210.54 83.4365 210.634 83.4365C210.87 83.1379 210.87 83.1379 211.114 82.7514C211.209 82.6071 211.304 82.4628 211.402 82.3141C211.502 82.1598 211.602 82.0054 211.702 81.851C212.079 81.2747 212.458 80.7003 212.84 80.1276C212.915 80.0117 212.99 79.8957 213.067 79.7762C213.561 79.0525 213.561 79.0525 214.08 78.917C214.211 78.9298 214.342 78.9426 214.477 78.9558C214.61 78.9657 214.744 78.9757 214.881 78.9859C215.031 79.0051 215.031 79.0051 215.184 79.0247C214.745 79.8502 214.266 80.6194 213.719 81.3771C213.648 81.4791 213.577 81.5811 213.504 81.6862C213.158 82.182 212.81 82.652 212.4 83.0961C210.878 84.8355 211.118 87.0406 211.185 89.2269C210.73 89.2269 210.276 89.2269 209.807 89.2269C209.81 89.1083 209.813 88.9896 209.816 88.8674C209.93 85.7719 209.93 85.7719 208.505 83.1389C208.074 82.6295 207.721 82.061 207.351 81.5063C207.204 81.2906 207.057 81.0752 206.909 80.8601C206.84 80.7598 206.771 80.6596 206.701 80.5563C206.505 80.2751 206.303 79.9989 206.1 79.7227C205.809 79.3004 205.809 79.3004 205.809 79.0247Z" fill="white"/>
<path d="M342.025 78.4727C342.708 78.4727 343.39 78.4727 344.093 78.4727C344.093 82.0214 344.093 85.5701 344.093 89.2263C343.411 89.2263 342.729 89.2263 342.025 89.2263C342.025 85.6776 342.025 82.1289 342.025 78.4727Z" fill="white"/>
<path d="M158.934 78.4727C159.616 78.4727 160.298 78.4727 161.002 78.4727C161.002 82.0214 161.002 85.5701 161.002 89.2263C160.319 89.2263 159.637 89.2263 158.934 89.2263C158.934 85.6776 158.934 82.1289 158.934 78.4727Z" fill="white"/>
<path d="M256.019 81.2213C256.42 81.2256 256.42 81.2256 256.829 81.2299C256.829 81.8669 256.829 82.5038 256.829 83.1601C256.567 83.1914 256.306 83.2226 256.036 83.2549C255.362 83.3665 255.362 83.3665 254.804 83.746C254.466 84.4535 254.464 85.1943 254.442 85.9681C254.439 86.0618 254.436 86.1554 254.433 86.252C254.424 86.5483 254.416 86.8447 254.408 87.141C254.402 87.3431 254.396 87.5453 254.39 87.7474C254.375 88.2403 254.361 88.7333 254.347 89.2263C253.665 89.2263 252.982 89.2263 252.279 89.2263C252.279 86.633 252.279 84.0397 252.279 81.3678C252.871 81.3678 253.462 81.3678 254.072 81.3678C254.163 81.5953 254.254 81.8228 254.347 82.0571C254.475 81.8908 254.475 81.8908 254.606 81.7211C255.06 81.1737 255.33 81.214 256.019 81.2213Z" fill="white"/>
<path d="M346.304 81.3691C346.986 81.3691 347.669 81.3691 348.372 81.3691C348.372 83.9624 348.372 86.5557 348.372 89.2276C347.689 89.2276 347.007 89.2276 346.304 89.2276C346.304 86.6343 346.304 84.041 346.304 81.3691Z" fill="white"/>
<path d="M337.766 81.3691C338.448 81.3691 339.131 81.3691 339.834 81.3691C339.834 83.9624 339.834 86.5557 339.834 89.2276C339.151 89.2276 338.469 89.2276 337.766 89.2276C337.766 86.6343 337.766 84.041 337.766 81.3691Z" fill="white"/>
<path d="M324.239 81.3691C324.922 81.3691 325.604 81.3691 326.307 81.3691C326.307 83.9624 326.307 86.5557 326.307 89.2276C325.625 89.2276 324.942 89.2276 324.239 89.2276C324.239 86.6343 324.239 84.041 324.239 81.3691Z" fill="white"/>
<path d="M311.421 81.3691C312.103 81.3691 312.786 81.3691 313.489 81.3691C313.489 83.9624 313.489 86.5557 313.489 89.2276C312.806 89.2276 312.124 89.2276 311.421 89.2276C311.421 86.6343 311.421 84.041 311.421 81.3691Z" fill="white"/>
<path d="M236.406 81.2308C236.406 81.5947 236.406 81.9587 236.406 82.3337C236.303 82.3556 236.2 82.3774 236.094 82.3999C235.237 82.5936 235.237 82.5936 234.528 83.0834C234.163 83.7627 234.172 84.4296 234.157 85.188C234.154 85.3035 234.151 85.419 234.148 85.538C234.139 85.906 234.131 86.274 234.123 86.6421C234.117 86.892 234.111 87.1418 234.105 87.3917C234.09 88.0035 234.076 88.6153 234.062 89.2271C233.607 89.2271 233.152 89.2271 232.684 89.2271C232.684 86.6338 232.684 84.0405 232.684 81.3686C233.048 81.3686 233.412 81.3686 233.787 81.3686C233.878 81.5506 233.969 81.7326 234.062 81.9201C234.167 81.8064 234.273 81.6926 234.381 81.5754C234.979 81.0638 235.661 81.1711 236.406 81.2308Z" fill="white"/>
<path d="M432.203 50.9354C432.698 50.9226 432.698 50.9226 433.203 50.9095C433.357 50.9039 433.357 50.9039 433.515 50.8981C433.938 50.8928 434.234 50.9157 434.611 51.1142C434.823 51.349 434.823 51.349 434.866 51.8229C434.823 52.3141 434.823 52.3141 434.734 52.5849C434.669 52.9555 434.769 53.1105 434.952 53.4342C435.236 53.9451 435.236 53.9451 435.236 54.2442C434.521 54.3412 434.521 54.3412 434.133 54.2442C433.893 53.9781 433.744 53.7153 433.583 53.396C433.463 53.1178 433.463 53.1178 433.168 53.0034C433.168 53.4129 433.168 53.8223 433.168 54.2442C432.85 54.2442 432.531 54.2442 432.203 54.2442C432.203 53.1523 432.203 52.0604 432.203 50.9354ZM433.168 51.6247C433.168 51.8522 433.168 52.0797 433.168 52.3141C433.35 52.3141 433.532 52.3141 433.72 52.3141C433.765 52.1776 433.811 52.0411 433.858 51.9005C433.767 51.8095 433.676 51.7185 433.582 51.6247C433.445 51.6247 433.309 51.6247 433.168 51.6247Z" fill="white"/>
<path d="M285.503 79.0215C286.185 79.0215 286.868 79.0215 287.571 79.0215C287.582 79.4151 287.59 79.8083 287.597 80.202C287.6 80.3123 287.603 80.4225 287.607 80.5361C287.619 81.479 287.453 82.1179 286.83 82.8559C286.347 83.2584 285.994 83.4332 285.365 83.4332C285.322 82.9766 285.322 82.9766 285.365 82.4682C285.594 82.3294 285.824 82.1916 286.054 82.0546C286.2 81.6875 286.259 81.3436 286.33 80.9516C286.057 80.9516 285.784 80.9516 285.503 80.9516C285.503 80.3147 285.503 79.6777 285.503 79.0215Z" fill="white"/>
<path d="M346.304 78.4707C346.986 78.4707 347.669 78.4707 348.372 78.4707C348.372 79.0622 348.372 79.6536 348.372 80.263C347.689 80.263 347.007 80.263 346.304 80.263C346.304 79.6715 346.304 79.0801 346.304 78.4707Z" fill="white"/>
<path d="M337.766 78.4707C338.448 78.4707 339.131 78.4707 339.834 78.4707C339.834 79.0622 339.834 79.6536 339.834 80.263C339.151 80.263 338.469 80.263 337.766 80.263C337.766 79.6715 337.766 79.0801 337.766 78.4707Z" fill="white"/>
<path d="M324.239 78.4727C324.922 78.4727 325.604 78.4727 326.307 78.4727C326.307 79.0641 326.307 79.6556 326.307 80.2649C325.625 80.2649 324.942 80.2649 324.239 80.2649C324.239 79.6735 324.239 79.082 324.239 78.4727Z" fill="white"/>
<path d="M311.421 78.4727C312.103 78.4727 312.786 78.4727 313.489 78.4727C313.489 79.0641 313.489 79.6556 313.489 80.2649C312.806 80.2649 312.124 80.2649 311.421 80.2649C311.421 79.6735 311.421 79.082 311.421 78.4727Z" fill="white"/>
<path d="M433.615 49.3848C435.404 49.3848 436.855 50.8347 436.855 52.624C436.855 54.4134 435.404 55.8643 433.615 55.8643C431.825 55.8642 430.375 54.4133 430.375 52.624C430.375 50.8348 431.825 49.3848 433.615 49.3848ZM433.613 50.2051C432.281 50.2053 431.201 51.2858 431.201 52.6182C431.201 53.9503 432.281 55.03 433.613 55.0303C434.945 55.0303 436.026 53.9504 436.026 52.6182C436.026 51.2857 434.945 50.2051 433.613 50.2051Z" fill="white"/>
<ellipse cx="85.1433" cy="95.2291" rx="5.65257" ry="0.89614" fill="white"/>
</svg>
