<svg width="224" height="50" viewBox="0 0 224 50" fill="none" xmlns="http://www.w3.org/2000/svg">
<path d="M88.5389 18.9745L87.0325 19.8442V31.0244H86.1628L77.577 20.9158L78.2466 30.7569H80.2716V31.0244H76.0542V30.7569H76.9748L77.2423 19.9442L75.6357 18.9727H80.741L86.6995 26.2703L85.7625 19.8423L84.2561 18.9727H88.5408L88.5389 18.9745Z" fill="white"/>
<path d="M94.2136 19.2421V24.5984C95.2688 24.5474 96.4405 23.6614 97.0591 22.3896H97.0755V27.06H97.0591C96.4223 25.7537 95.3016 24.884 94.2136 24.8331V30.7589C96.1894 30.7261 97.8797 29.7546 99.4516 26.8417H99.468V31.0263H89.192V30.7589H90.5311V19.8789L89.041 18.9746H99.468V23.1592H99.4516C97.8778 20.2809 96.1876 19.2584 94.2136 19.2421Z" fill="white"/>
<path d="M119.172 18.9744L117.682 19.8786L113.381 31.3608H112.511L109.917 23.3609L106.904 31.3608H106.034L101.633 19.8786L100.311 18.9744H107.324L105.583 19.8786L108.194 27.0598L109.5 22.0892L108.612 19.3783L112.262 18.7251L114.757 26.8924L116.414 19.8786L114.422 18.9744H119.176H119.172Z" fill="white"/>
<path d="M130.217 18.991L123.573 30.7571H124.761C126.837 30.7571 128.678 29.1669 129.95 25.9193H129.966V31.0245H119.253V31.0081L125.914 19.2421H125.563C123.152 19.2421 121.63 20.381 120.039 24.0962H120.023V18.9746H130.215V18.991H130.217Z" fill="white"/>
<path d="M131.389 24.5982C131.389 20.9994 133.8 18.6396 137.464 18.6396C139.189 18.6396 140.628 19.0254 141.849 19.6603L140.375 25.5024H140.359C137.815 20.5318 136.476 19.4093 135.286 19.4093C134.549 19.4093 133.982 19.9787 133.982 21.3178C133.982 25.5861 137.462 29.0848 141.028 29.0848C141.497 29.0848 142.083 29.0175 142.4 28.8665L142.416 28.8829C141.612 30.322 139.789 31.3609 137.762 31.3609C133.912 31.3609 131.385 28.5481 131.385 24.5982H131.389Z" fill="white"/>
<path d="M155.811 30.7589H157.15V31.0263H150.789V30.7589H152.128V24.784H148.178V30.7589H149.517V31.0263H143.157V30.7589H144.496V19.8625L143.006 18.9746H149.667L148.177 19.8625V24.4819H152.127V19.8625L150.636 18.9746H157.297L155.807 19.8625V30.7589H155.811Z" fill="white"/>
<path d="M170.003 30.7588V31.0263H163.845V30.7588H165.217L163.894 27.6131H160.044L159.023 30.7588H160.748V31.0263H157.049V30.7588H157.735L163.057 18.6416H163.927L169.232 30.7588H170.002H170.003ZM163.761 27.3111L161.702 22.4569L160.128 27.3111H163.759H163.761Z" fill="white"/>
<path d="M170.492 30.7589H171.831V19.8789L170.341 18.9746H177.002L175.512 19.8789V30.7589H176.851V31.0263H170.49V30.7589H170.492Z" fill="white"/>
<path d="M190.493 18.9745L188.987 19.8442V31.0244H188.117L179.531 20.9158L180.201 30.7569H182.226V31.0244H178.008V30.7569H178.929L179.196 19.9442L177.59 18.9727H182.695L188.654 26.2703L187.717 19.8423L186.21 18.9727H190.495L190.493 18.9745Z" fill="white"/>
<path d="M52.2061 6.29834C62.5347 6.29834 70.9082 14.6719 70.9082 25.0005C70.908 35.3289 62.5345 43.7017 52.2061 43.7017C41.8776 43.7016 33.5051 35.3289 33.5049 25.0005C33.5049 14.6719 41.8775 6.29837 52.2061 6.29834ZM42.5361 16.7056L60.958 35.4106V16.7056H56.2148V24.4888L48.2842 16.7056H42.5361ZM45.21 32.4556L51.4512 32.4409L45.21 26.4751V32.4556Z" fill="white"/>
</svg>
