<svg width="214" height="145" viewBox="0 0 214 145" fill="none" xmlns="http://www.w3.org/2000/svg">
<g clip-path="url(#clip0_199_243)">
<path d="M157.023 144.368H168.672L172.724 106.889H162.341L157.023 144.368Z" fill="white"/>
<path d="M168.221 103.657C171.849 103.657 174.79 100.716 174.79 97.0876C174.79 93.4596 171.849 90.5186 168.221 90.5186C164.593 90.5186 161.652 93.4596 161.652 97.0876C161.652 100.716 164.593 103.657 168.221 103.657Z" fill="white"/>
<path d="M65.3549 29.9093L72.1418 33.9155C78.2398 26.8907 74.1221 15.2771 64.8535 14.958C71.4783 17.8449 72.79 27.2047 65.36 29.9093H65.3549Z" fill="white"/>
<path d="M212.888 27.9783C208.411 12.5611 183.563 17.5904 171.711 16.7294L164.119 81.0573H178.807L181.41 58.0834C182.14 56.407 186.506 57.0553 187.853 58.5899C190.314 61.3857 194.26 81.0573 197.8 81.0573H213.248C208.801 72.3307 206.942 60.9653 200.084 53.9556C210.239 50.0608 215.932 38.4422 212.893 27.9783H212.888ZM190.198 47.1232H182.854L186.131 27.8415C190.324 27.9682 194.989 27.0059 197.765 30.9463C201.543 36.4821 197.187 47.1232 190.198 47.1232Z" fill="white"/>
<path d="M163.091 32.7036C161.233 11.8063 134.526 17.5194 120.355 16.7039L111.952 81.0623H126.64L129.167 59.7851C147.512 61.3855 164.975 53.8542 163.091 32.7036ZM148.343 38.7003C147.887 43.6182 144.488 48.6425 139.044 48.6425H130.687L133.214 27.8718C142.407 27.4058 149.401 27.2032 148.338 38.6953L148.343 38.7003Z" fill="white"/>
<path d="M83.0778 -2C108.422 18.3048 110.884 56.4325 87.2613 79.0722C77.5977 79.3102 72.7355 67.9549 63.3251 66.8711L68.3848 60.7984C59.9773 61.7708 55.2012 67.5447 52.1876 74.9747C53.155 61.553 63.6746 54.3357 76.7114 55.769C78.5296 55.9666 79.9934 58.2001 81.8217 57.2986C86.5371 53.1354 90.7763 44.9608 85.985 39.3338C72.5582 41.2888 62.0285 29.0624 48.8803 27.8874C43.5471 27.4113 38.5228 28.7585 32.8199 27.234C21.4089 24.185 20.8011 11.7053 32.9364 9.64903C9.7396 8.67152 16.8404 34.5222 34.4659 38.26L20.2896 46.8702C23.3284 49.8483 27.5575 49.5849 31.4169 49.904C26.1191 55.4601 20.7454 64.4704 19.773 72.1942C19.3526 75.5471 20.0819 79.6394 19.773 83.0835L10.1701 74.7063L0 57.0049C3.11991 72.807 13.7965 85.778 27.2638 94.0133L20.7808 144.367H31.4169L35.2155 109.922C37.4542 113.999 43.1622 137.378 46.12 138.528C47.5533 139.085 50.1161 138.938 51.5951 138.467C55.4291 137.246 65.5638 114.521 69.3978 110.443L65.351 144.373H75.4806L81.6799 93.5929C117.336 72.4221 119.235 19.4747 83.0778 -1.98987V-2ZM60.2812 35.4795L55.9964 37.4902L51.1696 34.4665C54.4516 33.3523 57.1663 34.5577 60.2812 35.4795ZM50.1668 125.628L42.058 99.2959H65.351L50.1668 125.628Z" fill="white"/>
<path d="M144.869 90.6807L142.838 108.909C127.486 100.157 116.263 118.78 116.997 132.48C117.797 147.325 131.442 148.784 139.55 138.29L140.65 143.902L149.391 144.332L156.006 90.6807H144.863H144.869ZM135.438 134.679C125.182 142.848 126.995 116.536 136.142 115.098C138.158 114.779 139.951 115.361 141.587 116.481C141.359 121.996 140.047 131.012 135.438 134.684V134.679Z" fill="white"/>
<path d="M175.991 135.783C178.007 147.437 190.639 147.371 197.031 139.303L198.56 144.109L207.17 144.367L211.156 107.957C192.467 101.626 172.436 115.235 175.991 135.783ZM188.937 135.504C182.763 132.531 190.421 111.532 199.568 114.49C199.634 118.567 196.453 139.125 188.937 135.504Z" fill="white"/>
<path d="M115.148 119.459C118.825 103.89 94.0634 102.112 85.8584 117.013C73.6269 139.217 96.8186 154.801 114.247 138.295C111.679 124.914 95.9221 146.454 93.7139 129.695C100.344 128.398 113.188 127.755 115.148 119.464V119.459ZM94.7268 122.077C95.0257 118.664 101.205 111.705 104.73 115.113C108.939 119.18 97.2137 122.665 94.7268 122.077Z" fill="white"/>
</g>
<defs>
<clipPath id="clip0_199_243">
<rect width="214" height="145" fill="white"/>
</clipPath>
</defs>
</svg>
