<svg width="224" height="50" viewBox="0 0 224 50" fill="none" xmlns="http://www.w3.org/2000/svg">
<g clip-path="url(#clip0_3746_5148)">
<path d="M104.985 15.506C104.985 15.0077 105.126 14.6033 105.408 14.2917C105.69 13.9801 106.061 13.8247 106.52 13.8247C106.979 13.8247 107.36 13.9757 107.663 14.2761C107.965 14.5772 108.117 14.9869 108.117 15.506C108.117 16.0042 107.965 16.393 107.663 16.6734C107.36 16.9537 106.979 17.0935 106.52 17.0935C106.061 17.0935 105.69 16.9485 105.408 16.6577C105.126 16.367 104.985 15.9833 104.985 15.506Z" fill="#F8F9FF"/>
<path d="M107.647 20.2373V35.8026H105.393V20.2373H107.647Z" fill="#F8F9FF"/>
<path d="M96.7486 20.2373H94.8379V22.2605H96.7486V31.8489C96.7486 33.3644 96.9731 34.459 97.4219 35.1333C97.8708 35.8077 98.6165 36.1453 99.661 36.1453C100.266 36.1453 100.845 36.0777 101.399 35.9432C101.953 35.8077 102.459 35.6264 102.918 35.398L102.48 33.6239C102.125 33.7689 101.795 33.8878 101.493 33.9815C101.19 34.0744 100.83 34.1212 100.413 34.1212C99.9125 34.1212 99.5518 33.9191 99.3327 33.5145C99.1134 33.1101 99.0034 32.4513 99.0034 31.5383V22.2614H102.386V20.2382H99.0034V16.4399L96.7486 17.156V20.2373Z" fill="#F8F9FF"/>
<path d="M59.2895 33.2495C59.7069 33.4986 60.203 33.7113 60.7776 33.8875C61.3513 34.0638 61.9417 34.1523 62.5468 34.1523C63.2359 34.1523 63.8201 33.9804 64.3004 33.6359C64.7807 33.2912 65.0209 32.7331 65.0209 31.9607C65.0209 31.314 64.8742 30.782 64.5825 30.3645C64.2899 29.9469 63.9197 29.5711 63.4708 29.237C63.0219 28.9036 62.5364 28.5964 62.0141 28.3169C61.4919 28.0374 61.0064 27.7024 60.5575 27.3092C60.1086 26.916 59.7375 26.4508 59.4458 25.9135C59.1533 25.3754 59.0074 24.6931 59.0074 23.866C59.0074 22.5423 59.3672 21.545 60.0877 20.8723C60.8081 20.1997 61.8264 19.8638 63.1416 19.8638C63.9974 19.8638 64.7388 19.9419 65.3649 20.0973C65.9911 20.2526 66.5343 20.4661 66.9936 20.7352L66.399 22.6031C66.0024 22.3956 65.5422 22.2246 65.0209 22.0892C64.4986 21.9547 63.9659 21.887 63.4236 21.887C62.6717 21.887 62.1242 22.0424 61.7792 22.354C61.4343 22.6656 61.2622 23.1534 61.2622 23.8174C61.2622 24.3364 61.4081 24.7773 61.7006 25.1401C61.9932 25.5038 62.3635 25.8354 62.8123 26.1366C63.2612 26.4377 63.7467 26.7433 64.269 27.0548C64.7903 27.3665 65.2758 27.7345 65.7256 28.1598C66.1744 28.5851 66.5448 29.0937 66.8373 29.6848C67.1298 30.276 67.2757 31.0189 67.2757 31.9103C67.2757 32.4918 67.1814 33.0412 66.9936 33.5603C66.8059 34.0793 66.5185 34.5307 66.1325 34.9143C65.7456 35.2989 65.2662 35.6043 64.6916 35.8326C64.117 36.0609 63.4437 36.1755 62.6717 36.1755C61.753 36.1755 60.9592 36.087 60.2912 35.9107C59.6231 35.7345 59.059 35.501 58.5996 35.2103L59.2895 33.2495Z" fill="#F8F9FF"/>
<path d="M53.8877 28.4236C53.8877 27.8964 54.0287 27.5009 54.3117 27.2369C54.5946 26.9728 54.9765 26.8413 55.4583 26.8413C55.9401 26.8413 56.322 26.9737 56.6049 27.2369C56.8879 27.5009 57.0289 27.8964 57.0289 28.4236C57.0289 28.9705 56.8879 29.3756 56.6049 29.6388C56.322 29.9019 55.9401 30.0343 55.4583 30.0343C54.9765 30.0343 54.5946 29.9019 54.3117 29.6388C54.0287 29.3756 53.8877 28.9705 53.8877 28.4236Z" fill="#F8F9FF"/>
<path fill-rule="evenodd" clip-rule="evenodd" d="M72.179 20.2999C71.3118 20.5073 70.5756 20.7981 69.9705 21.1713L70.7162 22.9428C71.1721 22.6738 71.7406 22.4498 72.4235 22.2736C73.1064 22.0974 73.7369 22.0089 74.3168 22.0089C75.2468 22.0089 75.8887 22.2476 76.2406 22.725C76.5916 23.2024 76.7681 24.0321 76.7681 25.2151C76.7681 25.7134 76.7375 26.2845 76.6754 26.9277C76.4467 26.9069 76.2292 26.8965 76.0222 26.8965H75.4013C74.4696 26.8965 73.6251 26.9746 72.8698 27.1299C72.1135 27.2862 71.4611 27.5509 70.9127 27.9241C70.3634 28.2982 69.939 28.786 69.6386 29.3875C69.3373 29.989 69.188 30.7363 69.188 31.6286C69.188 32.9982 69.5452 34.0719 70.2604 34.8505C70.9756 35.629 71.8926 36.0179 73.0121 36.0179C74.0278 36.0179 74.8364 35.8209 75.4372 35.4268C76.038 35.0328 76.4938 34.5658 76.8047 34.0259H76.9287L77.4763 35.8626H79.242C79.0954 35.2602 78.9958 34.6222 78.9416 33.9478C78.8875 33.2742 78.8613 32.5425 78.8613 31.7536C78.8613 30.6955 78.8875 29.575 78.9416 28.392C78.9949 27.2089 79.022 25.9955 79.022 24.7499C79.022 24.1276 78.9757 23.5313 78.8814 22.9602C78.7879 22.3899 78.5888 21.8813 78.2867 21.4352C77.9837 20.9899 77.5662 20.6366 77.0335 20.3771C76.5009 20.1185 75.7961 19.9883 74.9193 19.9883C73.9587 19.9883 73.0452 20.0924 72.179 20.2999ZM76.0852 28.6584C76.2921 28.6688 76.4973 28.6844 76.7043 28.7052L76.7034 32.0045C76.5174 32.5027 76.1882 32.9592 75.7131 33.374C75.239 33.789 74.5683 33.9964 73.702 33.9964C73.0628 33.9964 72.5422 33.7682 72.1397 33.3115C71.7371 32.855 71.5362 32.2119 71.5362 31.3812C71.5362 30.8422 71.6445 30.3961 71.8611 30.0428C72.0776 29.6905 72.372 29.4101 72.7431 29.2026C73.1143 28.9951 73.5369 28.8502 74.012 28.7669C74.4871 28.6844 74.9717 28.6428 75.4668 28.6428C75.673 28.6428 75.8791 28.648 76.0852 28.6584Z" fill="#F8F9FF"/>
<path d="M90.6717 35.8022V26.3075C90.6717 24.7513 90.4883 23.6255 90.1232 22.9303C89.7573 22.2351 89.105 21.8879 88.1654 21.8879C87.3297 21.8879 86.6406 22.137 86.0984 22.6352C85.5551 23.1334 85.1588 23.7453 84.9081 24.4718V35.8031H82.6533V20.237H84.2819L84.6889 21.887H84.7833C85.1796 21.3263 85.7176 20.8498 86.3961 20.4549C87.0747 20.0608 87.8842 19.8638 88.8239 19.8638C89.4919 19.8638 90.0813 19.9575 90.5931 20.1441C91.1049 20.3307 91.5327 20.6475 91.8777 21.0937C92.2218 21.5398 92.4828 22.1361 92.661 22.8834C92.8383 23.6307 92.9274 24.5751 92.9274 25.7165V35.8022H90.6717Z" fill="#F8F9FF"/>
<path d="M119.142 26.557V35.8017H121.397V24.5954C121.585 23.7657 121.914 23.1069 122.384 22.6191C122.853 22.1313 123.485 21.8874 124.279 21.8874C125.218 21.8874 125.818 22.2198 126.079 22.8838C126.34 23.5487 126.47 24.5546 126.47 25.9035V35.8017H128.725V25.6222C128.725 24.5017 128.652 23.573 128.506 22.8361C128.36 22.1 128.135 21.5081 127.833 21.062C127.53 20.6158 127.133 20.3042 126.643 20.128C126.152 19.9518 125.562 19.8633 124.873 19.8633C124.038 19.8633 123.271 20.0707 122.571 20.4856C121.872 20.9014 121.334 21.4716 120.958 22.1981C120.666 21.3267 120.264 20.7191 119.752 20.3771C119.24 20.0343 118.587 19.8633 117.795 19.8633C116.855 19.8633 116.082 20.0508 115.477 20.424C114.872 20.7981 114.349 21.2859 113.911 21.8874H113.817L113.41 20.2374H111.812V35.8017H114.067V24.5954C114.256 23.8898 114.595 23.2622 115.086 22.712C115.575 22.1625 116.176 21.8874 116.886 21.8874C117.367 21.8874 117.752 21.9759 118.045 22.1521C118.338 22.3283 118.566 22.6035 118.734 22.9767C118.901 23.3508 119.011 23.8334 119.063 24.4245C119.116 25.0164 119.142 25.7273 119.142 26.557Z" fill="#F8F9FF"/>
<path fill-rule="evenodd" clip-rule="evenodd" d="M141.566 34.7436C141.065 35.2003 140.428 35.5535 139.656 35.8017C138.883 36.0508 138.069 36.175 137.213 36.175C136.232 36.175 135.381 35.9831 134.661 35.5995C133.94 35.2159 133.345 34.6656 132.876 33.9495C132.406 33.2334 132.062 32.3776 131.842 31.3812C131.623 30.3848 131.513 29.2642 131.513 28.0196C131.513 25.3636 132.004 23.3395 132.986 21.949C133.967 20.5585 135.355 19.8633 137.151 19.8633C137.735 19.8633 138.315 19.9362 138.89 20.0811C139.464 20.227 139.981 20.5169 140.44 20.9526C140.899 21.3883 141.269 22.0011 141.552 22.7892C141.834 23.5782 141.974 24.6059 141.974 25.8713C141.974 26.2246 141.959 26.6031 141.927 27.0075C141.896 27.412 141.859 27.8321 141.818 28.2687H133.862C133.862 29.1609 133.935 29.9707 134.082 30.6972C134.227 31.4237 134.457 32.0409 134.771 32.5495C135.084 33.0582 135.486 33.4522 135.977 33.7325C136.467 34.0129 137.078 34.1526 137.809 34.1526C138.373 34.1526 138.931 34.0493 139.485 33.841C140.037 33.6336 140.46 33.3845 140.753 33.0937L141.566 34.7436ZM139.813 26.4017C139.855 24.8454 139.636 23.704 139.155 22.9776C138.675 22.2511 138.017 21.8883 137.183 21.8883C136.222 21.8883 135.46 22.2519 134.896 22.9776C134.332 23.704 133.999 24.8454 133.894 26.4017H139.813Z" fill="#F8F9FF"/>
<path d="M153.155 26.3075V35.8022H155.409V25.7165C155.409 24.5751 155.32 23.6307 155.143 22.8834C154.965 22.1361 154.704 21.5398 154.36 21.0937C154.015 20.6475 153.587 20.3307 153.076 20.1441C152.564 19.9575 151.975 19.8638 151.306 19.8638C150.368 19.8638 149.558 20.0608 148.88 20.4549C148.201 20.8498 147.663 21.3263 147.267 21.887H147.172L146.765 20.237H145.137V35.8031H147.392V24.4718C147.642 23.7453 148.039 23.1334 148.582 22.6352C149.124 22.137 149.813 21.8879 150.649 21.8879C151.589 21.8879 152.241 22.2351 152.607 22.9303C152.972 23.6255 153.155 24.7513 153.155 26.3075Z" fill="#F8F9FF"/>
<path d="M157.32 20.2373H159.231V17.156L161.486 16.4399V20.2382H164.868V22.2614H161.486V31.5383C161.486 32.4513 161.595 33.1101 161.815 33.5145C162.034 33.9191 162.394 34.1212 162.895 34.1212C163.313 34.1212 163.673 34.0744 163.976 33.9815C164.278 33.8878 164.607 33.7689 164.962 33.6239L165.401 35.398C164.941 35.6264 164.435 35.8077 163.882 35.9432C163.329 36.0777 162.75 36.1453 162.143 36.1453C161.099 36.1453 160.353 35.8077 159.904 35.1333C159.456 34.459 159.231 33.3644 159.231 31.8489V22.2605H157.32V20.2373Z" fill="#F8F9FF"/>
<path d="M167.396 26.9922C167.112 27.2563 166.971 27.6518 166.971 28.179C166.971 28.7258 167.112 29.1308 167.396 29.3941C167.679 29.6573 168.06 29.7896 168.542 29.7896C169.024 29.7896 169.405 29.6573 169.689 29.3941C169.972 29.1308 170.113 28.7258 170.113 28.179C170.113 27.6518 169.972 27.2563 169.689 26.9922C169.405 26.729 169.024 26.5967 168.542 26.5967C168.06 26.5967 167.679 26.7282 167.396 26.9922Z" fill="#F8F9FF"/>
</g>
<defs>
<clipPath id="clip0_3746_5148">
<rect width="116.225" height="22.351" fill="white" transform="translate(53.8877 13.8247)"/>
</clipPath>
</defs>
</svg>
