<svg width="224" height="50" viewBox="0 0 224 50" fill="none" xmlns="http://www.w3.org/2000/svg">
<g clip-path="url(#clip0_4083_10509)">
<path d="M182.875 11.0173C182.874 13.2463 182.867 15.4741 182.844 17.7031C182.839 18.1437 182.832 18.4235 182.764 18.6054C182.648 18.9213 182.351 18.9423 181.573 18.9854C171.65 19.5368 163.298 27.034 161.809 36.7216C161.687 37.5074 161.567 38.2966 161.587 39.0905C161.594 39.3866 161.53 39.5417 161.364 39.614C161.27 39.6559 161.142 39.6711 160.975 39.6699C156.978 39.6583 152.98 39.6734 148.984 39.6757C120.174 39.6862 91.3651 39.6944 62.5571 39.7049C55.6256 39.7072 48.6942 39.7049 41.7627 39.7305C41.1737 39.7329 41.0637 39.5662 41.0649 39.0217C41.0826 29.6605 41.085 20.2993 41.0625 10.938C41.0613 10.3376 41.2257 10.2129 41.8112 10.2129C65.2054 10.228 88.5996 10.2257 111.993 10.2257C135.386 10.2257 158.702 10.2257 182.056 10.228C182.446 10.228 182.654 10.2082 182.764 10.2479C182.923 10.3038 182.877 10.4822 182.875 11.0173Z" stroke="white" stroke-width="2.21594" stroke-miterlimit="10"/>
<path d="M113.934 25.7029C113.608 23.8424 112.038 22.3666 110.169 22.1195C108.725 21.9283 107.343 22.0029 106.079 22.8154C105.947 22.9017 105.685 23.1185 105.65 22.7548C105.595 22.1988 105.206 22.1976 104.811 22.1766C104.417 22.1556 104.02 22.1778 103.631 22.13C103.181 22.074 103.061 22.2221 103.09 22.6627C103.226 24.6164 103.244 26.5737 103.264 28.532C103.264 30.4892 103.272 32.4465 103.256 34.4037C103.253 34.7814 103.308 34.9795 103.76 34.9364C104.307 34.8839 104.862 34.8769 105.412 34.8851C105.779 34.8909 105.879 34.7441 105.88 34.4037C105.883 33.4536 105.913 32.5047 105.942 31.5547C105.963 30.839 105.971 30.8529 106.623 31.1257C108.006 31.7039 109.449 31.7354 110.822 31.2213C113.302 30.2922 114.383 28.2814 113.934 25.7029ZM110.384 29.1347C109.865 29.6056 109.224 29.6593 108.687 29.6907C108.012 29.6942 107.482 29.58 106.979 29.3282C106.389 29.0333 106.03 28.5798 105.975 27.927C105.912 27.1926 105.877 26.4559 106.016 25.7262C106.198 24.7773 106.896 24.0546 107.866 23.9497C109.611 23.7608 110.475 24.156 111.055 25.3264C111.675 26.5795 111.371 28.2429 110.384 29.1347Z" fill="white"/>
<path d="M122.961 27.1936C122.961 26.7274 122.962 26.4278 122.961 26.1282C122.948 23.8026 122.944 21.4782 122.91 19.1538C122.904 18.747 123.01 18.5943 123.428 18.6421C123.929 18.6992 124.601 18.4287 124.891 18.7621C125.137 19.0454 124.97 19.6854 124.968 20.1668C124.957 23.6348 124.933 27.1027 124.938 30.5718C124.938 31.0405 124.859 31.2118 124.317 31.2678C123.421 31.3599 122.861 31.1081 122.387 30.3271C120.874 27.8359 119.292 25.3845 117.732 22.9202C117.625 22.7512 117.563 22.539 117.294 22.3945C117.294 23.4727 117.294 24.4904 117.294 25.5092C117.294 27.2729 117.283 29.0355 117.302 30.7992C117.307 31.1967 117.221 31.34 116.783 31.3016C115.748 31.2095 115.747 31.2305 115.741 30.1918C115.72 26.5304 115.706 22.8677 115.664 19.2063C115.659 18.7423 115.794 18.663 116.25 18.6339C117.16 18.5744 117.7 18.9067 118.173 19.6912C119.58 22.0191 121.082 24.291 122.549 26.5851C122.65 26.7414 122.756 26.8941 122.959 27.196L122.961 27.1936Z" fill="white"/>
<path d="M141.76 25.5813C141.433 26.5127 141.112 27.415 140.802 28.3207C140.513 29.1635 140.23 30.0075 139.96 30.8561C139.878 31.1102 139.766 31.2175 139.469 31.2256C137.926 31.2711 137.929 31.2816 137.501 29.8618C136.779 27.4721 136.068 25.0777 135.322 22.695C135.161 22.1798 135.247 22.0143 135.81 21.9991C137.365 21.9583 137.363 21.9397 137.761 23.4213C138.097 24.6732 138.434 25.9252 138.776 27.176C138.841 27.4138 138.926 27.6469 139.052 28.0409C139.505 26.6176 139.905 25.3563 140.307 24.0962C140.495 23.5064 140.701 22.9212 140.87 22.3255C140.942 22.0702 141.071 22.0049 141.326 21.9933C142.765 21.9233 142.763 21.9175 143.191 23.2697C143.607 24.58 144.026 25.8879 144.447 27.197C144.504 27.3742 144.576 27.5467 144.704 27.8917C144.849 27.4371 144.95 27.1399 145.038 26.8403C145.462 25.3913 145.902 23.947 146.292 22.4887C146.401 22.0819 146.581 21.9572 146.983 21.9921C147.393 22.0283 147.808 22.0201 148.222 22.0154C148.553 22.0119 148.619 22.1215 148.513 22.4374C147.579 25.2269 146.658 28.0223 145.737 30.8165C145.647 31.0904 145.476 31.207 145.192 31.2583C144.178 31.4448 143.791 31.2501 143.474 30.3164C143.006 28.942 142.557 27.5618 142.092 26.1863C142.026 25.9916 142.01 25.7667 141.763 25.5813H141.76Z" fill="white"/>
<path d="M52.2457 18.7019C53.1032 18.7777 53.9808 18.7206 54.8135 19.0085C55.4569 19.23 55.542 19.4083 55.3173 20.0506C55.3043 20.0868 55.283 20.1206 55.2688 20.1567C54.914 21.0939 54.9164 21.0823 53.9477 20.8655C52.9116 20.6335 51.8719 20.3934 50.798 20.6172C50.125 20.7582 49.5691 21.0508 49.4012 21.7759C49.2734 22.3261 49.5963 22.8705 50.2799 23.2808C50.9246 23.6678 51.6508 23.8567 52.3557 24.098C53.2522 24.4045 54.1133 24.7764 54.8596 25.3662C56.5592 26.7103 56.5911 28.826 54.9376 30.2249C53.9725 31.0409 52.8217 31.4034 51.5845 31.5107C50.0399 31.6447 48.5188 31.5107 47.0522 30.9768C46.3757 30.7308 46.3355 30.6352 46.5744 29.9416C46.5874 29.9055 46.5968 29.867 46.6099 29.8309C46.9493 28.8785 47.0155 28.8319 47.9523 29.1723C49.1445 29.6059 50.3722 29.6817 51.6165 29.5663C52.7708 29.4602 53.3941 28.7806 53.3622 27.7723C53.3504 27.4097 53.1931 27.1486 52.9364 26.9166C52.4468 26.4772 51.8613 26.209 51.2486 25.9864C50.2894 25.639 49.3255 25.3021 48.4266 24.816C46.2763 23.6527 46.1096 21.0823 48.0871 19.6601C49.3349 18.7637 50.7554 18.5854 52.2457 18.7008V18.7019Z" fill="white"/>
<path d="M100.745 26.8398C100.745 28.2154 100.73 29.5909 100.754 30.9652C100.761 31.3488 100.649 31.4793 100.262 31.4455C99.9108 31.4152 99.5524 31.4187 99.2 31.4443C98.7198 31.4781 98.32 31.4793 98.2597 30.8405C98.2218 30.4418 97.9474 30.7438 97.8481 30.8079C96.6499 31.5749 95.3276 31.6145 93.9781 31.4677C92.4133 31.2963 91.1336 29.9289 91.0354 28.3914C90.9171 26.5356 90.845 24.6786 90.8734 22.8182C90.8816 22.3064 91.0934 22.1257 91.5807 22.1479C92.2264 22.177 93.0354 21.9322 93.4719 22.3052C93.8965 22.6666 93.6067 23.4721 93.6316 24.0806C93.6848 25.3384 93.7049 26.5974 93.7333 27.8563C93.7593 28.9812 94.4997 29.6771 95.6647 29.6655C97.0119 29.6527 97.8398 28.8786 97.8812 27.5696C97.9321 25.9632 97.9853 24.3557 97.9971 22.7482C98.0007 22.3064 98.1296 22.1747 98.566 22.2073C99.0746 22.2446 99.5915 22.2505 100.1 22.2073C100.616 22.1619 100.721 22.367 100.712 22.8321C100.683 24.168 100.701 25.5051 100.701 26.8422C100.715 26.8422 100.729 26.8422 100.743 26.8422L100.745 26.8398Z" fill="white"/>
<path d="M73.661 31.0653C73.4185 29.0253 73.4989 26.9666 73.3144 24.922C73.1997 23.6561 72.179 22.5148 70.8981 22.2502C70.1458 22.0952 69.3806 22.0451 68.3752 22.0101C67.5994 21.9401 66.6875 22.3097 65.7554 22.6186C65.1345 22.8249 65.1854 23.1711 65.3888 23.6432C65.7294 24.4359 65.7566 24.4592 66.4071 24.2377C67.4551 23.8822 68.5148 23.6048 69.6372 23.8729C70.1269 23.9894 70.5007 24.2436 70.6828 24.7192C70.8023 25.0316 70.7337 25.2519 70.3469 25.2869C69.9944 25.3195 69.6432 25.3568 69.2919 25.3964C67.953 25.5468 66.6413 25.7928 65.5402 26.6274C63.9127 27.8607 64.0712 30.001 65.8347 31.0128C67.4125 31.9174 68.9643 31.6341 70.5196 30.9732C70.8117 30.8484 71.1275 30.6048 71.2044 31.1888C71.2269 31.3578 71.4161 31.4161 71.5758 31.4196C72.166 31.4301 72.7562 31.429 73.3464 31.4301C73.5959 31.4313 73.6906 31.3182 73.661 31.0653ZM68.0736 29.7597C67.5875 29.6338 67.1925 29.3866 67.0943 28.8691C67.0044 28.3853 67.2457 28.0088 67.6017 27.6999C68.0039 27.349 68.5136 27.2662 69.0151 27.1753C69.4196 27.1019 69.83 27.0634 70.4368 26.9818C70.7715 26.892 70.891 27.1776 70.891 27.6206C70.8898 29.0637 69.4977 30.1269 68.0736 29.7597Z" fill="white"/>
<path d="M129.198 27.2197C130.022 27.2675 130.851 27.2325 131.678 27.2325H133.509C134.843 27.2325 134.987 27.067 134.812 25.7439C134.795 25.6087 134.785 25.4735 134.76 25.3406C134.465 23.7634 133.806 22.3809 132.093 21.9915C130.385 21.6034 128.723 21.8132 127.597 23.3799C126.472 24.9466 126.158 26.6765 126.82 28.5067C127.348 29.9638 128.317 31.0292 129.943 31.2717C131.033 31.4337 132.145 31.3883 133.231 31.1528C134.336 30.9127 134.429 30.7122 134.135 29.6316C134.02 29.2061 133.86 29.058 133.402 29.2352C132.504 29.5838 131.563 29.6129 130.615 29.459C129.728 29.3157 128.977 28.6442 128.759 27.7979C128.661 27.4202 128.664 27.1882 129.198 27.2197ZM128.759 25.1704C129.117 24.4815 129.454 23.7832 130.353 23.5991C131.414 23.3811 132.358 23.9243 132.619 24.9466C132.693 25.2369 132.603 25.3756 132.295 25.4245L130.531 25.4432C130.021 25.4432 129.51 25.4479 129 25.4397C128.837 25.4374 128.644 25.3907 128.759 25.1704Z" fill="white"/>
<path d="M86.7755 26.4867C86.7755 27.1838 86.7507 27.8809 86.7826 28.5768C86.8169 29.3322 87.3042 29.725 88.0694 29.6749C89.4651 29.5839 89.4568 29.5828 89.3965 30.9432C89.3847 31.2031 89.3078 31.3069 89.0523 31.3745C88.0198 31.6472 86.9955 31.6577 85.9748 31.3325C84.8216 30.9653 84.2503 30.2694 84.1959 29.078C84.1273 27.5696 84.0835 26.06 84.0705 24.5516C84.067 24.1075 83.9262 24.0002 83.4945 24.0084C82.4336 24.0282 82.4336 24.0084 82.4336 22.9989C82.4336 22.423 82.7198 22.1351 83.2923 22.1351C83.8016 22.1351 84.0642 21.8787 84.08 21.3658C84.1052 20.5808 84.5152 20.0963 85.3101 19.9121C86.2618 19.6914 86.7376 20.0551 86.7376 21.0032C86.7376 21.7586 87.1299 22.1363 87.9145 22.1363H88.0919C89.5763 22.1363 89.5585 22.1363 89.5372 23.5911C89.5313 23.9769 89.3823 24.0364 89.0499 24.0247C88.4609 24.0049 87.8684 24.0492 87.2805 24.0096C86.8193 23.9781 86.7081 24.1518 86.7294 24.5726C86.7613 25.2102 86.7376 25.8502 86.7376 26.489C86.7507 26.489 86.7625 26.489 86.7755 26.489V26.4867Z" fill="white"/>
<path d="M58.3622 26.7557C58.3622 26.0003 58.3492 25.2438 58.3681 24.4896C58.3764 24.1562 58.303 24.0105 57.9163 24.0058C56.7548 23.9907 56.7903 23.9709 56.7406 22.8087C56.7158 22.2375 56.8849 22.0346 57.4503 22.1302C57.6028 22.1559 57.7661 22.1209 57.9222 22.1372C58.238 22.1698 58.4142 22.0754 58.3645 21.7292C58.3539 21.6534 58.3551 21.573 58.3645 21.4972C58.4189 21.0496 58.1304 20.3922 58.5077 20.1928C59.1452 19.8548 59.9199 19.7324 60.6697 19.6997C60.9903 19.6857 61.0198 19.9632 61.0234 20.201C61.0328 20.7244 61.0423 21.2478 61.0257 21.77C61.0175 22.0475 61.1133 22.1395 61.3948 22.1384C62.024 22.1384 62.6544 22.178 63.2836 22.1792C63.6112 22.1792 63.7638 22.248 63.7686 22.6303C63.7827 23.9732 63.8005 23.9732 62.4297 23.9953C61.4969 24.0109 61.0309 24.4803 61.0317 25.4035C61.034 26.4305 61.0234 27.4575 61.0565 28.4833C61.0872 29.4636 61.4504 29.7551 62.438 29.6676C63.5994 29.5651 63.6763 29.649 63.6503 30.8287C63.6432 31.1527 63.5178 31.3544 63.2056 31.415C62.1494 31.6202 61.0896 31.6831 60.0665 31.2833C59.0387 30.8823 58.4568 30.1293 58.4272 29.0207C58.4071 28.2665 58.4237 27.5111 58.4237 26.7557C58.4036 26.7557 58.3835 26.7557 58.3645 26.7557H58.3622Z" fill="white"/>
<path d="M152.466 21.8646C153.119 21.8728 153.76 21.9101 154.365 22.198C154.747 22.3799 154.908 22.6223 154.734 23.028C154.712 23.0816 154.702 23.1399 154.685 23.1947C154.489 23.8296 154.072 24.0309 153.432 23.7985C152.982 23.6353 152.518 23.5631 152.04 23.6435C151.683 23.7041 151.412 23.8895 151.327 24.2497C151.236 24.6355 151.393 24.9398 151.742 25.1274C152.311 25.4328 152.893 25.7149 153.462 26.0227C154.841 26.7711 155.263 27.5544 155.08 28.9976C154.935 30.1271 154.142 30.9047 152.763 31.2415C151.554 31.5376 150.384 31.3791 149.242 30.9256C148.9 30.7904 148.732 30.6121 148.905 30.2192C149.073 29.8345 148.997 29.2668 149.36 29.0652C149.715 28.8693 150.098 29.3006 150.482 29.4195C151.017 29.5851 151.559 29.6608 152.111 29.5699C152.491 29.507 152.837 29.3508 152.96 28.9463C153.09 28.5173 152.894 28.1967 152.563 27.9333C152.239 27.6745 151.863 27.5066 151.498 27.3166C151.064 27.0905 150.623 26.8725 150.222 26.5962C149.254 25.9306 148.873 25.0027 149.131 24.0468C149.434 22.9219 150.487 21.9964 151.581 21.9031C151.874 21.8786 152.17 21.8751 152.466 21.8623V21.8646Z" fill="white"/>
<path d="M78.281 23.026C79.1657 22.4198 79.99 22.0351 80.9433 21.9978C81.8588 21.9629 81.9723 22.0678 81.9664 22.9526C81.9664 22.9724 81.9664 22.991 81.9664 23.0108C81.9546 24.0192 81.9546 24.0238 80.9575 24.0576C79.951 24.0926 78.7257 24.6976 78.7067 26.1151C78.6855 27.683 78.5743 29.2497 78.5518 30.8175C78.5447 31.285 78.3886 31.4167 77.9498 31.4039C77.4388 31.3899 76.9243 31.4016 76.4157 31.447C76.0089 31.4843 75.9273 31.327 75.9296 30.9598C75.9403 29.0806 75.9225 27.2015 75.9225 25.3236C75.9225 24.4516 75.9143 23.5774 75.796 22.7136C75.725 22.2018 75.9083 22.0713 76.3921 22.1319C76.7812 22.1809 77.1774 22.1715 77.5713 22.1797C78.0491 22.189 78.3886 22.3324 78.2833 23.026H78.281Z" fill="white"/>
<path d="M181.715 18.7144C171.544 19.2774 162.984 26.9354 161.457 36.8316C161.331 37.6337 161.208 38.4404 161.228 39.2518C161.235 39.5537 161.17 39.7123 161 39.7869H182.934V18.3262C182.816 18.6491 182.511 18.6701 181.714 18.7144H181.715ZM177.964 28.0102C178.362 28.051 178.666 28.2014 178.663 28.6153C178.661 29.0221 178.415 29.2833 177.988 29.2973C177.557 29.3124 177.385 29.021 177.35 28.6549C177.311 28.2247 177.613 28.0802 177.964 28.0091V28.0102ZM167.578 34.4033C167.167 34.3847 166.872 34.0046 166.901 33.5208C166.93 33.0522 167.206 32.7992 167.665 32.7747C168.07 32.7538 168.393 33.1676 168.378 33.6351C168.365 34.0991 168.027 34.4255 167.578 34.4045V34.4033ZM171.681 28.9137C171.541 28.93 171.392 28.923 171.263 28.9708C170.987 29.0723 170.866 29.3066 170.865 29.5794C170.862 29.8207 171.045 29.9151 171.268 29.9303C171.55 29.9489 171.716 30.062 171.712 30.3686C171.706 30.6705 171.598 30.8629 171.259 30.8664C170.938 30.871 170.875 31.0646 170.871 31.3397C170.859 32.0916 170.822 32.8412 170.804 33.5931C170.788 34.2669 170.794 34.2681 170.044 34.2681C169.512 34.415 169.413 34.1084 169.437 33.5931C169.469 32.9228 169.444 32.249 169.412 31.5787C169.399 31.2791 169.411 30.9748 169.094 30.7381C168.887 30.5819 168.875 30.1867 169.102 30.0538C169.448 29.8487 169.43 29.5537 169.507 29.2576C169.758 28.2994 170.582 27.7736 171.608 27.8692C171.932 27.8995 172.022 28.051 172.009 28.3297C171.999 28.5815 172.064 28.8706 171.677 28.916L171.681 28.9137ZM176.457 30.4793C175.965 31.9016 175.473 33.3227 174.798 34.675C174.48 35.3103 174.03 35.8384 173.331 36.1054C173.124 36.1846 172.853 36.3782 172.723 36.0354C172.613 35.7451 172.356 35.4152 172.715 35.1168C173.061 34.8288 173.643 34.6551 173.67 34.2052C173.694 33.7901 173.389 33.3553 173.223 32.9321C172.891 32.0834 172.568 31.2313 172.214 30.3919C172.069 30.0492 172.128 29.9489 172.512 29.9396C173.501 29.9139 173.504 29.8976 173.783 30.8232C173.971 31.4458 174.148 32.0741 174.374 32.8482C174.753 31.9809 174.896 31.2056 175.096 30.4467C175.213 29.9979 176.096 29.7286 176.441 30.0387C176.591 30.1739 176.506 30.3418 176.457 30.4817V30.4793ZM178.686 30.4024C178.638 30.9713 178.675 31.5472 178.675 32.1196C178.675 32.692 178.658 33.2655 178.682 33.8368C178.695 34.1702 178.591 34.2833 178.243 34.2751C177.099 34.246 177.338 34.3555 177.324 33.4241C177.31 32.4169 177.353 31.4085 177.31 30.4024C177.283 29.7682 177.713 29.9582 178.033 29.9443C178.358 29.9291 178.734 29.83 178.686 30.4024Z" fill="white"/>
</g>
<defs>
<clipPath id="clip0_4083_10509">
<rect width="141.82" height="29.9152" fill="white" transform="translate(41.0898 10.0425)"/>
</clipPath>
</defs>
</svg>
