<svg width="224" height="50" viewBox="0 0 224 50" fill="none" xmlns="http://www.w3.org/2000/svg">
<g clip-path="url(#clip0_4083_10527)">
<path d="M107.711 6.07857C107.448 6.6479 107.476 7.38712 107.785 8.09878L107.872 8.30999L113.333 8.31917L118.789 8.33294L116.075 12.2586C114.586 14.4165 113.365 16.2026 113.365 16.2301C113.365 16.2806 114.388 16.9877 114.453 16.9877C114.471 16.9831 115.72 15.1971 117.227 13.0116C118.734 10.8307 119.982 9.0492 120.001 9.05379C120.019 9.06297 120.738 10.0685 121.6 11.2944L123.157 13.5212L127.936 13.5442L132.715 13.5671L134.784 17.1392L136.853 20.7113L136.139 22.0061C135.747 22.7178 134.784 24.4717 133.996 25.9042L132.563 28.5121H127.65L122.738 28.5167L121.268 31.0603L119.798 33.604L117.909 30.794C116.867 29.2467 115.595 27.3505 115.075 26.5699C114.554 25.794 114.107 25.1604 114.079 25.1604C114.001 25.1604 113.268 25.6608 113.268 25.7159C113.268 25.7389 114.554 27.6765 116.125 30.0135C117.697 32.3505 118.978 34.2743 118.969 34.2835C118.959 34.2927 116.531 34.311 113.572 34.3294L108.19 34.3569L108.084 34.4993C108.024 34.5773 107.895 34.8069 107.798 35.0089C107.628 35.3625 107.623 35.3946 107.623 35.8583C107.623 36.2945 107.637 36.368 107.752 36.5975C107.821 36.7445 107.955 36.9419 108.052 37.0429L108.222 37.2266L118.107 37.1898C123.544 37.1669 129.931 37.1485 132.3 37.1485L136.613 37.1439L141.148 29.2651C143.645 24.9354 145.705 21.3404 145.728 21.2807C145.765 21.1888 145.194 20.1604 141.378 13.5028L136.982 5.83064H122.402H107.826L107.711 6.07857ZM138.152 13.4386C139.761 16.2623 141.267 18.9069 141.502 19.3201L141.926 20.0639L139.986 20.0548L138.051 20.041L135.784 16.1291L133.521 12.2173L128.71 12.2035L123.899 12.1897L122.549 10.2613C121.803 9.20071 121.194 8.32835 121.194 8.31917C121.194 8.31458 124.351 8.30999 128.213 8.30999H135.226L138.152 13.4386ZM142.742 21.5056C142.761 21.5883 142 22.9336 139.111 27.9198L135.457 34.2284L131.125 34.2605C128.742 34.2789 125.402 34.2927 123.706 34.2835L120.614 34.2743L121.978 31.9235L123.337 29.5727L128.259 29.5589L133.185 29.5452L135.424 25.468L137.669 21.3954H140.189H142.714L142.742 21.5056Z" fill="white"/>
<path d="M85.8344 6.18467C85.8252 6.20763 83.8437 9.66495 81.4336 13.8753L77.0513 21.5291L81.6318 29.486L86.2123 37.4429L95.2812 37.4566L104.345 37.4658L104.493 37.3235C104.576 37.2454 104.7 37.0526 104.769 36.8965C104.885 36.6531 104.898 36.5613 104.898 36.2032C104.898 35.7395 104.829 35.4777 104.571 34.9314L104.405 34.5778L104.143 34.5641L103.88 34.5503L106.728 30.3078C108.299 27.9754 109.58 26.0516 109.58 26.0333C109.58 25.9965 108.815 25.4823 108.76 25.4823C108.737 25.4823 107.447 27.3739 105.894 29.6834C104.341 31.9929 103.055 33.8845 103.041 33.8845C103.027 33.8845 102.359 32.7551 101.557 31.3685L100.101 28.857L95.1798 28.834L90.2629 28.811L88.1247 24.9221L85.9865 21.0332L88.0463 17.4749L90.1108 13.912L94.8802 13.9028L99.6497 13.889L101.226 11.6392C102.092 10.4042 102.82 9.38487 102.839 9.38028C102.857 9.3711 104.11 11.1526 105.617 13.3381C107.124 15.5236 108.373 17.3096 108.391 17.3096C108.437 17.3096 109.433 16.6301 109.465 16.575C109.479 16.552 108.267 14.7614 106.769 12.5943L104.046 8.65484L104.281 8.64107C104.511 8.62729 104.521 8.6227 104.603 8.42527C104.908 7.71361 104.935 6.96521 104.673 6.39129L104.562 6.15253H95.2074C90.0647 6.15253 85.8436 6.16631 85.8344 6.18467ZM101.461 8.91655C101.345 9.07725 100.733 9.95421 100.092 10.8679L98.9262 12.5346H94.1245H89.3228L87.051 16.4602L84.7745 20.3858H82.8437H80.9083L80.9959 20.2343C81.0465 20.1563 82.5534 17.5116 84.346 14.3573L87.6132 8.63189H94.636H101.663L101.461 8.91655ZM87.415 25.7945L89.6546 29.8671L94.5807 29.89L99.5068 29.913L100.816 32.1628C101.53 33.3978 102.138 34.4493 102.166 34.4906C102.207 34.5687 101.843 34.5732 94.8019 34.5732H87.392L83.7193 28.2325C80.512 22.6953 80.0512 21.8826 80.1019 21.8046C80.1526 21.7219 80.2447 21.7173 82.6686 21.7173L85.1801 21.7219L87.415 25.7945Z" fill="white"/>
<path d="M123.868 18.4759V20.4318H112.071H100.274L100.394 20.1977C100.951 19.1003 100.5 17.6357 99.4443 17.1031C98.9558 16.8551 98.7807 16.8413 96.3246 16.8184L94.0527 16.7954V21.396V25.9966L96.4858 25.9736C99.1079 25.9507 99.2323 25.9369 99.7346 25.689C100.407 25.3492 100.887 24.6054 101.011 23.7009C101.094 23.0902 100.956 22.4015 100.665 21.9745L100.555 21.8092H112.209H123.868V23.7606V25.7119H124.743H125.619V23.9901V22.2684H126.416C127.904 22.2684 128.577 22.1536 129.098 21.8184C129.605 21.4924 130.006 20.9093 130.162 20.2665C130.268 19.8349 130.268 18.8662 130.162 18.4575C129.983 17.7596 129.526 17.126 128.992 16.8368C128.531 16.5888 128.324 16.5659 126.001 16.5429L123.868 16.52V18.4759ZM127.775 18.2463C128.033 18.3565 128.356 18.7192 128.43 18.9855C128.577 19.5089 128.397 20.1058 128.006 20.3859C127.72 20.5925 127.559 20.6247 126.554 20.6476L125.619 20.6752V19.3988V18.1269L126.6 18.1453C127.407 18.1591 127.609 18.1774 127.775 18.2463ZM97.9466 18.407C98.1494 18.4254 98.3936 18.4805 98.4904 18.5264C98.8314 18.6871 99.0203 19.1646 98.9328 19.6283C98.8821 19.9038 98.7024 20.138 98.4259 20.2941C98.2277 20.4089 98.2047 20.4089 97.0158 20.4226L95.8038 20.4364V19.4033V18.3657L96.6932 18.3703C97.1771 18.3703 97.7439 18.3886 97.9466 18.407ZM97.9052 22.0388C98.6655 22.0985 98.9328 22.2408 99.1494 22.7046C99.4212 23.2739 99.2139 23.9764 98.6932 24.2564C98.5088 24.3529 98.4443 24.3575 97.154 24.3712L95.8038 24.385V23.1912V21.9929H96.601C97.0342 21.9929 97.6241 22.0113 97.9052 22.0388Z" fill="white"/>
<path d="M104.868 39.9497C104.002 40.1517 103.454 40.9644 103.454 42.0571C103.454 43.1085 103.928 43.8202 104.804 44.0865C105.228 44.2105 105.919 44.1875 106.334 44.0314C106.716 43.8845 107.177 43.4253 107.315 43.0534C107.536 42.4703 107.555 41.7311 107.366 41.171C107.154 40.5511 106.712 40.1287 106.103 39.968C105.808 39.8946 105.154 39.8808 104.868 39.9497ZM105.997 40.7807C106.421 41.0149 106.619 41.4924 106.573 42.1903C106.555 42.4887 106.523 42.6264 106.417 42.8331C106.016 43.6182 104.937 43.6136 104.527 42.8285C104.366 42.5117 104.325 41.8459 104.44 41.4419C104.638 40.7623 105.389 40.4409 105.997 40.7807Z" fill="white"/>
<path d="M110.345 39.991C109.815 40.1655 109.405 40.5741 109.211 41.1159C109.091 41.4649 109.041 42.2821 109.119 42.6632C109.248 43.2647 109.644 43.7789 110.174 44.0223C110.382 44.1141 110.529 44.1463 110.861 44.16C111.672 44.1968 112.23 43.9029 112.529 43.2831C112.764 42.7918 112.778 42.8239 112.313 42.6862C112.087 42.6173 111.893 42.5622 111.875 42.5622C111.861 42.5622 111.815 42.6632 111.773 42.7872C111.64 43.1912 111.207 43.4805 110.838 43.4116C110.474 43.3428 110.216 43.1361 110.091 42.8102C109.926 42.3786 109.953 41.5383 110.147 41.1435C110.257 40.9139 110.552 40.7027 110.829 40.6568C111.197 40.5925 111.64 40.8359 111.76 41.1664C111.819 41.3317 111.866 41.3455 112.119 41.2812C112.207 41.2537 112.368 41.2124 112.478 41.1848C112.7 41.1297 112.713 41.0746 112.584 40.7854C112.446 40.4869 112.156 40.2022 111.829 40.0553C111.442 39.8808 110.769 39.8487 110.345 39.991Z" fill="white"/>
<path d="M120.996 39.9491C120.531 40.0593 120.056 40.4312 119.84 40.8582C119.604 41.3174 119.517 42.029 119.628 42.6121C119.697 42.9795 119.964 43.4937 120.194 43.6865C120.623 44.0584 121.07 44.1916 121.743 44.1594C122.309 44.1273 122.632 44.0079 122.964 43.7049C123.254 43.4386 123.415 43.1861 123.512 42.8371C123.895 41.4827 123.3 40.2108 122.157 39.9491C121.913 39.8894 121.24 39.894 120.996 39.9491ZM122.098 40.7618C122.199 40.8123 122.323 40.9041 122.379 40.9638C122.65 41.2531 122.775 41.8821 122.669 42.4423C122.554 43.0621 122.176 43.4065 121.614 43.4065C120.904 43.411 120.503 42.9106 120.503 42.0382C120.503 41.2806 120.757 40.8628 121.333 40.6746C121.508 40.6149 121.899 40.6608 122.098 40.7618Z" fill="white"/>
<path d="M77.001 40.3122V40.6795H77.6H78.1991V42.4013V44.123H78.6369H79.0746V42.4013V40.6795H79.6968H80.3189V40.3122V39.9449H78.6599H77.001V40.3122Z" fill="white"/>
<path d="M81.9326 42.034V44.123H82.3704H82.8082V43.2277V42.3324H83.5916H84.3749V43.2277V44.123H84.8127H85.2505V42.034V39.9449H84.8127H84.3749V40.7484V41.5519H83.5916H82.8082V40.7484V39.9449H82.3704H81.9326V42.034Z" fill="white"/>
<path d="M87.1885 42.034V44.123H88.7783H90.3681V43.7557V43.3884H89.2161H88.064V42.8375V42.2865H89.1009H90.1377V41.9192V41.5519H89.1009H88.064V41.1157V40.6795H89.17H90.2759V40.3122V39.9449H88.7322H87.1885V42.034Z" fill="white"/>
<path d="M93.7285 42.0343V44.1372L95.0096 44.1143C96.2077 44.0913 96.2999 44.0821 96.5303 43.9857C97.1293 43.7286 97.3966 42.9756 97.0971 42.3833C96.9957 42.1905 96.7791 41.9976 96.5902 41.9425L96.4842 41.9104L96.6086 41.8277C96.6731 41.7864 96.7883 41.6716 96.8528 41.5752C96.9542 41.4329 96.9819 41.3456 96.9911 41.0518C97.0095 40.7212 97.0003 40.6937 96.8528 40.4733C96.7376 40.2988 96.6317 40.2116 96.4243 40.106L96.1524 39.9682L94.9405 39.9544L93.7285 39.9361V42.0343ZM96.0418 40.859C96.157 40.9875 96.1754 41.0426 96.157 41.1758C96.0971 41.5155 95.8944 41.5982 95.1248 41.5982H94.6041V41.1344V40.6707L95.2538 40.6891L95.9036 40.7028L96.0418 40.859ZM95.9543 42.3833C96.369 42.4981 96.4335 43.1133 96.0464 43.2924C95.9681 43.3291 95.6593 43.3659 95.263 43.3796L94.6041 43.4026V42.8654V42.3328H95.1939C95.5165 42.3328 95.8575 42.3557 95.9543 42.3833Z" fill="white"/>
<path d="M114.513 42.034V44.123H114.951H115.389V43.494V42.8696L115.702 42.5436L116.02 42.2176L116.573 43.1589L117.126 44.1001L117.693 44.1139C118.181 44.123 118.255 44.1185 118.232 44.0588C118.214 44.0174 117.849 43.4481 117.421 42.787L116.633 41.5886L117.393 40.8035C117.813 40.3719 118.154 40 118.154 39.9816C118.154 39.9632 117.896 39.9449 117.582 39.9449H117.015L116.214 40.8172L115.412 41.6896L115.398 40.8172L115.389 39.9449H114.951H114.513V42.034Z" fill="white"/>
<path d="M125.341 42.0294V44.123H125.779H126.217V43.3471V42.5712L126.899 42.5528C127.475 42.5344 127.613 42.5161 127.807 42.4288C128.3 42.2084 128.521 41.8457 128.516 41.2534C128.516 40.652 128.332 40.3168 127.89 40.101C127.641 39.977 127.622 39.977 126.489 39.9541L125.341 39.9311V42.0294ZM126.991 40.7208C127.268 40.753 127.355 40.7851 127.466 40.8907C127.636 41.0514 127.678 41.2626 127.581 41.4692C127.461 41.7217 127.291 41.7906 126.719 41.8182L126.217 41.8411V41.258V40.6795H126.438C126.558 40.6841 126.807 40.7025 126.991 40.7208Z" fill="white"/>
<path d="M130.273 42.034V44.123H131.863H133.453V43.7557V43.3884H132.301H131.149V42.8375V42.2865H132.185H133.222V41.9192V41.5519H132.185H131.149V41.1157V40.6795H132.277H133.406V40.3122V39.9449H131.84H130.273V42.034Z" fill="white"/>
<path d="M135.25 42.0294V44.123H136.116C137.494 44.1185 137.844 44.0312 138.259 43.5721C138.641 43.1497 138.812 42.4242 138.71 41.6483C138.632 41.0376 138.507 40.7576 138.176 40.4224C137.766 40.0092 137.669 39.9862 136.346 39.9587L135.25 39.9357V42.0294ZM137.272 40.7989C137.498 40.8953 137.6 40.9917 137.706 41.2259C137.835 41.5197 137.867 42.2589 137.766 42.6538C137.623 43.2231 137.448 43.3379 136.655 43.3747L136.125 43.4022V42.034V40.6657L136.618 40.6979C136.89 40.7162 137.185 40.7621 137.272 40.7989Z" fill="white"/>
<path d="M140.503 42.034V44.123H140.941H141.378V42.034V39.9449H140.941H140.503V42.034Z" fill="white"/>
<path d="M144.406 39.977C144.374 40.0321 142.844 43.9532 142.817 44.045C142.798 44.1185 142.835 44.123 143.268 44.1139L143.743 44.1001L143.909 43.6272L144.07 43.1589L144.872 43.168L145.674 43.1818L145.858 43.6547L146.038 44.123H146.526C146.895 44.123 147.005 44.1093 146.987 44.0634C146.978 44.0358 146.595 43.0946 146.144 41.9743L145.323 39.9449H144.872C144.628 39.9449 144.416 39.9587 144.406 39.977ZM145.125 41.7401L145.374 42.4013L144.89 42.415C144.623 42.4196 144.397 42.4196 144.388 42.4059C144.374 42.3921 144.476 42.0845 144.609 41.7172C144.738 41.3453 144.858 41.0514 144.863 41.0606C144.872 41.0698 144.992 41.3728 145.125 41.7401Z" fill="white"/>
<path d="M99.0298 42.0569V44.123H100.504H101.979V43.7557V43.3884H100.942H99.9053V41.6896V39.9908H99.4676H99.0298V42.0569Z" fill="white"/>
</g>
<defs>
<clipPath id="clip0_4083_10527">
<rect width="69.998" height="38.3381" fill="white" transform="translate(77.001 5.83105)"/>
</clipPath>
</defs>
</svg>
