<svg width="224" height="50" viewBox="0 0 224 50" fill="none" xmlns="http://www.w3.org/2000/svg">
<path d="M77.8326 7.39897C76.1575 7.45969 74.7216 7.69424 73.1655 8.16094C71.1975 8.75147 69.3866 9.65393 67.6889 10.8921C66.2875 11.9125 64.96 13.2316 63.9064 14.6496C62.9742 15.9045 62.186 17.3332 61.6371 18.7631C61.4776 19.1798 61.4705 19.2071 61.5193 19.2393C61.5443 19.2548 62.2503 19.2572 67.9996 19.2536C71.5475 19.2524 74.9871 19.2524 75.6419 19.2536C77.2778 19.256 78.2648 19.281 79.3208 19.3476C80.259 19.406 80.8805 19.5572 81.546 19.8905C82.3961 20.3168 83.0045 20.9252 83.4224 21.7657C83.9784 22.8884 84.0451 24.1314 83.6188 25.4184C83.0521 27.1257 81.6639 28.0972 79.4208 28.352C79.0458 28.3949 78.4243 28.4365 78.1529 28.4365C78.0576 28.4365 78.0052 28.4413 77.9957 28.4508C77.9671 28.4794 77.9814 28.5211 78.0445 28.6008C78.0802 28.6449 78.4279 29.0925 78.8172 29.5973C81.1055 32.5607 84.1117 36.4491 85.1487 37.7885C85.8071 38.6398 86.5203 39.5613 86.7334 39.8363C87.1608 40.39 87.162 40.3912 87.2572 40.3626C87.4049 40.3161 88.3871 39.7066 88.9455 39.3137C91.3302 37.6326 93.2804 35.38 94.5769 32.806C96.0223 29.9379 96.6331 26.7816 96.3688 23.5432C96.2092 21.5788 95.702 19.6358 94.8793 17.8285C94.7496 17.5451 94.4114 16.8748 94.2495 16.5843C93.6923 15.5806 93.0208 14.6067 92.3005 13.7591C90.9028 12.1137 89.1943 10.7124 87.2977 9.65631C86.9644 9.47058 86.2464 9.11222 85.8928 8.95625C83.9843 8.11094 81.9377 7.59185 79.9221 7.44183C79.3304 7.39778 78.3922 7.37754 77.8326 7.39897ZM79.1899 11.3636C79.4744 11.3815 79.7852 11.4077 80.0352 11.4362C82.2497 11.6851 84.3379 12.4506 86.2083 13.6983C87.0025 14.2281 87.6704 14.777 88.3573 15.4652C89.0467 16.1545 89.5729 16.7974 90.1075 17.6022C90.8409 18.7083 91.3564 19.7703 91.7719 21.0371C91.9076 21.4514 91.9755 21.6907 91.966 21.7276C91.9624 21.7431 91.9481 21.7621 91.935 21.7693C91.9196 21.7776 91.61 21.7812 91.0064 21.7824C90.1408 21.7824 90.0992 21.7824 90.0622 21.7609C90.0027 21.7252 89.9801 21.6812 89.8932 21.4288C89.4777 20.2096 88.911 19.1393 88.1442 18.1201C86.9691 16.5581 85.5166 15.3497 83.7974 14.5008C82.4985 13.8603 81.2067 13.4781 79.8387 13.3293C77.4135 13.0661 75.1455 13.4638 73.0167 14.5258C72.1535 14.9568 71.4154 15.439 70.6796 16.0521C70.1117 16.526 69.539 17.101 69.0795 17.6618C68.933 17.8392 68.889 17.8797 68.8151 17.8999C68.7878 17.907 68.3853 17.9118 67.7103 17.9118C66.6626 17.9118 66.6471 17.9118 66.6233 17.888C66.6102 17.8749 66.5995 17.857 66.5995 17.8487C66.5995 17.8296 66.9328 17.3332 67.0924 17.1141C67.9472 15.9461 69.0425 14.852 70.2034 14.0091C71.894 12.7816 73.8573 11.941 75.8943 11.572C76.4682 11.4684 77.229 11.385 77.8862 11.3517C78.1386 11.3398 78.9101 11.3457 79.1899 11.3636ZM91.8136 29.3842C91.8315 29.3961 91.8398 29.414 91.8398 29.4414C91.8398 29.4628 91.791 29.6247 91.7314 29.8009C91.154 31.513 90.3087 33.0179 89.1538 34.3894C88.7883 34.824 88.2323 35.4002 87.8275 35.7634C87.3477 36.1944 86.787 36.6372 86.3203 36.9516C86.1417 37.073 86.1095 37.0837 86.0571 37.0397C86.0369 37.0218 85.894 36.8194 85.7404 36.5884C85.5869 36.3587 85.3797 36.0515 85.2797 35.9074C85.0856 35.6264 85.0654 35.5943 85.0654 35.5586C85.0654 35.5169 85.1106 35.4764 85.2999 35.3455C86.8894 34.2501 88.1633 32.8345 89.1026 31.1213C89.3348 30.6963 89.5801 30.1605 89.7551 29.6926C89.8015 29.5676 89.8491 29.4533 89.861 29.4366C89.8729 29.42 89.9015 29.3973 89.9241 29.3866C89.9611 29.3664 90.0313 29.3652 90.8754 29.3652C91.6814 29.3652 91.7898 29.3676 91.8136 29.3842Z" fill="white"/>
<path d="M100.095 10.5325L100.099 11.5004L101.424 11.504L102.748 11.5063V14.8874V18.2686H103.831H104.914V14.8874V11.5063H106.23H107.546V10.536V9.56576H103.819H100.093L100.095 10.5325Z" fill="white"/>
<path d="M108.701 13.9172V18.2686H109.785H110.868V16.5363V14.8041H112.648H114.428V16.5363V18.2686H115.511H116.594V13.9172V9.56576H115.511H114.428V11.2147V12.8635H112.648H110.868V11.2147V9.56576H109.785H108.701V13.9172Z" fill="white"/>
<path d="M118.212 13.9172V18.2686H121.635H125.057V17.2983V16.328H122.718H120.379V15.566V14.8041H122.504H124.629V13.8338V12.8635H122.504H120.379V12.1849V11.5063H122.718H125.057V10.536V9.56576H121.635H118.212V13.9172Z" fill="white"/>
<path d="M104.704 20.4899C104.31 20.5185 104.071 20.553 103.8 20.6197C102.565 20.9233 101.502 21.7019 100.858 22.7746C100.211 23.8532 100.064 25.1163 100.448 26.2985C100.929 27.7736 102.214 28.9582 103.758 29.3463C104.154 29.4463 104.482 29.4868 104.901 29.4868C105.285 29.488 105.534 29.4618 105.907 29.382C106.734 29.2034 107.499 28.801 108.145 28.2022C108.228 28.1236 108.311 28.0439 108.326 28.0236L108.355 27.9855L107.619 27.3331C107.214 26.9736 106.863 26.6616 106.839 26.6402L106.796 26.6009L106.643 26.7581C106.559 26.8438 106.447 26.9486 106.395 26.9914C106.088 27.2391 105.716 27.4153 105.329 27.4974C105.22 27.52 105.169 27.5236 104.907 27.5236C104.627 27.5248 104.6 27.5224 104.457 27.4914C103.964 27.3855 103.526 27.1402 103.175 26.7736C102.704 26.2842 102.448 25.6509 102.448 24.983C102.448 24.5865 102.527 24.2472 102.703 23.8818C103.054 23.1579 103.692 22.6484 104.451 22.4876C104.65 22.446 105.006 22.4341 105.21 22.4638C105.785 22.5472 106.335 22.8567 106.726 23.3151L106.78 23.3793L107.566 22.6793C108.245 22.0757 108.351 21.9781 108.342 21.959C108.324 21.9245 108.032 21.659 107.878 21.5376C107.157 20.9614 106.299 20.6078 105.399 20.5137C105.228 20.4959 104.818 20.4816 104.704 20.4899Z" fill="white"/>
<path d="M113.303 20.498C112.147 20.5789 111.077 21.0623 110.264 21.873C109.871 22.2647 109.61 22.6278 109.373 23.1112C108.924 24.0231 108.813 25.016 109.052 25.9887C109.338 27.1554 110.112 28.1816 111.187 28.8245C112.255 29.4615 113.513 29.6531 114.712 29.3603C116.44 28.9388 117.806 27.5757 118.181 25.9006C118.365 25.0851 118.297 24.2267 117.99 23.4445C117.759 22.8576 117.427 22.354 116.962 21.8909C116.342 21.2694 115.59 20.8432 114.74 20.6313C114.287 20.5182 113.743 20.4682 113.303 20.498ZM114.055 22.4909C114.703 22.629 115.269 23.0243 115.646 23.6017C115.746 23.7552 115.875 24.0243 115.931 24.1946C116.031 24.4993 116.062 24.7255 116.054 25.0577C116.043 25.447 115.969 25.7542 115.803 26.0994C115.49 26.7506 114.919 27.2435 114.242 27.4459C114.017 27.5138 113.906 27.528 113.599 27.528C113.35 27.528 113.297 27.5245 113.182 27.5019C112.701 27.4042 112.295 27.1899 111.938 26.8482C111.427 26.3578 111.141 25.6875 111.141 24.9863C111.141 24.5898 111.224 24.2338 111.401 23.8731C111.757 23.1469 112.423 22.6266 113.176 22.4861C113.363 22.4516 113.353 22.4528 113.641 22.4564C113.875 22.4599 113.926 22.4635 114.055 22.4909Z" fill="white"/>
<path d="M119.596 24.9904V29.3418H120.674H121.751V24.9904V20.639H120.674H119.596V24.9904Z" fill="white"/>
<path d="M123.453 24.9904V29.3418H124.53H125.608L125.61 26.7726L125.613 24.2035L127.506 26.7726L129.399 29.3418H130.48H131.56V24.9904V20.639H130.483H129.405V23.2129C129.405 25.7262 129.405 25.7869 129.383 25.7642C129.371 25.7512 128.516 24.5928 127.483 23.1891L125.605 20.639H124.529H123.453V24.9904Z" fill="white"/>
<path d="M65.839 20.9363C61.229 20.9422 61.0218 20.9434 60.9921 20.9637C60.9397 20.9982 60.9159 21.078 60.8349 21.478C60.6123 22.5686 60.523 23.3318 60.492 24.3711C60.4599 25.4641 60.5087 26.4773 60.6373 27.3833C61.0028 29.9705 61.9064 32.3624 63.3435 34.5555C64.9246 36.9688 67.1915 39.0416 69.7798 40.4406C71.8407 41.555 74.2017 42.2872 76.4829 42.5217C77.1329 42.5884 77.6401 42.6098 78.5366 42.6098C79.5855 42.611 80.1344 42.5741 81.0357 42.4432C82.5084 42.2288 83.861 41.8717 85.1623 41.3526C85.629 41.1656 85.6421 41.1573 85.6076 41.0871C85.5849 41.0406 82.7823 37.4129 80.2142 34.1042C76.6329 29.4931 75.1184 27.55 74.6815 27.0107C74.585 26.8928 74.5648 26.8595 74.5708 26.8369C74.5839 26.7821 74.6243 26.7773 74.9267 26.794C75.2792 26.8131 78.4176 26.8047 78.6854 26.7833C79.6617 26.7083 80.1713 26.5976 80.6392 26.3582C80.8976 26.2261 81.0916 26.0785 81.319 25.8427C81.7405 25.407 81.9917 24.9141 82.0929 24.3295C82.1155 24.2045 82.1191 24.133 82.1203 23.889C82.1203 23.7104 82.1144 23.5556 82.1048 23.4901C81.962 22.496 81.5262 21.8209 80.7452 21.3828C80.3594 21.1661 79.9201 21.0327 79.37 20.9649C79.0652 20.9268 76.8579 20.922 65.839 20.9363ZM65.8068 22.4126C66.5855 22.4126 66.6009 22.4126 66.6247 22.4364C66.6581 22.4698 66.6545 22.5067 66.6081 22.696C66.4854 23.1806 66.395 23.7699 66.3426 24.4128C66.3271 24.614 66.3223 24.8117 66.3211 25.3296C66.3211 26.0058 66.3271 26.1368 66.3759 26.6214C66.5545 28.3811 67.1177 30.0658 68.0451 31.6099C68.5523 32.4553 69.1369 33.2006 69.862 33.9268C70.8013 34.8662 71.7967 35.5901 72.9527 36.1759C74.2457 36.8307 75.6983 37.2665 77.0603 37.4081C78.2592 37.532 79.5427 37.4915 80.5725 37.2938C80.6773 37.2748 80.7976 37.2557 80.8404 37.2522C80.9714 37.2426 80.9785 37.2498 81.2321 37.6284C81.3524 37.8082 81.581 38.1487 81.7405 38.3844C82.0536 38.8464 82.0644 38.8666 82.0001 38.9083C81.9334 38.9511 81.2667 39.1012 80.7809 39.1809C80.3499 39.2524 79.7808 39.3167 79.2272 39.3571C78.9474 39.3774 77.9699 39.3774 77.6734 39.3571C76.9115 39.3048 76.2495 39.2178 75.5971 39.0857C73.829 38.7273 72.1348 38.0153 70.6132 36.9926C67.5486 34.9317 65.4163 31.7385 64.69 28.1227C64.4483 26.9178 64.365 25.5034 64.4638 24.2819C64.5174 23.627 64.6638 22.6067 64.7198 22.4972C64.7567 22.4233 64.8162 22.3983 64.9341 22.4067C64.977 22.4102 65.3687 22.4126 65.8068 22.4126Z" fill="white"/>
<path d="M159.725 31.5759C158.581 31.6699 157.532 32.1473 156.723 32.945C156.038 33.6212 155.591 34.4736 155.44 35.3951C155.398 35.6416 155.385 35.8094 155.385 36.069C155.385 36.3285 155.398 36.4964 155.44 36.7428C155.641 37.9643 156.36 39.0584 157.433 39.7775C158.082 40.212 158.762 40.4596 159.576 40.5596C159.766 40.5835 160.397 40.5787 160.594 40.5537C161.678 40.4108 162.603 39.9691 163.353 39.2358L163.518 39.0751L162.731 38.3762L161.943 37.6786L161.863 37.769C161.639 38.0238 161.359 38.2345 161.051 38.3845C160.206 38.7941 159.237 38.6536 158.497 38.0167C157.883 37.4881 157.54 36.6583 157.61 35.8725C157.693 34.9546 158.243 34.1546 159.058 33.7641C160.018 33.3057 161.116 33.5474 161.851 34.3808L161.931 34.4713L162.724 33.7677L163.517 33.0629L163.364 32.9129C162.849 32.4081 162.218 32.0295 161.518 31.8021C161.02 31.6402 160.656 31.5807 160.124 31.5747C159.937 31.5735 159.758 31.5735 159.725 31.5759Z" fill="white"/>
<path d="M100.569 36.0734V40.4248H101.652H102.736V39.0616V37.6985L103.267 37.7009L103.799 37.7044L104.752 39.064L105.706 40.4236L106.936 40.4248C107.917 40.4248 108.164 40.4212 108.157 40.4093C108.153 40.4022 107.683 39.7319 107.114 38.9224C106.547 38.1128 106.081 37.4461 106.081 37.4401C106.082 37.4354 106.171 37.3866 106.281 37.333C107.175 36.8961 107.733 36.1377 107.887 35.1507C107.917 34.9567 107.917 34.4638 107.887 34.2698C107.743 33.3411 107.237 32.6137 106.42 32.1589C106.017 31.9339 105.5 31.7827 104.974 31.7339C104.885 31.7268 104.087 31.722 102.703 31.722H100.569V36.0734ZM104.605 33.7102C105.119 33.765 105.505 34.0281 105.636 34.4126C105.708 34.6293 105.691 34.9234 105.591 35.1198C105.456 35.3853 105.188 35.5793 104.838 35.6686C104.649 35.7162 104.517 35.7222 103.602 35.7222H102.736V34.7102V33.6983H103.614C104.112 33.6983 104.54 33.7042 104.605 33.7102Z" fill="white"/>
<path d="M109.284 36.0734V40.4248H112.707H116.13V39.4545V38.4842H113.79H111.451V37.7223V36.9604H113.576H115.701V35.9901V35.0198H113.576H111.451V34.3412V33.6626H113.79H116.13V32.6923V31.722H112.707H109.284V36.0734Z" fill="white"/>
<path d="M117.465 36.0734V40.4248H118.548H119.632V39.0628V37.6997L120.76 37.6949C121.725 37.6913 121.907 37.6878 122.023 37.6711C122.638 37.583 123.128 37.4044 123.554 37.1139C124.162 36.7008 124.566 36.1175 124.731 35.4186C124.791 35.1615 124.804 35.0376 124.804 34.7102C124.804 34.3829 124.791 34.259 124.731 34.0019C124.453 32.8221 123.484 31.9815 122.161 31.772C121.858 31.7232 121.796 31.722 119.599 31.722H117.465V36.0734ZM121.501 33.7102C122.015 33.765 122.401 34.0281 122.532 34.4126C122.604 34.6293 122.587 34.9234 122.487 35.1198C122.352 35.3853 122.084 35.5793 121.734 35.6686C121.545 35.7162 121.413 35.7222 120.498 35.7222H119.632V34.7102V33.6983H120.51C121.008 33.6983 121.436 33.7042 121.501 33.7102Z" fill="white"/>
<path d="M125.838 34.376C125.842 37.0261 125.842 37.0285 125.868 37.2071C125.942 37.7178 126.066 38.1202 126.276 38.5345C126.81 39.5881 127.824 40.3084 129.066 40.5168C129.365 40.5668 129.499 40.5763 129.894 40.5751C130.299 40.5751 130.481 40.5584 130.811 40.493C132.081 40.2382 133.076 39.4572 133.567 38.3274C133.715 37.9881 133.812 37.6321 133.873 37.2071C133.899 37.0285 133.899 37.0261 133.903 34.376L133.908 31.7247H132.829H131.752V34.1879C131.752 35.7713 131.747 36.6952 131.74 36.7737C131.693 37.2499 131.529 37.6607 131.256 37.9893C130.923 38.3893 130.415 38.6191 129.867 38.6179C128.871 38.6155 128.121 37.8726 128.015 36.7797C128.006 36.6928 128.001 35.8368 128.001 34.1867V31.7247H126.918H125.833L125.838 34.376Z" fill="white"/>
<path d="M135.514 36.0734V40.4248L138.071 40.4212C140.876 40.4177 140.672 40.4224 141.053 40.3474C142.07 40.145 142.816 39.5533 143.078 38.7402C143.156 38.4973 143.175 38.3688 143.175 38.0795C143.175 37.8056 143.167 37.7378 143.109 37.5104C142.941 36.852 142.456 36.2889 141.748 35.9294L141.594 35.8508L141.679 35.8043C142.014 35.6234 142.311 35.34 142.499 35.0234C142.645 34.7745 142.741 34.4817 142.778 34.1638C142.794 34.0102 142.786 33.6947 142.76 33.5554C142.642 32.9149 142.23 32.3851 141.599 32.0625C141.3 31.9089 141.005 31.8196 140.574 31.7494C140.46 31.7303 140.241 31.7292 137.982 31.7256L135.514 31.7208V36.0734ZM139.663 33.5673C139.842 33.5852 139.962 33.6173 140.108 33.6876C140.216 33.74 140.247 33.7626 140.335 33.8507C140.493 34.009 140.552 34.1471 140.554 34.3531C140.554 34.4769 140.536 34.5602 140.483 34.6686C140.368 34.9114 140.107 35.0876 139.777 35.1448C139.695 35.1591 139.504 35.1627 138.674 35.1627H137.669V34.359V33.5554H138.601C139.155 33.5554 139.586 33.5602 139.663 33.5673ZM140.032 36.8532C140.416 36.8973 140.717 37.0794 140.858 37.352C140.923 37.4759 140.945 37.5723 140.945 37.7163C140.945 37.8604 140.923 37.9568 140.858 38.0795C140.737 38.314 140.488 38.4842 140.163 38.5569C140.045 38.5831 140.035 38.5842 138.857 38.5878L137.669 38.5926V37.7175V36.8413H138.798C139.492 36.8413 139.966 36.8461 140.032 36.8532Z" fill="white"/>
<path d="M144.383 36.0734V40.4248H147.556H150.728V39.4545V38.4842H148.633H146.538V35.1031V31.722H145.46H144.383V36.0734Z" fill="white"/>
<path d="M151.897 36.0734V40.4248H152.98H154.064V36.0734V31.722H152.98H151.897V36.0734Z" fill="white"/>
</svg>
