<svg width="224" height="50" viewBox="0 0 224 50" fill="none" xmlns="http://www.w3.org/2000/svg">
<path d="M150.505 19.2888C150.981 19.728 151.382 20.1928 151.781 20.7035C151.834 19.9549 151.888 19.2063 151.943 18.435C153.28 18.435 154.617 18.435 155.994 18.435C155.994 23.408 155.994 28.3809 155.994 33.5046C154.871 33.5046 153.748 33.5046 152.591 33.5046C152.377 32.8629 152.163 32.2213 151.943 31.5601C151.796 31.754 151.649 31.9478 151.497 32.1475C150.561 33.2206 149.293 33.8096 147.892 33.9907C147.945 34.0977 147.999 34.2046 148.054 34.3148C148.073 34.5573 148.082 34.8007 148.084 35.044C148.087 35.1727 148.089 35.3013 148.091 35.4339C148.054 35.7732 148.054 35.7732 147.73 36.0972C147.391 36.146 147.391 36.146 147.001 36.1479C146.872 36.1506 146.743 36.1533 146.611 36.1561C146.499 36.1367 146.387 36.1173 146.272 36.0972C145.874 35.5008 145.91 35.1812 145.947 34.4769C146.028 34.2362 146.028 34.2362 146.109 33.9907C145.992 33.9632 145.875 33.9356 145.754 33.9072C144.288 33.5397 143.234 33.0001 142.383 31.7222C141.48 29.9592 141.184 28.2378 141.188 26.2736C141.188 26.104 141.188 25.9344 141.188 25.7597C141.224 23.4714 141.677 21.0847 143.355 19.4072C145.306 17.9302 148.538 17.78 150.505 19.2888ZM145.806 22.9518C144.862 24.3388 144.817 26.0817 145.107 27.6915C145.385 28.9355 145.875 29.6971 146.92 30.4259C147.475 30.6111 147.924 30.6209 148.51 30.6284C148.802 30.6347 148.802 30.6347 149.1 30.6411C149.952 30.5622 150.468 30.2717 151.082 29.6866C152.12 28.3106 152.063 26.5578 151.943 24.9165C151.77 23.8112 151.37 22.8799 150.485 22.1619C148.926 21.3733 146.978 21.6638 145.806 22.9518Z" fill="white"/>
<path d="M95.3895 18.4351C96.6193 18.4351 97.8491 18.4351 99.1162 18.4351C99.1194 18.6974 99.1226 18.9597 99.1259 19.23C99.1383 20.2075 99.1526 21.1849 99.1676 22.1624C99.1738 22.5846 99.1794 23.0069 99.1845 23.4292C99.192 24.0377 99.2014 24.6462 99.2111 25.2548C99.213 25.4422 99.2149 25.6296 99.2168 25.8227C99.2427 27.2586 99.277 28.6414 100.25 29.777C100.972 30.2151 101.517 30.3294 102.357 30.3238C102.547 30.3251 102.738 30.3264 102.934 30.3276C103.703 30.2384 104.24 29.9744 104.818 29.4631C105.622 28.1039 105.671 26.4953 105.68 24.9541C105.683 24.7663 105.686 24.5784 105.689 24.3849C105.698 23.7924 105.703 23.1998 105.709 22.6073C105.714 22.2024 105.72 21.7976 105.725 21.3927C105.74 20.4068 105.749 19.421 105.759 18.4351C107.096 18.4351 108.433 18.4351 109.81 18.4351C109.81 23.4077 109.81 28.3803 109.81 33.5036C108.687 33.5036 107.564 33.5036 106.407 33.5036C105.921 31.8024 105.921 31.8024 105.921 31.0732C105.814 31.0732 105.707 31.0732 105.597 31.0732C105.561 31.1868 105.524 31.3005 105.486 31.4175C104.868 32.7715 103.862 33.2793 102.519 33.8277C100.97 34.2267 99.1865 34.1155 97.7896 33.3112C96.3381 32.3128 95.7967 31.0359 95.464 29.3273C95.3876 28.791 95.3701 28.2841 95.3711 27.7426C95.3712 27.535 95.3712 27.3275 95.3712 27.1137C95.372 26.8896 95.3728 26.6656 95.3737 26.4415C95.374 26.2104 95.3742 25.9793 95.3744 25.7482C95.375 25.1425 95.3766 24.5368 95.3784 23.931C95.3801 23.3119 95.3808 22.6928 95.3816 22.0737C95.3834 20.8608 95.3862 19.6479 95.3895 18.4351Z" fill="white"/>
<path d="M124.721 18.4357C125.844 18.4357 126.967 18.4357 128.124 18.4357C128.338 19.3446 128.552 20.2536 128.772 21.1901C128.902 20.9696 129.033 20.749 129.167 20.5218C129.955 19.341 130.962 18.7489 132.336 18.4357C132.817 18.3892 133.292 18.3815 133.774 18.385C133.968 18.3862 133.968 18.3862 134.165 18.3874C135.412 18.4124 136.508 18.5821 137.456 19.4692C139.053 21.3108 139.217 23.5166 139.189 25.8617C139.188 26.0839 139.188 26.3062 139.187 26.5284C139.185 27.1056 139.18 27.6828 139.175 28.26C139.17 28.852 139.168 29.4441 139.165 30.0362C139.16 31.1922 139.152 32.3482 139.142 33.5042C137.912 33.5042 136.682 33.5042 135.415 33.5042C135.406 32.6258 135.406 32.6258 135.397 31.7295C135.389 31.1568 135.381 30.584 135.373 30.0113C135.367 29.616 135.363 29.2206 135.359 28.8252C135.353 28.254 135.345 27.6829 135.336 27.1117C135.335 26.9375 135.334 26.7632 135.333 26.5837C135.307 25.2245 135.227 23.74 134.382 22.6281C133.418 21.9395 132.518 21.8942 131.364 22.0003C130.536 22.198 129.942 22.6292 129.42 23.2965C128.879 24.4329 128.858 25.5735 128.851 26.8111C128.848 27.0032 128.845 27.1954 128.842 27.3933C128.833 28.0024 128.828 28.6115 128.823 29.2206C128.817 29.6355 128.812 30.0504 128.806 30.4653C128.792 31.4783 128.782 32.4912 128.772 33.5042C127.435 33.5042 126.098 33.5042 124.721 33.5042C124.721 28.5316 124.721 23.559 124.721 18.4357Z" fill="white"/>
<path d="M66.7099 12.7627C69.3835 12.7627 72.0571 12.7627 74.8118 12.7627C74.8248 16.1769 74.8248 16.1769 74.8276 17.6472C74.8295 18.6453 74.8318 19.6433 74.8362 20.6414C74.8398 21.4472 74.8417 22.2531 74.8425 23.0589C74.8431 23.3643 74.8443 23.6697 74.846 23.9751C74.8815 30.3639 74.8815 30.3639 72.961 32.4585C71.8925 33.4837 70.4375 33.9256 68.9784 33.9896C68.8358 33.998 68.6931 34.0063 68.5461 34.0149C66.2405 34.088 64.2707 33.5588 62.5273 32.0249C61.2717 30.6922 61.0386 28.933 61.0386 27.184C62.2684 27.184 63.4983 27.184 64.7654 27.184C64.8724 27.7188 64.9793 28.2535 65.0895 28.8044C65.5231 29.6267 65.9757 30.0457 66.8415 30.3742C67.8853 30.5233 68.8726 30.5066 69.7886 29.9387C70.9942 28.4158 70.8135 26.2492 70.8279 24.4022C70.831 24.1541 70.8341 23.9059 70.8374 23.6578C70.8457 23.0108 70.8521 22.3638 70.8582 21.7167C70.8647 21.054 70.873 20.3914 70.8811 19.7287C70.8967 18.433 70.9102 17.1372 70.9229 15.8414C69.5326 15.8414 68.1423 15.8414 66.7099 15.8414C66.7099 14.8254 66.7099 13.8095 66.7099 12.7627Z" fill="white"/>
<path d="M112.568 18.436C113.745 18.436 114.921 18.436 116.133 18.436C116.273 19.1351 116.345 19.8038 116.386 20.512C116.393 20.6243 116.4 20.7365 116.407 20.8522C116.424 21.127 116.441 21.4018 116.457 21.6766C116.512 21.5845 116.567 21.4924 116.624 21.3975C117.454 20.0759 118.391 19.0873 119.88 18.5405C120.789 18.3366 121.687 18.3997 122.614 18.436C122.614 19.8262 122.614 21.2164 122.614 22.6487C122.17 22.6888 121.725 22.7289 121.267 22.7703C119.867 22.9165 118.581 23.1216 117.429 23.9855C116.611 25.1111 116.545 26.2086 116.536 27.5551C116.533 27.7259 116.53 27.8967 116.527 28.0727C116.519 28.6141 116.513 29.1555 116.508 29.697C116.502 30.0657 116.497 30.4345 116.491 30.8033C116.477 31.7037 116.467 32.6041 116.457 33.5046C115.174 33.5046 113.891 33.5046 112.568 33.5046C112.568 28.532 112.568 23.5593 112.568 18.436Z" fill="white"/>
<path d="M158.748 12.7627C160.031 12.7627 161.314 12.7627 162.636 12.7627C162.636 19.6072 162.636 26.4516 162.636 33.5035C161.353 33.5035 160.07 33.5035 158.748 33.5035C158.748 26.659 158.748 19.8146 158.748 12.7627Z" fill="white"/>
<path d="M133.472 36.9067C134.113 36.9067 134.755 36.9067 135.416 36.9067C135.76 38.2329 136.058 39.562 136.33 40.9048C136.356 41.0329 136.383 41.1609 136.41 41.2929C136.433 41.4078 136.456 41.5227 136.48 41.6411C136.542 41.944 136.542 41.944 136.712 42.2537C137.193 40.4892 137.675 38.7247 138.17 36.9067C138.759 36.9067 139.347 36.9067 139.953 36.9067C140.396 38.0201 140.719 39.1543 141.036 40.3093C141.088 40.4967 141.14 40.684 141.194 40.8771C141.321 41.3358 141.447 41.7946 141.573 42.2537C141.913 40.9278 142.215 39.5999 142.486 38.2587C142.513 38.1296 142.539 38.0005 142.567 37.8675C142.59 37.7526 142.613 37.6377 142.637 37.5193C142.707 37.2308 142.707 37.2308 142.869 36.9067C143.511 36.9067 144.153 36.9067 144.814 36.9067C144.731 38.3595 144.385 39.7198 144.025 41.1236C143.922 41.5278 143.82 41.9325 143.718 42.3372C143.653 42.5946 143.588 42.852 143.522 43.1094C143.492 43.2302 143.461 43.351 143.43 43.4755C143.212 44.322 143.212 44.322 143.031 44.6841C142.122 44.6841 141.213 44.6841 140.277 44.6841C139.782 43.4725 139.467 42.2226 139.143 40.9574C139.114 41.0646 139.085 41.1717 139.056 41.2821C138.927 41.7647 138.797 42.2472 138.667 42.7296C138.622 42.8983 138.577 43.0669 138.53 43.2407C138.487 43.401 138.444 43.5613 138.399 43.7265C138.359 43.875 138.319 44.0234 138.278 44.1764C138.17 44.522 138.17 44.522 138.008 44.6841C137.791 44.6981 137.573 44.7014 137.355 44.6999C137.224 44.6994 137.093 44.6989 136.957 44.6983C136.82 44.697 136.682 44.6956 136.54 44.6942C136.402 44.6935 136.263 44.6927 136.121 44.692C135.778 44.6901 135.435 44.6872 135.092 44.6841C134.859 43.7592 134.629 42.8339 134.4 41.9081C134.322 41.5935 134.243 41.2791 134.164 40.9648C134.05 40.5118 133.938 40.0584 133.826 39.6049C133.791 39.4654 133.755 39.326 133.719 39.1823C133.528 38.401 133.434 37.7109 133.472 36.9067Z" fill="white"/>
<path d="M161.665 37.5551C162.27 38.0819 162.777 38.709 162.961 39.4994C162.961 40.0341 162.961 40.5688 162.961 41.1197C161.143 41.1197 159.325 41.1197 157.452 41.1197C157.719 42.6829 157.719 42.6829 158.394 43.0032C159.326 43.1129 159.921 43.1785 160.693 42.5779C160.8 42.364 160.907 42.1502 161.017 41.9298C161.658 41.9298 162.3 41.9298 162.961 41.9298C162.89 42.8125 162.716 43.3494 162.151 44.0362C161.155 44.8512 160.173 45.0513 158.921 45.0083C157.682 44.8752 156.872 44.3463 156.085 43.3982C155.428 42.1103 155.29 40.7788 155.69 39.388C156.033 38.4926 156.497 37.8244 157.338 37.3411C158.854 36.6679 160.219 36.7153 161.665 37.5551ZM157.776 39.3374C157.723 39.6047 157.669 39.8721 157.614 40.1475C158.737 40.1475 159.86 40.1475 161.017 40.1475C160.663 39.0379 160.663 39.0379 160.045 38.6892C159.122 38.5406 158.415 38.599 157.776 39.3374Z" fill="white"/>
<path d="M84.8604 4.98584C85.4485 4.98584 86.0367 4.98584 86.6427 4.98584C86.6427 6.21563 86.6427 7.44542 86.6427 8.71248C87.9794 8.71248 89.3161 8.71248 90.6934 8.71248C90.6934 7.48269 90.6934 6.2529 90.6934 4.98584C91.228 4.98584 91.7627 4.98584 92.3136 4.98584C92.3136 7.92664 92.3136 10.8674 92.3136 13.8974C91.7789 13.8974 91.2442 13.8974 90.6934 13.8974C90.6934 12.6141 90.6934 11.3308 90.6934 10.0087C89.3566 10.0087 88.0199 10.0087 86.6427 10.0087C86.6427 11.292 86.6427 12.5752 86.6427 13.8974C86.0545 13.8974 85.4663 13.8974 84.8604 13.8974C84.8604 10.9566 84.8604 8.01576 84.8604 4.98584Z" fill="white"/>
<path d="M93.9336 4.98584C96.0724 4.98584 98.2111 4.98584 100.415 4.98584C100.415 5.46706 100.415 5.94828 100.415 6.44409C98.8641 6.44409 97.3135 6.44409 95.7159 6.44409C95.7159 7.19266 95.7159 7.94123 95.7159 8.71248C96.8922 8.71248 98.0685 8.71248 99.2805 8.71248C99.2805 9.1937 99.2805 9.67492 99.2805 10.1707C98.1042 10.1707 96.9279 10.1707 95.7159 10.1707C95.7159 10.9728 95.7159 11.7748 95.7159 12.6011C97.32 12.6011 98.9241 12.6011 100.577 12.6011C100.577 13.0289 100.577 13.4567 100.577 13.8974C98.3845 13.8974 96.1923 13.8974 93.9336 13.8974C93.9336 10.9566 93.9336 8.01576 93.9336 4.98584Z" fill="white"/>
<path d="M76.7578 4.98584C79.057 4.98584 81.3562 4.98584 83.725 4.98584C83.725 5.46706 83.725 5.94828 83.725 6.44409C82.8695 6.44409 82.014 6.44409 81.1326 6.44409C81.1326 8.90367 81.1326 11.3633 81.1326 13.8974C80.5444 13.8974 79.9562 13.8974 79.3503 13.8974C79.3503 11.4378 79.3503 8.9782 79.3503 6.44409C78.4948 6.44409 77.6392 6.44409 76.7578 6.44409C76.7578 5.96287 76.7578 5.48164 76.7578 4.98584Z" fill="white"/>
<path d="M149.513 36.9067C150.155 36.9067 150.796 36.9067 151.458 36.9067C151.564 37.3345 151.671 37.7622 151.782 38.203C151.885 38.0793 151.989 37.9557 152.096 37.8283C152.642 37.2784 153.304 37.0709 154.05 36.9067C154.264 36.9067 154.478 36.9067 154.698 36.9067C154.698 37.6553 154.698 38.4039 154.698 39.1751C154.123 39.2859 153.548 39.3967 152.973 39.5074C152.456 39.6539 152.247 39.7166 151.944 40.1473C151.776 40.6514 151.749 41.0376 151.73 41.5669C151.724 41.7481 151.717 41.9293 151.71 42.116C151.703 42.3051 151.697 42.4942 151.69 42.6891C151.683 42.8801 151.676 43.0711 151.669 43.2679C151.652 43.7399 151.636 44.212 151.62 44.6841C150.924 44.6841 150.229 44.6841 149.513 44.6841C149.513 42.1176 149.513 39.551 149.513 36.9067Z" fill="white"/>
<path d="M145.95 36.9067C146.645 36.9067 147.34 36.9067 148.056 36.9067C148.056 39.4733 148.056 42.0398 148.056 44.6841C147.361 44.6841 146.666 44.6841 145.95 44.6841C145.95 42.1176 145.95 39.551 145.95 36.9067Z" fill="white"/>
<path d="M84.4209 18.4725C88.8467 18.1863 92.6342 21.5555 92.8984 25.9813C93.1626 30.4071 89.7939 34.1941 85.3681 34.4364C80.9643 34.6786 77.2212 31.3314 76.957 26.9276C76.693 22.5241 80.0394 18.7589 84.4209 18.4725ZM91.7089 25.1659C91.1583 21.4452 87.6793 18.8474 83.9365 19.4198C80.2377 19.9704 77.6614 23.4274 78.2119 27.1483C78.7404 30.8689 82.1972 33.445 85.9179 32.9169C89.6609 32.3664 92.2594 28.9089 91.7089 25.1659Z" fill="#FEFEFE"/>
<path d="M84.2646 20.7407C87.259 20.3664 89.9889 22.4801 90.3632 25.4965C90.7374 28.4908 88.6017 31.2209 85.6074 31.5952C82.6132 31.9692 79.883 29.8335 79.5088 26.8393C79.1345 23.8449 81.2487 21.115 84.2431 20.7407H84.2646ZM84.6611 21.0708H84.6386C81.8205 21.2249 79.6627 23.6686 79.8388 26.4868C80.015 29.3049 82.4807 31.4405 85.2988 31.2426C88.0949 31.0445 90.2091 28.6227 90.0332 25.8266C89.857 23.0305 87.4572 20.9168 84.6611 21.0708Z" fill="#FEFEFE"/>
<path d="M85.1269 22.4814C85.3031 22.4374 85.5451 22.4818 85.6992 22.5479C85.8312 22.724 85.7656 23.0763 85.7656 23.2744C86.3599 23.3845 86.9763 23.5163 87.3506 24.0225C87.5487 24.2646 87.6373 24.5951 87.5713 24.9033C87.4832 25.3657 87.1521 25.6743 86.7998 25.9385C87.2401 26.1586 87.527 26.4225 87.7031 26.8848C87.8572 27.281 87.8571 27.7434 87.6592 28.1396C87.2408 29.0203 86.5137 28.8227 85.7871 29.0869H85.7656C85.7656 29.329 85.8092 29.5709 85.6992 29.791C85.501 29.9011 85.1928 29.8355 84.9726 29.8135C84.9726 29.6375 85.0385 29.3515 84.9726 29.1973C84.9286 29.0872 84.8845 29.0645 84.7744 29.0205C84.7305 29.0425 84.6865 29.0864 84.6426 29.1084C84.4885 29.2624 84.5546 29.6148 84.5547 29.835H83.7402C83.7622 29.5489 83.7622 29.2846 83.7842 29.0205C83.454 29.0425 82.8595 29.1525 82.5732 28.9766C82.5292 28.8225 82.5073 28.6906 82.5293 28.5146C82.5733 28.2945 82.9029 28.2718 83.0791 28.1396C83.2771 27.6985 83.2772 24.7269 83.0791 24.2646C82.991 24.0668 82.8587 24.0665 82.6826 23.9785C82.5729 23.9346 82.5513 23.9125 82.5293 23.8027C82.4852 23.6706 82.5072 23.428 82.5732 23.2959C82.9255 23.186 83.41 23.252 83.7842 23.252C83.7842 23.0084 83.7653 22.7648 83.7451 22.5039H84.5322V23.1641C84.6203 23.2962 84.6427 23.2958 84.7969 23.3398C85.1485 23.1637 84.8849 22.8559 85.0166 22.5479C85.0606 22.5258 85.0829 22.5035 85.1269 22.4814ZM84.5771 26.3799C84.5551 26.8423 84.4235 27.8102 84.7754 28.1846C84.8634 28.2945 84.9955 28.3388 85.1494 28.3389C85.4356 28.3389 85.8105 28.1853 86.0527 28.0312C86.2288 27.8112 86.4051 27.4366 86.3613 27.1504C86.3393 26.9302 86.2283 26.7761 86.0742 26.666C85.6339 26.3359 85.084 26.3574 84.5557 26.3574L84.5771 26.3799ZM85.9629 24.3535C85.5666 24.0673 85.06 24.0892 84.5976 24.1553V24.1328C84.5096 24.5951 84.5537 25.1236 84.5537 25.5859C85.06 25.5639 85.5006 25.5858 85.9629 25.3877C86.117 25.1896 86.2491 24.9917 86.2051 24.7275C86.183 24.5734 86.095 24.4416 85.9629 24.3535ZM83.7451 22.5039H83.7178L83.7402 22.4375C83.7419 22.4598 83.7434 22.4819 83.7451 22.5039Z" fill="#FEFEFE"/>
</svg>
