<svg width="375" height="93" viewBox="0 0 375 93" fill="none" xmlns="http://www.w3.org/2000/svg">
<path d="M138.75 47.125V18.75H127.5V12.125H158V18.75H146.75V47.125H138.75ZM162.5 47.125V12.125H170.625V47.125H162.5ZM178.875 47.125V12.125H185.625L200.5 36.875H197L211.625 12.125H218.25L218.375 47.125H210.75V23.75H212.125L200.375 43.375H196.75L184.875 23.75H186.625V47.125H178.875ZM234.125 26.25H251V32.625H234.125V26.25ZM234.75 40.625H253.75V47.125H226.625V12.125H253.125V18.625H234.75V40.625ZM271.75 47.75C269 47.75 266.25 47.375 263.625 46.625C261.125 45.875 259 44.875 257.5 43.625L260.25 37.5C261.75 38.625 263.5 39.375 265.5 40.125C267.625 40.75 269.625 41.125 271.75 41.125C273.375 41.125 274.625 41 275.625 40.625C276.625 40.25 277.375 39.875 277.875 39.25C278.375 38.625 278.625 38 278.625 37.375C278.625 36.375 278.25 35.75 277.5 35.125C276.75 34.5 275.75 34.125 274.625 33.75C273.5 33.375 272.125 33 270.625 32.75C269.25 32.375 267.75 32 266.25 31.625C264.875 31.125 263.5 30.5 262.25 29.875C261.125 29.125 260.125 28.125 259.25 27C258.5 25.875 258.125 24.25 258.125 22.375C258.125 20.375 258.625 18.5 259.75 16.875C260.875 15.25 262.5 13.875 264.625 12.875C266.875 11.875 269.625 11.375 272.875 11.375C275.125 11.375 277.25 11.625 279.375 12.125C281.5 12.625 283.375 13.375 285 14.375L282.5 20.5C280.875 19.5 279.25 18.875 277.625 18.5C276 18 274.375 17.75 272.75 17.75C271.125 17.75 269.875 18 268.875 18.375C267.875 18.75 267.125 19.25 266.75 19.875C266.375 20.5 266.125 21.125 266.125 21.875C266.125 22.75 266.5 23.5 267.25 24.125C268 24.625 269 25.125 270.125 25.5C271.25 25.875 272.625 26.125 274.125 26.5C275.625 26.875 277 27.25 278.5 27.625C280 28 281.25 28.625 282.5 29.375C283.625 30.125 284.625 31.125 285.375 32.25C286.125 33.375 286.5 35 286.5 36.875C286.5 38.875 285.875 40.625 284.875 42.25C283.75 43.875 282.125 45.25 279.875 46.25C277.875 47.25 275.125 47.75 271.75 47.75ZM323.375 47.75C320.625 47.75 318 47.25 315.625 46.375C313.375 45.5 311.25 44.25 309.5 42.5C307.75 40.875 306.5 39 305.5 36.75C304.5 34.5 304.125 32.125 304.125 29.5C304.125 26.875 304.625 24.5 305.5 22.25C306.5 20 307.75 18.125 309.5 16.5C311.25 14.875 313.25 13.625 315.625 12.625C317.875 11.75 320.5 11.25 323.25 11.25C326 11.25 328.5 11.75 330.875 12.625C333.125 13.5 335.25 14.75 336.875 16.5C338.625 18.125 340 20 340.875 22.25C341.875 24.375 342.375 26.875 342.375 29.5C342.375 32.125 341.875 34.5 340.875 36.75C339.875 39 338.625 40.875 336.875 42.5C335.125 44.125 333.125 45.375 330.875 46.25C328.625 47.25 326.125 47.75 323.375 47.75ZM323.25 40.75C324.75 40.75 326.25 40.5 327.5 40C328.875 39.5 330 38.625 331 37.75C332 36.75 332.75 35.625 333.25 34.25C333.875 32.875 334.125 31.375 334.125 29.625C334.125 28 333.875 26.375 333.25 25C332.75 23.625 331.875 22.5 331 21.5C330 20.5 328.875 19.75 327.5 19.25C326.125 18.75 324.75 18.5 323.125 18.5C321.625 18.5 320.125 18.75 318.75 19.25C317.375 19.75 316.25 20.625 315.25 21.5C314.25 22.5 313.5 23.625 312.875 25C312.375 26.375 312.125 27.875 312.125 29.625C312.125 31.25 312.375 32.75 312.875 34.25C313.5 35.625 314.25 36.75 315.125 37.75C316.125 38.75 317.25 39.5 318.625 40C320.25 40.5 321.625 40.75 323.25 40.75ZM356 27.875H372.75V34.375H356V27.875ZM356.625 47.125H348.5V12.125H375V18.625H356.625V47.125Z" fill="white"/>
<path d="M130.251 87.125V62.5H142.251C145.376 62.5 147.626 63.125 149.251 64.25C150.876 65.375 151.626 67 151.626 68.875C151.626 70.125 151.251 71.25 150.626 72.25C150.001 73.25 149.126 73.875 148.001 74.375C146.876 74.875 145.626 75.125 144.251 75.125L144.876 73.625C146.376 73.625 147.751 73.875 149.001 74.375C150.126 74.875 151.126 75.625 151.751 76.625C152.376 77.625 152.751 78.75 152.751 80.25C152.751 82.375 151.876 84 150.251 85.25C148.626 86.375 146.126 87 142.876 87L130.251 87.125ZM135.876 82.75H142.501C144.001 82.75 145.126 82.5 145.876 82C146.626 81.5 147.001 80.75 147.001 79.75C147.001 78.75 146.626 78 145.876 77.5C145.126 77 144.001 76.75 142.501 76.75H135.376V72.625H141.501C142.876 72.625 143.876 72.375 144.626 71.875C145.376 71.375 145.751 70.625 145.751 69.625C145.751 68.625 145.376 68 144.626 67.5C143.876 67 142.876 66.75 141.501 66.75H135.876V82.75ZM157.126 87.125V62.5H162.751V82.5H175.126V87.125H157.126ZM189.876 87.5C187.876 87.5 186.126 87.125 184.501 86.5C182.876 85.875 181.376 85 180.251 83.75C179.126 82.625 178.126 81.25 177.501 79.75C176.876 78.25 176.501 76.5 176.501 74.75C176.501 73 176.876 71.25 177.501 69.75C178.126 68.25 179.126 66.875 180.376 65.75C181.626 64.625 183.001 63.75 184.626 63C186.251 62.375 188.001 62 190.001 62C192.001 62 193.751 62.375 195.376 63C197.001 63.625 198.501 64.5 199.626 65.75C200.876 66.875 201.751 68.25 202.501 69.75C203.126 71.25 203.501 73 203.501 74.75C203.501 76.5 203.126 78.25 202.501 79.875C201.876 81.375 200.876 82.75 199.626 83.875C198.501 85 197.001 85.875 195.376 86.5C193.501 87.125 191.751 87.5 189.876 87.5ZM189.751 82.75C190.876 82.75 191.876 82.5 192.751 82.125C193.751 81.75 194.501 81.125 195.251 80.5C196.001 79.75 196.501 79 196.876 78C197.251 77 197.501 76 197.501 74.75C197.501 73.5 197.251 72.5 196.876 71.5C196.501 70.5 195.876 69.75 195.251 69C194.626 68.25 193.751 67.75 192.876 67.375C191.876 67 190.876 66.75 189.751 66.75C188.626 66.75 187.626 67 186.626 67.375C185.626 67.75 184.876 68.375 184.251 69C183.501 69.75 183.001 70.5 182.626 71.5C182.251 72.5 182.001 73.5 182.001 74.75C182.001 75.875 182.251 77 182.626 78C183.001 79 183.626 79.75 184.251 80.5C185.001 81.25 185.751 81.75 186.751 82.125C187.751 82.5 188.751 82.75 189.751 82.75ZM219.251 87.5C217.376 87.5 215.626 87.125 213.876 86.5C212.251 85.875 210.876 85 209.626 83.75C208.501 82.625 207.501 81.25 206.876 79.75C206.251 78.25 205.876 76.5 205.876 74.625C205.876 72.75 206.251 71 206.876 69.5C207.501 68 208.501 66.625 209.626 65.5C210.876 64.375 212.251 63.5 213.876 62.875C215.501 62.25 217.251 61.875 219.251 61.875C221.376 61.875 223.251 62.25 225.001 63C226.751 63.75 228.251 64.75 229.376 66.25L225.751 69.625C224.876 68.625 224.001 68 223.001 67.5C222.001 67 220.876 66.75 219.626 66.75C218.501 66.75 217.376 67 216.501 67.375C215.501 67.75 214.751 68.375 214.001 69C213.251 69.75 212.751 70.5 212.376 71.5C212.001 72.5 211.751 73.5 211.751 74.75C211.751 76 212.001 77 212.376 78C212.751 79 213.376 79.75 214.001 80.5C214.751 81.25 215.501 81.75 216.501 82.125C217.501 82.5 218.501 82.75 219.626 82.75C220.876 82.75 221.876 82.5 223.001 82C224.001 81.5 225.001 80.75 225.751 79.75L229.376 83.125C228.251 84.625 226.751 85.625 225.001 86.375C223.376 87.125 221.501 87.5 219.251 87.5ZM238.376 81.5L238.001 75L249.751 62.625H256.126L245.501 74L242.376 77.375L238.376 81.5ZM233.376 87.125V62.5H239.001V87.125H233.376ZM250.126 87.125L241.376 76.375L245.126 72.375L256.876 87.125H250.126ZM270.251 87.5C268.376 87.5 266.626 87.125 264.876 86.5C263.251 85.875 261.876 85 260.626 83.75C259.501 82.625 258.501 81.25 257.876 79.75C257.251 78.25 256.876 76.5 256.876 74.625C256.876 72.75 257.251 71 257.876 69.5C258.501 68 259.501 66.625 260.626 65.5C261.876 64.375 263.251 63.5 264.876 62.875C266.501 62.25 268.251 61.875 270.251 61.875C272.376 61.875 274.251 62.25 276.001 63C277.751 63.75 279.251 64.75 280.376 66.25L276.751 69.625C275.876 68.625 275.001 68 274.001 67.5C273.001 67 271.876 66.75 270.626 66.75C269.501 66.75 268.376 67 267.501 67.375C266.501 67.75 265.751 68.375 265.001 69C264.251 69.75 263.751 70.5 263.376 71.5C263.001 72.5 262.751 73.5 262.751 74.75C262.751 76 263.001 77 263.376 78C263.751 79 264.376 79.75 265.001 80.5C265.751 81.25 266.501 81.75 267.501 82.125C268.501 82.5 269.501 82.75 270.626 82.75C271.876 82.75 272.876 82.5 274.001 82C275.001 81.5 276.001 80.75 276.751 79.75L280.376 83.125C279.251 84.625 277.751 85.625 276.001 86.375C274.376 87.125 272.376 87.5 270.251 87.5ZM301.126 62.5H306.751V87.125H301.126V62.5ZM289.876 87.125H284.251V62.5H289.876V87.125ZM301.501 77H289.501V72.125H301.501V77ZM309.376 87.125L320.376 62.5H326.001L337.001 87.125H331.001L322.001 65.375H324.251L315.251 87.125H309.376ZM314.876 81.75L316.376 77.375H329.001L330.501 81.75H314.876ZM339.501 87.125V62.5H345.126V87.125H339.501ZM351.001 87.125V62.5H355.751L370.251 80.25H368.001V62.5H373.626V87.125H369.001L354.501 69.375H356.751V87.125H351.001Z" fill="white"/>
<path d="M74.625 8.00001L97.375 46.5L74.625 85L54.5 48.375H0L25.625 93H70.75L68.5 89.25H27.875L6.5 52.125H52.25L74.5 92.75L101.875 46.5L74.5 0.250001L52.25 40.875H6.5L27.875 3.75H68.375L70.625 0H25.625L0 44.625H54.5L74.625 8.00001Z" fill="white"/>
<path d="M66.5 62.249L75.875 46.499L66.5 30.749L64.25 34.499L71.375 46.624L64.25 58.749L66.5 62.249Z" fill="white"/>
</svg>
