<svg width="224" height="50" viewBox="0 0 224 50" fill="none" xmlns="http://www.w3.org/2000/svg">
<g clip-path="url(#clip0_4997_2197)">
<path d="M150.93 19.8034V20.9425H152.352H153.775V19.8034V18.6644H152.352H150.93V19.8034Z" fill="white"/>
<path d="M71.1602 20.0432V21.1823H72.8195H74.479V25.7985V30.4148H75.9607H77.4423V25.7985V21.1823H79.161H80.8798V20.0432V18.9042H76.02H71.1602V20.0432Z" fill="white"/>
<path d="M92.0195 24.6594V30.4148H93.4419H94.8643V28.6762V26.9376H95.4925H96.1088L97.0453 28.6762L97.9817 30.4148H99.4515C100.246 30.4148 100.909 30.3788 100.909 30.3188C100.909 30.2708 100.376 29.2397 99.736 28.0287L98.5625 25.8225L99.1432 24.8274C99.4633 24.2758 99.9967 23.3646 100.317 22.801C100.649 22.2375 100.909 21.7459 100.909 21.7219C100.909 21.6859 100.246 21.6619 99.4278 21.6619H97.958L97.0926 23.1607L96.2274 24.6475L95.5517 24.6594H94.8643V21.7818V18.9042H93.4419H92.0195V24.6594Z" fill="white"/>
<path d="M122.484 20.0432V21.1823H123.196H123.907V24.5995V28.0167H123.196H122.484V29.2158V30.4148H125.388H128.292V29.2158V28.0167H127.581H126.87V24.5995V21.1823H127.581H128.292V20.0432V18.9042H125.388H122.484V20.0432Z" fill="white"/>
<path d="M166.34 24.6595V30.4268L167.739 30.3908L169.125 30.3548L169.161 27.1056L169.185 23.8562L169.813 23.7722C170.145 23.7363 170.762 23.7003 171.164 23.7003C172.291 23.7003 172.267 23.6284 172.267 27.3333V30.4268L173.665 30.3908L175.052 30.3548V26.7578V23.1607L174.732 22.6212C174.365 21.9737 173.749 21.5901 172.918 21.4821C172.361 21.3982 170.038 21.578 169.458 21.7339C169.185 21.8059 169.185 21.8059 169.185 20.355V18.9042H167.763H166.34V24.6595Z" fill="white"/>
<path d="M177.604 20.4869C177.414 21.6859 177.437 21.6619 176.892 21.6619H176.418V22.741V23.8202H176.88H177.343L177.39 26.3021C177.426 29.1438 177.52 29.4675 178.386 30.091C178.978 30.5107 179.69 30.5946 181.562 30.4747L182.937 30.3908V29.3236V28.2565H181.835C180.211 28.2565 180.27 28.3524 180.27 25.8945V23.8801L181.313 23.8441L182.345 23.8081V22.741V21.6739L181.313 21.6379L180.27 21.602L180.235 20.6068L180.199 19.6236H178.966H177.745L177.604 20.4869Z" fill="white"/>
<path d="M83.548 21.4701C83.4888 21.5061 83.228 21.554 82.9791 21.602C82.339 21.7099 81.6515 22.3694 81.4145 23.1127C81.2485 23.6043 81.2248 24.1319 81.2604 26.2541C81.2959 28.7841 81.2959 28.7961 81.6278 29.3717C81.8412 29.7433 82.1257 30.0311 82.4575 30.2109C82.9317 30.4627 83.0739 30.4747 85.7409 30.4747H88.5264L89.0835 30.151C89.4747 29.9111 89.7117 29.6594 89.9132 29.2517C90.174 28.7002 90.1859 28.5682 90.1859 25.9784C90.1859 23.4484 90.174 23.2447 89.9369 22.801C89.6406 22.2495 89.4035 22.0217 88.8227 21.7099C88.4671 21.53 88.0522 21.494 86.0372 21.4581C84.7333 21.4461 83.6192 21.4461 83.548 21.4701ZM87.1751 23.9041C87.424 24.2038 87.4122 27.9808 87.1632 28.1366C87.0684 28.1966 86.3928 28.2565 85.6579 28.2565C84.4607 28.2565 84.3185 28.2325 84.2 28.0288C84.1407 27.8968 84.0814 26.9976 84.0814 25.9664C84.0814 23.6163 84.0222 23.7003 85.7409 23.7003C86.7839 23.7003 87.0447 23.7363 87.1751 23.9041Z" fill="white"/>
<path d="M103.78 21.542C102.962 21.7099 102.464 22.1055 102.144 22.789C101.871 23.3765 101.859 23.5084 101.859 26.0383C101.859 28.952 101.931 29.2996 102.642 29.9472C103.317 30.5706 104.171 30.6546 107.549 30.4148C110.133 30.2349 109.92 30.3428 109.92 29.1318V28.1006L109.362 28.1726C109.042 28.2205 107.964 28.2805 106.956 28.3285C104.87 28.4244 104.704 28.3645 104.704 27.5851V27.1774H107.501H110.299L110.251 25.1031C110.216 23.1847 110.192 23.0048 109.943 22.5852C109.789 22.3453 109.41 21.9977 109.114 21.8058C108.568 21.494 108.509 21.4821 106.423 21.4581C105.249 21.4461 104.064 21.4821 103.78 21.542ZM107.288 23.7243C107.371 23.8081 107.43 24.1559 107.43 24.5036V25.1391H106.067H104.704V24.5036C104.704 24.1559 104.763 23.8081 104.846 23.7243C104.941 23.6283 105.392 23.5804 106.067 23.5804C106.743 23.5804 107.193 23.6283 107.288 23.7243Z" fill="white"/>
<path d="M116.842 21.5899C116.439 21.6859 115.846 21.9017 115.514 22.0696C115.183 22.2375 114.886 22.3813 114.863 22.3813C114.827 22.3813 114.78 22.2135 114.744 22.0217L114.673 21.6619H113.416H112.172V26.0383V30.4148H113.594H115.017V27.3093C115.017 24.4436 115.029 24.1919 115.23 24.1319C115.562 24.036 116.949 23.8202 117.304 23.8202C117.482 23.8202 117.731 23.928 117.861 24.0599C118.087 24.2878 118.098 24.4556 118.098 27.3573V30.4148H119.533H120.955L120.92 26.7218L120.884 23.0168L120.552 22.5252C120.374 22.2494 120.019 21.9137 119.758 21.7818C119.142 21.4581 117.79 21.3741 116.842 21.5899Z" fill="white"/>
<path d="M135.05 21.4941C134.481 21.614 133.569 21.9257 133.165 22.1655C132.738 22.4053 132.561 22.3334 132.561 21.8657C132.561 21.6859 132.418 21.662 131.257 21.662H129.953L129.977 26.0024L130.012 30.3548L131.411 30.3908L132.798 30.4267V27.3213V24.2038L133.308 24.0839C134.173 23.8681 135.204 23.7962 135.548 23.9281L135.88 24.048L135.903 27.2014L135.939 30.3548L137.338 30.3908L138.724 30.4267V26.8177C138.724 23.5084 138.701 23.1727 138.499 22.765C138.227 22.2255 137.836 21.8418 137.373 21.662C136.994 21.5181 135.5 21.4101 135.05 21.4941Z" fill="white"/>
<path d="M141.353 21.9137C140.535 22.3334 140.215 22.9328 140.156 24.1558C140.109 25.4388 140.263 25.9543 140.843 26.4939C141.496 27.0814 141.934 27.1774 144.151 27.1774H146.071V27.5132C146.071 27.705 146 27.9567 145.905 28.0766C145.763 28.2805 145.597 28.2925 143.191 28.2206C141.78 28.1726 140.547 28.1006 140.453 28.0647C140.286 28.0047 140.263 28.1366 140.263 29.0719V30.1629L140.654 30.2349C141.282 30.3428 144.743 30.5347 145.953 30.5347C147.245 30.5347 147.837 30.3308 148.358 29.7073C148.797 29.1678 148.952 28.4843 148.88 27.3812C148.809 26.2901 148.501 25.7026 147.766 25.2469C147.351 24.9832 147.173 24.9592 145.3 24.9233C144.163 24.8993 143.226 24.8273 143.144 24.7554C142.954 24.5995 142.942 24.1558 143.131 23.964C143.238 23.8561 143.961 23.8201 145.68 23.8201H148.086V22.741V21.6619H144.981C142.029 21.6619 141.839 21.6739 141.353 21.9137Z" fill="white"/>
<path d="M157.035 21.8897C155.885 22.4293 155.672 23.0408 155.672 25.8465C155.672 27.0096 155.731 28.1726 155.803 28.4364C155.968 29.0479 156.668 29.7553 157.272 29.9232C157.889 30.091 159.287 30.0791 160.449 29.8873C160.947 29.8033 161.385 29.7673 161.421 29.7913C161.586 29.9592 161.456 30.6786 161.231 30.9064C160.994 31.1462 160.888 31.1581 159.833 31.0862C159.204 31.0503 158.126 30.9783 157.426 30.9423L156.146 30.8585V31.9495V33.0287L157.426 33.1365C158.126 33.1845 159.631 33.2324 160.792 33.2324H162.879L163.341 32.8608C164.301 32.0815 164.265 32.2973 164.301 26.6619L164.336 21.662H160.923C157.853 21.662 157.462 21.686 157.035 21.8897ZM161.456 25.7506L161.48 27.621L161.041 27.705C160.792 27.741 160.212 27.7769 159.737 27.7769C158.528 27.7769 158.516 27.753 158.516 25.8705C158.516 23.8202 158.516 23.8202 160.294 23.8562L161.421 23.8802L161.456 25.7506Z" fill="white"/>
<path d="M149.746 23.0648V24.1798H150.338H150.931L150.954 27.2614L150.991 30.3548L152.389 30.3908L153.776 30.4267V26.2302V22.0336L151.761 21.9977L149.746 21.9617V23.0648Z" fill="white"/>
<path d="M59.7308 17.9671C62.0472 20.301 64.3945 22.5987 66.7108 24.9361L53.7917 38L46.1626 30.0567L53.7917 22.3494L56.3426 25.0398L51.3598 30.1326L53.7917 32.7012L61.4184 24.876L53.8095 17.2988L43.551 27.6434L41 24.9531L53.8095 12C55.9306 13.8329 57.761 15.9837 59.7308 17.9671Z" fill="white"/>
</g>
<defs>
<clipPath id="clip0_4997_2197">
<rect width="142" height="26" fill="white" transform="translate(41 12)"/>
</clipPath>
</defs>
</svg>
