<svg width="52" height="52" viewBox="0 0 52 52" fill="none" xmlns="http://www.w3.org/2000/svg">
<path d="M31.657 20.2537C28.6996 22.4238 24.4124 23.5792 20.7167 23.5792C15.7901 23.6049 11.0298 21.7978 7.36154 18.509C7.08282 18.2601 7.33176 17.9196 7.66367 18.1154C11.7396 20.4313 16.3479 21.647 21.0359 21.643C24.5374 21.6279 28.0015 20.9215 31.2294 19.5643C31.7315 19.3558 32.1506 19.892 31.6613 20.2537H31.657ZM32.8889 18.8579C32.5081 18.3771 30.3889 18.626 29.4358 18.7409C29.1443 18.775 29.0996 18.5218 29.3613 18.343C31.0549 17.1601 33.8272 17.5005 34.1485 17.8962C34.4783 18.2941 34.0634 21.0622 32.4783 22.3856C32.2336 22.5898 32.0017 22.4792 32.1123 22.209C32.4698 21.3239 33.2676 19.3366 32.8889 18.8579ZM29.5017 9.98569V8.83677C29.5017 8.6623 29.6336 8.54528 29.7932 8.54528H34.974C35.1399 8.54528 35.2719 8.6623 35.2719 8.83251V9.81974C35.2719 9.98569 35.1314 10.2027 34.8782 10.5431L32.1996 14.3537C33.1953 14.3325 34.2527 14.4814 35.157 14.9856C35.2395 15.0287 35.3087 15.0934 35.357 15.1729C35.4054 15.2524 35.4311 15.3436 35.4314 15.4367V16.658C35.4314 16.8324 35.2421 17.0239 35.0506 16.9197C34.2028 16.4877 33.2644 16.2636 32.3129 16.2658C31.3614 16.2681 30.4241 16.4965 29.5783 16.9324C29.3953 17.0282 29.2081 16.8367 29.2081 16.6665V15.5005C29.2081 15.3133 29.2124 14.9941 29.3996 14.7133L32.5102 10.2687H29.806C29.64 10.2687 29.5038 10.1559 29.4996 9.98144L29.5017 9.98569ZM39.7314 8.39635C42.0718 8.39635 43.3356 10.3963 43.3356 12.9346C43.3356 15.3878 41.9399 17.3345 39.7314 17.3345C37.4357 17.3345 36.1889 15.3346 36.1889 12.8474C36.1889 10.3431 37.4527 8.39635 39.7314 8.39635ZM39.7441 10.0368C38.5846 10.0368 38.5101 11.6091 38.5101 12.5942C38.5101 13.5793 38.4974 15.6771 39.7314 15.6771C40.9526 15.6771 41.0101 13.9835 41.0101 12.9495C41.0101 12.2729 40.9803 11.4601 40.7761 10.8197C40.5995 10.2602 40.2463 10.0368 39.7441 10.0368ZM26.9613 17.1473C26.8571 17.2324 26.6634 17.2431 26.5911 17.1814C26.2318 16.887 25.9259 16.5329 25.6869 16.1346C24.823 17.0111 24.2082 17.2771 23.0869 17.2771C21.7635 17.2771 20.7295 16.4622 20.7295 14.8346C20.7113 14.2864 20.863 13.746 21.1639 13.2874C21.4648 12.8288 21.9002 12.4744 22.4103 12.2729C23.2656 11.8963 24.4613 11.8304 25.3741 11.7261C25.3741 11.7261 25.4486 10.7453 25.1826 10.3857C25.0754 10.255 24.9397 10.1506 24.7859 10.0806C24.6321 10.0105 24.4643 9.97658 24.2954 9.98144C23.7145 9.98144 23.1465 10.2942 23.0337 10.9027C23.0039 11.0772 22.8763 11.224 22.7358 11.207L21.2316 11.0453C21.1942 11.0402 21.1583 11.0275 21.126 11.008C21.0937 10.9885 21.0658 10.9626 21.0438 10.932C21.0219 10.9013 21.0065 10.8664 20.9985 10.8296C20.9906 10.7927 20.9902 10.7546 20.9976 10.7176C21.3444 8.8772 23.0167 8.31763 24.5188 8.31763C25.2847 8.31763 26.2847 8.52401 26.8911 9.09847C27.6571 9.81123 27.5868 10.758 27.5868 11.7963V14.241C27.5868 14.9729 27.8911 15.2963 28.1805 15.6878C28.2805 15.8324 28.3017 16.0026 28.1762 16.109C27.8528 16.375 26.9634 17.1473 26.9634 17.1473H26.9613ZM25.3741 13.324V12.9835C24.2337 12.9835 23.0294 13.2282 23.0294 14.5644C23.0294 15.241 23.3826 15.6984 23.989 15.6984C24.4273 15.6984 24.8273 15.4282 25.0805 14.9856C25.3869 14.441 25.3741 13.9346 25.3741 13.324ZM6.30198 17.1473C6.20198 17.2345 6.00837 17.2431 5.9339 17.1814C5.39348 16.7665 5.03178 16.1346 5.03178 16.1346C4.16371 17.0111 3.55095 17.2771 2.42969 17.2771C1.10417 17.2771 0.0743933 16.4622 0.0743933 14.8346C0.0562069 14.2864 0.20796 13.746 0.508863 13.2874C0.809766 12.8288 1.2451 12.4744 1.75522 12.2729C2.60841 11.8963 3.80414 11.8325 4.71689 11.7261C4.71689 11.7261 4.79136 10.7453 4.52541 10.3857C4.41822 10.255 4.28252 10.1506 4.12872 10.0806C3.97493 10.0105 3.80712 9.97658 3.63818 9.98144C3.05521 9.98144 2.49139 10.2963 2.37862 10.9027C2.34671 11.0772 2.21692 11.224 2.08075 11.207L0.570132 11.0453C0.533143 11.0396 0.497676 11.0266 0.465877 11.0069C0.434077 10.9872 0.406606 10.9612 0.385125 10.9306C0.363645 10.9 0.348601 10.8653 0.340904 10.8287C0.333208 10.7921 0.333019 10.7543 0.340348 10.7176C0.685024 8.8772 2.3616 8.31763 3.86158 8.31763C4.62966 8.31763 5.62752 8.52401 6.23602 9.09847C6.99985 9.81123 6.92538 10.758 6.92538 11.7963V14.241C6.92538 14.9729 7.23176 15.2963 7.51899 15.6878C7.61899 15.8324 7.64026 16.0026 7.51473 16.109C7.19133 16.375 6.30198 17.1473 6.30198 17.1473ZM4.71689 13.324V12.9835C3.57861 12.9835 2.37437 13.2282 2.37437 14.5644C2.37437 15.241 2.7233 15.6984 3.3318 15.6984C3.7701 15.6984 4.17222 15.4282 4.42541 14.9878C4.72966 14.441 4.71689 13.9346 4.71689 13.324ZM10.9147 12.6133V16.8728C10.913 16.9507 10.8809 17.0249 10.8252 17.0794C10.7695 17.1338 10.6947 17.1644 10.6168 17.1643H9.04663C9.00782 17.1652 8.96923 17.1583 8.93312 17.144C8.89702 17.1297 8.86413 17.1084 8.83638 17.0813C8.80863 17.0541 8.78659 17.0217 8.77154 16.9859C8.7565 16.9501 8.74875 16.9117 8.74876 16.8728V8.86017C8.74988 8.78191 8.78176 8.70724 8.8375 8.65229C8.89324 8.59735 8.96836 8.56655 9.04663 8.56656H10.5168C10.5555 8.56628 10.5938 8.57368 10.6295 8.58833C10.6653 8.60299 10.6978 8.62461 10.7251 8.65193C10.7524 8.67925 10.774 8.71173 10.7887 8.74748C10.8033 8.78323 10.8107 8.82154 10.8104 8.86017V9.88569H10.8402C11.2232 8.87294 11.9445 8.39635 12.9125 8.39635C13.8998 8.39635 14.5147 8.87294 14.9593 9.88569C15.117 9.43896 15.4127 9.05392 15.8035 8.7862C16.1944 8.51849 16.6602 8.38197 17.1338 8.39635C17.7976 8.39635 18.5167 8.66656 18.9572 9.27932C19.4593 9.95591 19.355 10.9367 19.355 11.8006V16.8771C19.355 17.0388 19.2189 17.1643 19.0486 17.1643H17.4784C17.4034 17.1621 17.332 17.1311 17.2793 17.0775C17.2266 17.024 17.1965 16.9522 17.1955 16.8771V12.6133C17.1955 12.2729 17.2253 11.4261 17.1529 11.107C17.0338 10.5623 16.6806 10.4091 16.221 10.4091C16.0171 10.416 15.8198 10.4826 15.6534 10.6006C15.487 10.7186 15.3588 10.8828 15.2849 11.0729C15.121 11.4772 15.1359 12.1538 15.1359 12.6133V16.875C15.1359 17.0367 14.9998 17.1622 14.8295 17.1622H13.2572C13.1821 17.16 13.1108 17.1289 13.0581 17.0754C13.0053 17.0219 12.9753 16.9501 12.9742 16.875V12.6133C12.9742 11.7133 13.1189 10.3963 12.0019 10.3963C10.8658 10.3963 10.9104 11.6793 10.9104 12.6133H10.9147ZM46.676 16.8728C46.676 16.9113 46.6684 16.9494 46.6536 16.9849C46.6388 17.0204 46.6172 17.0526 46.5899 17.0797C46.5626 17.1068 46.5302 17.1282 46.4946 17.1428C46.459 17.1573 46.4208 17.1646 46.3824 17.1643H44.8079C44.7695 17.1646 44.7313 17.1573 44.6957 17.1428C44.6601 17.1282 44.6277 17.1068 44.6004 17.0797C44.5731 17.0526 44.5515 17.0204 44.5367 16.9849C44.5219 16.9494 44.5143 16.9113 44.5143 16.8728V8.86017C44.514 8.82154 44.5214 8.78323 44.5361 8.74748C44.5507 8.71173 44.5724 8.67925 44.5997 8.65193C44.627 8.62461 44.6595 8.60299 44.6952 8.58833C44.731 8.57368 44.7693 8.56628 44.8079 8.56656H46.2611C46.4356 8.56656 46.559 8.70273 46.559 8.79422V10.0197H46.5888C47.0249 8.91975 47.6441 8.39635 48.7355 8.39635C49.4419 8.39635 50.1313 8.65167 50.5717 9.34315C50.9823 9.98995 50.9823 11.0729 50.9823 11.8495V16.9111C50.9715 16.9825 50.9351 17.0476 50.8799 17.0941C50.8247 17.1407 50.7545 17.1657 50.6823 17.1643H49.1015C49.033 17.1607 48.9678 17.1335 48.917 17.0874C48.8663 17.0412 48.833 16.979 48.8228 16.9111V12.0495C48.8228 10.4261 48.1994 10.3772 47.8355 10.3772C47.4164 10.3772 47.076 10.7048 46.9334 11.007C46.7356 11.4939 46.6463 12.0181 46.6717 12.5431L46.676 16.8728ZM0.476516 42.9151C0.207016 42.9179 0.0722656 42.7818 0.0722656 42.5066V33.0407C0.0722656 32.7712 0.207016 32.6365 0.476516 32.6365H1.38076C1.51409 32.6365 1.61906 32.6642 1.69565 32.7195C1.77083 32.772 1.82189 32.8734 1.84884 33.0237L1.97012 33.6705C3.27507 32.7798 4.54455 32.3344 5.77858 32.3344C7.04523 32.3344 7.90267 32.8145 8.35089 33.7748C9.69414 32.8145 11.0381 32.3344 12.3828 32.3344C13.3218 32.3344 14.0423 32.5968 14.5444 33.1216C15.0466 33.6535 15.2976 34.4039 15.2976 35.3726V42.5087C15.2976 42.7782 15.1615 42.913 14.8891 42.913H13.6891C13.4168 42.9158 13.2799 42.7811 13.2785 42.5087V35.945C13.2771 35.267 13.1494 34.7663 12.8955 34.4429C12.6317 34.1166 12.2239 33.9535 11.6721 33.9535C10.6792 33.9535 9.67925 34.2585 8.67217 34.8684C8.68643 34.9685 8.69354 35.0694 8.69344 35.1705V42.5066C8.69344 42.7775 8.55869 42.913 8.28919 42.913H7.08495C6.81545 42.9158 6.6807 42.7811 6.6807 42.5087V35.945C6.6807 35.267 6.55091 34.7663 6.29134 34.4429C6.03035 34.1166 5.62256 33.9535 5.06795 33.9535C4.03534 33.9535 3.04315 34.2514 2.09139 34.8471V42.5066C2.09423 42.7789 1.95948 42.9144 1.68714 42.913L0.476516 42.9151ZM21.1805 43.2194C20.2174 43.2194 19.477 42.9484 18.9593 42.4066C18.4444 41.8662 18.187 41.1024 18.187 40.1151V33.0514C18.1855 32.7762 18.321 32.6393 18.5933 32.6408H19.7933C20.0685 32.6408 20.2054 32.7755 20.2039 33.045V39.4747C20.2039 40.2024 20.3465 40.7392 20.6316 41.0853C20.9167 41.4286 21.372 41.6002 21.9975 41.6002C22.9763 41.6002 23.9614 41.2754 24.9528 40.6258V33.0407C24.95 32.7712 25.0847 32.6365 25.3571 32.6365H26.5592C26.833 32.6365 26.9691 32.7712 26.9677 33.0407V42.513C26.9677 42.7796 26.8315 42.913 26.5592 42.913H25.6869C25.575 42.9197 25.4637 42.8922 25.3677 42.8343C25.294 42.7804 25.2429 42.6789 25.2145 42.53L25.0741 41.8215C23.8089 42.752 22.511 43.2179 21.1805 43.2194ZM32.7549 43.2194C31.6116 43.2194 30.5861 43.03 29.6783 42.6513C29.55 42.6048 29.4347 42.5282 29.3421 42.4279C29.2811 42.3456 29.2507 42.2179 29.2507 42.0449V41.4726C29.2492 41.2286 29.3308 41.1066 29.4953 41.1066C29.5889 41.1066 29.7577 41.1477 30.0017 41.23C30.9024 41.5137 31.8336 41.6548 32.7953 41.6534C33.4634 41.652 33.9697 41.5236 34.3144 41.2683C34.6619 41.0116 34.835 40.6407 34.8336 40.1556C34.8387 40.0087 34.8134 39.8624 34.7592 39.7258C34.705 39.5892 34.6231 39.4653 34.5187 39.362C34.1775 39.0877 33.7867 38.8818 33.3676 38.7556L31.6336 38.1088C30.1244 37.5542 29.3712 36.6088 29.3741 35.2726C29.3726 34.389 29.7159 33.679 30.4038 33.1429C31.0889 32.601 31.9875 32.3301 33.0995 32.3301C33.9836 32.3312 34.8604 32.4897 35.6889 32.7982C35.8227 32.8329 35.9438 32.9053 36.0378 33.0067C36.1031 33.0946 36.1364 33.2259 36.1378 33.4003V33.9492C36.1378 34.1932 36.0506 34.3152 35.8761 34.3152C35.7154 34.2999 35.5569 34.2663 35.4038 34.2152C34.6896 33.9993 33.9477 33.8889 33.2017 33.8875C31.8981 33.889 31.2457 34.3287 31.2442 35.2067C31.2442 35.557 31.3542 35.8336 31.574 36.0365C31.791 36.2393 32.2187 36.4627 32.857 36.7067L34.4442 37.3194C35.247 37.6258 35.825 37.9939 36.1782 38.4237C36.53 38.8449 36.7059 39.3946 36.7059 40.0726C36.7059 41.0329 36.3463 41.7967 35.6272 42.364C34.908 42.9314 33.9506 43.2151 32.7549 43.2151V43.2194ZM39.2761 42.913C39.0037 42.9158 38.8669 42.7811 38.8654 42.5087V33.0407C38.8669 32.7712 39.0037 32.6365 39.2761 32.6365H40.4761C40.7484 32.6365 40.8853 32.7712 40.8867 33.0407V42.513C40.8853 42.7796 40.7484 42.913 40.4761 42.913H39.2761ZM39.8867 30.811C39.4938 30.811 39.1839 30.7003 38.9569 30.4791C38.8439 30.3628 38.7558 30.2248 38.698 30.0733C38.6402 29.9219 38.6139 29.7602 38.6208 29.5982C38.6139 29.4363 38.6402 29.2746 38.698 29.1231C38.7558 28.9717 38.8439 28.8336 38.9569 28.7174C39.0818 28.6024 39.2283 28.5134 39.3879 28.4556C39.5476 28.3979 39.7172 28.3726 39.8867 28.3812C40.2782 28.3812 40.5867 28.4933 40.8122 28.7174C40.9263 28.8329 41.0151 28.9708 41.0729 29.1225C41.1308 29.2741 41.1565 29.4361 41.1484 29.5982C41.1498 29.9599 41.0378 30.2535 40.8122 30.4791C40.6876 30.5928 40.5416 30.6807 40.3827 30.7377C40.2238 30.7947 40.0552 30.8196 39.8867 30.811ZM48.4015 43.1364C46.7987 43.1364 45.5739 42.6811 44.7271 41.7704C43.876 40.857 43.4505 39.5357 43.4505 37.8067C43.4505 36.0904 43.8888 34.762 44.7654 33.8216C45.6405 32.884 46.8802 32.4145 48.4845 32.4131C49.2178 32.4131 49.9376 32.5429 50.644 32.8025C50.7944 32.8535 50.8993 32.9202 50.9589 33.0024C51.0483 33.1259 51.0504 33.2216 51.0504 33.4067V33.9535C51.0504 34.223 50.9632 34.3578 50.7887 34.3578C50.6773 34.3523 50.5672 34.3323 50.461 34.2982C49.911 34.137 49.3406 34.056 48.7674 34.0578C47.627 34.0578 46.8051 34.3443 46.3015 34.9173C45.5462 35.7769 45.5505 36.4067 45.5505 37.6684V37.9301C45.5505 39.1556 45.8058 40.0577 46.3164 40.6364C46.827 41.208 47.6313 41.4946 48.7291 41.496C49.2965 41.4974 49.9072 41.4024 50.561 41.2109C50.6603 41.1786 50.7632 41.1585 50.8674 41.1513C51.0433 41.1513 51.132 41.286 51.1334 41.5555V42.1066C51.1334 42.2825 51.1057 42.4101 51.0504 42.4896C50.9655 42.5917 50.8534 42.6677 50.727 42.7087C50.0603 42.9938 49.2852 43.1378 48.4015 43.1364Z" fill="black"/>
</svg>
