<svg width="52" height="52" viewBox="0 0 52 52" fill="none" xmlns="http://www.w3.org/2000/svg">
<path d="M39.7129 0.236816C45.9865 0.236918 51.072 5.32257 51.0723 11.5962V39.9399C51.0723 46.2138 45.9867 51.3002 39.7129 51.3003H11.3691C5.09528 51.3003 0.00976562 46.2138 0.00976562 39.9399V11.5962C0.0100007 5.32253 5.09543 0.236848 11.3691 0.236816H39.7129ZM25.2354 28.1001C23.1164 28.1087 21.6012 28.853 21.043 30.1636C20.6228 31.153 20.7812 34.2745 21.5078 39.3169C21.9533 42.4112 22.248 43.6751 22.9326 44.3433C23.043 44.4906 23.1673 44.6206 23.3096 44.7319C23.684 45.0381 24.1946 45.1908 24.5859 45.2759C24.9774 45.361 25.2669 45.3608 25.5732 45.3608C25.8796 45.3608 26.2031 45.361 26.5605 45.2759C26.9179 45.1908 27.2929 45.038 27.6162 44.7827C27.9395 44.5274 28.229 44.1699 28.4502 43.6255C28.6715 43.0978 28.8408 42.3825 29.0791 40.7485C29.3174 39.123 29.6242 36.585 29.7773 34.854C29.9305 33.118 29.9305 32.1887 29.8965 31.5181C29.8454 30.8493 29.76 30.441 29.5898 30.0972C29.4196 29.7533 29.1479 29.4701 28.7734 29.1978C28.7345 29.17 28.6925 29.1452 28.6514 29.1177C27.8765 28.4553 26.6944 28.0942 25.2354 28.1001ZM25.2549 5.70068C20.2337 5.70068 15.7222 7.6541 12.2158 11.3511C9.78181 13.911 8.31868 16.8072 7.55273 20.5093C7.26346 21.8883 7.31377 25.4742 7.62012 26.9771C8.84563 32.8015 12.2163 37.1789 17.4756 39.7661L17.5605 39.8296C18.4786 40.2716 19.346 40.6451 19.4668 40.646C19.654 40.646 19.671 40.4253 19.5859 39.6597C19.4498 38.4001 19.2969 38.1447 18.582 37.8384C18.2586 37.7022 17.4759 37.259 16.8291 36.8335C13.527 34.7059 11.0073 31.1317 10.0371 27.2339C9.64566 25.6339 9.64569 21.7363 10.0371 20.1362C11.5009 14.2469 16.3013 9.566 22.1055 8.37451C23.7905 8.0341 26.8202 8.03411 28.4883 8.37451C34.2243 9.56596 38.9051 14.0253 40.4541 19.7612C40.9477 21.5655 40.9992 25.4641 40.5566 27.2173C39.8588 30.0255 38.3435 32.6973 36.2842 34.7397C35.0927 35.9346 33.1521 37.3168 32.0117 37.7935C31.2969 38.093 31.1434 38.3554 30.9902 39.6147C30.9052 40.399 30.9224 40.5931 31.1094 40.5933C31.62 40.5933 34.7865 38.8886 36.0801 37.9116C39.7056 35.178 42.1907 31.1094 42.9736 26.6431C43.2119 25.2302 43.2114 21.8054 42.9561 20.5493C42.2071 16.7761 40.7436 13.9117 38.1396 11.2056C34.7185 7.61934 30.2248 5.70081 25.2549 5.70068ZM27.8926 11.9048C26.1734 11.5252 23.0754 11.6358 21.6797 12.1294C17.5948 13.5847 14.6504 16.6827 13.5781 20.6792C13.1696 22.1601 13.1691 24.9821 13.5605 26.4663C14.2073 28.9242 15.7738 31.4295 17.5439 32.8423L17.6152 32.8657C18.1429 33.2912 18.637 33.6323 18.7051 33.6323C18.7747 33.6302 18.8311 33.052 18.8311 32.3384V31.0444L17.9521 29.9897C14.6161 25.9899 14.8544 20.3779 18.5137 16.7524C20.0064 15.2751 21.6883 14.4336 23.8584 14.0796C25.2882 13.8447 25.5778 13.8453 26.9395 14.0972C29.0501 14.4835 30.6839 15.3212 32.0967 16.7476C35.7391 20.4105 35.9777 25.9932 32.6416 29.9897L31.7568 31.0444V32.3315C31.7568 33.0353 31.8074 33.6133 31.8584 33.6147C32.1648 33.6147 33.9013 32.0815 34.6162 31.1675C36.063 29.3582 36.8797 27.4106 37.2031 25.0396C38.02 19.1555 33.8158 13.2239 27.8926 11.9048ZM25.8623 18.0767C25.0235 17.9759 24.089 18.0889 23.4668 18.4155C21.9693 19.2104 21.1017 20.5684 21.1016 22.1255C21.1147 23.4655 21.6075 24.5627 22.5303 25.3179C23.2977 26.0812 24.3555 26.5531 25.5234 26.5532C27.8679 26.5532 29.7685 24.6525 29.7686 22.3081C29.7686 20.0775 28.0486 18.2491 25.8623 18.0767Z" fill="black"/>
</svg>
