<svg width="59" height="59" viewBox="0 0 59 59" fill="none" xmlns="http://www.w3.org/2000/svg">
<g clip-path="url(#clip0_3573_12061)">
<path d="M29.8285 0.685791C13.763 0.685791 0.73877 13.7097 0.73877 29.7752C0.73877 45.8413 13.763 58.8642 29.8285 58.8642C45.8957 58.8642 58.9186 45.8413 58.9186 29.7752C58.9186 13.7107 45.8957 0.68718 29.8281 0.68718L29.8285 0.685791ZM43.1688 42.641C42.6478 43.4955 41.5293 43.7665 40.6747 43.242C33.8448 39.0701 25.2467 38.1252 15.1209 40.4387C14.1451 40.661 13.1725 40.0496 12.9502 39.0735C12.7268 38.0974 13.3358 37.1248 14.314 36.9025C25.395 34.3698 34.9001 35.4609 42.5679 40.1469C43.4224 40.6714 43.6934 41.7865 43.1688 42.641ZM46.7294 34.7193C46.0728 35.7874 44.6764 36.1244 43.61 35.4678C35.7907 30.6606 23.8715 29.2687 14.6228 32.0761C13.4233 32.4384 12.1564 31.7625 11.7924 30.5651C11.4311 29.3656 12.1075 28.1012 13.3048 27.7364C23.8694 24.5309 37.003 26.0837 45.9825 31.6016C47.049 32.2581 47.3859 33.6546 46.7294 34.7196V34.7193ZM47.0351 26.4713C37.6596 20.9027 22.1912 20.3906 13.2399 23.1074C11.8025 23.5434 10.2824 22.7319 9.84678 21.2945C9.41118 19.8564 10.2219 18.3373 11.6604 17.9004C21.9359 14.781 39.0178 15.3837 49.8119 21.7916C51.1076 22.5589 51.5314 24.2287 50.7637 25.5199C49.9995 26.8128 48.3252 27.239 47.0365 26.4713H47.0351Z" fill="black"/>
</g>
<defs>
<clipPath id="clip0_3573_12061">
<rect width="58.358" height="58.358" fill="white" transform="translate(0.651367 0.5896)"/>
</clipPath>
</defs>
</svg>
