<svg width="66" height="47" viewBox="0 0 66 47" fill="none" xmlns="http://www.w3.org/2000/svg">
<path d="M26.2606 33.6163L43.2972 23.7686L26.2606 13.9208V33.6163ZM64.2073 7.91372C64.634 9.45654 64.9294 11.5246 65.1264 14.1506C65.3562 16.7767 65.4546 19.0417 65.4546 21.0112L65.6516 23.7686C65.6516 30.9574 65.1264 36.2424 64.2073 39.6234C63.3866 42.5778 61.4827 44.4817 58.5284 45.3023C56.9856 45.729 54.1626 46.0245 49.8296 46.2214C45.5622 46.4512 41.6559 46.5497 38.0451 46.5497L32.8258 46.7466C19.0718 46.7466 10.5043 46.2214 7.1232 45.3023C4.16888 44.4817 2.26498 42.5778 1.44434 39.6234C1.0176 38.0806 0.722168 36.0126 0.525213 33.3865C0.295432 30.7605 0.196955 28.4955 0.196955 26.5259L0 23.7686C0 16.5797 0.525213 11.2948 1.44434 7.91372C2.26498 4.9594 4.16888 3.05551 7.1232 2.23486C8.66601 1.80813 11.489 1.51269 15.822 1.31574C20.0894 1.08596 23.9957 0.987482 27.6065 0.987482L32.8258 0.790527C46.5798 0.790527 55.1473 1.31574 58.5284 2.23486C61.4827 3.05551 63.3866 4.9594 64.2073 7.91372Z" fill="black"/>
</svg>
