<svg width="25" height="24" viewBox="0 0 25 24" fill="none" xmlns="http://www.w3.org/2000/svg">
<path d="M12.0113 2.79348C12.1218 2.40386 12.8134 2.40153 12.9265 2.79039C13.4428 4.56609 14.4004 7.19078 15.8483 8.62898C17.2963 10.0672 19.9274 11.0069 21.7065 11.5113C22.0961 11.6218 22.0985 12.3134 21.7096 12.4265C19.9339 12.9428 17.3092 13.9004 15.871 15.3483C14.4328 16.7963 13.4931 19.4274 12.9887 21.2065C12.8782 21.5961 12.1866 21.5985 12.0735 21.2096C11.5572 19.4339 10.5996 16.8092 9.15168 15.371C7.70373 13.9328 5.07263 12.993 3.29348 12.4887C2.90386 12.3782 2.90153 11.6866 3.29039 11.5735C5.06609 11.0572 7.69078 10.0996 9.12898 8.65168C10.5672 7.20373 11.507 4.57263 12.0113 2.79348Z" fill="white"/>
<path opacity="0.5" d="M4.81997 1.10812C4.86066 0.964581 5.11545 0.96372 5.15711 1.10698C5.34737 1.76119 5.70014 2.72818 6.23359 3.25804C6.76705 3.78791 7.7364 4.13414 8.39188 4.31997C8.53542 4.36066 8.53628 4.61545 8.39302 4.65711C7.73881 4.84736 6.77182 5.20014 6.24196 5.73359C5.71209 6.26705 5.36586 7.2364 5.18003 7.89188C5.13934 8.03542 4.88455 8.03628 4.84289 7.89302C4.65264 7.23881 4.29986 6.27182 3.76641 5.74196C3.23295 5.21209 2.2636 4.86586 1.60812 4.68003C1.46458 4.63934 1.46372 4.38455 1.60698 4.34289C2.26119 4.15263 3.22818 3.79986 3.75805 3.26641C4.28791 2.73295 4.63414 1.7636 4.81997 1.10812Z" fill="white"/>
</svg>
