<svg width="25" height="24" viewBox="0 0 25 24" fill="none" xmlns="http://www.w3.org/2000/svg">
<path fill-rule="evenodd" clip-rule="evenodd" d="M9.23165 5.77132L6.16952 9.91434C4.8848 11.6526 4.24244 12.5217 4.59639 13.205C4.60225 13.2163 4.60829 13.2276 4.6145 13.2387C4.98945 13.9116 6.09888 13.9116 8.31774 13.9116C9.55077 13.9116 10.1673 13.9116 10.554 14.2754L10.574 14.2946L14.446 9.72464L14.4259 9.7054C14.0474 9.33384 14.0474 8.7415 14.0474 7.55681V7.24711C14.0474 3.96249 14.0474 2.32018 13.124 2.03721C12.2007 1.75425 11.211 3.09327 9.23165 5.77132Z" fill="white"/>
<path opacity="0.5" d="M10.9522 16.4432L10.9522 16.7527C10.9522 20.0374 10.9522 21.6797 11.8755 21.9627C12.7989 22.2457 13.7886 20.9066 15.768 18.2286L18.8301 14.0856C20.1149 12.3474 20.7572 11.4783 20.4033 10.7949C20.3974 10.7836 20.3914 10.7724 20.3852 10.7613C20.0102 10.0883 18.9008 10.0883 16.6819 10.0883C15.4489 10.0883 14.8324 10.0883 14.4457 9.72461L10.5737 14.2946C10.9523 14.6661 10.9523 15.2585 10.9522 16.4432Z" fill="white"/>
</svg>
