<svg width="37" height="37" viewBox="0 0 37 37" fill="none" xmlns="http://www.w3.org/2000/svg">
<circle cx="18.5" cy="18.5" r="18.5" fill="#601DFF"/>
<path d="M15.64 11H22.36C24.92 11 27 13.08 27 15.64V22.36C27 23.5906 26.5111 24.7708 25.641 25.641C24.7708 26.5111 23.5906 27 22.36 27H15.64C13.08 27 11 24.92 11 22.36V15.64C11 14.4094 11.4889 13.2292 12.359 12.359C13.2292 11.4889 14.4094 11 15.64 11ZM15.48 12.6C14.7162 12.6 13.9836 12.9034 13.4435 13.4435C12.9034 13.9836 12.6 14.7162 12.6 15.48V22.52C12.6 24.112 13.888 25.4 15.48 25.4H22.52C23.2838 25.4 24.0164 25.0966 24.5565 24.5565C25.0966 24.0164 25.4 23.2838 25.4 22.52V15.48C25.4 13.888 24.112 12.6 22.52 12.6H15.48ZM23.2 13.8C23.4652 13.8 23.7196 13.9054 23.9071 14.0929C24.0946 14.2804 24.2 14.5348 24.2 14.8C24.2 15.0652 24.0946 15.3196 23.9071 15.5071C23.7196 15.6946 23.4652 15.8 23.2 15.8C22.9348 15.8 22.6804 15.6946 22.4929 15.5071C22.3054 15.3196 22.2 15.0652 22.2 14.8C22.2 14.5348 22.3054 14.2804 22.4929 14.0929C22.6804 13.9054 22.9348 13.8 23.2 13.8ZM19 15C20.0609 15 21.0783 15.4214 21.8284 16.1716C22.5786 16.9217 23 17.9391 23 19C23 20.0609 22.5786 21.0783 21.8284 21.8284C21.0783 22.5786 20.0609 23 19 23C17.9391 23 16.9217 22.5786 16.1716 21.8284C15.4214 21.0783 15 20.0609 15 19C15 17.9391 15.4214 16.9217 16.1716 16.1716C16.9217 15.4214 17.9391 15 19 15ZM19 16.6C18.3635 16.6 17.753 16.8529 17.3029 17.3029C16.8529 17.753 16.6 18.3635 16.6 19C16.6 19.6365 16.8529 20.247 17.3029 20.6971C17.753 21.1471 18.3635 21.4 19 21.4C19.6365 21.4 20.247 21.1471 20.6971 20.6971C21.1471 20.247 21.4 19.6365 21.4 19C21.4 18.3635 21.1471 17.753 20.6971 17.3029C20.247 16.8529 19.6365 16.6 19 16.6Z" fill="white"/>
</svg>
