<svg width="38" height="37" viewBox="0 0 38 37" fill="none" xmlns="http://www.w3.org/2000/svg">
<circle cx="19.1667" cy="18.5" r="18.5" fill="#601DFF"/>
<path d="M14.3578 12.7786C14.3576 13.25 14.1805 13.7021 13.8655 14.0353C13.5505 14.3685 13.1233 14.5556 12.6781 14.5554C12.2328 14.5551 11.8058 14.3676 11.4911 14.0341C11.1764 13.7005 10.9998 13.2483 11 12.7768C11.0002 12.3053 11.1773 11.8533 11.4923 11.52C11.8073 11.1868 12.2345 10.9998 12.6797 11C13.125 11.0002 13.552 11.1878 13.8667 11.5213C14.1814 11.8548 14.358 12.3071 14.3578 12.7786ZM14.4082 15.8717H11.0504V27H14.4082V15.8717ZM19.7135 15.8717H16.3725V27H19.68V21.1603C19.68 17.9072 23.6842 17.605 23.6842 21.1603V27H27V19.9515C27 14.4674 21.0735 14.6718 19.68 17.365L19.7135 15.8717Z" fill="white"/>
</svg>
