<svg width="38" height="37" viewBox="0 0 38 37" fill="none" xmlns="http://www.w3.org/2000/svg">
<circle cx="18.8333" cy="18.5" r="18.5" fill="#601DFF"/>
<path d="M26.4835 12.8802L28 11.3378V11H22.7478L19.0047 20.909L14.747 11H9.23997V11.3378L11.0113 13.6056C11.1845 13.7732 11.2736 14.0193 11.2513 14.2655V23.1768C11.3057 23.4989 11.2092 23.8262 10.9965 24.0592L9 26.6334V26.966H14.6555V26.6282L12.6615 24.0619C12.5546 23.9471 12.4743 23.8077 12.4266 23.6546C12.379 23.5016 12.3654 23.3389 12.3868 23.1794V15.47L17.3521 26.9712H17.9285L22.1986 15.47V24.6327C22.1986 24.8736 22.1986 24.9234 22.0501 25.0831L20.5138 26.6622V27H27.9654V26.6622L26.4835 25.1198C26.3548 25.0151 26.288 24.8396 26.3152 24.6694V13.3306C26.3024 13.2465 26.3113 13.1602 26.3409 13.0809C26.3705 13.0017 26.4198 12.9323 26.4835 12.8802Z" fill="white"/>
</svg>
