<svg width="278" height="100" viewBox="0 0 278 100" fill="none" xmlns="http://www.w3.org/2000/svg">
<g clip-path="url(#clip0_4037_1378)">
<path d="M0.00292969 49.7437H0.00857868C0.00857868 49.7838 0.00857868 49.824 0.00857868 49.8642C0.0057542 49.824 0.0057542 49.7838 0.0057542 49.7437H0.00292969Z" fill="white"/>
<path d="M26.7565 49.7432C26.7537 49.7834 26.7537 49.8235 26.7509 49.8637C26.748 49.8235 26.748 49.7834 26.748 49.7432H26.7565Z" fill="white"/>
<path d="M34.9968 49.7432H34.9997C34.9968 49.7834 34.9968 49.8235 34.9968 49.8637V49.7432Z" fill="white"/>
<path d="M62.5717 49.7432V49.8494C62.5717 49.8149 62.5717 49.7776 62.5686 49.7432H62.5717Z" fill="white"/>
<path d="M0.00564902 49.8633C0.00564902 49.9035 0.00564902 49.9437 0.00564902 49.981H0C0 49.9408 0 49.9035 0.00282451 49.8633H0.00564902Z" fill="white"/>
<path d="M26.7565 49.9804H26.748C26.748 49.9403 26.748 49.9001 26.7509 49.8628C26.7537 49.903 26.7537 49.9403 26.7565 49.9804Z" fill="white"/>
<path d="M62.0761 81.5105C63.8862 87.8649 61.0151 94.6849 54.9908 97.7674C50.2679 100.182 45.4948 99.9211 41.0932 96.8874C36.5463 93.7511 34.365 89.1849 35.1414 83.693C36.4653 74.2961 27.0839 62.6118 16.4373 63.6136C13.393 63.8974 10.4157 63.7161 7.59483 62.2599C3.00329 59.8929 0.118201 55.1193 0.00927734 49.9794C0.00927734 49.9426 0.00927734 49.9028 0.00927734 49.8631C0.00927734 49.8233 0.00927734 49.7836 0.00927734 49.7439C0.118201 44.6041 3.00329 39.8304 7.59483 37.4634C10.4157 36.0075 13.393 35.8259 16.4373 36.1096C27.0839 37.1115 36.4653 25.4271 35.1414 16.0301C34.365 10.5384 36.5463 5.97192 41.0932 2.83582C45.4948 -0.198104 50.2679 -0.459208 54.9908 1.95601C61.0151 5.03818 63.8862 11.8581 62.0761 18.2126C60.1605 24.9276 54.2031 29.179 47.1705 28.3021C39.8671 27.3882 31.1839 34.2621 28.0363 42.0668C26.947 44.7659 26.6677 47.4337 26.7543 49.7439C26.7543 49.7836 26.7543 49.8233 26.7571 49.8631C26.7543 49.8999 26.7543 49.9397 26.7543 49.9794C26.6677 52.2896 26.947 54.9574 28.0363 57.6565C31.1839 65.4611 39.8671 72.3349 47.1705 71.4211C54.2031 70.5443 60.1605 74.7955 62.0761 81.5105Z" fill="white"/>
<path d="M62.5715 49.8489V49.8745C62.5715 49.9086 62.5715 49.9454 62.5684 49.9795C62.4509 57.6594 56.3347 63.7727 48.7352 63.7696C41.1971 63.7696 35.0946 57.6196 34.9996 49.9795C34.9968 49.9397 34.9968 49.9029 34.9968 49.8631C34.9968 49.8234 34.9968 49.7837 34.9996 49.7439C35.0946 42.1037 41.1971 35.9536 48.7352 35.9536C56.3347 35.9508 62.4509 42.0641 62.5684 49.7439C62.5715 49.778 62.5715 49.8149 62.5715 49.8489Z" fill="#B45FFF"/>
<path d="M28.1422 15.5076V15.5332C28.1422 15.5673 28.1422 15.6041 28.1393 15.6382C28.022 23.3181 21.9055 29.4313 14.306 29.4285C6.76789 29.4285 0.665377 23.2783 0.57042 15.6382C0.567628 15.5984 0.567627 15.5616 0.567627 15.5218C0.567627 15.4821 0.567628 15.4424 0.57042 15.4026C0.665377 7.76244 6.76789 1.61231 14.306 1.61231C21.9055 1.60947 28.022 7.72276 28.1393 15.4026C28.1422 15.4367 28.1422 15.4736 28.1422 15.5076Z" fill="#B45FFF"/>
<path d="M28.1422 84.1901V84.2157C28.1422 84.2494 28.1422 84.2863 28.1393 84.3207C28.022 92.0001 21.9055 98.1138 14.306 98.1107C6.76789 98.1107 0.665377 91.9607 0.57042 84.3207C0.567628 84.2807 0.567627 84.2438 0.567627 84.2038C0.567627 84.1644 0.567628 84.1244 0.57042 84.0851C0.665377 76.4444 6.76789 70.2944 14.306 70.2944C21.9055 70.2919 28.022 76.4051 28.1393 84.0851C28.1422 84.1188 28.1422 84.1557 28.1422 84.1901Z" fill="#B45FFF"/>
<path d="M34.9968 49.8628C34.9968 49.903 34.9968 49.9403 34.9997 49.9804H34.9968V49.8628Z" fill="white"/>
<path d="M62.5717 49.8745V49.9807H62.5686C62.5717 49.9463 62.5717 49.9089 62.5717 49.8745Z" fill="white"/>
<path d="M263.146 61.2306V38.98H277.629V42.5719H267.526V48.1981H276.691V51.6629H267.526V57.6387H277.629V61.2306H263.146Z" fill="white"/>
<path d="M247.772 61.2311V38.9805H252.151V57.7663H261.723V61.2311H247.772Z" fill="white"/>
<path d="M229.921 61.2311V38.9805H239.024C240.546 38.9805 241.829 39.2242 242.872 39.7115C243.914 40.1989 244.707 40.877 245.249 41.7459C245.791 42.5935 246.062 43.5895 246.062 44.7338C246.062 45.8358 245.822 46.7682 245.343 47.531C244.863 48.2939 244.227 48.8873 243.434 49.3111C242.663 49.7137 241.808 49.9468 240.87 50.0104L241.37 49.6608C242.371 49.7032 243.257 49.9787 244.029 50.4872C244.821 50.9958 245.436 51.6633 245.874 52.4898C246.333 53.295 246.562 54.1851 246.562 55.1598C246.562 56.3465 246.281 57.4061 245.718 58.3385C245.155 59.2497 244.331 59.9597 243.247 60.4682C242.183 60.9768 240.88 61.2311 239.337 61.2311H229.921ZM234.3 57.6074H238.649C239.754 57.6074 240.609 57.3532 241.213 56.8445C241.819 56.3148 242.121 55.5731 242.121 54.6195C242.121 53.6659 241.808 52.9136 241.182 52.3627C240.556 51.8117 239.691 51.5362 238.586 51.5362H234.3V57.6074ZM234.3 48.2303H238.304C239.368 48.2303 240.181 47.9867 240.744 47.4993C241.307 46.9907 241.589 46.2808 241.589 45.3695C241.589 44.4795 241.307 43.7908 240.744 43.3034C240.181 42.7948 239.358 42.5405 238.273 42.5405H234.3V48.2303Z" fill="white"/>
<path d="M208.373 61.2311L216.349 38.9805H221.323L229.3 61.2311H224.67L218.821 44.0345L212.94 61.2311H208.373ZM211.876 56.2406L213.034 52.7758H224.294L225.421 56.2406H211.876Z" fill="white"/>
<path d="M191.351 61.2311V38.9805H195.73V47.6582L203.55 38.9805H208.93L200.891 47.7853L209.181 61.2311H203.832L197.763 51.2183L195.73 53.4434V61.2311H191.351Z" fill="white"/>
<path d="M180.268 61.6127C178.079 61.6127 176.191 61.1359 174.606 60.1822C173.021 59.2075 171.802 57.8619 170.947 56.1454C170.091 54.4077 169.664 52.4051 169.664 50.1377C169.664 47.8702 170.091 45.8677 170.947 44.13C171.802 42.3923 173.021 41.0361 174.606 40.0613C176.191 39.0865 178.079 38.5991 180.268 38.5991C182.917 38.5991 185.096 39.2772 186.806 40.6335C188.516 41.9897 189.58 43.8969 189.997 46.3551H185.18C184.929 45.1684 184.376 44.2571 183.521 43.6214C182.687 42.9645 181.582 42.6361 180.206 42.6361C178.934 42.6361 177.839 42.9433 176.921 43.5579C176.025 44.1512 175.336 45.0094 174.857 46.1326C174.377 47.2557 174.137 48.5907 174.137 50.1377C174.137 51.6846 174.377 53.0197 174.857 54.1428C175.336 55.2447 176.025 56.103 176.921 56.7175C177.839 57.3109 178.934 57.6076 180.206 57.6076C181.582 57.6076 182.687 57.3109 183.521 56.7175C184.355 56.103 184.908 55.2553 185.18 54.1746H189.997C189.58 56.4844 188.516 58.3069 186.806 59.6419C185.096 60.9557 182.917 61.6127 180.268 61.6127Z" fill="white"/>
<path d="M150.088 61.2311L158.064 38.9805H163.038L171.015 61.2311H166.385L160.536 44.0345L154.655 61.2311H150.088ZM153.592 56.2406L154.749 52.7758H166.01L167.136 56.2406H153.592Z" fill="white"/>
<path d="M133.892 61.2311V38.9805H142.182C143.954 38.9805 145.414 39.2877 146.561 39.9023C147.729 40.5168 148.594 41.3432 149.158 42.3816C149.741 43.3988 150.034 44.5431 150.034 45.8146C150.034 47.0013 149.752 48.1138 149.189 49.1522C148.647 50.1905 147.792 51.0276 146.624 51.6633C145.456 52.2778 143.965 52.5852 142.151 52.5852H138.272V61.2311H133.892ZM145.216 61.2311L140.743 51.4726H145.498L150.221 61.2311H145.216ZM138.272 49.3429H141.932C143.162 49.3429 144.069 49.0356 144.653 48.4211C145.258 47.8065 145.56 46.9907 145.56 45.9735C145.56 44.9775 145.268 44.1828 144.685 43.5895C144.1 42.9962 143.173 42.6995 141.9 42.6995H138.272V49.3429Z" fill="white"/>
<path d="M122.811 61.6127C120.622 61.6127 118.734 61.1359 117.149 60.1822C115.564 59.2075 114.345 57.8619 113.49 56.1454C112.635 54.4077 112.208 52.4051 112.208 50.1377C112.208 47.8702 112.635 45.8677 113.49 44.13C114.345 42.3923 115.564 41.0361 117.149 40.0613C118.734 39.0865 120.622 38.5991 122.811 38.5991C125.46 38.5991 127.639 39.2772 129.349 40.6335C131.059 41.9897 132.123 43.8969 132.54 46.3551H127.723C127.472 45.1684 126.919 44.2571 126.064 43.6214C125.23 42.9645 124.125 42.6361 122.749 42.6361C121.477 42.6361 120.382 42.9433 119.464 43.5579C118.568 44.1512 117.879 45.0094 117.4 46.1326C116.92 47.2557 116.68 48.5907 116.68 50.1377C116.68 51.6846 116.92 53.0197 117.4 54.1428C117.879 55.2447 118.568 56.103 119.464 56.7175C120.382 57.3109 121.477 57.6076 122.749 57.6076C124.125 57.6076 125.23 57.3109 126.064 56.7175C126.898 56.103 127.451 55.2553 127.723 54.1746H132.54C132.123 56.4844 131.059 58.3069 129.349 59.6419C127.639 60.9557 125.46 61.6127 122.811 61.6127Z" fill="white"/>
<path d="M92.1758 61.2311V38.9805H96.5549L106.471 54.0791V38.9805H110.85V61.2311H106.471L96.5549 46.1642V61.2311H92.1758Z" fill="white"/>
<path d="M81.4287 61.6125C79.8019 61.6125 78.3319 61.2841 77.0182 60.6272C75.7044 59.9702 74.6509 58.9848 73.8587 57.671C73.0868 56.336 72.7012 54.6513 72.7012 52.6169V38.9805H77.0803V52.6487C77.0803 53.7295 77.258 54.6301 77.6123 55.3506C77.9666 56.0711 78.4672 56.622 79.1136 57.0035C79.7809 57.3637 80.5842 57.5438 81.5221 57.5438C82.4607 57.5438 83.2535 57.3637 83.8999 57.0035C84.5672 56.622 85.0777 56.0711 85.4326 55.3506C85.7869 54.6301 85.964 53.7295 85.964 52.6487V38.9805H90.3437V52.6169C90.3437 54.6513 89.9372 56.336 89.1235 57.671C88.3313 58.9848 87.2574 59.9702 85.9019 60.6272C84.5463 61.2841 83.0554 61.6125 81.4287 61.6125Z" fill="white"/>
<path d="M107.554 34.0471V11.7964H121.098V13.9897H110.181V21.7456H120.16V23.9071H110.181V31.8538H121.098V34.0471H107.554Z" fill="white"/>
<path d="M102.435 34.0471V11.7964H105.062V34.0471H102.435ZM88.4517 34.0471V11.7964H91.0798V34.0471H88.4517ZM90.5791 23.8118V21.6185H103.092V23.8118H90.5791Z" fill="white"/>
<path d="M78.2374 34.0471V13.9897H71.6995V11.7964H87.4028V13.9897H80.8649V34.0471H78.2374Z" fill="white"/>
<path d="M260.076 89.6119V67.3613H262.704L274.371 85.1938V67.3613H276.999V89.6119H274.371L262.704 71.7795V89.6119H260.076Z" fill="white"/>
<path d="M247.768 89.9937C245.662 89.9937 243.806 89.5169 242.2 88.5631C240.615 87.5887 239.375 86.2431 238.478 84.5262C237.602 82.7887 237.164 80.7756 237.164 78.4869C237.164 76.2194 237.602 74.2275 238.478 72.5112C239.375 70.7737 240.615 69.4175 242.2 68.4425C243.806 67.4675 245.662 66.98 247.768 66.98C249.916 66.98 251.783 67.4675 253.368 68.4425C254.973 69.4175 256.214 70.7737 257.09 72.5112C257.966 74.2275 258.404 76.2194 258.404 78.4869C258.404 80.7756 257.966 82.7887 257.09 84.5262C256.214 86.2431 254.973 87.5887 253.368 88.5631C251.783 89.5169 249.916 89.9937 247.768 89.9937ZM247.768 87.6419C249.353 87.6419 250.74 87.2812 251.929 86.5606C253.138 85.8194 254.066 84.77 254.713 83.4137C255.38 82.0369 255.714 80.3944 255.714 78.4869C255.714 76.58 255.38 74.9481 254.713 73.5919C254.066 72.2144 253.138 71.1656 251.929 70.445C250.74 69.7244 249.353 69.3644 247.768 69.3644C246.204 69.3644 244.817 69.7244 243.608 70.445C242.419 71.1656 241.491 72.2144 240.824 73.5919C240.178 74.9481 239.854 76.58 239.854 78.4869C239.854 80.3944 240.178 82.0369 240.824 83.4137C241.491 84.77 242.419 85.8194 243.608 86.5606C244.817 87.2812 246.204 87.6419 247.768 87.6419Z" fill="white"/>
<path d="M232.866 89.6119V67.3613H235.494V89.6119H232.866Z" fill="white"/>
<path d="M222.653 89.6119V69.5545H216.115V67.3613H231.818V69.5545H225.281V89.6119H222.653Z" fill="white"/>
<path d="M200.006 89.6119L208.076 67.3613H210.861L218.899 89.6119H216.115L209.453 70.6988L202.759 89.6119H200.006ZM203.697 83.8901L204.447 81.7288H214.364L215.114 83.8901H203.697Z" fill="white"/>
<path d="M192.434 89.9937C190.828 89.9937 189.432 89.6968 188.243 89.1037C187.054 88.5106 186.136 87.6837 185.49 86.6244C184.843 85.565 184.521 84.3356 184.521 82.9375H187.273C187.273 83.8062 187.471 84.6112 187.868 85.3531C188.264 86.0737 188.837 86.6562 189.588 87.1012C190.359 87.525 191.308 87.7369 192.434 87.7369C193.415 87.7369 194.249 87.5781 194.937 87.26C195.646 86.9212 196.177 86.4656 196.532 85.8931C196.907 85.3212 197.095 84.675 197.095 83.9544C197.095 83.0856 196.907 82.3862 196.532 81.8562C196.177 81.3056 195.687 80.8606 195.062 80.5212C194.436 80.1825 193.706 79.8856 192.872 79.6312C192.059 79.3556 191.204 79.0594 190.307 78.7412C188.576 78.1481 187.304 77.4169 186.491 76.5481C185.678 75.6581 185.271 74.5031 185.271 73.0831C185.271 71.8756 185.542 70.8156 186.085 69.9044C186.647 68.9937 187.44 68.2837 188.462 67.775C189.504 67.245 190.735 66.98 192.153 66.98C193.55 66.98 194.76 67.245 195.781 67.775C196.824 68.305 197.638 69.0356 198.221 69.9681C198.805 70.8794 199.097 71.9387 199.097 73.1469H196.345C196.345 72.5325 196.188 71.9281 195.875 71.335C195.562 70.7419 195.083 70.2544 194.436 69.8731C193.811 69.47 193.018 69.2687 192.059 69.2687C191.266 69.2475 190.558 69.3856 189.932 69.6819C189.327 69.9575 188.847 70.36 188.493 70.89C188.159 71.42 187.992 72.0662 187.992 72.8287C187.992 73.5494 188.138 74.1325 188.43 74.5775C188.743 75.0225 189.181 75.4037 189.744 75.7219C190.328 76.0181 191.006 76.2937 191.777 76.5481C192.549 76.8025 193.404 77.0887 194.343 77.4062C195.406 77.7669 196.345 78.2119 197.158 78.7412C197.992 79.25 198.638 79.9069 199.097 80.7119C199.577 81.5175 199.817 82.545 199.817 83.7956C199.817 84.855 199.535 85.8619 198.972 86.815C198.43 87.7475 197.617 88.5106 196.532 89.1037C195.448 89.6968 194.082 89.9937 192.434 89.9937Z" fill="white"/>
<path d="M169.075 89.6119V67.3613H176.145C177.855 67.3613 179.252 67.6582 180.336 68.2513C181.421 68.8232 182.223 69.597 182.745 70.572C183.266 71.5463 183.527 72.6482 183.527 73.8776C183.527 75.0645 183.256 76.1557 182.714 77.1513C182.192 78.1476 181.379 78.942 180.274 79.5357C179.168 80.1288 177.75 80.4257 176.019 80.4257H171.703V89.6119H169.075ZM180.649 89.6119L175.832 79.6626H178.772L183.746 89.6119H180.649ZM171.703 78.3276H175.957C177.625 78.3276 178.845 77.9145 179.617 77.0882C180.409 76.2613 180.806 75.202 180.806 73.9095C180.806 72.5957 180.419 71.557 179.648 70.7945C178.897 70.0101 177.657 69.6182 175.926 69.6182H171.703V78.3276Z" fill="white"/>
<path d="M153.577 89.6119V67.3613H167.122V69.5545H156.205V77.3107H166.183V79.472H156.205V87.4188H167.122V89.6119H153.577Z" fill="white"/>
<path d="M141.411 89.6119L133.184 67.3613H136.03L142.943 86.7826L149.919 67.3613H152.703L144.476 89.6119H141.411Z" fill="white"/>
<path d="M115.404 89.6119V67.3613H118.031L129.699 85.1938V67.3613H132.327V89.6119H129.699L118.031 71.7795V89.6119H115.404Z" fill="white"/>
<path d="M103.099 89.9937C100.992 89.9937 99.1367 89.5169 97.5309 88.5631C95.9459 87.5887 94.7053 86.2431 93.8086 84.5262C92.9328 82.7887 92.4949 80.7756 92.4949 78.4869C92.4949 76.2194 92.9328 74.2275 93.8086 72.5112C94.7053 70.7737 95.9459 69.4175 97.5309 68.4425C99.1367 67.4675 100.992 66.98 103.099 66.98C105.247 66.98 107.113 67.4675 108.698 68.4425C110.304 69.4175 111.545 70.7737 112.42 72.5112C113.296 74.2275 113.734 76.2194 113.734 78.4869C113.734 80.7756 113.296 82.7887 112.42 84.5262C111.545 86.2431 110.304 87.5887 108.698 88.5631C107.113 89.5169 105.247 89.9937 103.099 89.9937ZM103.099 87.6419C104.684 87.6419 106.071 87.2812 107.259 86.5606C108.469 85.8194 109.397 84.77 110.043 83.4137C110.711 82.0369 111.044 80.3944 111.044 78.4869C111.044 76.58 110.711 74.9481 110.043 73.5919C109.397 72.2144 108.469 71.1656 107.259 70.445C106.071 69.7244 104.684 69.3644 103.099 69.3644C101.535 69.3644 100.148 69.7244 98.9387 70.445C97.7498 71.1656 96.8217 72.2144 96.1544 73.5919C95.508 74.9481 95.1851 76.58 95.1851 78.4869C95.1851 80.3944 95.508 82.0369 96.1544 83.4137C96.8217 84.77 97.7498 85.8194 98.9387 86.5606C100.148 87.2812 101.535 87.6419 103.099 87.6419Z" fill="white"/>
<path d="M82.6167 89.9937C80.4893 89.9937 78.6435 89.5169 77.0801 88.5631C75.5363 87.5887 74.3481 86.2431 73.5141 84.5262C72.6795 82.7887 72.2625 80.7756 72.2625 78.4869C72.2625 76.1981 72.6795 74.1956 73.5141 72.4794C74.3481 70.7412 75.5363 69.3956 77.0801 68.4425C78.6435 67.4675 80.4893 66.98 82.6167 66.98C85.1187 66.98 87.1521 67.5844 88.7161 68.7919C90.2802 70 91.2815 71.7056 91.7194 73.9094H88.8102C88.4762 72.5325 87.7985 71.43 86.7769 70.6037C85.7553 69.7562 84.3684 69.3325 82.6167 69.3325C81.0736 69.3325 79.718 69.7031 78.55 70.445C77.403 71.1656 76.5167 72.2144 75.8912 73.5919C75.2657 74.9481 74.9527 76.58 74.9527 78.4869C74.9527 80.3944 75.2657 82.0362 75.8912 83.4137C76.5167 84.77 77.403 85.8187 78.55 86.5606C79.718 87.2812 81.0736 87.6412 82.6167 87.6412C84.3684 87.6412 85.7553 87.2387 86.7769 86.4337C87.7985 85.6069 88.4762 84.5156 88.8102 83.1593H91.7194C91.2815 85.3 90.2802 86.9737 88.7161 88.1819C87.1521 89.39 85.1187 89.9937 82.6167 89.9937Z" fill="white"/>
</g>
<defs>
<clipPath id="clip0_4037_1378">
<rect width="278" height="100" fill="white"/>
</clipPath>
</defs>
</svg>
