<svg width="185" height="45" viewBox="0 0 185 45" fill="none" xmlns="http://www.w3.org/2000/svg">
<g clip-path="url(#clip0_574_4265)">
<path d="M43.4831 22.0851C43.4831 33.8703 33.9294 43.424 22.1442 43.424C10.359 43.424 0.804688 33.8703 0.804688 22.0851C0.804688 10.2999 10.359 0.746216 22.1442 0.746216C33.9294 0.746216 43.4831 10.2999 43.4831 22.0851ZM43.1683 22.0851C43.1683 10.4747 33.7565 1.06292 22.1461 1.06292C10.5357 1.06292 1.12393 10.4747 1.12393 22.0851C1.12393 33.6955 10.5357 43.1073 22.1461 43.1073C33.7565 43.1073 43.1683 33.6955 43.1683 22.0851Z" fill="white"/>
<path d="M42.6575 22.1282C42.6575 33.4308 33.4952 42.593 22.1927 42.593C10.8901 42.593 1.72852 33.4308 1.72852 22.1282C1.72852 10.8263 10.8908 1.66406 22.1927 1.66406C33.4946 1.66406 42.6575 10.8263 42.6575 22.1289V22.1282ZM41.8005 22.1067C41.8005 11.2653 33.0119 2.47673 22.1705 2.47673C11.3291 2.47673 2.54055 11.2653 2.54055 22.1067C2.54055 32.9481 11.3291 41.7366 22.1705 41.7366C33.0119 41.7366 41.8005 32.9481 41.8005 22.1067Z" fill="white"/>
<path d="M41.3884 22.0864C41.3884 32.7125 32.774 41.3262 22.1486 41.3262C11.5232 41.3262 2.9082 32.7125 2.9082 22.0864C2.9082 11.4603 11.5226 2.84662 22.1486 2.84662C32.7747 2.84662 41.3884 11.461 41.3884 22.0864ZM41.0711 22.0883C41.0711 11.6377 32.5992 3.16586 22.1486 3.16586C11.698 3.16586 3.22617 11.6383 3.22617 22.0883C3.22617 32.5383 11.698 41.0107 22.1486 41.0107C32.5992 41.0107 41.0711 32.5389 41.0711 22.0883Z" fill="white"/>
<path d="M23.6882 7.47685C24.0239 8.61888 23.9954 10.7547 25.6226 10.7547C26.3707 10.7547 26.8267 10.1334 27.3037 9.6602C27.5754 9.39037 27.8281 9.08317 28.0897 8.80004C28.1638 8.72846 28.2367 8.73479 28.3304 8.75063C28.4812 8.77597 29.1602 9.15728 29.347 9.25989C29.5573 9.3758 30.6709 10.0383 30.712 10.179C30.6677 11.295 29.5358 12.7633 30.5005 13.7438C31.4943 14.7541 32.9594 13.6418 34.097 13.5639C34.2946 13.6228 35.5614 15.8131 35.5373 16.0538C34.9096 17.0635 33.1475 17.6773 33.6029 19.129C33.9836 20.3426 35.7977 20.2356 36.7744 20.6448C36.9403 21.6234 36.8751 22.6375 36.7997 23.6231C35.8116 23.9309 33.9709 23.9075 33.6029 25.0812C33.1545 26.5095 34.8849 27.1948 35.5373 28.1564C35.2219 29.0875 34.6189 29.8742 34.1343 30.7147C33.442 30.5614 32.7402 30.2675 32.0517 30.1174C31.4506 29.9863 30.9635 30.0034 30.5068 30.4727C29.5497 31.4552 30.5885 32.779 30.7095 33.8729C30.7196 33.9635 30.7393 34.0395 30.6633 34.1117L28.2189 35.5153C27.241 34.8148 26.5968 33.102 25.1602 33.5505C23.8896 33.947 24.0682 35.6844 23.6305 36.708C22.6519 36.874 21.6378 36.8087 20.6522 36.7333C20.3913 35.8934 20.3419 34.2998 19.6046 33.7595C19.1099 33.3966 18.4163 33.3649 17.9052 33.7063L16.1183 35.471C15.9815 35.4849 15.2119 35.07 15.0333 34.9731C14.7172 34.8021 13.9033 34.3384 13.6791 34.1079C13.6322 34.0597 13.5612 34.0268 13.5828 33.9451C13.7899 32.8474 14.7869 31.3392 13.7766 30.4018C12.8195 29.5138 11.5065 30.493 10.467 30.6419C10.3568 30.6577 10.2555 30.6818 10.1624 30.5956L8.75937 28.1519C9.47449 27.1936 11.1632 26.5241 10.7242 25.0932C10.3359 23.827 8.58328 23.9987 7.56666 23.5642C7.40071 22.5855 7.46595 21.5715 7.54132 20.5859C8.54528 20.2654 10.3049 20.3262 10.709 19.1613C11.2202 17.688 9.47322 17.0533 8.80371 16.0519C9.14575 15.1664 9.64614 14.2847 10.2441 13.562C11.3931 13.6095 13.0292 14.8421 13.9362 13.6298C14.7178 12.5847 13.7069 11.3014 13.6284 10.1771C13.6822 9.98388 15.8789 8.71263 16.1196 8.73669C16.8721 9.16488 17.4719 10.4393 18.3042 10.673C20.2184 11.2095 20.3837 8.73226 20.651 7.47241L23.6888 7.47495L23.6882 7.47685ZM23.0427 8.2496C22.9363 8.12292 21.3781 8.13369 21.2971 8.2477C21.0076 9.33653 20.962 10.616 19.8605 11.2127C18.0825 12.1755 17.0855 10.7959 15.9688 9.65514L14.569 10.419C14.4816 10.4855 14.5056 10.5666 14.5177 10.6566C14.5962 11.2368 14.968 11.8866 15.0149 12.5074C15.1251 13.9515 13.9521 15.0847 12.5186 14.9409C11.9416 14.8827 11.2677 14.514 10.7191 14.4545C10.6305 14.445 10.5494 14.4158 10.4835 14.5045L9.70695 15.8682C9.71518 15.9772 11.032 17.1427 11.2246 17.4385C11.9853 18.609 11.4849 20.2198 10.1978 20.7436C9.69618 20.9475 8.741 21.0122 8.34575 21.2193C8.17727 21.3073 8.18993 22.8731 8.31472 22.9782C9.62967 23.3076 11.1017 23.4077 11.4982 24.9564C11.9175 26.5931 10.6913 27.2848 9.71962 28.3096L10.4835 29.7082C10.55 29.7956 10.6311 29.7716 10.721 29.7595C11.2924 29.6816 11.9479 29.3098 12.5719 29.2623C14.011 29.1514 15.146 30.3239 15.0048 31.7586C14.9471 32.3451 14.5766 33.0133 14.5183 33.5581C14.5063 33.6708 14.4854 33.6949 14.5696 33.7924C14.7824 34.0401 15.6452 34.3182 15.9321 34.5703C16.041 34.562 17.2065 33.2452 17.5023 33.0526C18.6735 32.2913 20.2861 32.7973 20.8074 34.0794C21.0114 34.581 21.076 35.5362 21.2831 35.9315C21.3743 36.1056 22.9629 36.0797 23.044 35.9644C23.374 34.6469 23.4582 33.1711 25.0202 32.779C26.6874 32.3603 27.3455 33.6106 28.409 34.5734L29.7721 33.7931C29.8595 33.7266 29.8354 33.6455 29.8234 33.5555C29.7493 33.0108 29.3831 32.3489 29.3287 31.7649C29.1906 30.2814 30.4029 29.0767 31.8883 29.2686C32.2886 29.3206 33.4705 29.8134 33.729 29.7735C33.8607 29.7532 34.2161 29.1147 34.3022 28.9481C34.37 28.8164 34.6069 28.4097 34.5777 28.2951C33.8569 27.452 32.7827 26.8712 32.7459 25.6234C32.7187 24.7119 33.3008 23.8061 34.1438 23.4691C34.6449 23.2684 35.6039 23.1987 35.9959 22.9935C36.1644 22.9054 36.1518 21.3396 36.027 21.2345C34.7101 20.9114 33.2393 20.805 32.8435 19.2563C32.4184 17.5955 33.6815 16.9292 34.6341 15.8676C34.3826 15.5813 34.1033 14.7173 33.8563 14.5058C33.7606 14.4241 33.734 14.438 33.6206 14.4532C33.0766 14.5267 32.414 14.8934 31.83 14.9479C30.1287 15.1063 29.0772 13.6969 29.411 12.0855C29.494 11.6852 29.805 11.0214 29.8335 10.6654C29.8411 10.5736 29.8544 10.4862 29.7727 10.419L28.4096 9.6393C27.3657 10.5907 26.6253 11.9208 24.9708 11.4211C23.4177 10.9517 23.4107 9.57786 23.0434 8.25024L23.0427 8.2496Z" fill="white"/>
<path d="M7.41205 29.2629L7.05734 28.499L5.67271 29.1394L5.51562 28.7948L6.83882 28.1184C6.88822 28.0462 6.68426 27.8872 6.92306 27.789C7.10928 27.7123 7.12448 27.8473 7.19036 27.8492C7.23343 27.8504 7.37848 27.6845 7.57104 27.6756C8.38497 27.6376 8.71687 29.4403 8.67697 30.0547C8.6548 30.3942 8.45844 30.6805 8.67697 31.0029L8.3894 31.1492L8.20381 30.9168L6.87175 31.6059C6.72354 31.4786 6.75394 31.2664 6.67603 31.1068C6.41887 30.5785 6.19274 30.5336 6.28712 29.8184C6.35996 29.268 6.81601 28.4743 7.12512 29.389L7.41078 29.2629H7.41205ZM7.77943 28.1374C7.65781 28.0671 7.41775 28.1399 7.36454 28.2811L8.29819 30.1503C8.31529 29.7557 8.30389 29.3921 8.20508 29.0089C8.16391 28.8493 7.89027 28.202 7.77943 28.1374ZM7.66098 29.6474C7.31641 29.7146 7.05291 29.8944 6.71657 29.6436C6.54681 30.0769 6.67603 30.9503 7.22203 30.9421C6.28902 30.0978 7.60777 29.3237 7.91941 30.5291L7.60461 30.5918C7.57927 30.4379 7.5533 30.3195 7.37975 30.2941C7.13082 30.3353 7.29487 30.8294 7.60271 30.7552C7.67301 30.7381 8.02646 30.5526 8.04102 30.4917L7.66098 29.6468V29.6474Z" fill="white"/>
<path d="M37.3092 28.3109L38.7027 28.9481L38.4746 29.3225L37.8799 29.0735L37.6854 29.5454C38.2042 29.8153 37.4758 30.2777 37.1781 30.0591C37.1071 30.0072 37.1318 29.6221 36.7587 29.5879C36.6162 29.5746 36.4389 30.0104 36.4902 30.0819L37.8115 30.6621L37.6879 31.1005C37.6303 31.1448 36.5643 30.5215 36.3749 30.4778C36.1855 30.4341 36.2476 30.5405 36.138 30.6558L35.8523 30.5278L35.9157 30.2777C34.818 30.1712 35.5743 28.931 36.1101 28.5396C36.3534 28.3622 36.7518 28.2799 36.9241 28.15C37.0963 28.0202 37.0792 27.7003 37.3668 28.0379L37.3092 28.3103V28.3109ZM36.7391 28.6308C36.5782 28.4971 35.4602 29.4922 35.8485 29.8691L36.1595 29.8868L36.7391 28.6308ZM37.3719 29.3902L37.5581 28.9215C37.5372 28.8322 37.1274 28.6466 37.0583 28.6954L36.8658 29.1996L37.3719 29.3909V29.3902Z" fill="white"/>
<path d="M38.1952 24.9564L38.1312 25.2718L39.652 25.6531L39.5861 26.0306L38.6386 25.8425L38.5835 26.5304C38.8393 26.6894 39.0129 26.4335 39.2352 26.3505C39.6704 26.7071 39.0718 26.977 38.7336 26.9884C37.9912 27.0131 38.1711 26.3074 38.3073 25.8083L38.0077 25.7184L37.6929 27.0707L39.1409 27.4951L39.0401 27.8745C38.7766 27.922 37.7062 27.4824 37.5732 27.5654C37.5149 27.6021 37.582 27.751 37.3546 27.7332C37.1272 27.7155 37.2064 27.5382 37.1722 27.504C37.0949 27.426 36.6554 27.5413 36.5622 27.129C36.4311 26.5481 36.7966 26.0078 37.2147 25.6557C37.5124 25.4048 37.8538 25.396 37.8791 24.8937L38.1952 24.9576V24.9564ZM37.6245 25.8438C37.5048 25.8159 37.4744 25.9116 37.4028 25.9698C37.1057 26.2137 36.777 26.6178 36.9866 27.0194L37.3407 26.9846L37.6238 25.8438H37.6245Z" fill="white"/>
<path d="M17.6831 37.615C17.7167 37.6676 17.9758 37.6461 17.965 37.8177C17.9409 38.2104 17.6217 37.9444 17.5495 38.0071L17.1017 39.3968L16.6589 39.3024C16.7235 38.9009 17.1017 38.3226 17.1574 37.9583C17.1929 37.724 16.9053 37.7043 16.7248 37.6891L16.1858 39.1434L15.8368 39.018C15.7513 38.923 16.2206 38.2617 16.0293 38.099C15.4504 37.7873 15.2103 38.0629 15.5695 38.6076L15.2338 38.8261C14.6282 37.7728 15.2534 37.2394 16.2795 37.8152L16.3422 37.501L15.2034 37.1172L15.2711 36.8055L16.4068 37.1191C16.4227 36.5503 16.8718 36.3273 17.3544 36.6466C17.8675 36.9861 17.5685 37.4351 17.6838 37.6157L17.6831 37.615ZM17.3563 37.4979C17.3778 36.9436 16.8318 36.5351 16.7913 37.3015L17.3563 37.4979Z" fill="white"/>
<path d="M26.6677 37.6239L26.7323 38.004H26.4777L26.7298 39.5862L26.3517 39.6515L25.9951 38.1268L25.5909 38.1946L25.8411 39.775L25.4649 39.8415L25.4003 39.4608C24.1062 40.2899 23.6115 38.4885 25.1476 38.5101L25.1425 38.8869L24.9582 38.9218L25.2742 39.1435L25.1995 38.4271C25.1799 38.3498 25.1362 38.3251 25.0589 38.3232C24.6997 38.3169 23.8339 38.8363 23.8807 38.194L25.9697 37.7189C25.7873 37.3693 25.6536 37.3243 25.2793 37.4301L25.1476 37.1178C25.5276 37.0133 25.7195 36.9037 26.0369 37.209C26.2579 37.4212 26.2852 37.8456 26.6671 37.6233L26.6677 37.6239Z" fill="white"/>
<path d="M29.3264 36.6111L29.3651 36.9297L29.0104 37.0551L29.2004 37.6239C28.8628 37.6607 28.4264 37.985 28.7424 38.3232C28.9173 38.3764 29.1295 38.3397 29.2872 38.2497C29.5336 38.1091 29.5747 37.7804 29.8338 38.2877C28.9654 39.2771 27.4015 38.3707 28.6658 37.4352L28.6297 37.2452L27.6162 37.6265L28.1781 38.9991C28.1933 39.1657 27.8664 39.2341 27.7455 39.2062L27.2343 37.8152L26.9854 37.8786L26.8574 37.5929L27.0462 37.4973C26.428 36.5313 27.6289 36.2038 28.3947 36.4984C28.5512 36.5585 28.707 36.7289 28.8558 36.7384C29.0262 36.7492 29.1497 36.582 29.3252 36.6117L29.3264 36.6111ZM28.377 36.8651C28.1952 36.6802 27.1697 36.6365 27.309 37.1356C27.3946 37.4409 28.0723 37.1052 28.287 36.9969C28.3364 36.9722 28.4846 36.9747 28.377 36.8651Z" fill="white"/>
<path d="M12.1606 35.0935L11.9718 34.9946L12.191 34.7134L13.6085 35.8922L13.4616 36.1652L13.1772 35.9777L12.2486 37.1761L11.9807 36.9075C12.0599 36.6953 12.9403 35.7915 12.8535 35.6673L12.4792 35.4976C12.2854 35.6369 11.6931 36.6288 11.5101 36.6003C11.4626 36.5927 11.2637 36.4806 11.2732 36.3932C11.2979 36.1557 11.6804 35.9631 11.5829 35.7953C11.5728 35.7782 11.2643 35.5945 11.2447 35.5945C11.1541 35.5964 11.0806 35.7294 10.9989 35.7167C10.7652 35.6819 10.6746 35.0941 10.8272 34.9889C10.947 34.9066 11.1446 35.0852 11.2111 34.93C11.2656 34.8021 11.0698 34.8477 10.9913 34.7736C10.6702 34.4708 10.9242 33.8583 11.4892 34.1478C12.0022 34.4106 11.8344 34.9402 11.4683 35.248C11.5417 35.3075 11.6133 35.426 11.6842 35.4735C11.9332 35.6388 12.0896 35.3183 12.1606 35.0928V35.0935Z" fill="white"/>
<path d="M31.1647 36.2944C31.7689 35.6388 32.3219 36.0803 32.2985 36.8594L31.8608 36.9284C31.9209 36.6998 31.774 36.162 31.4972 36.4382C31.2451 36.6903 31.9165 37.0792 31.7341 37.3706C32.0774 37.2914 32.8844 37.2109 32.6171 37.7493C32.2915 37.6961 32.0084 37.6062 31.7119 37.8082L31.2901 37.1818C30.4065 38.3555 29.3354 36.7986 30.7156 36.4255L30.8467 36.7068L30.4736 36.9709C30.5097 37.4079 30.8929 37.2122 31.012 36.9291L30.6871 36.2317C30.6123 36.1189 30.6199 36.2007 30.5616 36.2285C30.2639 36.3729 29.9567 36.6181 29.6749 36.7992L29.5254 36.43L31.6346 35.1543L31.7924 35.4317L31.0639 35.9118L31.1647 36.2931V36.2944Z" fill="white"/>
<path d="M23.3189 38.187L23.5849 38.2041L23.6951 38.353L23.6299 38.5455L23.3715 38.6101L23.4348 40.091L22.9958 40.1575L22.9319 38.5746H22.5518C22.5886 38.8989 22.5258 39.2499 22.1724 39.3354C22.0901 39.4525 22.5835 39.7965 22.6791 39.875L22.4036 40.1525C22.1667 39.9472 21.5029 39.4842 21.4921 39.165C21.4763 38.6836 22.0185 39.0111 22.047 38.9883C22.1458 38.8679 22.1692 38.7197 22.1027 38.5803L21.4225 38.5645L21.3496 38.2573L22.9325 38.1933C22.8844 37.8665 22.7007 37.6404 22.3631 37.8139L22.2991 37.4339C22.8894 37.2762 23.2163 37.6309 23.3208 38.1857L23.3189 38.187Z" fill="white"/>
<path d="M38.7651 19.0651L39.6747 18.9441C39.8166 18.9884 39.8261 19.3317 39.7165 19.4153C39.4334 19.4571 37.7523 19.8581 37.6326 19.7548C37.6028 19.7289 37.5579 19.4609 37.5908 19.3849C37.6909 19.1544 38.3484 18.8022 38.5118 18.5596L37.5357 18.7376C37.416 18.711 37.3222 18.407 37.3989 18.3018L39.4619 17.8914C39.9439 18.4418 39.0008 18.6641 38.7658 19.0651H38.7651Z" fill="white"/>
<path d="M9.68331 12.3611C9.67698 13.1199 8.70406 12.6619 8.23471 12.6689C8.38609 12.9375 9.14365 13.1098 9.04864 13.4467C9.03217 13.5056 8.88078 13.6659 8.82758 13.6748C8.7313 13.6906 7.31373 12.7088 7.19782 12.5973C7.0534 12.4586 7.07494 12.3332 7.21872 12.19C7.45245 11.9563 8.22331 12.2407 8.55141 12.2242C8.42726 12.0387 7.84073 11.8189 7.75838 11.6554C7.66211 11.4654 7.79385 11.3261 7.94967 11.2273L9.68395 12.3611H9.68331Z" fill="white"/>
<path d="M17.9266 5.6368C18.4207 5.7014 18.5524 6.52294 18.1781 6.80797C18.0425 6.91121 17.2292 7.15444 17.1 7.0664C17.0101 7.00559 16.4704 5.1364 16.561 5.00149C16.5914 4.95652 17.2305 4.76713 17.3299 4.75573C17.9348 4.68542 18.2395 5.13957 17.926 5.6368H17.9266ZM17.532 5.55825C17.6219 5.44107 17.5839 5.31946 17.4839 5.22255L17.0398 5.25802L17.1627 5.61083L17.5326 5.55825H17.532ZM17.7923 5.96174L17.2932 6.01811L17.4205 6.58754C17.8785 6.58058 17.9615 6.36585 17.7923 5.96174Z" fill="white"/>
<path d="M33.1289 35.407L33.8288 35.4374L33.825 35.851C33.3886 35.6876 32.7995 35.9289 32.4385 35.5558L32.4404 35.388L32.7457 35.1239C32.6557 35.0193 32.6298 34.8027 32.4651 34.9009C32.3346 34.9788 32.2035 35.1245 32.0743 35.2119C31.9678 35.2309 31.8298 35.0497 31.8678 34.944L33.5406 33.446L33.7579 33.6746L33.5735 33.9191L34.5832 35.0592L34.3007 35.343L33.7984 34.8395L33.1289 35.407ZM33.4228 34.7514C33.476 34.6957 33.514 34.6159 33.5571 34.5512L33.2853 34.2035L32.8122 34.5215L33.1606 34.963C33.2233 34.8654 33.3537 34.8236 33.4228 34.7514Z" fill="white"/>
<path d="M35.8527 31.1625L37.0505 32.0265L36.8352 32.3634L36.2334 31.9872C36.1536 32.29 35.9034 32.4832 35.6627 32.6523C36.0162 32.7543 36.5862 32.2634 36.4792 32.931C36.1745 32.9785 34.9951 33.3009 35.0426 32.7885C35.0654 32.5452 35.5595 32.5402 35.0597 32.3014L34.6499 32.7175L34.4219 32.6212L34.444 32.4496L35.6279 30.7774C36.191 30.6437 35.8306 31.1302 35.8521 31.1619L35.8527 31.1625ZM35.2865 31.9809L35.6304 32.2393L35.9636 31.7642L35.5721 31.4817L35.2871 31.9809H35.2865Z" fill="white"/>
<path d="M5.38717 26.4107L5.73301 26.2897C5.76785 26.2232 5.62343 26.0414 5.80332 25.9762C6.05035 25.8869 6.01361 26.0845 6.07948 26.1257C6.56784 26.4322 6.19476 25.6823 6.20997 25.6291L6.43039 25.4675C6.72746 25.75 6.90672 26.4177 6.39999 26.5754C6.04718 26.685 5.76151 26.2707 6.12066 26.9877C6.43293 26.9732 6.495 26.9364 6.62548 26.6717H6.83514L7.02896 27.5502L6.71479 27.6161L6.62042 27.3L5.13444 27.6769L5.06856 27.2367L5.76405 27.1081L5.64117 26.8205C4.56881 26.8484 4.93745 25.6101 5.6057 25.2097L5.82105 25.5043C5.59999 25.7995 5.16801 25.9717 5.38717 26.4094V26.4107Z" fill="white"/>
<path d="M14.4509 7.33749C14.4996 7.42046 15.0817 7.59085 15.1147 7.78721C15.0874 8.62521 14.1424 7.56741 13.9695 7.60098C13.7193 7.83535 14.2241 8.12165 14.1912 8.39021C14.176 8.55046 14.0024 8.65814 13.8517 8.6081C13.7503 8.57453 12.7711 6.85863 12.8015 6.75602C13.2189 6.49632 13.8352 5.94969 14.2887 6.39434C14.6707 6.76869 14.4008 7.25324 14.4509 7.33812V7.33749ZM13.6211 7.34762L14.055 7.04929L13.8947 6.72245C13.7294 6.66734 13.5502 6.77692 13.4254 6.8789L13.6217 7.34762H13.6211Z" fill="white"/>
<path d="M8.92474 31.1688L10.2593 32.9696C10.0598 33.2686 9.87929 32.9715 9.73677 33.007C9.53915 33.0558 8.76639 33.8893 8.5827 33.8748C8.48326 33.8127 8.32554 33.6252 8.38888 33.5074L9.05713 32.969C8.95198 32.7536 8.63401 32.9893 8.55737 32.9329L8.42055 32.5921L8.61057 32.4566L8.54533 32.2463C8.08041 32.1785 8.16782 32.6041 8.17162 32.9373C8.03544 32.9291 7.7485 33.0026 7.7409 32.7942C7.72887 32.4623 7.87835 31.8485 8.27233 31.7978C8.96338 31.7098 8.81453 32.5858 9.3979 32.7416L9.56385 32.5883C9.56385 32.5136 8.69165 31.6129 8.63908 31.419C8.59157 31.2461 8.76766 31.1783 8.92474 31.1682V31.1688Z" fill="white"/>
<path d="M8.37359 10.8206C8.22537 10.566 9.0241 9.78246 9.40034 9.81856C9.60937 9.83883 10.0673 10.2284 10.232 10.3867C10.6083 10.7465 10.8882 10.9923 10.5443 11.5256C10.4607 11.6554 10.0528 12.1153 9.91657 12.102C9.70375 12.0805 8.68522 10.9467 8.37359 10.8212V10.8206ZM9.23059 10.3335C9.12861 10.362 9.0222 10.54 8.93352 10.6097L9.97738 11.5269C10.0977 11.3774 10.2624 11.2254 10.168 11.0227C10.099 10.8751 9.39464 10.2879 9.23059 10.3335Z" fill="white"/>
<path d="M16.009 5.52911C16.2029 5.6919 16.6336 6.78833 16.5949 7.05753C16.5265 7.53322 15.731 7.82839 15.3332 7.50345C15.1039 7.31596 14.7163 6.29237 14.7638 5.9896C14.8372 5.52025 15.6543 5.23078 16.0097 5.52911H16.009ZM15.6632 7.14241C16.5284 7.46734 15.7956 5.85215 15.489 5.84962C14.9462 6.03331 15.5593 6.78136 15.6632 7.14241Z" fill="white"/>
<path d="M19.2424 4.31993C19.9854 4.25406 20.1127 5.17693 20.1418 5.7337C20.1925 6.71105 18.9257 6.98912 18.6413 5.96679C18.4506 5.28208 18.2898 4.40418 19.2424 4.31993ZM19.2342 4.76522C18.7889 4.80322 19.124 6.04724 19.2551 6.11311C19.5927 6.21763 19.6497 6.11121 19.6402 5.79514C19.6326 5.53608 19.5559 4.73798 19.2342 4.76522Z" fill="white"/>
<path d="M38.4362 16.0386C39.2229 15.9588 39.4795 17.1135 38.9392 17.4334C38.739 17.5518 37.8193 17.8217 37.5944 17.802C37.0833 17.7564 36.8489 17.0508 37.0643 16.6353C37.2036 16.3661 38.143 16.069 38.4362 16.0392V16.0386ZM38.7561 16.9659C39.0392 16.1938 37.5457 16.7563 37.4646 16.9114C37.4019 17.0331 37.457 17.1686 37.5083 17.2826C37.6755 17.3884 38.537 17.0552 38.7555 16.9653L38.7561 16.9659Z" fill="white"/>
<path d="M33.1115 8.05767C33.4814 8.0222 34.0148 8.52069 33.9964 8.88997C33.9837 9.14587 33.268 10.0269 33.0457 10.1473C32.5269 10.4285 31.8162 9.88569 31.9277 9.28332C31.9771 9.01665 32.829 8.08491 33.1115 8.05767ZM33.4282 8.63027C33.3275 8.52956 33.1286 8.54349 33.0197 8.63407C32.9215 8.71515 32.3774 9.4195 32.3964 9.50691C32.5402 10.1847 33.3757 9.16487 33.4776 8.92734C33.5182 8.83296 33.5023 8.70375 33.4289 8.63027H33.4282Z" fill="white"/>
<path d="M12.9737 9.00652C13.0516 9.52718 12.6804 9.53035 12.3859 9.20034C12.3023 9.19337 11.9406 9.52401 11.9178 9.60952C11.876 9.76851 12.1091 9.91039 12.0084 10.0719C11.9571 10.1543 11.729 10.2252 11.6334 10.1935C11.5016 10.1492 11.0108 8.63534 10.8746 8.41111C10.7511 8.09884 11.045 7.85308 11.3553 7.93099C11.7373 8.02727 12.5176 8.8659 12.9737 9.00715V9.00652ZM11.6568 9.18451C11.8127 9.18831 11.9349 9.06796 12.035 8.96281L11.4028 8.55173L11.6568 9.18451Z" fill="white"/>
<path d="M4.70408 18.4475L6.8431 18.21C7.23202 18.7743 6.61381 18.609 6.45799 18.7129C6.39465 18.7553 6.31167 19.2361 6.36425 19.3197C6.42379 19.4141 6.66702 19.4185 6.70945 19.5515C6.73099 19.7156 6.66638 19.9803 6.46116 19.9271C5.9671 19.8005 5.21968 19.2114 4.71738 19.0055C4.56283 18.8611 4.61034 18.6147 4.70408 18.4469V18.4475ZM6.01904 18.749C5.88412 18.7452 5.74984 18.7433 5.61429 18.7566C5.55095 18.7623 5.31596 18.7826 5.32229 18.875L5.95443 19.1297L6.01904 18.7496V18.749Z" fill="white"/>
<path d="M36.5958 11.9227C36.9334 11.8746 37.2108 12.057 37.0861 12.4111C36.9613 12.7652 36.1157 13.4436 35.92 13.8445C35.7578 14.0371 35.4436 13.9091 35.4683 13.6532C35.4867 13.4619 35.7629 13.4328 35.6957 13.2415C35.6805 13.1972 35.4012 12.8108 35.3695 12.8032C35.2219 12.7671 34.9249 13.1211 34.802 12.7341C34.7399 12.539 34.7507 12.4934 34.9274 12.4092C35.1326 12.3117 36.3614 11.9557 36.5952 11.9221L36.5958 11.9227ZM36.4216 12.4789C36.3076 12.4725 35.7958 12.6201 35.7895 12.6993L36.0099 12.9837L36.4216 12.4789Z" fill="white"/>
<path d="M28.7543 7.5972L28.3198 7.59467L28.3065 7.03664L27.7738 6.86182C27.6205 6.89665 27.5509 7.22603 27.4064 7.21336C27.314 7.20576 27.1087 7.0455 27.1094 6.93592C27.1106 6.83838 28.1412 5.51012 28.2793 5.38027C28.5092 5.16428 28.8379 5.25612 28.9292 5.54876L28.7543 7.59594V7.5972ZM28.3775 6.65089L28.4402 5.95414L27.9987 6.49254C28.0924 6.60148 28.233 6.66483 28.3775 6.65089Z" fill="white"/>
<path d="M20.1373 38.137L20.0815 38.4835L19.8275 38.4474L19.5121 39.9409L19.1314 39.9023L19.1929 39.4614C18.5886 39.616 18.1535 39.305 18.123 38.6735C18.1554 38.5531 18.5899 38.5918 18.5544 38.296C18.5107 38.1015 17.9413 38.2396 18.2415 37.7785L20.1373 38.1364V38.137ZM19.3842 38.3213L18.9408 38.258C18.9851 38.6684 18.8888 38.7451 18.5633 38.9218C18.9959 39.5216 19.4545 38.8686 19.3842 38.3207V38.3213Z" fill="white"/>
<path d="M31.6083 7.41098C31.5962 7.97724 32.243 8.26544 31.8268 8.86465C31.2599 9.68111 29.9589 8.4409 30.5309 8.13876C30.902 7.94304 30.7925 8.53338 31.1617 8.65056C31.7787 8.84628 31.0496 7.78405 31.0395 7.62824C31.004 7.09237 31.4898 6.85674 31.9706 7.01573C32.2778 7.11771 32.915 7.73401 32.281 7.84486C32.0599 7.64407 31.9801 7.3546 31.6083 7.41098Z" fill="white"/>
<path d="M25.5732 4.51123C25.9703 4.42128 26.9876 4.61511 26.4378 5.12183C26.2731 5.1516 25.862 4.63031 25.6587 5.04329C25.9919 5.50441 26.7691 5.77931 26.2788 6.48239C25.8715 7.0664 24.573 6.50076 24.8999 6.05611C25.1551 5.709 25.3401 6.29364 25.6866 6.27654C26.339 6.2455 25.4332 5.65706 25.3375 5.54305C25.0614 5.21178 25.1361 4.61004 25.5738 4.51059L25.5732 4.51123Z" fill="white"/>
<path d="M35.2633 10.6851C35.0911 10.832 34.8314 10.7212 34.8333 10.4843C34.8339 10.3234 35.1006 9.99844 34.742 9.9408C34.5508 9.90976 33.8173 10.521 33.7717 10.6863C33.7261 10.8516 33.8312 10.9505 33.9515 11.0543L34.355 10.9048C34.5596 11.0265 34.6888 11.2114 34.4937 11.4046C34.0409 11.8537 32.9261 11.1088 33.3935 10.3665C33.479 10.2309 34.1789 9.57659 34.3094 9.50882C35.0226 9.13954 35.7656 10.2581 35.264 10.6844L35.2633 10.6851Z" fill="white"/>
<path d="M28.9628 7.36411C29.0122 7.30837 29.1427 7.28366 29.22 7.29253C29.3321 7.31977 29.6805 8.08999 29.9332 7.73085C30.1479 7.42618 29.289 7.0341 29.5658 6.35002C29.8426 5.66594 31.1684 6.26261 30.9441 6.71296C30.7199 7.16332 30.3088 6.16823 30.0276 6.56158C29.9459 6.85231 30.7883 7.22159 30.3544 7.96205C29.9104 8.7196 28.6081 7.76822 28.9628 7.36411Z" fill="white"/>
<path d="M24.7594 5.06039C24.2185 5.29666 24.3496 4.37378 23.8783 4.65501C23.739 4.73799 23.5882 5.87306 23.8156 5.9877C24.228 6.19546 24.1539 5.34733 24.6764 5.69697C24.8322 6.57044 23.4128 6.71929 23.2133 5.95603C23.1518 5.72294 23.2449 4.852 23.3266 4.60941C23.5901 3.82652 25.0805 4.18882 24.7594 5.06039Z" fill="white"/>
<path d="M21.9164 4.11725L21.9094 4.49096L21.4103 4.56127L21.4736 6.33481L21.0391 6.32594L20.9029 4.56127L20.5058 4.61574L20.331 4.39975C20.2721 4.25913 20.5286 4.11788 20.6185 4.11788H21.917L21.9164 4.11725Z" fill="white"/>
<path d="M37.7352 13.1908C37.8448 13.5506 38.1957 13.975 38.2926 14.3139C38.4319 14.8003 37.8201 14.7357 37.8093 14.2569L37.7238 14.2512C37.4185 14.3082 36.3201 15.0733 36.1016 14.9213C36.0161 14.8624 35.9692 14.6059 36.056 14.5216C36.3854 14.2911 37.167 14.0801 37.4356 13.8394C37.473 13.8059 37.5072 13.7824 37.4901 13.7248C37.3463 13.4556 37.1841 13.2972 37.5553 13.1414L37.7352 13.1902V13.1908Z" fill="white"/>
<path d="M6.77406 17.4163L6.98245 16.736C7.10343 16.6404 7.40746 16.7012 7.4005 16.8659C7.3948 17.0109 7.09329 17.9496 6.98878 17.9819C6.76519 18.051 5.45847 17.4784 5.11643 17.4651C4.82696 17.3675 4.94097 16.9659 5.21777 16.9767C5.46543 16.9862 6.69108 17.4765 6.77469 17.4157L6.77406 17.4163Z" fill="white"/>
<path d="M13.9996 37.3078L14.1896 38.0667L13.8102 38.1313C13.8014 37.838 13.2465 36.8201 13.662 36.6827C13.999 36.5712 14.0668 36.9335 14.094 36.9265L14.3765 36.6409L13.7463 36.2925C13.7475 36.1766 13.8318 35.9733 13.966 35.9745L15.1385 36.6421L14.9181 36.9208L14.7591 36.8303C14.6172 37.1698 14.3746 37.3389 13.999 37.3072L13.9996 37.3078Z" fill="white"/>
<path d="M7.90353 15.2817C7.98207 15.3558 7.9466 15.4616 7.92317 15.5496C7.87376 15.734 7.60456 16.4478 7.44114 16.4719C7.31953 16.4903 5.93426 15.9303 5.74107 15.8271C5.47504 15.6839 5.45351 15.6447 5.58272 15.3368C5.81581 15.188 7.00282 15.9259 7.34676 15.898C7.39047 15.6402 7.56402 14.9599 7.90353 15.2817Z" fill="white"/>
<path d="M38.4339 14.958C38.6512 14.9016 38.795 15.2988 38.6404 15.4242C38.3098 15.5015 36.9366 16.2147 36.7193 16.1457C36.5888 16.1045 36.4989 15.8619 36.6123 15.7403C36.8504 15.485 38.0824 15.2139 38.4339 14.958Z" fill="white"/>
<path d="M22.7909 4.13056C22.8726 4.19707 22.7579 5.95288 22.8067 6.22841C22.7763 6.35699 22.3253 6.35699 22.2949 6.22841L22.357 4.1559C22.3798 4.07165 22.7231 4.07609 22.7909 4.13056Z" fill="white"/>
<path d="M35.8984 10.7142C36.0821 10.6762 36.2765 10.9707 36.2037 11.0847L34.6442 12.3218C34.3636 12.3769 34.2281 12.0918 34.3896 11.872C34.7487 11.7283 35.6184 10.7724 35.8977 10.7142H35.8984Z" fill="white"/>
<path d="M8.53554 14.3626C8.48613 14.4146 8.37339 14.4475 8.30244 14.4108L6.59604 13.3846C6.5289 13.1503 6.75439 12.978 6.96975 13.0762L8.55201 13.9674C8.65779 14.0491 8.61725 14.2784 8.5349 14.3639L8.53554 14.3626Z" fill="white"/>
<path d="M9.83615 9.01094C10.0794 8.76771 10.4354 9.251 10.6127 9.43723C10.7413 9.57214 11.5368 10.4057 11.5254 10.4741C11.514 10.5425 11.3253 10.7002 11.2423 10.7085C11.0707 10.7249 10.7451 10.3398 10.6114 10.1992C10.4949 10.077 9.81144 9.36438 9.78674 9.30928C9.74557 9.21617 9.76584 9.08252 9.83678 9.01094H9.83615Z" fill="white"/>
<path d="M39.1797 22.8959C39.4903 22.8959 39.7421 22.6441 39.7421 22.3334C39.7421 22.0228 39.4903 21.771 39.1797 21.771C38.869 21.771 38.6172 22.0228 38.6172 22.3334C38.6172 22.6441 38.869 22.8959 39.1797 22.8959Z" fill="white"/>
<path d="M5.23112 22.894C5.54106 22.894 5.79232 22.6427 5.79232 22.3328C5.79232 22.0229 5.54106 21.7716 5.23112 21.7716C4.92118 21.7716 4.66992 22.0229 4.66992 22.3328C4.66992 22.6427 4.92118 22.894 5.23112 22.894Z" fill="white"/>
<path d="M28.9962 22.1067C28.9962 25.8767 25.94 28.9329 22.17 28.9329C18.3999 28.9329 15.3438 25.8767 15.3438 22.1067C15.3438 18.3366 18.3999 15.2804 22.17 15.2804C25.94 15.2804 28.9962 18.3366 28.9962 22.1067ZM28.2127 22.1048C28.2127 18.7667 25.5068 16.0608 22.1687 16.0608C18.8307 16.0608 16.1247 18.7667 16.1247 22.1048C16.1247 25.4428 18.8307 28.1488 22.1687 28.1488C25.5068 28.1488 28.2127 25.4428 28.2127 22.1048Z" fill="white"/>
<path d="M13.2238 20.8905C13.2194 20.9 13.1181 20.8988 13.1086 20.9425C13.0864 21.0483 13.1827 21.2674 13.177 21.4372C13.1668 21.7742 13.0686 22.4874 12.6056 22.2327C12.5277 22.5482 12.6709 22.6989 12.7526 22.9403C12.8197 23.1385 12.7317 23.3247 12.9819 23.4077C13.5424 23.5946 14.1442 23.4077 14.1201 22.7452C13.4075 22.5988 13.2207 21.6019 13.8059 21.1851C14.542 20.6606 15.4965 21.3738 15.1431 22.2688C14.9486 22.7629 14.5293 22.4563 14.637 23.3361C14.6617 23.5376 14.8498 23.7612 14.7003 23.9657C14.5375 24.1887 11.9272 24.0158 11.4598 24.0399C11.4072 24.012 11.3977 22.9624 11.4135 22.8522C11.4497 22.6064 11.6796 22.4766 11.6922 22.3949C11.786 21.7938 11.0088 21.427 11.4522 20.6049C11.7486 20.0551 12.7443 19.9221 13.0775 20.4617C13.1219 20.5327 13.2416 20.8519 13.2232 20.8905H13.2238ZM13.049 20.7759C12.5562 19.5306 10.7763 20.7075 11.6872 21.7247L11.5466 21.1319C11.5459 21.0457 11.7809 20.7759 11.8139 20.7759H13.049ZM12.301 21.1996C12.301 21.0318 12.1648 20.8956 11.9969 20.8956C11.8291 20.8956 11.6929 21.0318 11.6929 21.1996C11.6929 21.3675 11.8291 21.5037 11.9969 21.5037C12.1648 21.5037 12.301 21.3675 12.301 21.1996ZM12.985 20.9032H12.3523C12.4492 21.0913 12.4403 21.3016 12.3567 21.4935L11.8538 21.7659L11.8462 22.4221L12.0362 21.7887C12.2484 21.7456 12.0989 21.9471 12.268 22.0313C12.3624 22.0782 12.866 22.2125 12.9217 22.0731C13.0154 21.84 12.5493 21.9281 12.6063 21.6627L12.9223 21.7894C13.0401 21.4568 13.0484 21.2516 12.9857 20.9032H12.985ZM15.0937 21.892C15.0937 21.4771 14.7573 21.1401 14.3418 21.1401C13.9263 21.1401 13.5899 21.4764 13.5899 21.892C13.5899 22.3075 13.9263 22.6438 14.3418 22.6438C14.7573 22.6438 15.0937 22.3075 15.0937 21.892ZM12.6683 23.1829C12.6259 22.6742 12.1211 22.4095 11.6561 22.6134L12.161 22.7091L12.6683 23.1829ZM11.7645 22.8136C11.5618 22.8725 11.5352 23.1987 11.6498 23.3475C11.6986 23.4109 12.3605 23.7193 12.4783 23.6611L12.6417 23.3729C12.3979 23.1784 12.1337 22.7059 11.7645 22.8136ZM14.4419 22.8022H14.2525V23.4362H14.4419V22.8022ZM14.5616 23.9353L14.6053 23.6243C14.3101 23.53 14.1923 23.5952 13.9998 23.3095C13.8788 23.4476 14.0333 23.8695 14.1385 23.9296C14.1904 23.9594 14.535 23.9588 14.5616 23.9353ZM12.4156 23.9423C12.3763 23.8004 11.6245 23.4647 11.5928 23.4996V23.9429L12.4156 23.9417V23.9423ZM13.9358 23.9423C13.9472 23.8207 13.8902 23.6142 13.7673 23.573L13.1124 23.5623V23.9429L13.9358 23.9423Z" fill="white"/>
<path d="M32.9374 24.0063L29.6507 23.9993C29.6342 23.9797 29.6292 23.5971 29.6387 23.5268C29.6539 23.4096 29.7571 23.4438 29.7691 23.3925C29.8084 23.2227 29.7457 22.9675 29.7736 22.7813C29.106 22.5482 28.8558 21.5797 29.4968 21.1661C30.4019 20.5821 31.3463 21.7317 30.6857 22.4816C30.476 22.7198 30.1454 22.6641 30.2778 23.1366C30.2841 23.1588 30.571 23.4254 30.6255 23.4362C30.749 23.4603 31.4857 23.4305 31.5382 23.3653C31.4686 22.9092 31.9012 22.6888 31.7979 22.2321L31.4622 22.2859C31.1823 22.1706 31.3375 21.8539 31.29 21.6418C31.2785 21.5911 31.1658 21.6215 31.1576 21.5062C31.1455 21.3453 31.2234 21.2066 31.2285 21.0603C31.2367 20.8101 31.0816 20.7398 31.2912 20.4262C31.663 19.8707 32.8494 20.1412 32.9881 20.7569C33.0204 20.9 33.0249 21.294 32.9983 21.4372C32.9647 21.6164 32.7607 21.7539 32.7132 21.9122C32.5397 22.4918 32.9374 22.6147 32.9374 22.8338V24.0056V24.0063ZM31.2906 20.7759H32.5257C32.5707 20.7759 32.7861 21.0533 32.7994 21.1376C32.8247 21.2997 32.7284 21.4118 32.6543 21.5385C32.603 21.6265 32.4896 21.5999 32.6524 21.7247C33.5842 20.7265 31.7891 19.5173 31.2906 20.7759ZM31.9873 20.9032H31.3539C31.3014 21.2528 31.3235 21.4549 31.4179 21.7893L31.734 21.6627C31.7859 21.9002 31.6396 21.8786 31.4584 21.9154C31.302 22.3816 31.9164 21.9787 32.1774 22.0421V21.7887L32.368 21.79C32.2901 21.935 32.3813 22.106 32.4326 22.2663C32.4624 22.3594 32.3579 22.4569 32.5574 22.4227C32.5555 22.2372 32.5846 21.8729 32.4611 21.7279C32.2629 21.4954 31.6884 21.6652 31.9873 20.9032ZM32.6651 21.1971C32.6651 21.0248 32.5257 20.8855 32.3534 20.8855C32.1812 20.8855 32.0418 21.0248 32.0418 21.1971C32.0418 21.3694 32.1812 21.5087 32.3534 21.5087C32.5257 21.5087 32.6651 21.3694 32.6651 21.1971ZM30.7604 21.8951C30.7604 21.4783 30.4222 21.1401 30.0054 21.1401C29.5886 21.1401 29.2504 21.4783 29.2504 21.8951C29.2504 22.3119 29.5886 22.6501 30.0054 22.6501C30.4222 22.6501 30.7604 22.3119 30.7604 21.8951ZM32.6841 22.6755C32.3123 22.3005 31.7188 22.7344 31.6713 23.1828C32.0082 22.9155 32.1755 22.5722 32.6841 22.6755ZM30.153 22.8022H29.8958L29.8971 23.4368H30.1542L30.153 22.8022ZM31.8708 23.6801C31.9854 23.7459 33.1876 23.2424 32.6568 22.8617C32.2926 22.6001 32.0222 23.1759 31.7479 23.3215C31.6915 23.3792 31.8493 23.668 31.8708 23.6807V23.6801ZM30.2011 23.9296C30.2885 23.8796 30.4507 23.4362 30.3398 23.3101C30.2296 23.3114 30.2619 23.4786 30.1523 23.5331C30.0428 23.5876 29.8933 23.5584 29.7704 23.5629V23.9436C29.8901 23.9239 30.108 23.9828 30.2011 23.9296ZM32.8101 23.5002C32.7607 23.447 31.9721 23.7839 31.924 23.9423L32.7512 23.9151L32.8101 23.4995V23.5002ZM31.2906 23.5629L30.5704 23.5711C30.4773 23.5901 30.3797 23.9208 30.4038 23.9423L31.231 23.9151L31.2906 23.5629Z" fill="white"/>
<path d="M24.1147 12.7753C24.0348 12.8481 23.7561 12.902 23.7511 12.9577C23.7752 13.1743 24.2337 13.9401 24.0114 14.0979L23.7213 14.0624C23.5896 13.8565 23.4698 13.0679 23.3584 12.9374C23.3121 12.883 23.0347 12.8285 22.9961 12.8614L22.8377 13.8749C22.7756 13.9686 22.5894 13.9655 22.5153 13.8749C22.4323 13.7533 22.7592 11.4394 22.8624 11.3653C23.1937 11.3482 23.9747 11.4287 24.1983 11.6846C24.4219 11.9405 24.3509 12.5593 24.114 12.7753H24.1147ZM23.0619 12.5365C24.1451 12.9324 24.3135 11.6643 23.1816 11.7447L23.0619 12.5365Z" fill="white"/>
<path d="M21.5373 30.2137L21.4727 30.5304C21.0071 30.284 21.0908 30.8224 20.9691 31.1347C20.8475 31.4469 20.698 31.5742 20.3332 31.5438L20.3357 31.2297C20.7886 31.293 20.7462 30.6678 20.838 30.3435L20.0805 30.1503L19.836 31.2442C19.9551 31.6161 20.6746 31.9695 20.6942 32.3457C20.7031 32.5149 20.5213 32.9329 20.3022 32.874C20.0494 32.8069 20.3509 32.5085 20.368 32.4363C20.4402 32.1304 19.5845 31.6363 19.5205 31.243C19.4768 30.9744 19.7302 30.4664 19.7612 30.1769C19.765 30.0363 19.625 30.0224 19.5098 30.0237L19.5807 29.7773L20.9033 30.0876C20.9565 29.6417 20.8539 29.2496 20.337 29.2604L20.3332 29.0115C20.5593 28.9855 20.8805 29.0425 21.023 29.2401C21.2605 29.5701 20.9957 30.2764 21.5379 30.215L21.5373 30.2137Z" fill="white"/>
<path d="M26.5294 14.7699L25.8745 14.3278L25.4216 14.6825C25.2905 14.7123 25.1296 14.5488 25.1575 14.419C25.1815 14.3069 26.7239 13.0958 26.9266 12.9596C27.237 12.7506 27.3763 12.7177 27.4903 13.1357C27.2078 13.7976 27.1122 14.6901 26.8252 15.3279C26.7239 15.5541 26.62 15.6003 26.4427 15.39L26.5294 14.7693V14.7699ZM26.7296 14.4418L26.983 13.4283L26.1621 14.0959L26.5427 14.4082L26.7302 14.4418H26.7296Z" fill="white"/>
<path d="M17.9369 14.7699L18.0465 15.4483L17.776 15.5142L17.6836 15.4122L17.0039 12.9862L17.2281 12.819C17.3434 12.7797 17.4486 12.8912 17.5404 12.9596C18.1516 13.4138 18.7116 13.9509 19.3146 14.4165L19.1531 14.6914L18.5912 14.3791L17.9369 14.7699ZM17.4834 13.4284L17.8311 14.5039C17.9008 14.3842 18.3341 14.2353 18.3037 14.0985L17.4834 13.4284Z" fill="white"/>
<path d="M24.9511 29.776L25.0201 30.023L24.6382 30.1212L25.0727 31.9062C25.0809 32.0727 24.8833 32.0645 24.7693 32.048L24.3842 30.2162L23.8167 30.277C23.9414 30.7724 23.9357 31.129 23.5012 31.4488L24.3576 31.9853L24.324 32.1475L24.1942 32.2134C23.9218 32.0398 22.8931 31.5343 22.9254 31.1974C23.0198 30.8458 23.2789 31.091 23.4062 31.0808C23.6222 31.0631 23.5874 30.564 23.4923 30.4113L22.6132 30.5298L22.6094 30.3131L24.9511 29.776Z" fill="white"/>
<path d="M20.448 11.6054L20.963 13.9072C20.8325 14.2277 20.664 14.1998 20.5411 13.8863C20.4258 13.5911 20.0952 12.1197 20.0813 11.8081C20.0781 11.7384 20.0635 11.6675 20.0889 11.5997L20.448 11.6054Z" fill="white"/>
<path d="M27.9314 22.0997C27.9314 25.2858 25.349 27.8682 22.163 27.8682C18.9769 27.8682 16.3945 25.2858 16.3945 22.0997C16.3945 18.9137 18.9769 16.3313 22.163 16.3313C25.349 16.3313 27.9314 18.9137 27.9314 22.0997ZM22.6051 17.111C22.5766 17.085 21.9077 17.0825 21.8342 17.1009C21.7855 17.1129 21.4992 17.669 21.2838 17.1959C20.8924 17.2028 20.5237 17.2294 20.4173 17.6773C20.1912 17.8267 20.1158 17.5835 19.8903 17.6348C19.8472 17.645 19.3418 17.9053 19.3247 17.9319C19.3126 17.9509 19.4932 18.2252 19.2556 18.3404C19.0776 18.4266 18.9636 18.2442 18.7799 18.3645C18.7413 18.3898 18.41 18.7262 18.3999 18.7509C18.3492 18.875 18.4987 19.0347 18.4037 19.1936C18.2998 19.3678 18.0648 19.2259 18.0015 19.264C17.9743 19.2804 17.7127 19.7738 17.6994 19.8258C17.6588 19.9911 17.8279 20.0772 17.7925 20.2248C17.7437 20.4275 17.484 20.3629 17.4314 20.4073C17.4048 20.4294 17.2427 21.0318 17.2433 21.0755C17.2452 21.2136 17.51 21.3004 17.4143 21.5613L17.1622 21.7019L17.1635 22.4449C17.1888 22.5488 17.5385 22.4348 17.4213 22.8858C17.4023 22.9574 17.2572 22.9536 17.2382 23.0283C17.2275 23.0726 17.375 23.6649 17.4131 23.7149C17.4707 23.7909 17.6208 23.7086 17.7323 23.853C17.9071 24.0804 17.6379 24.1672 17.6987 24.3863C17.7184 24.456 17.9438 24.8329 17.992 24.8601C18.1123 24.9279 18.3245 24.8563 18.4056 25.0204C18.4829 25.1325 18.3701 25.2687 18.386 25.3605C18.3993 25.4359 18.7875 25.852 18.8762 25.8736C18.9896 25.9008 19.1062 25.7133 19.2575 25.8736L19.3304 26.2777C19.5172 26.3011 19.8162 26.6159 19.9733 26.5893C20.0955 26.5684 20.2216 26.3727 20.4521 26.5494L20.4667 26.8516C20.6694 26.8585 21.0102 27.0485 21.192 27.0213C21.3738 26.9941 21.5587 26.5152 21.7665 27.1144H22.5126C22.595 27.091 22.4962 26.8991 22.7096 26.8547C23.0504 26.7831 23.0472 27.0447 23.0954 27.0498C23.1308 27.0536 23.7516 26.8845 23.7807 26.8642C23.8586 26.8085 23.782 26.4379 24.0993 26.4747C24.2298 26.4899 24.2425 26.6273 24.4521 26.5779C24.5167 26.5627 24.8999 26.3309 24.9259 26.2846C24.9937 26.1643 24.9221 25.9527 25.0862 25.871C25.2413 25.7938 25.3497 25.9445 25.4985 25.8489C25.5403 25.8223 25.928 25.4321 25.9381 25.4029C25.9755 25.2978 25.8361 25.1458 25.9666 24.9817C26.085 24.8329 26.2244 24.9703 26.3232 24.8994C26.3999 24.8443 26.6652 24.3939 26.6551 24.3014C26.6418 24.1836 26.5189 24.1494 26.5671 23.9398C26.6152 23.7301 26.8527 23.8156 26.9281 23.7124C26.9496 23.6832 27.0814 23.1803 27.0846 23.1233C27.0909 22.9821 26.7717 22.8535 26.9199 22.595C26.9655 22.5152 27.1023 22.5526 27.1466 22.4905C27.1865 22.4354 27.1998 21.8571 27.1783 21.7678C27.1549 21.6709 26.9433 21.7171 26.9192 21.6209C26.828 21.256 27.1118 21.2161 27.115 21.1819C27.1181 21.1477 26.9503 20.5251 26.9294 20.4966C26.8698 20.4142 26.6437 20.527 26.5664 20.2698C26.5069 20.0703 26.6798 20.0348 26.6602 19.8733C26.6557 19.8391 26.3783 19.276 26.3498 19.2557C26.3346 19.2449 26.1623 19.3925 25.9983 19.2614C25.819 19.1189 25.9774 18.97 25.9571 18.851C25.9514 18.8161 25.5036 18.3518 25.4681 18.3398C25.363 18.3024 25.2109 18.4418 25.0469 18.3113C24.898 18.1929 25.0355 18.0535 24.9645 17.9547C24.9107 17.8793 24.4597 17.6127 24.3666 17.6228C24.2969 17.6304 24.226 17.7121 24.1519 17.7241C23.9156 17.7628 23.7655 17.5721 23.8821 17.3561C23.6623 17.3561 23.3975 17.187 23.1878 17.1933C23.0472 17.1978 22.968 17.4423 22.7166 17.3492L22.6064 17.1104L22.6051 17.111Z" fill="white"/>
<path d="M14.9764 21.9015C14.9764 22.2517 14.692 22.5361 14.3417 22.5361C13.9914 22.5361 13.707 22.2517 13.707 21.9015C13.707 21.5512 13.9914 21.2668 14.3417 21.2668C14.692 21.2668 14.9764 21.5512 14.9764 21.9015ZM14.8402 21.8951C14.8402 21.6196 14.6166 21.3966 14.3417 21.3966C14.0668 21.3966 13.8432 21.6202 13.8432 21.8951C13.8432 22.17 14.0668 22.3936 14.3417 22.3936C14.6166 22.3936 14.8402 22.17 14.8402 21.8951Z" fill="white"/>
<path d="M12.0363 22.9295C12.1269 23.4875 11.572 23.3925 11.7266 22.9358L12.0363 22.9295Z" fill="white"/>
<path d="M12.1548 21.339C12.1478 21.3504 11.9508 21.4308 11.9065 21.3814L11.8457 21.0292L12.1345 21.0881C12.1694 21.1382 12.1846 21.2921 12.1554 21.339H12.1548Z" fill="white"/>
<path d="M30.6442 21.8958C30.6442 22.2473 30.3592 22.5323 30.0077 22.5323C29.6561 22.5323 29.3711 22.2473 29.3711 21.8958C29.3711 21.5442 29.6561 21.2592 30.0077 21.2592C30.3592 21.2592 30.6442 21.5442 30.6442 21.8958ZM30.5093 21.892C30.5093 21.6145 30.2845 21.389 30.0064 21.389C29.7283 21.389 29.5035 21.6139 29.5035 21.892C29.5035 22.17 29.7283 22.3949 30.0064 22.3949C30.2845 22.3949 30.5093 22.17 30.5093 21.892Z" fill="white"/>
<path d="M32.3049 22.9295C32.334 22.9003 32.6641 22.9212 32.685 23.0264C32.55 23.6351 32.1377 23.0967 32.3049 22.9295Z" fill="white"/>
<path d="M32.1866 21.3364L32.1777 21.0292L32.5571 21.1261C32.5603 21.3694 32.3836 21.4593 32.1866 21.3364Z" fill="white"/>
<path d="M22.2334 21.0919C22.4158 21.1224 22.3379 21.052 22.3683 20.9456C22.5134 20.4389 22.5685 19.8739 22.7585 19.3691L23.3723 17.6088C23.207 18.4551 23.067 19.3209 22.8478 20.1551C22.7591 20.4934 22.5767 20.8075 22.5501 21.1553L24.3547 18.2416C24.4497 18.291 24.3363 18.3943 24.3123 18.4525C23.9024 19.4223 23.3298 20.4129 22.7395 21.2813L25.2421 18.939L25.3358 18.97C24.5637 19.8359 23.8195 20.7258 22.9295 21.4714L26.0028 19.8258C26.1897 19.8137 26.0567 19.8986 25.9914 19.9417C25.3517 20.368 24.691 20.8234 24.0253 21.206C23.7276 21.377 23.3317 21.4752 23.1196 21.7247C24.1761 21.4277 25.3118 21.0881 26.3974 20.9178C26.4652 20.907 26.6179 20.8506 26.6027 20.9646C25.854 21.1274 25.1471 21.4467 24.4142 21.6582C24.0608 21.7602 23.6567 21.79 23.321 21.8983C23.2146 21.9325 23.1538 21.8704 23.1835 22.0421C24.3154 21.8394 25.4619 22.0522 26.6033 22.0737C26.324 22.2543 25.8926 22.1516 25.5594 22.17C25.4359 22.177 25.3162 22.2308 25.1813 22.2353C24.5168 22.2587 23.8416 22.2429 23.1835 22.1694C23.1531 22.3518 23.2234 22.2739 23.3298 22.3043C23.5705 22.3727 23.8283 22.3885 24.0703 22.4538C24.8602 22.6666 25.6202 22.9808 26.4133 23.1835C26.4266 23.3013 26.2803 23.2354 26.2106 23.2278C25.218 23.1182 24.0519 22.7781 23.1208 22.4221C23.0923 22.5539 23.1848 22.5691 23.2665 22.6242C23.5579 22.8212 24.0405 23.0124 24.3819 23.2189C24.9026 23.5344 25.4081 23.8796 25.9072 24.2273C25.8578 24.3223 25.7545 24.209 25.6963 24.1849C24.7664 23.7922 23.8252 23.2436 22.9941 22.6755L25.1465 24.988L25.0527 25.0818C24.634 24.6118 24.1026 24.2539 23.6573 23.8181C23.4008 23.5667 23.1835 23.2234 22.9492 23.0074C22.8795 22.9428 22.9093 22.8921 22.7401 22.9295C23.3849 23.8289 23.8898 24.8234 24.323 25.8425C23.9366 25.3694 23.5997 24.8392 23.2836 24.3173C23.0771 23.9759 22.8858 23.4932 22.6888 23.2018C22.6337 23.1201 22.6185 23.0283 22.4868 23.0561C22.977 24.1766 23.1354 25.4105 23.3729 26.6026L22.6597 24.4978C22.5115 24.1013 22.4918 23.668 22.3677 23.2671C22.336 23.1645 22.4196 23.0878 22.2334 23.1195C22.3557 24.316 22.3063 25.5492 22.1378 26.7306C22.1289 25.5245 21.9028 24.316 22.1061 23.1201C21.9344 23.091 21.9972 23.1518 21.9623 23.2582C21.8477 23.6135 21.8356 24.0398 21.7077 24.4002L20.9666 26.5399C21.1744 25.363 21.4245 24.1931 21.7888 23.0568C21.6253 23.0245 21.6779 23.091 21.6304 23.1803C21.4987 23.4254 21.4157 23.7041 21.27 23.9626C20.9482 24.532 20.4637 25.2832 20.0697 25.8026C20.0254 25.8615 19.9417 26.0021 19.9538 25.8134L21.5354 22.8668C20.8089 23.7352 19.9462 24.4636 19.0974 25.2097L19.0664 25.116L21.3454 22.6767C20.4694 23.2569 19.4863 23.8403 18.5166 24.2495C18.4583 24.2742 18.3551 24.3876 18.3056 24.2919C18.8238 23.974 19.3115 23.5977 19.8309 23.2835C20.2888 23.0067 20.7943 22.7952 21.2193 22.4873C20.6106 22.6514 20.0101 22.83 19.3945 22.9738C18.9258 23.0834 18.3456 23.2215 17.8781 23.2943C17.8103 23.3051 17.6577 23.3615 17.6729 23.2474C18.5539 23.0359 19.3951 22.69 20.2692 22.4544C20.5105 22.3892 20.769 22.3733 21.0097 22.3049C21.1161 22.2745 21.187 22.3524 21.156 22.17C20.5004 22.2536 19.822 22.2549 19.1582 22.2359C19.0087 22.2315 18.87 22.1751 18.7199 22.1675C18.5786 22.1605 17.5443 22.2067 17.5449 22.075L21.156 21.9477C20.0539 21.7209 18.9878 21.3611 17.925 20.9982C17.9262 20.9292 18.1277 20.9754 18.1929 20.9843C19.2026 21.1148 20.2407 21.4612 21.2193 21.726L18.2423 19.8581C18.2917 19.7637 18.395 19.872 18.4507 19.903C19.4179 20.4459 20.4662 20.8475 21.3454 21.5366C21.3827 21.3675 21.3314 21.3973 21.2675 21.3276C21.0515 21.0926 20.7075 20.8772 20.4561 20.6194C20.0197 20.1722 19.6535 19.6516 19.1931 19.224L19.2868 19.1303C19.7055 19.6003 20.2369 19.9581 20.6822 20.3939C20.9387 20.6454 21.156 20.9893 21.3903 21.2047C21.46 21.2693 21.4303 21.32 21.5994 21.2826C20.9805 20.3939 20.4447 19.4134 19.9867 18.4304C19.9582 18.3696 19.8942 18.2334 20.0152 18.2435L21.7888 21.1566L21.0299 17.8635L21.7077 19.8131C21.835 20.1735 21.8477 20.5998 21.9623 20.9551C21.9965 21.0615 21.9344 21.1224 22.1061 21.0926L21.9857 19.9911L22.1067 17.4828C22.2011 17.5119 22.2258 17.8103 22.2321 17.8951C22.2974 18.7547 22.3253 19.7567 22.2987 20.6207C22.2936 20.7816 22.2201 20.9304 22.2328 21.0926L22.2334 21.0919Z" fill="white"/>
<path d="M14.6315 21.6627L14.6973 22.0763L13.998 22.106L13.9993 21.916L14.2514 21.98L14.252 21.7893L14.4421 21.7887L14.5048 21.9794L14.6315 21.6627Z" fill="white"/>
<path d="M29.8344 21.6633V21.9794L30.0877 21.7893L30.1182 21.9781L30.2999 21.9211L30.4045 22.106H29.645C29.638 22.0661 29.7096 21.4967 29.8344 21.6633Z" fill="white"/>
</g>
<path d="M132.307 35.6657V25.769H134.77L137.705 30.7381L138.383 31.9977H138.411C138.392 31.2041 138.383 30.692 138.383 30.4613V25.769H140.778V35.6657H138.314L135.407 30.7658L134.701 29.437H134.674C134.692 30.286 134.701 30.8258 134.701 31.0565V35.6657H132.307Z" fill="white"/>
<path d="M126.619 33.9078C127.394 33.9078 127.984 33.6171 128.39 33.0358C128.806 32.4452 129.013 31.6793 129.013 30.7381C129.013 29.7969 128.806 29.031 128.39 28.4404C127.984 27.8498 127.394 27.5545 126.619 27.5545C125.853 27.5545 125.258 27.8498 124.833 28.4404C124.418 29.031 124.21 29.7969 124.21 30.7381C124.21 31.6701 124.418 32.4314 124.833 33.0219C125.258 33.6125 125.853 33.9078 126.619 33.9078ZM130.162 34.4476C129.267 35.4165 128.081 35.901 126.605 35.901C125.128 35.901 123.943 35.4165 123.048 34.4476C122.162 33.4787 121.719 32.2422 121.719 30.7381C121.719 29.234 122.162 27.9975 123.048 27.0286C123.943 26.0596 125.128 25.5752 126.605 25.5752C128.081 25.5752 129.267 26.0596 130.162 27.0286C131.057 27.9975 131.505 29.234 131.505 30.7381C131.505 32.2422 131.057 33.4787 130.162 34.4476Z" fill="white"/>
<path d="M118.459 35.6657V25.769H120.909V35.6657H118.459Z" fill="white"/>
<path d="M112.33 35.6657V27.8453H109.451V25.769H117.687V27.8453H114.78V35.6657H112.33Z" fill="white"/>
<path d="M100.945 35.6657L104.503 25.769H107.022L110.593 35.6657H108.018L107.437 33.8802H103.977L103.409 35.6657H100.945ZM104.544 32.1223H106.869L106.122 29.7277L105.734 28.3297H105.707C105.55 28.9203 105.416 29.3863 105.305 29.7277L104.544 32.1223Z" fill="white"/>
<path d="M97.9785 35.6657V25.769H100.428V35.6657H97.9785Z" fill="white"/>
<path d="M92.8841 35.8871C91.4446 35.8871 90.2681 35.4073 89.3545 34.4476C88.4502 33.4787 87.998 32.2468 87.998 30.7519C87.998 29.257 88.4456 28.0205 89.3407 27.0424C90.2358 26.0643 91.4123 25.5752 92.8703 25.5752C93.996 25.5752 94.9373 25.8659 95.6939 26.4472C96.5521 27.0931 97.0458 28.0021 97.175 29.174H94.725C94.6604 28.7218 94.462 28.3481 94.1298 28.0528C93.7976 27.7575 93.3732 27.6099 92.8564 27.6099C92.0813 27.6099 91.4907 27.9006 91.0847 28.4819C90.6879 29.054 90.4895 29.8107 90.4895 30.7519C90.4895 31.6747 90.7064 32.4267 91.1401 33.0081C91.5738 33.5894 92.1505 33.8801 92.8703 33.8801C93.4055 33.8801 93.8438 33.7278 94.1852 33.4233C94.5359 33.1188 94.7389 32.722 94.7942 32.233H97.2442C97.1704 33.2296 96.7736 34.0739 96.0538 34.766C95.2787 35.5134 94.2221 35.8871 92.8841 35.8871Z" fill="white"/>
<path d="M82.7085 33.9077C83.4836 33.9077 84.0742 33.617 84.4802 33.0356C84.8954 32.4451 85.1031 31.6792 85.1031 30.738C85.1031 29.7967 84.8954 29.0308 84.4802 28.4403C84.0742 27.8497 83.4836 27.5544 82.7085 27.5544C81.9426 27.5544 81.3474 27.8497 80.9229 28.4403C80.5077 29.0308 80.3001 29.7967 80.3001 30.738C80.3001 31.67 80.5077 32.4312 80.9229 33.0218C81.3474 33.6124 81.9426 33.9077 82.7085 33.9077ZM86.2519 34.4475C85.3568 35.4164 84.1711 35.9008 82.6946 35.9008C81.2182 35.9008 80.0325 35.4164 79.1374 34.4475C78.2515 33.4786 77.8086 32.2421 77.8086 30.738C77.8086 29.2338 78.2515 27.9973 79.1374 27.0284C80.0325 26.0595 81.2182 25.5751 82.6946 25.5751C84.1711 25.5751 85.3568 26.0595 86.2519 27.0284C87.147 27.9973 87.5945 29.2338 87.5945 30.738C87.5945 32.2421 87.147 33.4786 86.2519 34.4475Z" fill="white"/>
<path d="M73.3061 35.901C71.9681 35.901 70.9023 35.615 70.1087 35.0429C69.3243 34.4615 68.9183 33.631 68.8906 32.5514H71.3544C71.4559 33.4926 72.1019 33.9632 73.2922 33.9632C73.7352 33.9632 74.1089 33.8802 74.4134 33.7141C74.7271 33.5388 74.884 33.2758 74.884 32.9251C74.884 32.6852 74.7871 32.4868 74.5933 32.3299C74.3995 32.1638 74.2012 32.0485 73.9981 31.9839C73.8044 31.9193 73.4306 31.8178 72.877 31.6794C72.8493 31.6702 72.8308 31.6655 72.8216 31.6655C72.8124 31.6563 72.7985 31.6517 72.7801 31.6517C72.7616 31.6425 72.7432 31.6379 72.7247 31.6379C72.3003 31.5363 71.9496 31.4487 71.6728 31.3749C71.4052 31.2918 71.096 31.1719 70.7454 31.015C70.404 30.8489 70.1317 30.6689 69.9287 30.4752C69.7257 30.2814 69.5504 30.0276 69.4028 29.7139C69.2643 29.3909 69.1951 29.031 69.1951 28.6342C69.1951 27.6192 69.555 26.8579 70.2748 26.3504C71.0038 25.8429 71.9542 25.5891 73.1261 25.5891C74.2519 25.5891 75.1701 25.8475 75.8806 26.3642C76.6003 26.881 76.9833 27.6377 77.0294 28.6342H74.6349C74.5887 28.2559 74.4272 27.9652 74.1504 27.7622C73.8736 27.55 73.5045 27.4439 73.0431 27.4439C72.6186 27.4439 72.2726 27.5315 72.005 27.7069C71.7466 27.873 71.6174 28.0944 71.6174 28.3713C71.6174 28.685 71.7743 28.9157 72.088 29.0633C72.4018 29.2017 72.9923 29.3678 73.8597 29.5616C74.4042 29.6908 74.8517 29.82 75.2024 29.9492C75.553 30.0691 75.9083 30.2445 76.2682 30.4752C76.6373 30.7059 76.9095 31.0058 77.0848 31.3749C77.2694 31.7347 77.3616 32.1684 77.3616 32.676C77.3616 33.6818 76.9787 34.4707 76.2128 35.0429C75.4561 35.615 74.4872 35.901 73.3061 35.901Z" fill="white"/>
<path d="M64.3197 35.901C62.9817 35.901 61.9159 35.615 61.1224 35.0429C60.338 34.4615 59.932 33.631 59.9043 32.5514H62.3681C62.4696 33.4926 63.1155 33.9632 64.3059 33.9632C64.7488 33.9632 65.1225 33.8802 65.4271 33.7141C65.7408 33.5388 65.8977 33.2758 65.8977 32.9251C65.8977 32.6852 65.8008 32.4868 65.607 32.3299C65.4132 32.1638 65.2148 32.0485 65.0118 31.9839C64.818 31.9193 64.4443 31.8178 63.8907 31.6794C63.863 31.6702 63.8445 31.6655 63.8353 31.6655C63.8261 31.6563 63.8122 31.6517 63.7938 31.6517C63.7753 31.6425 63.7569 31.6379 63.7384 31.6379C63.3139 31.5363 62.9633 31.4487 62.6864 31.3749C62.4188 31.2918 62.1097 31.1719 61.7591 31.015C61.4176 30.8489 61.1454 30.6689 60.9424 30.4752C60.7394 30.2814 60.5641 30.0276 60.4164 29.7139C60.278 29.3909 60.2088 29.031 60.2088 28.6342C60.2088 27.6192 60.5687 26.8579 61.2884 26.3504C62.0174 25.8429 62.9679 25.5891 64.1398 25.5891C65.2656 25.5891 66.1837 25.8475 66.8943 26.3642C67.614 26.881 67.997 27.6377 68.0431 28.6342H65.6485C65.6024 28.2559 65.4409 27.9652 65.1641 27.7622C64.8872 27.55 64.5181 27.4439 64.0568 27.4439C63.6323 27.4439 63.2862 27.5315 63.0186 27.7069C62.7603 27.873 62.6311 28.0944 62.6311 28.3713C62.6311 28.685 62.7879 28.9157 63.1017 29.0633C63.4154 29.2017 64.006 29.3678 64.8734 29.5616C65.4178 29.6908 65.8654 29.82 66.216 29.9492C66.5667 30.0691 66.9219 30.2445 67.2818 30.4752C67.6509 30.7059 67.9231 31.0058 68.0985 31.3749C68.283 31.7347 68.3753 32.1684 68.3753 32.676C68.3753 33.6818 67.9924 34.4707 67.2265 35.0429C66.4698 35.615 65.5009 35.901 64.3197 35.901Z" fill="white"/>
<path d="M50.3867 35.6657L53.944 25.769H56.4631L60.0343 35.6657H57.4597L56.8784 33.8802H53.418L52.8505 35.6657H50.3867ZM53.9855 32.1223H56.3109L55.5634 29.7277L55.1759 28.3297H55.1482C54.9913 28.9203 54.8575 29.3863 54.7468 29.7277L53.9855 32.1223Z" fill="white"/>
<path d="M180.009 19.0934C178.671 19.0934 177.605 18.8074 176.812 18.2352C176.027 17.6539 175.621 16.8234 175.594 15.7438H178.058C178.159 16.685 178.805 17.1556 179.995 17.1556C180.438 17.1556 180.812 17.0726 181.117 16.9065C181.43 16.7311 181.587 16.4681 181.587 16.1175C181.587 15.8776 181.49 15.6792 181.296 15.5223C181.103 15.3562 180.904 15.2409 180.701 15.1763C180.507 15.1117 180.134 15.0102 179.58 14.8718C179.552 14.8625 179.534 14.8579 179.525 14.8579C179.516 14.8487 179.502 14.8441 179.483 14.8441C179.465 14.8348 179.446 14.8302 179.428 14.8302C179.003 14.7287 178.653 14.6411 178.376 14.5672C178.108 14.4842 177.799 14.3642 177.449 14.2074C177.107 14.0413 176.835 13.8613 176.632 13.6675C176.429 13.4738 176.254 13.22 176.106 12.9063C175.967 12.5833 175.898 12.2234 175.898 11.8266C175.898 10.8116 176.258 10.0503 176.978 9.54278C177.707 9.03526 178.657 8.78149 179.829 8.78149C180.955 8.78149 181.873 9.03987 182.584 9.55662C183.303 10.0734 183.686 10.83 183.733 11.8266H181.338C181.292 11.4483 181.13 11.1576 180.854 10.9546C180.577 10.7424 180.208 10.6363 179.746 10.6363C179.322 10.6363 178.976 10.7239 178.708 10.8992C178.45 11.0653 178.321 11.2868 178.321 11.5636C178.321 11.8774 178.477 12.1081 178.791 12.2557C179.105 12.3941 179.695 12.5602 180.563 12.754C181.107 12.8832 181.555 13.0124 181.905 13.1416C182.256 13.2615 182.611 13.4369 182.971 13.6675C183.34 13.8982 183.613 14.1981 183.788 14.5672C183.972 14.9271 184.065 15.3608 184.065 15.8683C184.065 16.8742 183.682 17.6631 182.916 18.2352C182.159 18.8074 181.19 19.0934 180.009 19.0934Z" fill="white"/>
<path d="M170.982 19.0794C169.542 19.0794 168.366 18.5995 167.452 17.6398C166.548 16.6709 166.096 15.439 166.096 13.9442C166.096 12.4493 166.543 11.2128 167.438 10.2346C168.333 9.25649 169.51 8.76743 170.968 8.76743C172.094 8.76743 173.035 9.0581 173.792 9.63944C174.65 10.2854 175.143 11.1943 175.273 12.3662H172.823C172.758 11.9141 172.56 11.5403 172.227 11.2451C171.895 10.9498 171.471 10.8021 170.954 10.8021C170.179 10.8021 169.588 11.0928 169.182 11.6741C168.786 12.2463 168.587 13.0029 168.587 13.9442C168.587 14.8669 168.804 15.619 169.238 16.2003C169.671 16.7817 170.248 17.0723 170.968 17.0723C171.503 17.0723 171.941 16.9201 172.283 16.6156C172.634 16.311 172.837 15.9143 172.892 15.4252H175.342C175.268 16.4218 174.871 17.2661 174.151 17.9582C173.376 18.7056 172.32 19.0794 170.982 19.0794Z" fill="white"/>
<path d="M162.838 18.8581V8.96143H165.288V18.8581H162.838Z" fill="white"/>
<path d="M156.711 18.8581V11.0377H153.832V8.96143H162.068V11.0377H159.161V18.8581H156.711Z" fill="white"/>
<path d="M149.001 17.0999C149.777 17.0999 150.367 16.8093 150.773 16.2279C151.188 15.6373 151.396 14.8714 151.396 13.9302C151.396 12.989 151.188 12.2231 150.773 11.6325C150.367 11.042 149.777 10.7467 149.001 10.7467C148.236 10.7467 147.64 11.042 147.216 11.6325C146.801 12.2231 146.593 12.989 146.593 13.9302C146.593 14.8622 146.801 15.6235 147.216 16.2141C147.64 16.8046 148.236 17.0999 149.001 17.0999ZM152.545 17.6397C151.65 18.6086 150.464 19.0931 148.988 19.0931C147.511 19.0931 146.325 18.6086 145.43 17.6397C144.544 16.6708 144.102 15.4343 144.102 13.9302C144.102 12.4261 144.544 11.1896 145.43 10.2207C146.325 9.25179 147.511 8.76733 148.988 8.76733C150.464 8.76733 151.65 9.25179 152.545 10.2207C153.44 11.1896 153.888 12.4261 153.888 13.9302C153.888 15.4343 153.44 16.6708 152.545 17.6397Z" fill="white"/>
<path d="M135.369 18.858V8.9613H140.144C141.132 8.9613 141.902 9.18738 142.456 9.63954C143.028 10.1101 143.314 10.7422 143.314 11.5358C143.314 12.477 142.853 13.123 141.93 13.4736V13.5152C142.474 13.6813 142.904 13.9812 143.217 14.4149C143.54 14.8486 143.702 15.3561 143.702 15.9374C143.702 16.8971 143.365 17.6353 142.691 18.1521C142.092 18.6227 141.279 18.858 140.255 18.858H135.369ZM137.791 16.8925H139.978C140.375 16.8925 140.689 16.7864 140.92 16.5741C141.16 16.3619 141.279 16.0805 141.279 15.7298C141.279 15.3515 141.155 15.0608 140.906 14.8578C140.657 14.6456 140.338 14.5394 139.951 14.5394H137.791V16.8925ZM137.791 12.8785H139.785C140.144 12.8785 140.431 12.7908 140.643 12.6155C140.864 12.4401 140.975 12.1956 140.975 11.8819C140.975 11.5773 140.869 11.3374 140.657 11.1621C140.444 10.9868 140.158 10.8991 139.798 10.8991H137.791V12.8785Z" fill="white"/>
<path d="M129.681 17.0999C130.456 17.0999 131.047 16.8093 131.453 16.2279C131.868 15.6373 132.076 14.8714 132.076 13.9302C132.076 12.989 131.868 12.2231 131.453 11.6325C131.047 11.042 130.456 10.7467 129.681 10.7467C128.915 10.7467 128.32 11.042 127.896 11.6325C127.48 12.2231 127.273 12.989 127.273 13.9302C127.273 14.8622 127.48 15.6235 127.896 16.2141C128.32 16.8046 128.915 17.0999 129.681 17.0999ZM133.225 17.6397C132.329 18.6086 131.144 19.0931 129.667 19.0931C128.191 19.0931 127.005 18.6086 126.11 17.6397C125.224 16.6708 124.781 15.4343 124.781 13.9302C124.781 12.4261 125.224 11.1896 126.11 10.2207C127.005 9.25179 128.191 8.76733 129.667 8.76733C131.144 8.76733 132.329 9.25179 133.225 10.2207C134.12 11.1896 134.567 12.4261 134.567 13.9302C134.567 15.4343 134.12 16.6708 133.225 17.6397Z" fill="white"/>
<path d="M116.047 18.8581V8.96143H120.781C121.796 8.96143 122.626 9.21519 123.272 9.72271C123.918 10.221 124.241 10.9177 124.241 11.8128C124.241 13.0124 123.669 13.8106 122.525 14.2074V14.2489C123.355 14.5257 123.835 15.1301 123.964 16.0621C124.02 16.3851 124.056 16.7865 124.075 17.2663C124.103 17.7369 124.135 18.0922 124.172 18.3321C124.209 18.5628 124.278 18.6966 124.379 18.7335V18.8581H121.999C121.925 18.812 121.865 18.6782 121.819 18.4567C121.782 18.2352 121.75 17.9215 121.722 17.5155C121.694 17.1095 121.662 16.7911 121.625 16.5604C121.496 15.6192 120.947 15.1486 119.978 15.1486H118.497V18.8581H116.047ZM118.497 13.3353H120.338C120.818 13.3353 121.182 13.2292 121.431 13.017C121.68 12.8048 121.805 12.5095 121.805 12.1311C121.805 11.762 121.685 11.4667 121.445 11.2453C121.205 11.0146 120.854 10.8992 120.393 10.8992H118.497V13.3353Z" fill="white"/>
<path d="M103.857 18.8581L107.415 8.96143H109.934L113.505 18.8581H110.93L110.349 17.0726H106.889L106.321 18.8581H103.857ZM107.456 15.3147H109.782L109.034 12.9201L108.647 11.5221H108.619C108.462 12.1127 108.328 12.5787 108.217 12.9201L107.456 15.3147Z" fill="white"/>
<path d="M100.891 18.8581V8.96143H103.341V18.8581H100.891Z" fill="white"/>
<path d="M93.7214 16.7957H95.1609C95.9545 16.7957 96.5589 16.5558 96.9742 16.076C97.3894 15.5869 97.5971 14.8856 97.5971 13.9721C97.5971 13.0585 97.3848 12.3388 96.9603 11.8128C96.5359 11.2776 95.9453 11.01 95.1886 11.01H93.7214V16.7957ZM91.2715 18.8581V8.96143H95.4931C96.8681 8.96143 97.9754 9.4182 98.8151 10.3317C99.6548 11.2453 100.075 12.4587 100.075 13.9721C100.075 15.753 99.5026 17.0818 98.3583 17.9584C97.5555 18.5582 96.5497 18.8581 95.3409 18.8581H91.2715Z" fill="white"/>
<path d="M81.5957 18.8581V8.96143H84.0595L86.9939 13.9305L87.6721 15.1901H87.6998C87.6814 14.3965 87.6721 13.8844 87.6721 13.6537V8.96143H90.0667V18.8581H87.6029L84.6962 13.9582L83.9903 12.6294H83.9626C83.9811 13.4784 83.9903 14.0182 83.9903 14.2489V18.8581H81.5957Z" fill="white"/>
<path d="M77.9375 18.8581V8.96143H80.3874V18.8581H77.9375Z" fill="white"/>
<path d="M68.252 18.858V8.9613H70.7019V16.7818H75.145V18.858H68.252Z" fill="white"/>
<path d="M60.5762 18.8581V8.96143H63.0261V16.7819H67.4692V18.8581H60.5762Z" fill="white"/>
<path d="M50.3867 18.8581L53.944 8.96143H56.4631L60.0343 18.8581H57.4597L56.8784 17.0726H53.418L52.8505 18.8581H50.3867ZM53.9855 15.3147H56.3109L55.5634 12.9201L55.1759 11.5221H55.1482C54.9913 12.1127 54.8575 12.5787 54.7468 12.9201L53.9855 15.3147Z" fill="white"/>
<defs>
<clipPath id="clip0_574_4265">
<rect width="44.2119" height="44.2119" fill="white" transform="translate(0.0644531 9.15527e-05)"/>
</clipPath>
</defs>
</svg>
