<svg width="159" height="43" viewBox="0 0 159 43" fill="none" xmlns="http://www.w3.org/2000/svg">
<path d="M81.0114 5.94697C83.6959 6.39727 85.7742 9.15105 83.7132 11.5758C83.1936 12.1993 82.1198 11.9395 82.4489 13.1865L84.5445 15.0743C80.7169 16.1481 80.3013 12.1646 76.6469 13.0133V11.1774C76.7508 10.4154 79.418 11.3679 80.0934 11.2813C82.5701 10.9349 82.1891 8.04261 81.0114 8.04261H74.9842V15.0916H72.4902V5.96428C75.0881 6.25871 78.5174 5.54861 81.0114 5.96428V5.94697Z" fill="white"/>
<path d="M142.133 13.6892C139.951 15.906 131.794 15.7675 130.443 12.5807C127.221 4.89092 141.856 4.12887 143.016 9.15149C143.363 10.641 143.259 12.5634 142.133 13.6892ZM134.27 8.11233C132.781 8.54531 132.4 10.5717 132.815 11.888C133.56 14.2953 141.371 14.3127 140.938 10.3638C140.644 7.69666 136.227 7.55811 134.288 8.11233H134.27Z" fill="white"/>
<path d="M122.749 5.94678V8.0251H114.869V13.4114H122.749V15.0741H112.375V5.94678H122.749Z" fill="white"/>
<path d="M97.8269 5.94678V8.0251H90.5528C88.6996 8.0251 88.5957 13.4114 90.9685 13.4114H97.8269V15.0741H90.1372C89.6349 15.0741 87.418 13.3941 87.0716 12.736C86.1883 11.0214 86.3096 8.68324 87.8683 7.41892C88.3359 7.0379 90.9512 5.94678 91.3842 5.94678H97.8269Z" fill="white"/>
<path d="M64.6086 5.94678V8.0251H57.3345C55.4813 8.0251 55.3774 13.4114 57.7501 13.4114H64.6086V15.0741H56.9188C56.4165 15.0741 54.1997 13.3941 53.8533 12.736C52.2426 9.65312 55.1176 5.94678 58.1658 5.94678H64.6086Z" fill="white"/>
<path d="M155.989 5.94678V8.0251H148.507V15.0741H145.597C145.389 14.9182 146.013 14.5372 146.013 14.4506V6.57028C146.013 6.44904 145.493 6.25853 145.597 5.94678H155.989Z" fill="white"/>
<path d="M102.818 5.94678V13.4114H109.885V15.0741H100.324V5.94678H102.818Z" fill="white"/>
<path d="M107.388 32.082C107.752 31.8222 109.501 24.7212 110.263 23.6474C111.025 22.5736 114.575 22.5217 115.459 23.8033C117.139 26.2107 117.468 32.9306 119.009 35.8056H114.87L112.566 27.5096C111.648 27.3191 112.047 27.908 111.839 28.4276C111.441 29.4494 109.31 35.5285 108.964 35.7363C108.652 35.9269 105.639 35.9095 105.154 35.7363C103.682 35.2341 102.469 27.527 100.945 27.4923L98.607 35.7363L94.918 35.7883C96.1303 32.3591 96.6153 27.0074 98.1047 23.8553C98.7282 22.539 102.261 22.6083 103.214 23.5435C104.34 24.6519 105.258 29.6919 106.21 31.3372C106.522 31.8741 106.643 32.1859 107.371 32.0473L107.388 32.082Z" fill="white"/>
<path d="M158.048 22.9549V25.8646H145.388C144.729 25.8646 143.863 27.9429 144.972 27.9429H154.117C154.48 27.9429 156.524 28.8608 156.922 29.1726C159.33 31.1297 157.425 35.8232 155.363 35.8232H140.625L141.04 32.9136H153.701L154.342 31.8744C154.342 31.3029 153.753 30.662 153.199 30.5062C150.098 29.5882 141.11 32.4286 140.625 27.2674C140.417 25.1372 142.668 22.9549 144.574 22.9549H158.065H158.048Z" fill="white"/>
<path d="M68.7678 22.9545V25.8642H58.584C57.389 25.8642 55.4839 27.9772 55.4319 29.3974C55.38 30.679 57.1639 32.9132 58.1684 32.9132H65.0269V30.4192H59.6232V27.9252H68.7678V35.8055H57.3544C57.1639 35.8055 54.8777 34.7317 54.514 34.4892C50.2188 31.7008 50.8769 26.072 55.4839 23.9764C55.8649 23.8032 58.4282 22.9372 58.6014 22.9372H68.7852L68.7678 22.9545Z" fill="white"/>
<path d="M137.28 22.9549V25.8646H126.282L125.659 26.4881V32.9136H137.28V35.8232H121.918V22.9549H137.28Z" fill="white"/>
<path d="M79.5555 34.1607L80.8891 31.7533L84.9592 31.6667C85.0631 31.0779 84.8553 30.6449 84.6301 30.1253C84.3357 29.4325 83.0541 27.4061 82.2574 27.0771C80.5774 27.3369 77.5465 34.8708 76.2302 35.5982C75.6587 35.91 71.6752 36.239 72.0909 35.1999L80.0924 23.492C81.6339 22.5567 83.2445 22.7472 84.5435 23.9942C87.2453 26.5748 89.5834 32.7405 92.4238 35.6155C91.402 35.8926 89.5661 36.0312 88.5616 35.7368C87.8688 35.5289 87.0202 34.1607 86.8123 34.1607H79.5382H79.5555Z" fill="white"/>
<path d="M137.283 27.9427C137.04 28.8953 136.746 29.5188 137.283 30.4367H127.723V27.9427H137.283Z" fill="white"/>
<path d="M69.6014 5.94678H67.1074V15.0741H69.6014V5.94678Z" fill="white"/>
<path d="M122.751 10.0864H116.516V11.7491H122.751V10.0864Z" fill="white"/>
<path d="M155.987 10.0864H149.752V11.7491H155.987V10.0864Z" fill="white"/>
<path d="M14.0882 0.178901C19.7116 0.40309 25.7959 -0.269477 31.3757 0.129082C34.9876 0.390636 35.9591 1.82918 37.7775 4.62532C39.7828 7.70792 45.5245 17.1176 45.7798 20.3559C45.8608 21.3772 45.674 22.2864 45.4062 23.2641C44.5032 26.5647 39.0043 35.9308 36.8559 38.8889C35.4609 40.8069 34.1282 41.7535 31.6746 41.9217C25.964 42.3202 19.7988 41.604 14.0384 41.9217C11.6844 41.7348 10.3393 40.726 9.00659 38.8889C6.8332 35.8997 1.44644 26.7204 0.487406 23.3762C0.200942 22.3674 0.00166705 21.4146 0.0826242 20.3559C0.337951 17.0678 5.58148 8.68563 7.51822 5.55321C9.31796 2.65121 10.333 0.540095 14.082 0.178901H14.0882ZM14.8355 0.776738C12.9237 0.963563 11.3793 1.62368 10.0902 3.04977C8.15343 5.19202 1.91973 15.9406 1.19734 18.6371C0.474956 21.3336 1.12884 23.6316 2.33697 26.1537C3.86892 29.3484 7.0138 34.9469 9.06264 37.7866C10.1711 39.3186 11.5723 40.7073 13.4841 41.1245C19.1138 41.1121 25.6339 41.8033 31.2138 41.3238C33.7483 41.1059 35.4422 39.6984 36.8434 37.6994C38.8362 34.8597 43.868 26.2409 44.6526 23.1209C45.3065 20.5241 44.8146 18.6745 43.7061 16.3018C42.199 13.0698 39.5088 8.62335 37.5596 5.58435C35.6975 2.67612 34.3213 1.00093 30.6159 0.733146C25.5032 1.05697 19.8735 0.297223 14.8231 0.782966L14.8355 0.776738Z" fill="white"/>
<path d="M14.9849 1.96633C19.0639 1.574 26.3501 1.62382 30.4789 1.91651C34.0348 2.17184 34.9689 3.64152 36.7313 6.41275C38.531 9.23379 43.7932 17.8526 43.8181 20.8169C43.8368 22.6229 42.747 25.0516 41.9187 26.6458C40.3494 29.6786 38.1387 33.5209 36.2829 36.3793C34.8942 38.5216 33.6549 39.9041 30.921 40.1283C25.746 39.8418 20.2098 40.4895 15.0783 40.1283C12.2511 39.929 11.0865 38.6897 9.6293 36.4665C7.63028 33.4213 4.69091 28.5265 3.23368 25.2509C1.39658 21.1283 1.88855 19.3534 3.88134 15.4986C5.42576 12.5094 7.53064 8.8726 9.36774 6.05778C10.962 3.61661 11.8276 2.27148 14.9787 1.96633H14.9849ZM16.0311 2.71363C11.8712 3.04369 11.0741 4.91193 9.07505 8.14399C7.57423 10.5727 5.76204 13.5681 4.48541 16.0965C2.71681 19.5963 2.45525 21.4957 4.08685 25.1512C5.15175 27.5363 9.92822 36.0431 11.5972 37.6435C12.7244 38.7271 14.1255 39.2751 15.6824 39.381C19.6555 39.6612 26.0698 39.6737 30.0305 39.381C32.7208 39.1817 34.0908 38.1106 35.5729 35.9621C37.298 33.4649 42.5539 24.4973 42.803 21.8507C42.8591 21.2466 42.8404 20.244 42.7595 19.6461C42.4419 17.2735 37.7401 9.57631 36.2331 7.22232C34.2839 4.18954 33.2937 2.91291 29.4389 2.67004C25.5841 2.42717 19.8361 2.42094 16.0374 2.71986L16.0311 2.71363Z" fill="white"/>
<path d="M29.8256 32.0884C29.4021 32.8793 28.7794 34.8472 27.8702 35.1336L19.2825 35.6568C17.9436 35.4762 15.8013 35.993 14.6181 35.3827C13.9144 35.0216 12.9055 33.1159 12.4198 32.3562C10.8007 29.8278 9.30607 27.2123 7.73052 24.6528C7.45028 23.3949 8.75805 22.1245 9.04452 20.9412C8.50272 19.5027 7.40669 19.073 8.11662 17.348C8.90751 15.4237 10.5952 12.6525 11.6538 10.7344C12.1333 9.85634 13.41 7.20343 14.095 6.76128C14.587 6.44368 15.3903 6.30045 15.9819 6.25686C19.5316 5.97662 23.5545 6.29422 27.154 6.15099C28.2936 6.3565 28.5241 7.8075 29.2091 8.57348C29.7758 8.88485 31.8059 8.45516 32.6529 8.71671C33.2071 8.88485 33.7302 9.83143 34.0478 10.3047C35.5985 12.6027 37.8839 16.1149 39.0858 18.5499C40.0137 20.4306 39.5654 20.9537 38.6935 22.6787C37.2114 25.6118 35.2435 28.4889 33.6866 31.4034C32.7027 32.5306 31.1147 31.9078 29.8318 32.1009L29.8256 32.0884ZM16.1812 7.04152C15.3903 7.1287 14.7551 7.28439 14.2009 7.89468L8.65841 17.8835C8.42799 18.388 9.54894 20.1939 9.89145 20.3932C10.1343 20.5302 10.4706 20.5551 10.7508 20.58C13.3851 20.798 17.8066 20.7606 20.4719 20.58C21.6302 20.5053 22.3277 20.4057 23.0563 19.428L28.2251 9.96843C28.4929 9.20868 27.6397 7.19721 26.8551 7.02284C23.4362 7.19721 19.544 6.65542 16.1812 7.03529V7.04152ZM31.4198 9.42664C30.5791 9.45155 29.838 9.47646 29.29 10.1428C28.4618 11.1454 24.4762 18.251 24.0216 19.4965C23.4362 21.1032 24.2022 21.8131 24.9682 23.1022C26.2822 25.3129 28.2251 28.7754 29.7446 30.7121C30.5542 31.7397 32.3539 31.5653 33.1573 30.5627C34.4028 29.0183 36.981 23.9117 37.9524 21.9252C38.7309 20.3372 38.9052 20.2126 38.0521 18.5374C37.0432 16.5633 34.1973 11.7931 32.8646 10.1428C32.3913 9.55742 32.1983 9.40173 31.4323 9.42664H31.4198ZM19.6188 21.3647C16.4801 21.4394 13.329 21.6325 10.1966 21.8006C9.52403 21.9501 8.40931 23.8744 8.71446 24.5594C10.6512 27.2933 12.1645 30.5129 14.0639 33.2467C14.7364 34.2182 14.9918 34.7662 16.2933 34.897C19.6001 34.623 22.9941 34.7413 26.2946 34.4486C27.9387 34.3054 28.9537 33.0537 28.8416 31.4594C27.154 28.9498 25.7341 26.2221 24.0403 23.7187C22.4398 21.346 22.5955 21.2962 19.6188 21.3647Z" fill="white"/>
<path d="M24.5762 9.23373C24.1714 13.1259 19.4198 11.0771 16.8105 11.6936C16.6175 11.787 15.4405 14.0413 15.4592 14.2282C15.4716 14.3589 15.6024 14.6018 15.6958 14.6018H21.369C21.369 14.6018 21.6742 14.3465 21.7427 14.6765C21.8174 15.0315 20.6217 16.9869 20.1734 16.9869H11.6604C11.6604 16.9869 11.3677 16.7752 11.4985 16.6818C12.8312 14.6392 13.7902 12.005 15.1416 10.0184C15.291 9.80044 15.7581 9.22751 15.9947 9.22751H24.5824L24.5762 9.23373Z" fill="white"/>
<path d="M33.3881 19.9823L32.5661 21.4707C32.1924 21.0597 31.688 20.5116 31.744 19.92C31.7689 19.6896 33.3196 16.8374 33.5624 16.5011C33.6621 16.3579 33.8427 16.0528 34.0544 16.1026L36.4395 19.8391L36.5143 20.4867L32.7591 27.4864L32.2671 27.885L27.8269 20.8292L27.7148 20.0633L31.8312 12.8207C32.429 13.0947 33.0144 14.1472 32.9335 14.8135C32.7778 16.0714 30.5608 18.5811 30.2806 20.0259C30.293 20.2003 31.8686 22.8158 32.0554 23.0151C32.3979 23.37 32.4228 23.37 32.7653 23.0151C32.865 22.9154 34.0856 20.8977 34.1042 20.7732C34.1354 20.5864 33.5998 19.8204 33.3818 19.9823H33.3881Z" fill="white"/>
<path d="M18.5712 24.7963C19.4741 24.7651 20.0035 24.5285 20.6885 25.2758C21.6537 26.322 23.9455 30.3138 24.6928 31.7212C24.7675 31.8644 25.1349 32.3066 24.8796 32.4436C24.3316 32.7363 22.0959 32.6117 21.3611 32.6553C20.0907 32.7301 18.5961 32.9605 17.3381 32.9729C16.8586 32.9729 16.3978 32.9854 16.0677 32.5868L11.8517 25.9047C11.6649 25.5249 11.6213 25.145 12.107 25.0516C12.8543 24.9146 14.1123 25.0952 14.953 25.0516C16.1424 25.0018 17.3755 24.8336 18.5774 24.79L18.5712 24.7963ZM19.0071 27.1876C18.5525 26.814 16.4102 26.9634 15.775 27.1565C15.5197 27.5613 17.3879 30.1207 17.7055 30.6501C18.2971 30.6874 21.0559 31.086 20.7819 30.127C20.7383 29.9588 19.1378 27.2997 19.0071 27.1876Z" fill="white"/>
</svg>
