<svg width="329" height="47" viewBox="0 0 329 47" fill="none" xmlns="http://www.w3.org/2000/svg">
<g clip-path="url(#clip0_337_81)">
<mask id="mask0_337_81" style="mask-type:luminance" maskUnits="userSpaceOnUse" x="0" y="0" width="329" height="47">
<path d="M329 0H0V47H329V0Z" fill="white"/>
</mask>
<g mask="url(#mask0_337_81)">
<mask id="mask1_337_81" style="mask-type:luminance" maskUnits="userSpaceOnUse" x="2" y="-1" width="325" height="48">
<path d="M326.353 -0.244141H2.57495V46.4266H326.353V-0.244141Z" fill="white"/>
</mask>
<g mask="url(#mask1_337_81)">
<path d="M62.3838 35.7762V11.0312H71.7777C74.2828 11.0312 76.4746 11.6577 78.3534 13.2238C80.2323 14.79 80.8585 16.6693 80.8585 18.8619C80.8585 21.3677 79.919 23.2471 78.3534 24.4999C76.7879 25.753 74.2828 27.0058 71.4647 27.0058H67.0807V35.7762H62.3838ZM67.3938 22.6206H71.4647C72.7172 22.6206 73.6565 22.3074 74.2828 21.6809C74.909 21.0545 75.2221 20.1148 75.2221 19.1751C75.2221 18.2355 74.909 17.2958 74.2828 16.6693C73.6565 15.7297 72.7172 15.4164 71.4647 15.4164H67.0807V22.6206H67.3938Z" fill="white"/>
<path d="M90.5669 23.5594C90.5669 20.1141 91.8194 16.9818 94.3243 14.476C96.8294 11.9702 99.9608 10.7173 103.718 10.7173C107.163 10.7173 110.294 11.9702 113.112 14.476C115.617 16.9818 117.183 20.1141 116.87 23.5594C116.87 27.005 115.617 30.1373 113.112 32.6431C110.607 35.1489 107.476 36.4017 103.718 36.4017C100.274 36.4017 97.1427 35.1489 94.3243 32.6431C91.5062 30.1373 90.5669 27.005 90.5669 23.5594ZM111.86 23.5594C111.86 21.0537 111.233 19.1744 109.668 17.6083C108.102 16.0421 106.223 15.4157 103.718 15.4157C101.526 15.4157 99.6475 16.0421 98.082 17.6083C96.5164 19.1744 95.8901 21.0537 95.8901 23.5594C95.8901 26.0653 96.5164 27.9448 98.082 29.5108C99.6475 31.0769 101.526 31.7034 103.718 31.7034C105.91 31.7034 107.789 31.0769 109.355 29.5108C110.92 27.6315 111.86 25.7522 111.86 23.5594Z" fill="white"/>
<path d="M128.767 35.7762V11.0312H133.777V31.3909H144.737V36.0894H128.767V35.7762Z" fill="white"/>
<path d="M172.29 11.0312L163.835 26.066V35.7762H158.825V26.066L150.371 11.0312H156.007L161.643 20.7413L166.967 11.0312H172.29Z" fill="white"/>
<path d="M190.453 35.7762V12.9106H181.373V11.0312H201.413V12.9106H192.332V36.0894H190.453V35.7762Z" fill="white"/>
<path d="M232.415 35.7762H230.223L221.768 24.8132H215.506V36.0894H213.627V11.0312H222.082C224.273 11.0312 226.152 11.6577 227.405 12.9106C228.657 14.1635 229.597 15.7297 229.597 17.9222C229.597 19.8016 228.97 21.0545 228.031 22.3074C227.091 23.5602 225.526 24.1867 223.96 24.4999L232.415 35.7762ZM215.506 12.9106V22.9338H221.768C223.647 22.9338 224.9 22.6206 225.839 21.6809C226.778 20.7413 227.405 19.4884 227.405 17.9222C227.405 16.3561 226.778 15.1032 225.839 14.1635C224.9 13.2238 223.647 12.9106 221.768 12.9106H215.506Z" fill="white"/>
<path d="M261.846 35.7755L259.341 29.8241H246.191L243.686 35.7755H241.806L252.454 10.7173H253.394L264.039 35.7755H261.846ZM253.079 14.1628L247.443 28.258H259.029L253.079 14.1628Z" fill="white"/>
<path d="M276.564 35.7762V11.0312H283.452C287.523 11.0312 290.968 12.2842 293.473 14.4767C295.978 16.6693 297.23 19.8016 297.23 23.2471C297.23 27.0058 295.978 29.8248 293.473 32.3306C290.968 34.8364 287.835 35.7762 283.452 35.7762H276.564ZM278.755 34.2099H283.765C287.21 34.2099 290.028 33.2704 292.22 31.0778C294.413 29.1983 295.35 26.3792 295.35 23.5602C295.35 20.428 294.413 17.9222 292.22 16.0429C290.028 14.1635 287.523 13.2238 283.765 13.2238H278.755V34.2099Z" fill="white"/>
<path d="M310.381 35.7762V11.0312H326.037V12.9106H312.574V21.6809H323.219V23.5602H312.574V34.2099H326.664V36.0894H310.381V35.7762Z" fill="white"/>
<path d="M23.8676 17.6105L41.0898 27.6338C42.0293 28.2601 43.2819 27.6338 43.2819 26.3808V12.2857C43.2819 11.6592 42.9686 11.346 42.3423 11.0328L23.5545 0.0698796C23.2414 -0.243345 22.6151 -0.243345 22.302 0.0698796L3.5141 11.0328C2.88782 11.0328 2.57471 11.6592 2.57471 12.2857V17.2973L22.302 6.02118C22.9282 5.70794 23.2414 5.70794 23.8676 6.02118L37.6454 13.8518C38.2717 14.1651 38.5849 14.7915 38.5849 15.1047V20.1163L23.8676 11.6592C23.2414 11.346 22.9282 11.346 22.302 11.6592L3.5141 22.6221C2.88782 22.9354 2.57471 23.5618 2.57471 23.875V33.8982C2.57471 34.5247 2.88782 34.838 3.20096 35.1513L7.58479 37.6571V27.0073C7.58479 26.3808 7.89793 26.0676 8.5242 25.7543L22.302 17.9238C22.9802 17.4309 23.2414 17.2973 23.8676 17.6105Z" fill="white"/>
<path d="M23.8687 40.1638C23.2425 40.4768 22.9294 40.4768 22.3031 40.1638L12.9092 34.8389V39.8505C12.9092 40.4768 13.2223 40.79 13.5355 41.1033L22.3031 46.1149C22.9294 46.4281 23.2425 46.4281 23.8687 46.1149L43.596 34.8389L39.2121 32.3331C38.5858 32.0198 38.2728 32.0198 37.6465 32.3331L23.8687 40.1638Z" fill="white"/>
<path d="M23.8647 34.5285L32.006 29.8301C32.6323 29.5169 32.6323 28.8904 32.006 28.5771L23.8647 23.5655C23.2384 23.2523 22.9253 23.2523 22.299 23.5655L13.8445 28.2638C13.2182 28.5771 13.2182 29.2036 13.8445 29.5169L21.9859 34.2152C22.6121 34.8417 23.2384 34.8417 23.8647 34.5285Z" fill="white"/>
</g>
</g>
</g>
<defs>
<clipPath id="clip0_337_81">
<rect width="329" height="47" fill="white"/>
</clipPath>
</defs>
</svg>
