<svg width="129" height="43" viewBox="0 0 129 43" fill="none" xmlns="http://www.w3.org/2000/svg">
<path d="M88.1206 0.424367C88.394 0.660282 88.5323 0.99777 88.5323 1.43028C88.5323 1.88573 88.394 2.2396 88.1173 2.49189C87.8406 2.74419 87.4519 2.87198 86.9546 2.87198H86.1706V3.99257H85.2812V0.0704956H86.9546C87.4585 0.0704956 87.8472 0.188453 88.1206 0.427644V0.424367ZM87.4849 1.96109C87.6166 1.84641 87.6858 1.6793 87.6858 1.45977C87.6858 1.24024 87.6199 1.07969 87.4849 0.968281C87.3531 0.860154 87.1588 0.801175 86.9084 0.801175H86.1706V2.12819H86.9084C87.1588 2.12819 87.3531 2.07249 87.4849 1.95781V1.96109Z" fill="white"/>
<path d="M94.5461 0.272259C94.8689 0.449195 95.1225 0.688386 95.3102 0.996385C95.498 1.30438 95.5902 1.64843 95.5902 2.02523C95.5902 2.40204 95.498 2.74608 95.3102 3.05736C95.1225 3.36863 94.8689 3.6111 94.5461 3.78804C94.2233 3.96497 93.8642 4.05344 93.4689 4.05344C93.0737 4.05344 92.7146 3.96497 92.3918 3.78804C92.069 3.6111 91.8154 3.36863 91.6276 3.06064C91.4432 2.75264 91.3477 2.40859 91.3477 2.02523C91.3477 1.64187 91.4399 1.30438 91.6276 0.996385C91.8121 0.688386 92.069 0.445918 92.3885 0.272259C92.708 0.0953231 93.0704 0.0101318 93.4657 0.0101318C93.8609 0.0101318 94.22 0.0985997 94.5428 0.272259H94.5461ZM92.8727 0.94396C92.685 1.05209 92.5368 1.20281 92.4281 1.39613C92.3194 1.58617 92.2667 1.79587 92.2667 2.02523C92.2667 2.25459 92.3227 2.46757 92.4347 2.65762C92.5466 2.84766 92.6949 2.99838 92.8793 3.10978C93.0638 3.22119 93.268 3.27689 93.4854 3.27689C93.7028 3.27689 93.9037 3.22119 94.0849 3.10978C94.2661 2.99838 94.411 2.84766 94.5197 2.65762C94.6284 2.4643 94.6811 2.2546 94.6811 2.02196C94.6811 1.78932 94.6284 1.58617 94.5197 1.39285C94.4143 1.20281 94.2694 1.05209 94.0849 0.940683C93.9037 0.832556 93.7028 0.773577 93.4854 0.773577C93.268 0.773577 93.0638 0.829279 92.876 0.940683L92.8727 0.94396Z" fill="white"/>
<path d="M101.461 0.319516C101.777 0.486622 102.021 0.715983 102.195 1.01415C102.37 1.31232 102.456 1.64981 102.456 2.0299C102.456 2.40998 102.367 2.75075 102.189 3.04564C102.011 3.34381 101.76 3.57317 101.441 3.74027C101.121 3.90738 100.756 3.9893 100.347 3.9893H98.707V0.0704956H100.38C100.782 0.0704956 101.141 0.15241 101.457 0.319516H101.461ZM100.996 3.09479C101.171 2.99321 101.306 2.84904 101.405 2.66555C101.504 2.48206 101.553 2.27236 101.553 2.03645C101.553 1.80053 101.5 1.59083 101.398 1.40407C101.293 1.2173 101.154 1.07313 100.977 0.968281C100.799 0.866707 100.594 0.814281 100.37 0.814281H99.6063V3.24551H100.413C100.631 3.24551 100.828 3.19308 101.003 3.09151L100.996 3.09479Z" fill="white"/>
<path d="M107.861 0.923015C107.68 0.831271 107.495 0.785399 107.311 0.785399C107.09 0.785399 106.886 0.837824 106.701 0.945951C106.517 1.05408 106.372 1.20153 106.266 1.38829C106.161 1.57506 106.108 1.78148 106.108 2.01084C106.108 2.2402 106.161 2.44663 106.266 2.63667C106.372 2.82344 106.517 2.97416 106.701 3.08556C106.886 3.19697 107.087 3.25267 107.311 3.25267C107.488 3.25267 107.666 3.21007 107.851 3.12816C108.032 3.04624 108.197 2.93156 108.338 2.79067L108.862 3.35752C108.651 3.57377 108.404 3.74743 108.121 3.87194C107.838 3.99973 107.551 4.06199 107.268 4.06199C106.882 4.06199 106.53 3.97352 106.214 3.79658C105.898 3.61965 105.65 3.3739 105.469 3.0659C105.288 2.75463 105.199 2.41059 105.199 2.0305C105.199 1.65042 105.291 1.31293 105.476 1.00493C105.66 0.696931 105.914 0.45774 106.234 0.280804C106.553 0.103868 106.909 0.0186768 107.301 0.0186768C107.587 0.0186768 107.867 0.0776554 108.144 0.195613C108.424 0.31357 108.658 0.474123 108.855 0.673994L108.338 1.30638C108.203 1.14582 108.045 1.02131 107.861 0.926292V0.923015Z" fill="white"/>
<path d="M114.793 3.99257L114.483 3.22913H112.658L112.349 3.99257H111.43L113.143 0.0704956H114.062L115.748 3.99257H114.796H114.793ZM112.951 2.51811H114.197L113.577 0.994494L112.951 2.51811Z" fill="white"/>
<path d="M120.628 0.871573C120.4 0.799488 120.206 0.763445 120.045 0.763445C119.883 0.763445 119.768 0.792935 119.679 0.84536C119.59 0.901062 119.544 0.982977 119.544 1.0911C119.544 1.22872 119.61 1.33685 119.738 1.40893C119.867 1.48102 120.068 1.55638 120.338 1.63502C120.608 1.71366 120.832 1.79229 121.006 1.87093C121.181 1.94957 121.333 2.06753 121.454 2.2248C121.58 2.38208 121.639 2.58851 121.639 2.84736C121.639 3.10621 121.573 3.31263 121.438 3.49284C121.306 3.67306 121.122 3.81067 120.888 3.90569C120.657 4.00072 120.391 4.04659 120.094 4.04659C119.775 4.04659 119.462 3.99089 119.152 3.87948C118.842 3.76808 118.576 3.61408 118.352 3.42076L118.707 2.69663C118.905 2.87685 119.136 3.02102 119.396 3.12914C119.656 3.23727 119.893 3.2897 120.107 3.2897C120.292 3.2897 120.433 3.25693 120.539 3.18812C120.644 3.11931 120.694 3.02429 120.694 2.8965C120.694 2.79493 120.657 2.71302 120.588 2.64748C120.519 2.58195 120.43 2.52953 120.325 2.48693C120.216 2.44434 120.071 2.39846 119.883 2.34604C119.613 2.27068 119.392 2.19531 119.221 2.12323C119.05 2.04787 118.902 1.93646 118.78 1.78246C118.655 1.62846 118.595 1.42532 118.595 1.17302C118.595 0.937104 118.658 0.730679 118.786 0.553744C118.915 0.376808 119.093 0.239191 119.32 0.14417C119.551 0.0491488 119.817 0 120.12 0C120.391 0 120.657 0.0393191 120.921 0.117957C121.184 0.196595 121.418 0.301446 121.619 0.43251L121.277 1.16647C121.072 1.04196 120.858 0.943658 120.631 0.871573H120.628Z" fill="white"/>
<path d="M124.402 0.0704956H127.7V0.820835H126.494V3.99257H125.605V0.820835H124.406V0.0704956H124.402Z" fill="white"/>
<path d="M36.517 7.25564V20.3096C36.517 20.6667 36.2239 20.9583 35.8648 20.9583H33.065C32.706 20.9583 32.4128 20.6667 32.4128 20.3096C32.4128 19.746 31.7441 19.4511 31.3225 19.8312C30.3739 20.6897 29.1288 21.1189 27.5839 21.1189C26.0391 21.1189 24.7281 20.6241 23.7893 19.6379C22.8506 18.6516 22.3828 17.3115 22.3828 15.624V7.25564C22.3828 6.89849 22.676 6.60687 23.035 6.60687H25.8612C26.2202 6.60687 26.5134 6.89849 26.5134 7.25564V14.451C26.5134 15.3586 26.7538 16.0697 27.238 16.5841C27.719 17.0985 28.381 17.3574 29.221 17.3574C30.2059 17.341 30.9799 16.9937 31.5531 16.3154C32.1229 15.6404 32.4128 14.7689 32.4128 13.7007V7.25564C32.4128 6.89849 32.706 6.60687 33.065 6.60687H35.8648C36.2239 6.60687 36.517 6.89849 36.517 7.25564Z" fill="white"/>
<path d="M48.7079 19.9558C48.7079 19.7231 48.4312 19.6019 48.2567 19.7625C47.8548 20.136 47.3772 20.4374 46.8304 20.6668C46.0596 20.9879 45.1768 21.1452 44.1755 21.1452C42.657 21.1452 41.4481 20.7323 40.5555 19.9066C39.6628 19.0777 39.2148 17.9997 39.2148 16.6661C39.2148 15.3325 39.6925 14.2611 40.651 13.5042C41.6062 12.7506 42.96 12.3607 44.7124 12.3443H48.4115C48.5597 12.3443 48.6783 12.223 48.6783 12.0789C48.6783 11.3121 48.4246 10.7224 47.9141 10.303C47.4035 9.88683 46.6591 9.67713 45.6742 9.67713C44.5246 9.67713 43.3092 9.98513 42.0279 10.5978C41.6688 10.7682 41.2373 10.6142 41.0726 10.2505L40.5192 9.03492C40.2788 8.51066 40.5126 7.88811 41.043 7.65547C41.8368 7.30815 42.5911 7.03947 43.3092 6.84615C44.3105 6.58075 45.4107 6.44641 46.6064 6.44641C48.5366 6.44641 50.0321 6.89858 51.096 7.8062C52.16 8.71381 52.7002 9.9753 52.7199 11.5939L52.7463 20.1C52.7463 20.5718 52.3642 20.9551 51.8899 20.9551H49.706C49.1493 20.9551 48.698 20.5063 48.698 19.9525L48.7079 19.9558ZM47.5551 17.5966C48.171 17.1936 48.5432 16.689 48.675 16.0796C48.6783 16.0599 48.6816 16.037 48.6816 16.0173V15.0344C48.6816 14.8869 48.5597 14.7689 48.4148 14.7689H45.4371C44.6333 14.7689 44.0371 14.9 43.655 15.1556C43.2697 15.4144 43.0786 15.8273 43.0786 16.3941C43.0786 16.961 43.2795 17.3869 43.6814 17.7146C44.0833 18.0423 44.6333 18.2094 45.3284 18.2094C46.1881 18.2094 46.9292 18.0062 47.5551 17.5966Z" fill="white"/>
<path d="M69.2891 7.94021C70.2443 8.93629 70.7219 10.2699 70.7219 11.9409V20.2962C70.7219 20.6599 70.4255 20.9548 70.0599 20.9548H67.2534C66.8878 20.9548 66.5914 20.6599 66.5914 20.2962V13.1402C66.5914 12.2325 66.3377 11.5182 65.8272 10.994C65.3166 10.4697 64.6249 10.2076 63.7487 10.2076C62.7309 10.224 61.9239 10.5779 61.3376 11.2627C60.748 11.9475 60.4548 12.8223 60.4548 13.8905V20.2995C60.4548 20.6632 60.1583 20.9581 59.7927 20.9581H56.9863C56.6207 20.9581 56.3242 20.6632 56.3242 20.2995V7.26196C56.3242 6.89826 56.6207 6.60336 56.9863 6.60336H59.7927C60.1583 6.60336 60.4548 6.89826 60.4548 7.26196C60.4548 7.82553 61.1235 8.13025 61.5484 7.76C62.5267 6.90481 63.8245 6.46902 65.4418 6.44281C67.0492 6.44281 68.3338 6.94085 69.2891 7.93693V7.94021Z" fill="white"/>
<path d="M82.9875 19.3644C83.1258 19.8526 82.8755 20.3637 82.4045 20.5603C82.0948 20.6914 81.7687 20.7995 81.4295 20.888C80.7773 21.0551 80.1185 21.1403 79.4597 21.1403C78.1191 21.1403 77.0288 20.7569 76.1888 19.9935C75.3489 19.23 74.9273 18.1357 74.9273 16.7136V11.0713C74.9273 10.5209 74.476 10.072 73.9226 10.072C73.3692 10.072 72.918 9.62307 72.918 9.07261V8.24363C72.918 7.69316 73.3692 7.24427 73.9226 7.24427C74.476 7.24427 74.9273 6.79538 74.9273 6.24491V4.29862C74.9273 3.74815 75.3785 3.29926 75.9319 3.29926H78.0235C78.5769 3.29926 79.0282 3.74815 79.0282 4.29862V6.24491C79.0282 6.79538 79.4795 7.24427 80.0328 7.24427H81.9367C82.4934 7.24427 82.9414 7.69316 82.9414 8.24363V9.09882C82.9414 9.64929 82.4934 10.0982 81.9367 10.0982H80.0328C79.4795 10.0982 79.0282 10.5471 79.0282 11.0975V16.019C79.0282 17.1232 79.4663 17.6737 80.3425 17.6737C80.6784 17.6737 81.0342 17.6212 81.4064 17.5131C81.9433 17.3558 82.5033 17.6638 82.6548 18.2012L82.9875 19.3677V19.3644Z" fill="white"/>
<path d="M99.4116 7.25564V20.3096C99.4116 20.6667 99.1184 20.9583 98.7594 20.9583H95.9595C95.6005 20.9583 95.3073 20.6667 95.3073 20.3096C95.3073 19.746 94.6354 19.4511 94.217 19.8312C93.2684 20.6897 92.0233 21.1189 90.4784 21.1189C88.9336 21.1189 87.6226 20.6241 86.6839 19.6379C85.7451 18.6516 85.2773 17.3115 85.2773 15.624V7.25564C85.2773 6.89849 85.5705 6.60687 85.9295 6.60687H88.7557C89.1148 6.60687 89.4079 6.89849 89.4079 7.25564V14.451C89.4079 15.3586 89.6484 16.0697 90.1326 16.5841C90.6135 17.0985 91.2756 17.3574 92.1155 17.3574C93.1004 17.341 93.8745 16.9937 94.4476 16.3154C95.0208 15.6404 95.3073 14.7689 95.3073 13.7007V7.25564C95.3073 6.89849 95.6005 6.60687 95.9595 6.60687H98.7594C99.1184 6.60687 99.4116 6.89849 99.4116 7.25564Z" fill="white"/>
<path d="M126.292 7.92428C127.231 8.91053 127.698 10.2507 127.698 11.9381V20.3032C127.698 20.6637 127.405 20.9553 127.043 20.9553H124.253C123.891 20.9553 123.597 20.6637 123.597 20.3032V13.1406C123.597 12.2166 123.347 11.4958 122.846 10.9813C122.346 10.4669 121.667 10.2081 120.807 10.2081C119.823 10.2244 119.045 10.5718 118.475 11.25C117.902 11.925 117.616 12.7966 117.616 13.8647V20.3098C117.616 20.6702 117.322 20.9618 116.96 20.9618H114.167C113.805 20.9618 113.511 20.6702 113.511 20.3098V13.1472C113.511 12.2395 113.264 11.5252 112.774 11.001C112.279 10.4767 111.608 10.2146 110.748 10.2146C109.763 10.231 108.982 10.5783 108.403 11.2566C107.823 11.9315 107.533 12.8031 107.533 13.8713V20.3163C107.533 20.6768 107.24 20.9684 106.877 20.9684H104.058C103.696 20.9684 103.402 20.6768 103.402 20.3163V7.25913C103.402 6.8987 103.696 6.60709 104.058 6.60709H106.877C107.24 6.60709 107.533 6.8987 107.533 7.25913C107.533 7.81615 108.195 8.12087 108.617 7.75062C109.578 6.90526 110.843 6.46947 112.415 6.44653C113.63 6.44653 114.658 6.73487 115.498 7.31483C116.018 7.67525 116.446 8.12087 116.782 8.66478C117.026 9.06125 117.609 9.08091 117.873 8.69755C118.268 8.12415 118.749 7.65887 119.319 7.30172C120.205 6.75126 121.262 6.46619 122.497 6.44653C124.088 6.44653 125.353 6.9413 126.292 7.92755H126.289L126.292 7.92428Z" fill="white"/>
<path d="M7.73828 39.649V24.3735C7.73828 24.0426 8.00838 23.7739 8.34107 23.7739H9.15467C9.44783 23.7739 9.72122 23.9279 9.87274 24.1802L16.7043 35.6253C16.7801 35.7531 16.6879 35.9137 16.5396 35.9137H16.1971C16.0488 35.9137 15.9566 35.7531 16.0324 35.6253L22.7619 24.2031C22.92 23.9377 23.2065 23.7706 23.5195 23.7706H24.3594C24.6624 23.7706 24.9095 24.0164 24.9095 24.3178L24.9293 39.4065C24.9293 39.6424 24.7349 39.8357 24.4977 39.8357H23.2263C22.943 39.8357 22.7124 39.6064 22.7124 39.3246L22.6927 27.424C22.6927 27.3192 22.7783 27.2307 22.8837 27.2307C23.032 27.2307 23.1242 27.3913 23.0484 27.519L16.9942 37.6437C16.9053 37.7912 16.7472 37.8796 16.5759 37.8796H16.062C15.894 37.8796 15.7359 37.7912 15.6503 37.647L9.54994 27.519C9.47418 27.3913 9.56641 27.2307 9.71463 27.2307H9.76075C9.86615 27.2307 9.9518 27.3159 9.9518 27.4207V39.6391C9.9518 39.744 9.86615 39.8292 9.76075 39.8292H7.92933C7.82392 39.8292 7.73828 39.744 7.73828 39.6391V39.649Z" fill="white"/>
<path d="M30.5528 25.3406C30.1213 25.3406 29.7656 25.203 29.479 24.9278C29.1957 24.6526 29.0508 24.3151 29.0508 23.9186C29.0508 23.5221 29.1924 23.1617 29.479 22.8865C29.7623 22.6113 30.1213 22.4736 30.5528 22.4736C30.9843 22.4736 31.3401 22.608 31.6266 22.8734C31.9099 23.1421 32.0548 23.473 32.0548 23.8727C32.0548 24.2725 31.9165 24.6329 31.6398 24.918C31.3631 25.1998 31.0008 25.3439 30.5561 25.3439L30.5528 25.3406ZM29.4461 38.8893V28.6369C29.4461 28.1094 29.8743 27.6801 30.4079 27.6801H30.701C31.2314 27.6801 31.6629 28.1061 31.6629 28.6369V38.8893C31.6629 39.4169 31.2347 39.8461 30.701 39.8461H30.4079C29.8776 39.8461 29.4461 39.4202 29.4461 38.8893Z" fill="white"/>
<path d="M42.4204 27.559C43.4218 27.559 44.3012 27.7523 45.0621 28.1324C45.823 28.5158 46.4192 29.0957 46.8507 29.8756C47.2822 30.6554 47.4963 31.6417 47.4963 32.8376V39.2958C47.4963 39.5939 47.2526 39.8364 46.9528 39.8364H45.8757C45.5496 39.8364 45.2861 39.5743 45.2861 39.2499V33.0899C45.2861 31.9136 44.9962 31.0257 44.4198 30.4293C43.8434 29.833 43.0331 29.5348 41.9856 29.5348C41.2016 29.5348 40.5165 29.6888 39.9335 29.9935C39.3472 30.3015 38.8992 30.7504 38.583 31.3468C38.2668 31.9431 38.1119 32.6869 38.1119 33.5716V38.8272C38.1119 39.3842 37.6574 39.8364 37.0974 39.8364H36.8504C36.3234 39.8364 35.8984 39.4104 35.8984 38.8895V28.7681C35.8984 28.1652 36.3892 27.6737 36.9986 27.6737C37.5652 27.6737 38.023 28.1291 38.023 28.6927V30.4785C38.023 30.5768 37.8847 30.6062 37.8451 30.5112L37.6903 30.1213C37.6804 30.0951 37.6804 30.0689 37.6936 30.046C38.0922 29.2694 38.7016 28.66 39.5218 28.2242C40.3518 27.7818 41.3202 27.559 42.4303 27.559H42.427H42.4204Z" fill="white"/>
<path d="M56.6553 39.9761C55.4695 39.9761 54.4122 39.714 53.4833 39.1963C52.5544 38.6753 51.8199 37.9479 51.2797 37.0141C50.7395 36.0803 50.4727 34.9924 50.4727 33.7572C50.4727 32.5219 50.7428 31.4341 51.2797 30.5101C51.8166 29.5828 52.5511 28.8619 53.4833 28.341C54.4155 27.82 55.4728 27.5611 56.6553 27.5611C57.6863 27.5611 58.6152 27.7905 59.4453 28.2492C60.2754 28.7079 60.9407 29.396 61.4414 30.3135C61.9421 31.2309 62.1924 32.381 62.1924 33.7572C62.1924 35.1333 61.952 36.2834 61.4645 37.2009C60.9803 38.1183 60.3215 38.8097 59.4914 39.2782C58.6613 39.7468 57.716 39.9794 56.6553 39.9794V39.9761ZM56.8398 38.0495C57.6106 38.0495 58.3056 37.8726 58.9281 37.522C59.5507 37.1714 60.0448 36.6701 60.4038 36.018C60.7662 35.366 60.9473 34.6156 60.9473 33.7572C60.9473 32.8987 60.7662 32.132 60.4038 31.4963C60.0415 30.8607 59.5507 30.3692 58.9281 30.0153C58.3056 29.6647 57.6106 29.4878 56.8398 29.4878C56.069 29.4878 55.3542 29.6647 54.7416 30.0153C54.1256 30.3692 53.6348 30.8607 53.2659 31.4963C52.897 32.132 52.7125 32.8856 52.7125 33.7572C52.7125 34.6287 52.897 35.366 53.2659 36.018C53.6348 36.6701 54.1256 37.1681 54.7416 37.522C55.3575 37.8758 56.0559 38.0495 56.8398 38.0495ZM61.0165 39.8385V36.5554L61.1548 33.7342L60.9243 30.9131V22.8134H63.1378V39.8451H61.0165V39.8385Z" fill="white"/>
<path d="M70.848 39.9809C69.8334 39.9809 68.8683 39.8433 67.9526 39.568C67.4684 39.4238 67.0369 39.26 66.6647 39.0798C66.164 38.8406 65.9697 38.2344 66.2266 37.7462L66.2463 37.7036C66.4901 37.2416 67.0567 37.0483 67.5277 37.2711C67.867 37.4317 68.2425 37.5791 68.6542 37.7102C69.4217 37.9559 70.2089 38.0772 71.0094 38.0772C72.0404 38.0772 72.7815 37.933 73.236 37.6414C73.6906 37.3498 73.9179 36.9435 73.9179 36.4258C73.9179 36.0424 73.7795 35.7442 73.5029 35.5313C73.2262 35.3183 72.8605 35.1577 72.406 35.0496C71.9514 34.9415 71.4474 34.8465 70.8941 34.7645C70.3407 34.6793 69.7873 34.5745 69.2339 34.4434C68.6806 34.3156 68.1733 34.1322 67.7121 33.893C67.251 33.6571 66.8821 33.3261 66.6054 32.9067C66.3287 32.484 66.1904 31.9237 66.1904 31.2193C66.1904 30.5148 66.3979 29.8431 66.8129 29.2926C67.2279 28.7422 67.8175 28.3162 68.5784 28.018C69.3393 27.7199 70.2452 27.5692 71.2893 27.5692C72.0898 27.5692 72.9001 27.6642 73.7235 27.8542C74.0991 27.9427 74.4449 28.0475 74.7578 28.1655C75.3112 28.3785 75.5484 29.024 75.2684 29.5449C75.0214 30.0004 74.4614 30.1773 73.9871 29.9676C73.6873 29.8333 73.3777 29.7284 73.0648 29.6596C72.4653 29.522 71.8658 29.4532 71.2663 29.4532C70.2979 29.4532 69.5732 29.6105 69.0989 29.925C68.6213 30.2396 68.3841 30.6393 68.3841 31.1308C68.3841 31.5437 68.5257 31.8615 68.8123 32.0843C69.0956 32.3071 69.4678 32.4775 69.9191 32.5987C70.3736 32.7199 70.8776 32.8248 71.431 32.91C71.9844 32.9952 72.5377 33.1033 73.0911 33.2311C73.6445 33.3622 74.1485 33.5424 74.603 33.7717C75.0576 34.0011 75.4265 34.3222 75.7098 34.735C75.9931 35.1479 76.138 35.6984 76.138 36.3865C76.138 37.1204 75.9239 37.7561 75.4924 38.2902C75.0609 38.8275 74.4548 39.2436 73.6708 39.5418C72.8869 39.84 71.9481 39.9907 70.8545 39.9907H70.8578L70.848 39.9809Z" fill="white"/>
<path d="M20.4388 22.1729C20.7682 22.7627 20.5738 23.5032 20.0007 23.8669C19.5362 24.1651 19.029 24.4174 18.4855 24.6238C17.5368 24.9842 16.6112 25.1645 15.7087 25.1645C14.4669 25.1645 13.3371 24.8171 12.3193 24.1192C11.3311 23.441 10.5043 22.4973 9.83894 21.2817C9.80271 21.2129 9.73354 21.1736 9.65448 21.1703C7.85929 21.1179 6.23539 20.6788 4.78277 19.8531C3.29392 19.0077 2.12458 17.8609 1.27475 16.416C0.424916 14.971 0 13.3655 0 11.6027C0 9.83985 0.438091 8.20484 1.31427 6.75003C2.19046 5.29522 3.38615 4.15497 4.90135 3.32599C6.41656 2.49702 8.11293 2.08417 9.99046 2.08417C11.868 2.08417 13.5446 2.49702 15.0664 3.32599C16.5882 4.15497 17.7905 5.29522 18.6666 6.75003C19.5428 8.20484 19.9809 9.82019 19.9809 11.6027C19.9809 13.6473 19.4111 15.4756 18.2681 17.0909C17.1877 18.6178 15.768 19.7286 14.0123 20.4265C13.8674 20.4822 13.8246 20.6723 13.9366 20.7804C14.6645 21.5012 15.4123 21.8617 16.1797 21.8617C16.6211 21.8617 17.1284 21.7339 17.6949 21.4783C17.998 21.344 18.3043 21.1769 18.6172 20.9835C19.0817 20.6952 19.6976 20.859 19.9645 21.3341L20.4289 22.1729H20.4388ZM5.08911 14.5909C5.61284 15.4887 6.31115 16.203 7.18734 16.7338C8.06352 17.2613 9.01546 17.5267 10.0465 17.5267C11.0775 17.5267 12.0162 17.2679 12.8792 16.7469C13.7389 16.2259 14.4208 15.5116 14.9248 14.604C15.4287 13.6964 15.6824 12.697 15.6824 11.6027C15.6824 10.5083 15.4287 9.54168 14.9248 8.64062C14.4208 7.74284 13.7356 7.03182 12.8792 6.51084C12.0393 6.00297 11.1203 5.74412 10.1189 5.73101C9.06816 5.71791 8.02728 5.99969 7.12804 6.54033C6.26504 7.05803 5.5799 7.75922 5.07593 8.64062C4.56208 9.53841 4.30515 10.5279 4.30515 11.6027C4.30515 12.6774 4.56537 13.6898 5.08911 14.5909Z" fill="white"/>
<path d="M128.788 33.8534C125.883 33.8403 125.069 35.413 124.193 36.9498C123.784 37.6641 123.201 38.2735 122.002 38.2833C120.747 38.2932 120.006 37.7329 119.545 36.9465C119.143 36.2617 118.837 35.5441 118.452 34.8527C118.326 34.6267 118.185 34.3023 117.773 34.3383C117.381 34.3744 117.328 34.6988 117.249 34.9412C116.887 36.052 117.118 37.1857 117.032 38.3063C116.973 39.0894 116.907 39.8692 116.495 40.5966C116.136 41.2257 115.583 41.8089 114.588 41.8384C113.583 41.8712 113.007 41.3175 112.592 40.6949C111.775 39.4662 111.58 38.0966 111.083 36.799C110.826 36.1339 110.596 35.4622 110.144 34.8527C109.828 34.4235 109.393 34.0795 108.682 34.1745C108.036 34.2597 107.753 34.6365 107.648 35.1051C107.476 35.8423 107.279 36.5795 107.094 37.3135C106.923 38.0114 106.406 38.5029 105.447 38.5782C104.541 38.6503 103.925 38.2113 103.491 37.6739C102.967 37.0284 102.763 36.2846 102.433 35.5769C102.157 34.9805 102.091 34.0598 100.958 34.145C99.9562 34.2236 100.164 35.0788 100.045 35.6522C99.7586 37.0481 99.6631 38.4668 99.192 39.843C99.0175 40.3476 98.8132 40.8456 98.4344 41.288C97.5714 42.2939 96.2209 42.2841 95.3941 41.2585C94.373 39.9872 94.1062 38.5553 93.8921 37.1169C93.7834 36.3731 93.7077 35.6227 93.2729 34.9281C92.9764 34.4563 92.5548 34.0631 91.8005 34.0991C91.0165 34.1352 91.0363 34.6824 90.9078 35.0788C90.6674 35.8357 90.5093 36.6123 90.0283 37.3102C89.7154 37.7656 89.274 38.1457 88.5164 38.113C87.7687 38.0802 87.3207 37.7034 87.1132 37.2119C86.7871 36.4452 86.5533 35.6555 86.2436 34.8822C86.1119 34.5546 85.9538 34.1712 85.4234 34.1122C84.8569 34.05 84.6691 34.4465 84.4221 34.7315C83.1605 36.1798 82.3107 36.2715 80.6934 35.0952C80.0247 34.607 79.356 34.1352 78.414 33.9582C78.2131 33.9222 78.0187 33.8534 78.0319 33.6928C78.0385 33.6142 78.2098 33.4897 78.3283 33.47C79.4944 33.2734 80.219 32.6116 81.0557 32.0611C82.3008 31.2387 83.256 31.3468 84.1981 32.3953C84.3068 32.5165 84.399 32.6411 84.5044 32.7623C84.712 33.0048 84.8997 33.2996 85.3477 33.2898C85.8681 33.28 86.0526 32.9425 86.1745 32.6509C86.461 31.9628 86.6652 31.2583 86.9255 30.567C87.1626 29.9313 87.5283 29.3186 88.5527 29.2924C89.5211 29.2694 89.9592 29.8428 90.226 30.4326C90.5191 31.0847 90.7003 31.7695 90.9408 32.4346C91.0692 32.7885 91.0956 33.2308 91.7247 33.2996C92.3769 33.3717 92.8249 33.0736 93.1312 32.6804C93.6912 31.9628 93.7637 31.1469 93.8855 30.3442C94.0799 29.0499 94.3137 27.7655 95.0779 26.5761C95.4798 25.9503 95.9739 25.3506 96.9983 25.3801C98.0161 25.4129 98.4838 26.0453 98.8132 26.6809C99.6828 28.3749 99.7125 30.1836 100.075 31.9497C100.18 32.4674 100.042 33.1981 100.994 33.2702C101.91 33.339 102.054 32.6312 102.301 32.1299C102.661 31.4025 102.947 30.6489 103.359 29.9379C103.748 29.2694 104.429 28.7517 105.487 28.8304C106.577 28.9123 106.989 29.5512 107.167 30.2852C107.338 30.9929 107.539 31.7007 107.69 32.4117C107.789 32.8737 108.135 33.1653 108.715 33.2341C109.311 33.3062 109.736 33.0474 110.042 32.6771C110.553 32.0545 110.82 31.3632 111.067 30.6653C111.468 29.5217 111.804 28.3651 112.295 27.2412C112.658 26.4123 113.211 25.5866 114.627 25.5636C115.592 25.5505 116.525 26.4712 116.811 27.5754C117.131 28.8042 117.022 30.0493 117.065 31.2878C117.088 31.9137 116.982 32.8901 117.717 32.9851C118.587 33.0932 118.666 32.1168 118.982 31.5598C119.268 31.0585 119.473 30.5145 119.855 30.0558C120.958 28.7288 123.024 28.7911 124.008 30.1672C124.427 30.7505 124.753 31.3697 125.165 31.9562C125.774 32.8213 126.65 33.4242 128.047 33.47C128.277 33.4766 128.515 33.5061 128.798 33.8599H128.794L128.788 33.8534Z" fill="url(#paint0_linear_3573_11214)"/>
<defs>
<linearGradient id="paint0_linear_3573_11214" x1="78.0312" y1="33.7071" x2="128.798" y2="33.7071" gradientUnits="userSpaceOnUse">
<stop offset="0.305" stop-color="#08C1F0"/>
<stop offset="0.71" stop-color="#B560FF"/>
</linearGradient>
</defs>
</svg>
