<svg width="16" height="16" viewBox="0 0 16 16" fill="none" xmlns="http://www.w3.org/2000/svg">
<path d="M13.5136 10.8432L13.9839 8.12338C14.1014 7.44406 13.579 6.82272 12.8903 6.82272H9.43627C9.09394 6.82272 8.83325 6.51544 8.88867 6.17724L9.33045 3.48087C9.40222 3.04282 9.38172 2.59459 9.27027 2.16494C9.17794 1.80901 8.90333 1.52322 8.54219 1.4072L8.44555 1.37615C8.22728 1.30604 7.98906 1.32235 7.78328 1.42151C7.55678 1.53066 7.39108 1.72974 7.32966 1.96651L7.01252 3.18908C6.91161 3.57807 6.76463 3.95355 6.57511 4.30833C6.29821 4.8267 5.87009 5.24156 5.42507 5.62505L4.46591 6.45158C4.19547 6.68462 4.05345 7.03362 4.08422 7.38952L4.62566 13.6513C4.67533 14.2257 5.15553 14.6666 5.73138 14.6666H8.83046C11.1513 14.6666 13.132 13.0495 13.5136 10.8432Z" fill="url(#paint0_linear_3358_4588)"/>
<path fill-rule="evenodd" clip-rule="evenodd" d="M1.97844 6.32347C2.24595 6.31193 2.47507 6.51317 2.49814 6.77993L3.14587 14.2709C3.18748 14.7521 2.80846 15.1669 2.32447 15.1669C1.86859 15.1669 1.5 14.797 1.5 14.342V6.82301C1.5 6.55525 1.71093 6.33501 1.97844 6.32347Z" fill="url(#paint1_linear_3358_4588)"/>
<defs>
<linearGradient id="paint0_linear_3358_4588" x1="9.04028" y1="1.33325" x2="9.04028" y2="14.6666" gradientUnits="userSpaceOnUse">
<stop offset="0.0885417" stop-color="white" stop-opacity="0.3"/>
<stop offset="1" stop-color="white"/>
</linearGradient>
<linearGradient id="paint1_linear_3358_4588" x1="2.3245" y1="6.323" x2="2.3245" y2="15.1669" gradientUnits="userSpaceOnUse">
<stop offset="0.0885417" stop-color="white" stop-opacity="0.3"/>
<stop offset="1" stop-color="white"/>
</linearGradient>
</defs>
</svg>
