<svg width="146" height="58" viewBox="0 0 146 58" fill="none" xmlns="http://www.w3.org/2000/svg">
<g clip-path="url(#clip0_3311_9042)">
<path d="M131.259 -2.10479e-07C130.964 0.175586 130.908 0.430984 130.972 0.750232C131.483 3.63144 131.985 6.51266 132.488 9.38589C132.64 10.2558 132.8 11.1338 132.951 12.0037C133.023 12.3868 133.007 12.4028 132.6 12.4187L124.036 12.6342C123.9 12.6342 123.765 12.6342 123.629 12.6582C123.102 12.73 122.943 13.1051 123.254 13.5281C123.613 14.015 123.988 14.4859 124.363 14.9647C128.609 20.4638 132.863 25.9548 137.117 31.4539C137.301 31.6933 137.476 31.9727 137.852 31.821C138.131 31.7093 138.187 31.4858 138.107 31.0149C137.588 28.0459 137.061 25.0689 136.543 22.0919C136.407 21.3178 136.271 20.5516 136.136 19.7854C136.072 19.4502 136.104 19.4103 136.455 19.4023L145.083 19.1868H145.394C145.625 19.1788 145.841 19.1469 145.953 18.9075C146.072 18.66 145.953 18.4685 145.817 18.2769C145.522 17.9018 145.226 17.5107 144.939 17.1436C140.621 11.5648 136.311 5.9859 131.993 0.407041C131.874 0.247417 131.754 0.0877929 131.578 -0.0159626H131.267L131.259 -2.10479e-07Z" fill="#601DFF"/>
<path d="M145.506 36.2825C145.506 36.5858 145.402 36.921 145.211 37.2802L134.875 55.1421C134.572 55.7008 134.101 56.1637 133.47 56.5547C132.856 56.9378 132.297 57.1294 131.77 57.1294H121.842C121.075 57.1294 120.684 56.8022 120.684 56.1397C120.684 55.8364 120.78 55.5012 120.972 55.1421L130.158 39.2595C130.35 38.9083 130.445 38.5731 130.445 38.2698C130.445 37.6074 130.078 37.2802 129.328 37.2802C128.777 37.2802 128.203 37.4717 127.596 37.8548C126.989 38.2459 126.519 38.7088 126.183 39.2595L125.266 40.8478L117.005 55.1421C116.702 55.7008 116.231 56.1637 115.6 56.5547C114.994 56.9378 114.427 57.1294 113.9 57.1294H103.972C103.206 57.1294 102.814 56.8022 102.814 56.1397C102.814 55.8364 102.91 55.5012 103.11 55.1421L122.336 21.8924C122.496 21.6131 122.664 21.3896 122.823 21.222C122.847 21.1981 122.863 21.1821 122.879 21.1661C123.127 20.9347 123.374 20.815 123.621 20.815C123.717 20.815 123.813 20.8309 123.893 20.8788C124.124 21.1821 124.364 21.4854 124.595 21.7887C126.559 24.3347 128.53 26.8807 130.493 29.4187C130.94 29.9933 130.988 30.7835 130.629 31.414L129.767 32.9224C129.767 32.9224 129.759 32.9623 129.751 32.9783C129.687 33.1778 129.599 33.3694 129.496 33.5529C129.328 33.8323 129.248 34.0957 129.248 34.3431C129.248 34.375 129.248 34.4069 129.256 34.4389C129.296 35.0055 129.711 35.2928 130.485 35.2928H144.388C145.131 35.2928 145.506 35.6201 145.506 36.2825Z" fill="white"/>
<path d="M105.87 43.2341H95.941C95.1668 43.2341 94.7837 42.9069 94.7837 42.2445C94.7837 41.9412 94.8795 41.614 95.0711 41.2548L96.2283 39.2675C96.4199 38.9083 96.5157 38.5811 96.5157 38.2778C96.5157 37.6154 96.1405 37.2881 95.3983 37.2881C94.8476 37.2881 94.265 37.4797 93.6584 37.8708C93.0518 38.2619 92.5809 38.7248 92.2537 39.2755L89.9791 43.2501C89.7556 43.6093 89.6439 43.9365 89.6439 44.2398C89.6439 44.9022 90.0269 45.2294 90.8011 45.2294H104.696C105.471 45.2294 105.854 45.5567 105.854 46.2191C105.854 46.5224 105.742 46.8496 105.526 47.2088L100.937 55.1501C100.634 55.7008 100.163 56.1717 99.5326 56.5547C98.926 56.9378 98.3593 57.1374 97.8405 57.1374H70.042C69.2679 57.1374 68.8848 56.8101 68.8848 56.1477C68.8848 55.8444 68.9805 55.5172 69.1721 55.158L71.4866 51.1834C71.7899 50.6327 72.2448 50.1618 72.8514 49.7787C73.4819 49.3956 74.0805 49.1961 74.6312 49.1961H84.5598C85.3021 49.1961 85.6772 49.5233 85.6772 50.1858C85.6772 50.489 85.5814 50.8163 85.3899 51.1754L84.2326 53.1627C84.0411 53.5219 83.9453 53.8491 83.9453 54.1524C83.9453 54.8148 84.3204 55.1421 85.0627 55.1421C85.6134 55.1421 86.196 54.9505 86.8026 54.5595C87.4331 54.1764 87.904 53.7055 88.2072 53.1548L90.5218 49.1801C90.7133 48.821 90.8091 48.4937 90.8091 48.1905C90.8091 47.528 90.426 47.2008 89.6518 47.2008H75.7566C75.0143 47.2008 74.6392 46.8736 74.6392 46.2111C74.6392 45.9078 74.735 45.5806 74.9265 45.2215L79.5157 37.2802C79.819 36.7295 80.2739 36.2586 80.8805 35.8755C81.511 35.4924 82.1096 35.2928 82.6603 35.2928H110.459C111.201 35.2928 111.576 35.6201 111.576 36.2825C111.576 36.5858 111.48 36.913 111.289 37.2722L108.974 41.2468C108.671 41.7975 108.2 42.2684 107.57 42.6515C106.963 43.0346 106.396 43.2341 105.878 43.2341H105.87Z" fill="white"/>
<path d="M66.4753 35.2928H76.404C77.1462 35.2928 77.5213 35.6201 77.5213 36.2825C77.5213 36.5858 77.4255 36.913 77.234 37.2722L66.8904 55.1421C66.5871 55.6928 66.1162 56.1637 65.4857 56.5468C64.8791 56.9299 64.3124 57.1294 63.7937 57.1294H35.9952C35.221 57.1294 34.8379 56.8022 34.8379 56.1397C34.8379 55.8364 34.9337 55.5092 35.1252 55.1501L45.4688 37.2802C45.7721 36.7295 46.2271 36.2586 46.8336 35.8755C47.4641 35.4924 48.0627 35.2928 48.6134 35.2928H58.542C59.2843 35.2928 59.6594 35.6201 59.6594 36.2825C59.6594 36.5858 59.5636 36.913 59.3721 37.2722L50.1937 53.1548C50.0022 53.5139 49.9064 53.8411 49.9064 54.1444C49.9064 54.8069 50.2815 55.1341 51.0238 55.1341C51.5745 55.1341 52.1571 54.9425 52.7637 54.5515C53.3942 54.1684 53.8651 53.6975 54.1683 53.1468L63.3547 37.2642C63.658 36.7135 64.1129 36.2426 64.7195 35.8595C65.35 35.4764 65.9486 35.2769 66.4993 35.2769L66.4753 35.2928Z" fill="white"/>
<path d="M13.7356 35.2928H41.5341C42.3083 35.2928 42.6914 35.6201 42.6914 36.2825C42.6914 36.5858 42.5797 36.913 42.3642 37.2722L40.0895 41.2468C39.7863 41.7975 39.3154 42.2684 38.6849 42.6515C38.0783 43.0346 37.4957 43.2341 36.945 43.2341H27.0163C26.2741 43.2341 25.899 42.9069 25.899 42.2445C25.899 41.9412 25.9948 41.614 26.1863 41.2548L27.3436 39.2675C27.5351 38.9083 27.6309 38.5811 27.6309 38.2778C27.6309 37.6154 27.2478 37.2881 26.4736 37.2881C25.9469 37.2881 25.3722 37.4797 24.7337 37.8708C24.1272 38.2539 23.6722 38.7248 23.3689 39.2755L14.1906 55.158C13.8873 55.7087 13.4164 56.1796 12.7859 56.5627C12.1793 56.9458 11.5967 57.1454 11.046 57.1454H1.11737C0.375116 57.1454 0 56.8181 0 56.1557C0 55.8524 0.0957744 55.5252 0.287323 55.166L10.5831 37.2961C10.9103 36.7454 11.3812 36.2745 11.9878 35.8914C12.5943 35.5083 13.177 35.3088 13.7277 35.3088L13.7356 35.2928Z" fill="white"/>
<path d="M105.136 23.0497L102.39 23.7201V0.981687H112.207V30.4323H99.5247L84.9112 7.73378L87.6567 7.06336V30.4323H77.8398V0.981687H90.921L105.136 23.0497Z" fill="white"/>
<path d="M51.9974 13.584H61.8941C62.8917 13.584 63.6579 13.3446 64.2086 12.8737C64.7593 12.4028 65.0307 11.7244 65.0307 10.8305C65.0307 9.93659 64.7593 9.25819 64.2086 8.7873C63.6579 8.31641 62.8837 8.07697 61.8941 8.07697H50.5847L55.142 3.51971V30.4243H45.0059V0.981687H63.4664C65.8208 0.981687 67.88 1.39671 69.6358 2.23473C71.4156 3.04882 72.7884 4.18215 73.7621 5.65069C74.7598 7.11923 75.2546 8.84316 75.2546 10.8385C75.2546 12.8338 74.7598 14.4939 73.7621 15.9863C72.7964 17.4549 71.4156 18.5882 69.6358 19.4023C67.88 20.2164 65.8288 20.6234 63.4664 20.6234H51.9974V13.592V13.584ZM55.4532 16.6488H66.6429L76.4198 30.4323H64.8312L55.4453 16.6488H55.4532Z" fill="white"/>
<path d="M19.9685 17.9018H28.9633L41.6055 32.7867H32.2995L19.9685 17.9018ZM25.0366 31.1426C21.453 31.1426 18.3084 30.5041 15.6108 29.2192C12.9371 27.9342 10.862 26.1464 9.3695 23.8398C7.87702 21.5093 7.13477 18.8037 7.13477 15.707C7.13477 12.6103 7.87702 9.92062 9.3695 7.61406C10.862 5.28355 12.9451 3.4798 15.6108 2.19483C18.3084 0.909856 21.453 0.27136 25.0366 0.27136C28.6201 0.27136 31.7488 0.909856 34.4225 2.19483C37.1201 3.4798 39.2112 5.28355 40.7037 7.61406C42.1962 9.92062 42.9384 12.6183 42.9384 15.707C42.9384 18.7957 42.1962 21.5093 40.7037 23.8398C39.2112 26.1464 37.1201 27.9342 34.4225 29.2192C31.7488 30.5041 28.6201 31.1426 25.0366 31.1426ZM25.0366 22.1079C26.6328 22.1079 28.0056 21.8605 29.1629 21.3657C30.3122 20.8389 31.1901 20.1126 31.7967 19.1628C32.4272 18.1971 32.7384 17.0399 32.7384 15.707C32.7384 14.3741 32.4272 13.2328 31.7967 12.291C31.1981 11.3253 30.3201 10.591 29.1629 10.0882C28.0136 9.56147 26.6328 9.30607 25.0366 9.30607C23.4403 9.30607 22.0676 9.56945 20.9103 10.0882C19.761 10.5831 18.8671 11.3173 18.2366 12.291C17.638 13.2328 17.3347 14.3741 17.3347 15.707C17.3347 17.0399 17.638 18.1971 18.2366 19.1628C18.8671 20.1046 19.753 20.8389 20.9103 21.3657C22.0596 21.8605 23.4403 22.1079 25.0366 22.1079Z" fill="white"/>
</g>
<defs>
<clipPath id="clip0_3311_9042">
<rect width="146" height="57.1294" fill="white"/>
</clipPath>
</defs>
</svg>
