<svg width="239" height="54" viewBox="0 0 239 54" fill="none" xmlns="http://www.w3.org/2000/svg">
<rect width="238.165" height="53.871" rx="8.77719" fill="#1D0C39"/>
<mask id="mask0_4266_1672" style="mask-type:luminance" maskUnits="userSpaceOnUse" x="14" y="9" width="210" height="36">
<path d="M223.537 9.22803H14.6287V44.6433H223.537V9.22803Z" fill="white"/>
</mask>
<g mask="url(#mask0_4266_1672)">
<path d="M221.306 18.3101V20.379H223.524V26.6598C223.524 26.6753 223.318 26.8816 223.302 26.8816H219.237V28.9506H221.306V31.0195H223.524C223.475 31.3803 223.681 33.2363 223.302 33.2363H217.019V31.1674H214.949V28.9506H212.88V33.0145C212.88 33.03 212.673 33.2363 212.658 33.2363H208.666C208.651 33.2363 208.445 33.03 208.445 33.0145V18.3101H221.306ZM219.089 20.5269H212.88V26.7337H217.019V24.6648H219.089V20.5269Z" fill="white"/>
<path d="M168.824 18.3101V20.379H170.893V26.6598C170.893 26.6753 170.687 26.8816 170.672 26.8816H166.606C166.676 27.3016 166.448 28.6792 166.744 28.8862C167.041 29.0933 168.37 28.8655 168.824 28.9506V31.0195H170.893V33.2363H164.61C164.239 33.2363 164.432 31.5134 164.389 31.1666C163.969 31.0971 162.59 31.3264 162.383 31.0291L162.319 28.9506H160.249V33.2363H155.962V18.3101H168.824ZM166.606 20.5269H160.249V26.7337H164.389V24.6648C164.749 24.616 166.606 24.8215 166.606 24.4429V20.5269Z" fill="white"/>
<path d="M63.5632 18.3101V20.379H65.7808V24.6648H63.5632V26.7337H65.7808V30.9456C65.7808 31.3241 63.9241 31.1186 63.5632 31.1674V33.2363H50.8494V18.3101H63.5632ZM61.4936 20.5269H55.1366V24.6648H61.2717C61.2873 24.6648 61.4936 24.4585 61.4936 24.4429V20.5269ZM61.4936 26.8816H55.1366V31.0195H61.4936V26.8816Z" fill="white"/>
<path d="M133.49 18.3101V20.379H135.708V30.9456C135.708 31.3241 133.851 31.1186 133.49 31.1674V33.2363H122.846V31.1674C122.485 31.1186 120.628 31.3241 120.628 30.9456V20.379H122.846V18.3101H133.49ZM131.273 20.5269H125.064V31.0202H131.273V20.5269Z" fill="white"/>
<path d="M142.656 18.3101V31.0202H148.865V18.3101H153.301V30.9463C153.301 31.3249 151.444 31.1193 151.083 31.1681V33.2371H140.439V31.1681H138.369V18.3101H142.656Z" fill="white"/>
<path d="M205.783 18.3101V20.5269H195.139V24.4429C195.139 24.4585 195.346 24.6648 195.361 24.6648H203.714C203.665 25.0256 203.871 26.8816 203.492 26.8816H195.139V31.0195H205.783V33.2363H191.074C191.058 33.2363 190.852 33.03 190.852 33.0145V18.3101H205.783Z" fill="white"/>
<path d="M188.339 18.3101C188.29 18.6709 188.496 20.5269 188.117 20.5269H184.2V31.0202H188.339V33.2371H175.699C175.32 33.2371 175.526 31.3811 175.477 31.0202H179.764V20.5269H175.699C175.32 20.5269 175.526 18.6709 175.477 18.3101H188.339Z" fill="white"/>
<path d="M116.193 18.3101V20.379H118.263V22.5958H114.198C113.826 22.5958 114.019 20.8729 113.976 20.5261L109.921 20.5247C109.658 20.5639 110.047 22.289 109.698 22.5315L107.619 22.5958V28.7287C107.619 29.1073 109.476 28.9017 109.836 28.9506V31.0195H113.976V28.9506H118.263V31.1674H116.193V33.2363H107.619V31.1674H105.549V28.9506H103.332V22.6698C103.332 22.2912 105.188 22.4967 105.549 22.4479V20.379H107.619V18.3101H116.193Z" fill="white"/>
<path d="M83.2257 18.3101C83.1769 18.6709 83.3824 20.5269 83.0038 20.5269H78.9384V31.0202H83.2257V33.2371H70.5857C70.2071 33.2371 70.4127 31.3811 70.3639 31.0202H74.6512V20.5269H70.5857C70.2071 20.5269 70.4127 18.6709 70.3639 18.3101H83.2257Z" fill="white"/>
<path d="M100.818 18.3101C100.77 18.6709 100.975 20.5269 100.597 20.5269H96.6791V33.0152C96.6791 33.0308 96.4728 33.2371 96.4572 33.2371H92.4658C92.4502 33.2371 92.2439 33.0308 92.2439 33.0152V20.5269H88.1785C87.7999 20.5269 88.0055 18.6709 87.9567 18.3101H100.818Z" fill="white"/>
<path d="M40.2044 9.29443V11.2162L42.1269 11.2148C42.1269 12.1856 42.1262 14.367 42.1262 15.0583C40.7693 15.1848 39.3792 15.1937 38.0297 15.0746L37.9661 13.4375L34.3702 13.5055L34.2349 13.2482L30.4468 13.2844V20.9694H36.1382C36.1538 20.9694 36.3601 21.1757 36.3601 21.1912V24.9601H30.4468V38.5569L34.2349 38.5931L34.3702 38.3358L37.9868 38.3928V34.9292L38.2819 34.7148L44.0864 34.6409C44.1722 37.2777 44.1589 39.9138 44.0472 42.5476C43.6539 42.6815 42.6149 42.4508 42.1254 42.5476V44.6166C34.984 44.5537 27.8299 44.7009 20.6892 44.6166C20.5597 44.5744 20.562 44.5256 20.6892 44.4687C20.8304 43.9947 22.4283 44.0147 22.611 44.4687C22.4964 44.468 22.3226 44.4428 22.3152 44.3689C22.1865 43.0453 22.1725 40.1881 22.3152 38.8786L22.611 38.7048L22.4505 39.0006C21.9336 38.9606 21.4449 38.9873 20.9842 39.0804V44.2949L20.6892 44.4687L20.3305 44.4798C20.1153 44.1973 20.1782 38.6856 20.3793 38.3861C20.5501 38.1317 22.2523 38.2012 22.611 38.5576L22.7751 38.2634C24.0662 38.5384 24.5394 38.1436 24.1963 37.0788C23.4488 37.2082 22.9208 37.1098 22.611 36.7837C22.5437 36.15 24.3908 36.1205 24.5328 36.6359C25.1827 36.2654 25.8031 36.2698 26.4546 36.6359L26.1588 36.5338V25.1398L26.4546 24.9601C25.826 25.3631 25.1583 25.3698 24.5328 24.9601C23.2365 25.3764 21.8345 25.3898 20.5413 24.9601C20.1752 23.6262 20.1723 22.3034 20.5413 20.9701C21.8345 20.5405 23.2365 20.5538 24.5328 20.9701C25.094 20.5945 25.6693 20.5856 26.2593 20.8607C26.0649 17.6442 26.215 14.4276 26.4553 11.2162C26.9559 10.9826 27.4979 10.8702 28.0821 10.8798C27.9527 10.133 28.051 9.605 28.3771 9.29443H40.2044Z" fill="white"/>
<path d="M24.5341 24.9602C24.6495 24.9594 24.8277 24.9905 24.8299 25.0622C24.9246 28.4252 24.9416 32.1335 24.8299 35.5023C24.9305 36.0806 24.8321 36.4584 24.5341 36.6351C23.9256 36.6396 23.1048 36.508 22.6123 36.783C23.0826 36.9028 23.0627 38.3957 22.6123 38.5562C21.9239 38.5658 21.3782 38.5495 20.6905 38.5555C20.7889 40.3715 20.6905 41.6892 20.6905 43.5748C20.7001 43.716 20.6905 43.8336 20.6905 44.468V44.6159C19.358 44.6004 18.104 44.6159 16.6594 44.6159L16.699 38.5562H18.6216L18.6201 36.6344L20.5434 36.6359C20.5448 32.7464 20.5389 28.8496 20.5426 24.9594C21.8706 24.9631 23.2061 24.9446 24.5341 24.9594V24.9602Z" fill="#4C4C4C"/>
<path d="M26.4563 9.29466C26.9302 9.4359 26.9103 11.0338 26.4563 11.2157C25.9549 11.4546 25.4129 11.564 24.8295 11.5433V20.7929L24.5345 20.9704C23.2064 20.9844 21.871 20.9667 20.543 20.9704C20.5504 17.7531 20.5201 14.5299 20.5637 11.3111C20.7138 10.8519 22.047 11.1492 22.4655 11.0693C22.5372 10.7299 22.2977 9.39745 22.6127 9.2954C23.8919 9.21924 25.1726 9.21924 26.4563 9.2954V9.29466Z" fill="#4C4C4C"/>
<path d="M38.2826 34.7139L38.2833 38.7053L30.4475 38.5567L34.2918 38.5575L34.2911 34.7139H38.2826Z" fill="#BFBFBF"/>
<path d="M18.6201 20.9697C18.7355 20.983 18.9093 21.0207 18.9159 21.1028C18.9943 22.1055 18.9928 23.7411 18.9159 24.746L18.6201 24.9605C17.2921 24.956 15.9567 24.9634 14.6287 24.9605V20.9705C15.9567 20.9675 17.2921 20.9749 18.6201 20.9705V20.9697Z" fill="#4C4C4C"/>
<path d="M30.4475 13.2849L38.2841 13.1362L38.2826 15.0588H42.1269C41.9929 15.291 35.1851 15.2067 34.2904 15.2067L34.2918 13.2841H30.4475V13.2849Z" fill="#BFBFBF"/>
<path d="M20.5422 20.9699C20.5392 22.2979 20.5436 23.6326 20.5422 24.9599C19.9033 24.9577 19.2592 24.9621 18.6204 24.9599V20.9699C19.2592 20.9677 19.9033 20.9721 20.5422 20.9699Z" fill="#BFBFBF"/>
<path d="M40.2045 9.29459C36.2648 9.3042 32.3169 9.28202 28.3772 9.29459C27.7265 9.66283 27.1069 9.65913 26.4554 9.29459C25.7041 9.29977 23.0784 9.14227 22.6118 9.29459H40.2045Z" fill="#738086"/>
<path d="M24.5342 24.9598C25.1731 24.9665 25.8171 24.9547 26.456 24.9598V36.6348C25.8171 36.6378 25.1731 36.6304 24.5342 36.6348V24.9598Z" fill="#BFBFBF"/>
<path d="M26.456 11.2151C26.456 14.4642 26.456 17.7206 26.4567 20.9697C25.8178 20.9734 25.1731 20.9623 24.5342 20.969V11.2143C25.1723 11.2121 25.8171 11.2188 26.456 11.2151Z" fill="#BFBFBF"/>
<path d="M20.6931 44.6466L20.6924 38.5093L22.6149 38.5101V44.6466H20.6931Z" fill="#BFBFBF"/>
<path d="M28.3779 9.29453V11.2163C27.7397 11.2185 27.0949 11.2119 26.4561 11.2156V9.29453C27.0949 9.29009 27.739 9.29675 28.3779 9.29453Z" fill="#BFBFBF"/>
<path d="M22.6152 36.5869L24.5356 36.588L24.537 38.5834C24.3165 38.5834 22.9031 38.5793 22.6145 38.5834V36.5869H22.6152Z" fill="#BFBFBF"/>
</g>
</svg>
