<svg width="200" height="70" viewBox="0 0 200 70" fill="none" xmlns="http://www.w3.org/2000/svg">
<mask id="mask0_4963_2281" style="mask-type:alpha" maskUnits="userSpaceOnUse" x="64" y="17" width="72" height="36">
<path d="M93.7746 47.5886C87.1699 54.193 76.5865 54.3936 69.7403 48.1902L75.3027 42.6277L85.1415 32.7891L86.9914 34.6388L77.5874 44.043C81.1007 45.5831 85.3487 44.9149 88.2249 42.0389C91.9709 38.2926 91.9709 32.2188 88.2249 28.4725C84.4785 24.7262 78.4046 24.7262 74.6584 28.4725C71.3334 31.7975 70.9595 36.9563 73.5369 40.6938L67.9361 46.2945C62.3226 39.4432 62.7134 29.3176 69.1085 22.9224C75.9199 16.1111 86.9631 16.1111 93.7746 22.9224C100.586 29.7339 100.586 40.7771 93.7746 47.5886Z" fill="#FF3CD4"/>
<path d="M118.58 52.1864C127.92 52.1864 135.546 44.8444 136 35.617H114.219V38.2332H127.519C126.123 41.8063 122.647 44.3377 118.58 44.3377C113.282 44.3377 108.987 40.0429 108.987 34.7447C108.987 29.4468 113.282 25.152 118.58 25.152C123.282 25.152 127.194 28.5354 128.014 33.0008H135.935C135.06 24.187 127.624 17.3032 118.58 17.3032C108.947 17.3032 101.138 25.112 101.138 34.7447C101.138 44.3775 108.947 52.1864 118.58 52.1864Z" fill="#FF3CD4"/>
</mask>
<g mask="url(#mask0_4963_2281)">
<path d="M62.897 16.7104H138.901V53.2394H62.897V16.7104Z" fill="#FDFDFD"/>
</g>
</svg>
