<svg width="200" height="70" viewBox="0 0 200 70" fill="none" xmlns="http://www.w3.org/2000/svg">
<g clip-path="url(#clip0_4959_2164)">
<path d="M134.982 16.5V27.5354C136.687 27.9599 143.585 25.833 144.456 26.8434C145.636 28.209 145.982 40.7069 147 43.2719L146.599 44.6929L87.5651 53.0018C86.5698 52.8818 82.8925 53.846 82.3165 53.357C81.6345 52.7803 80.2706 37.7773 79.9111 35.6874L80.4364 35.1753L86.0629 34.0865H53.5161L53 33.5698V16.5H134.982Z" fill="white"/>
<path d="M65.7461 19.9509L68.5017 19.9463L68.6999 23.4018L71.6029 23.3972L71.5983 19.9463L74.3586 19.9509V29.9483L71.5983 29.9529L71.4002 26.1514L68.4971 26.156L68.5017 29.9529L65.7461 29.9483V19.9509Z" fill="black"/>
<path d="M83.3121 19.9507V22.0221H78.833V23.7522C79.5427 23.8814 82.8282 23.4846 82.9757 23.9506C83.1093 24.3888 82.8789 25.2792 82.9757 25.8236H78.8377V27.8905H83.6623V29.9619H76.082V19.9507H83.3167H83.3121Z" fill="black"/>
<path d="M103.979 19.9507V22.0221H99.5V23.7522C100.21 23.8814 103.495 23.4846 103.643 23.9506C103.776 24.3888 103.546 25.2792 103.643 25.8236H99.5046V27.8905H104.329C104.389 28.218 104.09 29.9619 103.984 29.9619H96.749V19.9507H103.984H103.979Z" fill="black"/>
<path d="M95.3669 19.9507C96.6848 21.2886 91.3855 26.2757 90.8832 27.7059L95.3669 27.8812V29.9527H87.441C87.3534 29.0807 87.4087 28.4948 87.7589 27.6829C88.3626 26.2804 91.4316 23.6738 91.9154 22.5342C92.2149 21.833 91.4362 22.0498 91.0629 22.0221C88.7128 21.8514 87.2889 23.0279 87.7866 19.9553H95.3669V19.9507Z" fill="black"/>
<path d="M64.3683 19.9507V22.3635H61.6127V29.9481H58.8571V22.3635H55.7559V19.9507H64.3683Z" fill="black"/>
<path d="M119.135 19.9507V27.5352H123.273L123.268 29.9481H116.379V19.9507H119.135Z" fill="black"/>
<path d="M127.402 19.9507V27.5398C128.669 27.6506 130.139 27.383 131.37 27.5398C131.849 27.5998 132.36 27.7198 131.877 28.2272C131.48 28.6425 125.734 28.9469 124.646 29.2653V19.9507H127.402Z" fill="black"/>
<path d="M111.868 19.9834L115.002 29.9485L112.458 29.9716C112.527 28.0247 109.689 27.1527 108.504 27.9278C108.039 28.2323 108.435 30.885 105.357 29.9485L108.49 19.988H111.864L111.868 19.9834Z" fill="black"/>
<path d="M110.868 25.8102C110.808 25.8702 109.209 25.8656 109.145 25.8102C108.841 25.5242 109.993 23.3374 109.836 22.71C110.688 22.8161 111.085 25.5934 110.868 25.8148V25.8102Z" fill="white"/>
<path d="M135.669 31.3276C135.13 33.1361 135.111 40.8683 134.323 41.8786C133.798 42.5568 131.987 42.6076 131.351 42.0263L129.125 36.5039L128.425 43.0458L125.665 43.2581L121.55 33.0623L124.605 32.744L126.706 38.9122L127.093 32.398L130.121 32.052L132.213 37.5327L132.711 31.6506L135.66 31.3276H135.669Z" fill="black"/>
<path d="M108.799 34.7783L110.177 45.4677L107.426 45.8183C107.233 45.6246 107.2 42.7873 107.025 42.2475C106.841 41.6801 106.435 41.657 105.892 41.6616C102.279 41.6801 103.929 43.507 103.836 46.1782L100.878 46.5104C101.224 44.6096 99.1777 37.3157 99.9979 36.1393C100.394 35.5718 101.938 35.8625 102.597 35.821L102.947 39.6086C107.26 39.2119 106.375 38.9535 106.048 35.1289L108.799 34.7829V34.7783Z" fill="black"/>
<path d="M98.4679 39.2583C98.3896 39.3644 96.1086 39.9134 95.9243 39.8765C95.5234 39.7934 95.2377 39.1153 94.7722 38.9722C94.0672 38.76 92.1318 38.9999 92.6111 40.121C93.1226 41.3113 98.5324 39.715 99.1315 43.2489C100.058 48.7067 91.6572 49.2049 90.39 45.7956C89.7633 44.107 90.8047 44.1209 92.4313 44.4392C93.4221 44.633 94.293 46.3907 95.9104 45.1497C98.3988 43.2397 93.3898 43.4104 92.5926 43.2443C87.427 42.174 89.39 35.586 95.5188 36.5225C96.4588 36.6655 99.1223 38.3633 98.4679 39.2537V39.2583Z" fill="black"/>
<path d="M115.96 33.4776C123.434 32.6518 124.241 46.0447 115.204 44.7437C110.043 44.0009 109.117 34.2342 115.96 33.4776Z" fill="black"/>
<path d="M115.241 36.2274C119.061 35.0325 119.803 41.4268 117.43 42.2203C113.707 43.4659 112.965 36.9379 115.241 36.2274Z" fill="white"/>
</g>
<defs>
<clipPath id="clip0_4959_2164">
<rect width="94" height="37" fill="white" transform="translate(53 16.5)"/>
</clipPath>
</defs>
</svg>
